<?xml version="1.0" encoding="utf-8"?>
<svg version="1.1" xmlns:xlink="http://www.w3.org/1999/xlink" width="43px" height="42px" xmlns="http://www.w3.org/2000/svg">
  <defs>
    <radialGradient cx="6.217248937900877E-14" cy="2.4158453015843406E-13" r="43.87857467929096" gradientTransform="matrix(0.7429248804626745 0.6693747993385475 -0.6206062439462195 0.6887976960795976 1.6591186799617973E-13 3.3564964774380625E-14 )" gradientUnits="userSpaceOnUse" id="RadialGradient716">
      <stop id="Stop717" stop-color="#adbffc" offset="0" />
      <stop id="Stop718" stop-color="#6274f3" offset="0.83" />
      <stop id="Stop719" stop-color="#5364f1" offset="1" />
    </radialGradient>
    <filter x="7px" y="14px" width="43px" height="42px" filterUnits="userSpaceOnUse" id="filter720">
      <feOffset dx="0" dy="1" in="SourceAlpha" result="shadowOffsetInner" />
      <feGaussianBlur stdDeviation="2" in="shadowOffsetInner" result="shadowGaussian" />
      <feComposite in2="shadowGaussian" operator="atop" in="SourceAlpha" result="shadowComposite" />
      <feColorMatrix type="matrix" values="0 0 0 0 0  0 0 0 0 0  0 0 0 0 0  0 0 0 0.09803921568627451 0  " in="shadowComposite" />
    </filter>
    <g id="widget721">
      <path d="M 0 30.74635223880597  L 19.9335447761194 30.74635223880597  L 19.9335447761194 34  L 0 34  L 0 30.74635223880597  Z M 20.906962686567162 0  C 21.34744029850746 0  21.769895522388058 0.17132802985074627  22.081395522388057 0.47630802985074616  L 32.65280597014925 10.829355223880597  C 33.30067164179104 11.463785074626864  33.30067164179104 12.495202985074627  32.65280597014925 13.13125671641791  L 31.478425373134325 14.283044776119402  L 29.717611940298507 13.707176119402982  L 25.60297014925373 17.731913432835825  L 35 26.934749253731344  L 32.651186567164174 29.235077611940298  L 23.255828358208955 20.03219104477612  L 19.262432835820896 23.94305373134328  L 19.73258208955224 25.78458507462686  L 18.556477611940295 26.934749253731344  C 17.908664179104477 27.569229850746265  16.85714925373134 27.569229850746265  16.207664179104476 26.934749253731344  L 5.636201492537313 16.581749253731346  C 5.324805970149253 16.27666268656716  5.149858208955223 15.862928358208952  5.149858208955223 15.431585074626865  C 5.149858208955223 15.000191044776118  5.324805970149253 14.586507462686566  5.636201492537313 14.281420895522386  L 6.812305970149253 13.13125671641791  L 8.689350746268657 13.590053731343284  L 19.144529850746267 3.3525116417910445  L 18.55814925373134 1.6280925373134325  L 19.73258208955224 0.47630802985074616  C 20.044082089552237 0.17132802985074627  20.466485074626863 0  20.906962686567162 0  Z " fill-rule="nonzero" fill="url(#RadialGradient716)" stroke="none" transform="matrix(1 0 0 1 11 17 )" />
    </g>
  </defs>
  <g transform="matrix(1 0 0 1 -7 -14 )">
    <use xlink:href="#widget721" filter="url(#filter720)" />
    <use xlink:href="#widget721" />
  </g>
</svg>