<?xml version="1.0" encoding="utf-8"?>
<svg version="1.1" xmlns:xlink="http://www.w3.org/1999/xlink" width="38px" height="42px" xmlns="http://www.w3.org/2000/svg">
  <defs>
    <radialGradient cx="-1.0658141036401503E-13" cy="-7.247535904753022E-13" r="46.20119859628074" gradientTransform="matrix(0.4063554860558974 0.913715064422315 -0.6405017959898268 0.2848496525486035 -5.274774459005292E-13 -4.209227418080823E-13 )" gradientUnits="userSpaceOnUse" id="RadialGradient722">
      <stop id="Stop723" stop-color="#adbffc" offset="0" />
      <stop id="Stop724" stop-color="#5364f1" offset="1" />
    </radialGradient>
    <filter x="7px" y="13px" width="38px" height="42px" filterUnits="userSpaceOnUse" id="filter725">
      <feOffset dx="0" dy="1" in="SourceAlpha" result="shadowOffsetInner" />
      <feGaussianBlur stdDeviation="2" in="shadowOffsetInner" result="shadowGaussian" />
      <feComposite in2="shadowGaussian" operator="atop" in="SourceAlpha" result="shadowComposite" />
      <feColorMatrix type="matrix" values="0 0 0 0 0  0 0 0 0 0  0 0 0 0 0  0 0 0 0.09803921568627451 0  " in="shadowComposite" />
    </filter>
    <g id="widget726">
      <path d="M 2.7500104477611944 19.549999999999994  L 2.7500104477611944 28.9  L 27.25 28.9  L 27.25 19.549999999999994  C 27.25 13.005  21.737499999999997 7.6499999999999995  14.999999999999998 7.6499999999999995  C 8.2625 7.6499999999999995  2.7500104477611944 13.005  2.7500104477611944 19.549999999999994  Z M 16.1375 13.939999999999998  C 16.1375 12.155  17.624999999999996 10.709999999999997  19.4625 10.709999999999997  C 21.3 10.709999999999997  22.787499999999998 12.155  22.787499999999998 13.939999999999998  C 22.787499999999998 15.725000000000001  21.3 17.169999999999995  19.4625 17.169999999999995  C 17.624999999999996 17.169999999999995  16.1375 15.725000000000001  16.1375 13.939999999999998  Z M 14.124999999999998 2.974999999999999  C 14.124999999999998 3.6549999999999994  14.737499999999999 4.25  15.437499999999998 4.25  C 16.1375 4.25  16.75 3.6549999999999994  16.75 2.974999999999999  L 16.75 1.275  C 16.75 0.5950000000000001  16.1375 0  15.437499999999998 0  C 14.737499999999999 0  14.124999999999998 0.5950000000000001  14.124999999999998 1.275  L 14.124999999999998 2.974999999999999  Z M 25.0625 5.864999999999998  C 25.5 6.459999999999999  26.374999999999996 6.459999999999999  26.9 5.949999999999998  L 28.124999999999996 4.760000000000001  C 28.65 4.25  28.65 3.4000000000000004  28.124999999999996 2.89  C 27.599999999999998 2.3800000000000003  26.812499999999996 2.3800000000000003  26.287499999999998 2.89  L 25.0625 4.079999999999999  C 24.537499999999998 4.589999999999999  24.537499999999998 5.354999999999999  25.0625 5.864999999999998  Z M 1.8750104477611944 4.760000000000001  L 3.1000104477611945 5.949999999999998  C 3.6250104477611944 6.459999999999999  4.500010447761194 6.459999999999999  5.025010447761194 5.949999999999998  C 5.55 5.44  5.55 4.675000000000001  5.025010447761194 4.164999999999999  L 3.7125104477611943 2.89  C 3.2750104477611943 2.465  2.4000104477611943 2.465  1.8750104477611944 2.89  C 1.3500104477611943 3.4000000000000004  1.3500104477611943 4.25  1.8750104477611944 4.760000000000001  Z M 29.875 32.724999999999994  C 29.875 32.044999999999995  29.2625 31.450000000000003  28.562499999999996 31  L 1.4375104477611944 31  C 0.7375104477611945 31.450000000000003  0.12501274626865722 32.044999999999995  0.12501274626865722 32.724999999999994  C 0.12501274626865722 33.405  0.7375104477611945 34  1.4375104477611944 34  L 28.562499999999996 34  C 29.2625 34  29.875 33.405  29.875 32.724999999999994  Z " fill-rule="nonzero" fill="url(#RadialGradient722)" stroke="none" transform="matrix(1 0 0 1 11 16 )" />
    </g>
  </defs>
  <g transform="matrix(1 0 0 1 -7 -13 )">
    <use xlink:href="#widget726" filter="url(#filter725)" />
    <use xlink:href="#widget726" />
  </g>
</svg>