<?xml version="1.0" encoding="utf-8"?>
<svg version="1.1" xmlns:xlink="http://www.w3.org/1999/xlink" width="25px" height="25px" xmlns="http://www.w3.org/2000/svg">
  <defs>
    <linearGradient gradientUnits="userSpaceOnUse" x1="8.5" y1="0" x2="8.5" y2="17" id="LinearGradient735">
      <stop id="Stop736" stop-color="#3048c2" offset="0" />
      <stop id="Stop737" stop-color="#7e93ff" offset="1" />
    </linearGradient>
    <filter x="83px" y="45px" width="25px" height="25px" filterUnits="userSpaceOnUse" id="filter738">
      <feOffset dx="0" dy="1" in="SourceAlpha" result="shadowOffsetInner" />
      <feGaussianBlur stdDeviation="2" in="shadowOffsetInner" result="shadowGaussian" />
      <feComposite in2="shadowGaussian" operator="atop" in="SourceAlpha" result="shadowComposite" />
      <feColorMatrix type="matrix" values="0 0 0 0 0  0 0 0 0 0  0 0 0 0 0  0 0 0 0.09803921568627451 0  " in="shadowComposite" />
    </filter>
    <g id="widget739">
      <path d="M 8.530769238281248 16.9923076953125  C 13.203947893599798 16.9923076953125  16.992307705078126 13.203947883834172  16.992307705078126 8.530769228515624  C 16.992307705078126 3.8575905731970748  13.203947893599798 0.06923076171874758  8.530769238281248 0.06923076171874758  C 3.857590582962701 0.06923076171874758  0.06923077148437394 3.8575905731970748  0.06923077148437394 8.530769228515624  C 0.06923077148437394 13.203947883834172  3.857590582962701 16.9923076953125  8.530769238281248 16.9923076953125  Z M 8.53076923828125 15.453846152343749  C 4.707259431345495 15.453846152343749  1.6076923144531245 12.354279035451379  1.6076923144531245 8.530769228515624  C 1.6076923144531245 4.707259421579868  4.707259431345495 1.607692304687498  8.53076923828125 1.607692304687498  C 12.354279045217003 1.607692304687498  15.453846162109377 4.707259421579868  15.453846162109377 8.530769228515624  C 15.453846162109377 12.35427903545138  12.354279045217007 15.453846152343749  8.53076923828125 15.453846152343749  Z " fill-rule="nonzero" fill="url(#LinearGradient735)" stroke="none" transform="matrix(1 0 0 1 87 48 )" />
    </g>
  </defs>
  <g transform="matrix(1 0 0 1 -83 -45 )">
    <use xlink:href="#widget739" filter="url(#filter738)" />
    <use xlink:href="#widget739" />
  </g>
</svg>