<?xml version="1.0" encoding="utf-8"?>
<svg version="1.1" xmlns:xlink="http://www.w3.org/1999/xlink" width="13px" height="13px" xmlns="http://www.w3.org/2000/svg">
  <defs>
    <linearGradient gradientUnits="userSpaceOnUse" x1="2.5" y1="0" x2="2.5" y2="5" id="LinearGradient740">
      <stop id="Stop741" stop-color="#3048c2" offset="0" />
      <stop id="Stop742" stop-color="#7e93ff" offset="1" />
    </linearGradient>
    <filter x="97px" y="59px" width="13px" height="13px" filterUnits="userSpaceOnUse" id="filter743">
      <feOffset dx="0" dy="1" in="SourceAlpha" result="shadowOffsetInner" />
      <feGaussianBlur stdDeviation="2" in="shadowOffsetInner" result="shadowGaussian" />
      <feComposite in2="shadowGaussian" operator="atop" in="SourceAlpha" result="shadowComposite" />
      <feColorMatrix type="matrix" values="0 0 0 0 0  0 0 0 0 0  0 0 0 0 0  0 0 0 0.09803921568627451 0  " in="shadowComposite" />
    </filter>
    <g id="widget744">
      <path d="M 0.28414443160076586 1.3626373565051029  C -0.022277814176398618 1.0561225615238183  -0.022277814176398618 0.5592620446624086  0.28414443160076586 0.252747249681124  C 0.5906592265820475 -0.0536749960960405  1.08751974344346 -0.0536749960960405  1.3940345384247446 0.252747249681124  L 4.7237048588966815 3.5824175900829087  C 4.876846457362498 3.7303268142110246  4.96333430389417 3.9341005651455365  4.96333430389417 4.147007793211773  C 4.96333430389417 4.5805123021893115  4.611909464179108 4.931937141904376  4.178404955201566 4.931937141904376  C 3.9654977271353333 4.931937141904376  3.761723976200818 4.8454492953727035  3.613814752072702 4.692307696906887  L 0.28414443160076586 1.3626373565051029  Z M 0.28414443160076586 1.3626373565051029  C 0.5906592265820475 1.6690596022822675  1.08751974344346 1.6690596022822675  1.3940345384247446 1.3626373565051029  C 1.7004567842019065 1.0561225615238183  1.7004567842019065 0.5592620446624086  1.3940345384247446 0.252747249681124  L 4.7237048588966815 3.5824175900829087  C 4.575795634768565 3.429275991617089  4.3720218838340505 3.3427881450854224  4.15911465576782 3.3427881450854224  C 3.7256101467902782 3.3427881450854224  3.3741853070752166 3.694212984800484  3.3741853070752166 4.1277174937780226  C 3.3741853070752166 4.340624721844256  3.4606731536068858 4.544398472778771  3.613814752072702 4.692307696906887  L 0.28414443160076586 1.3626373565051029  Z " fill-rule="nonzero" fill="url(#LinearGradient740)" stroke="none" transform="matrix(1 0 0 1 101 62 )" />
    </g>
  </defs>
  <g transform="matrix(1 0 0 1 -97 -59 )">
    <use xlink:href="#widget744" filter="url(#filter743)" />
    <use xlink:href="#widget744" />
  </g>
</svg>