<?xml version="1.0" encoding="utf-8"?>
<svg version="1.1" xmlns:xlink="http://www.w3.org/1999/xlink" width="30px" height="28px" xmlns="http://www.w3.org/2000/svg">
  <defs>
    <linearGradient gradientUnits="userSpaceOnUse" x1="11" y1="0" x2="11" y2="20" id="LinearGradient761">
      <stop id="Stop762" stop-color="#3048c2" offset="0" />
      <stop id="Stop763" stop-color="#7e93ff" offset="1" />
    </linearGradient>
    <filter x="347px" y="45px" width="30px" height="28px" filterUnits="userSpaceOnUse" id="filter764">
      <feOffset dx="0" dy="1" in="SourceAlpha" result="shadowOffsetInner" />
      <feGaussianBlur stdDeviation="2" in="shadowOffsetInner" result="shadowGaussian" />
      <feComposite in2="shadowGaussian" operator="atop" in="SourceAlpha" result="shadowComposite" />
      <feColorMatrix type="matrix" values="0 0 0 0 0  0 0 0 0 0  0 0 0 0 0  0 0 0 0.09803921568627451 0  " in="shadowComposite" />
    </filter>
    <g id="widget765">
      <path d="M 12.467708333333333 19.392006802721088  C 12.139583333333333 19.766687925170068  11.686458333333333 19.958014455782312  11.230729166666665 19.958014455782312  C 10.840104166666665 19.958014455782312  10.449479166666665 19.8171768707483  10.134374999999999 19.5328443877551  L 7.293229166666665 16.957908163265305  L 2.332291666666667 16.957908163265305  C 1.0666666666666667 16.957908163265305  0.040625 15.910926870748298  0 14.619472789115646  L 0 2.4250637755102042  C 0.040625 1.133609693877551  1.0666666666666667 0.08662840136054421  2.332291666666667 0  L 19.631770833333334 0  C 20.89739583333333 0.08662840136054421  21.9234375 1.133609693877551  22 2.4250637755102042  L 22 14.619472789115646  C 21.9234375 15.910926870748298  20.89739583333333 16.957908163265305  19.631770833333334 16.957908163265305  L 14.584895833333334 16.957908163265305  L 12.467708333333333 19.392006802721088  Z M 2 2.9299532312925196  L 2 14.117240646258505  C 1.6786458333333334 14.76296768707483  2.191666666666667 15.286458333333332  2.824479166666667 15.286458333333332  L 7.405208333333333 15.286458333333332  C 7.733333333333333 15.286458333333332  8.0484375 15.408694727891156  8.295833333333333 15.631909013605442  L 11.222916666666666 18.28125  C 11.228125000000002 18.286564625850342  11.238541666666666 18.286564625850342  11.243749999999999 18.28125  L 13.45208333333333 15.746173469387754  C 13.707291666666665 15.453869047619047  14.071874999999995 15.286458333333337  14.454687499999999 15.286458333333337  L 19.142187499999995 15.286458333333337  C 19.774999999999995 15.286458333333337  20.28802083333333 14.76296768707483  20 14.117240646258507  L 20 2.9299532312925196  C 20.28802083333333 2.2842261904761934  19.774999999999995 1.76073554421769  19.142187499999995 2  L 2.824479166666667 2  C 2.191666666666667 1.76073554421769  1.6786458333333334 2.2842261904761934  2 2.9299532312925196  Z " fill-rule="nonzero" fill="url(#LinearGradient761)" stroke="none" transform="matrix(1 0 0 1 351 48 )" />
    </g>
  </defs>
  <g transform="matrix(1 0 0 1 -347 -45 )">
    <use xlink:href="#widget765" filter="url(#filter764)" />
    <use xlink:href="#widget765" />
  </g>
</svg>