<?xml version="1.0" encoding="utf-8"?>
<svg version="1.1" xmlns:xlink="http://www.w3.org/1999/xlink" width="367px" height="98px" xmlns="http://www.w3.org/2000/svg">
  <defs>
    <radialGradient cx="-64.57142857142696" cy="-15.15037593985026" r="433.7042323806831" gradientTransform="matrix(0.9638944736306285 0.2662845164562382 -0.2662845164562383 0.963894473630629 -6.365695948266896 16.647359336028803 )" gradientUnits="userSpaceOnUse" id="RadialGradient784">
      <stop id="Stop785" stop-color="#7f92fa" stop-opacity="0.7490196078431373" offset="0" />
      <stop id="Stop786" stop-color="#354fd8" offset="1" />
    </radialGradient>
    <linearGradient gradientUnits="userSpaceOnUse" x1="179.5" y1="90" x2="179.5" y2="0" id="LinearGradient787">
      <stop id="Stop788" stop-color="#bfc7f4" offset="0" />
      <stop id="Stop789" stop-color="#7e93ff" stop-opacity="0" offset="1" />
    </linearGradient>
    <filter x="-4px" y="-3px" width="367px" height="98px" filterUnits="userSpaceOnUse" id="filter790">
      <feOffset dx="0" dy="1" in="SourceAlpha" result="shadowOffsetInner" />
      <feGaussianBlur stdDeviation="2" in="shadowOffsetInner" result="shadowGaussian" />
      <feComposite in2="shadowGaussian" operator="atop" in="SourceAlpha" result="shadowComposite" />
      <feColorMatrix type="matrix" values="0 0 0 0 0  0 0 0 0 0  0 0 0 0 0  0 0 0 0.09803921568627451 0  " in="shadowComposite" />
    </filter>
    <g id="widget791">
      <path d="M 0.5 8.000000000000002  A 7.5 7.5 0 0 1 7.999999999999998 0.5 L 351 0.5  A 7.5 7.5 0 0 1 358.5 8 L 358.5 82  A 7.5 7.5 0 0 1 351 89.5 L 8 89.5  A 7.5 7.5 0 0 1 0.5 82 L 0.5 8  Z " fill-rule="nonzero" fill="url(#RadialGradient784)" stroke="none" />
      <path d="M 0.5 8.000000000000002  A 7.5 7.5 0 0 1 7.999999999999998 0.5 L 351 0.5  A 7.5 7.5 0 0 1 358.5 8 L 358.5 82  A 7.5 7.5 0 0 1 351 89.5 L 8 89.5  A 7.5 7.5 0 0 1 0.5 82 L 0.5 8  Z " stroke-width="1" stroke="url(#LinearGradient787)" fill="none" />
    </g>
  </defs>
  <g transform="matrix(1 0 0 1 4 3 )">
    <use xlink:href="#widget791" filter="url(#filter790)" />
    <use xlink:href="#widget791" />
  </g>
</svg>