<?xml version="1.0" encoding="utf-8"?>
<svg version="1.1" xmlns:xlink="http://www.w3.org/1999/xlink" width="40px" height="23px" xmlns="http://www.w3.org/2000/svg">
  <defs>
    <linearGradient gradientUnits="userSpaceOnUse" x1="16" y1="0.3731343283582089" x2="16" y2="15.000000000000004" id="LinearGradient798">
      <stop id="Stop799" stop-color="#3048c2" offset="0" />
      <stop id="Stop800" stop-color="#7e93ff" offset="1" />
    </linearGradient>
    <filter x="8px" y="34px" width="40px" height="23px" filterUnits="userSpaceOnUse" id="filter801">
      <feOffset dx="0" dy="1" in="SourceAlpha" result="shadowOffsetInner" />
      <feGaussianBlur stdDeviation="2" in="shadowOffsetInner" result="shadowGaussian" />
      <feComposite in2="shadowGaussian" operator="atop" in="SourceAlpha" result="shadowComposite" />
      <feColorMatrix type="matrix" values="0 0 0 0 0  0 0 0 0 0  0 0 0 0 0  0 0 0 0.09803921568627451 0  " in="shadowComposite" />
    </filter>
    <g id="widget802">
      <path d="M 31.932835820895523 15  L 0.06716417910447986 14.99561194029851  C 0.28244291044776343 11.864731343283577  0.7173962686567186 7.631455223880597  1.6751634328358231 3.7509477611940274  C 1.872871641791047 2.7499477611940293  2.584609701492539 1.9077014925373135  2.606576119402987 1.8768283582089538  C 2.698840298507464 1.2815149253731342  9.96558208955224 1.2815149253731342  9.96558208955224 1.2815149253731342  L 11.169425373134331 1.1668507462686541  C 10.998082089552241 2.2340373134328324  10.866231343283584 3.8611716417910453  11.327552238805971 5.254641791044772  C 11.920671641791046 7.084671641791044  12.869694029850749 8.901432835820895  14.156962686567166 9.981783582089552  L 14.429335820895524 5.117932835820895  L 16.907231343283584 5.117932835820895  L 17.333395522388063 9.677544776119401  C 18.234044776119404 8.385522388059698  19.284097014925376 6.348208955223878  19.3939552238806 3.755335820895521  C 19.48182089552239 1.7269029850746271  19.98707462686567 0.800865671641791  20.422014925373137 0.3731343283582085  C 23.43149253731343 0.49662686567164016  27.209873134328358 1.0477985074626837  28.72563432835821 1.8812164179104442  C 30.17108208955224 2.674985074626864  30.623574626865672 7.635843283582087  31.932835820895523 15  Z " fill-rule="nonzero" fill="url(#LinearGradient798)" stroke="none" transform="matrix(1 0 0 1 12 37 )" />
    </g>
  </defs>
  <g transform="matrix(1 0 0 1 -8 -34 )">
    <use xlink:href="#widget802" filter="url(#filter801)" />
    <use xlink:href="#widget802" />
  </g>
</svg>