<?xml version="1.0" encoding="utf-8"?>
<svg version="1.1" xmlns:xlink="http://www.w3.org/1999/xlink" width="29px" height="33px" xmlns="http://www.w3.org/2000/svg">
  <defs>
    <linearGradient gradientUnits="userSpaceOnUse" x1="10.216417910447763" y1="0" x2="10.216417910447763" y2="24.55223880597015" id="LinearGradient803">
      <stop id="Stop804" stop-color="#3048c2" offset="0" />
      <stop id="Stop805" stop-color="#7e93ff" offset="1" />
    </linearGradient>
    <filter x="13px" y="14px" width="29px" height="33px" filterUnits="userSpaceOnUse" id="filter806">
      <feOffset dx="0" dy="1" in="SourceAlpha" result="shadowOffsetInner" />
      <feGaussianBlur stdDeviation="2" in="shadowOffsetInner" result="shadowGaussian" />
      <feComposite in2="shadowGaussian" operator="atop" in="SourceAlpha" result="shadowComposite" />
      <feColorMatrix type="matrix" values="0 0 0 0 0  0 0 0 0 0  0 0 0 0 0  0 0 0 0.09803921568627451 0  " in="shadowComposite" />
    </filter>
    <g id="widget807">
      <path d="M 12.582522388059703 23.161432835820893  L 11.639089552238808 24.55223880597015  L 10.063723880597015 24.55223880597015  L 8.804350746268659 23.509134328358208  L 10.695656716417915 21.075276119402982  L 12.582522388059703 23.161432835820893  Z M 17.286313432835822 7.449044776119402  C 18.36321641791045 7.026537313432835  20.752932835820896 5.376052238805969  19.996410447761193 3.8884529850746268  C 19.244328358208953 2.396434328358209  14.865410447761196 0.16061082089552237  10.085977611940299 0.006567723880597015  C 5.311037313432838 -0.15187649253731342  0.25122835820895695 2.590088805970149  0.2913059701492555 4.597051492537313  C 0.3313208955223894 6.599589552238805  2.8367462686567175 7.4622611940298516  2.8367462686567175 7.4622611940298516  C 2.70771641791045 7.849559701492536  2.774425373134329 9.354768656716416  2.774425373134329 9.354768656716416  C 2.774425373134329 9.354768656716416  2.8901343283582106 9.561634328358208  3.1082313432835846 9.852134328358208  C 2.3694701492537327 19.477604477611937  10.878126865671643 19.640485074626863  10.878126865671643 19.640485074626863  C 18.25194776119403 18.88344029850746  17.664522388059705 10.961216417910448  17.59332089552239 9.816925373134328  C 17.566626865671644 9.398805970149253  17.51323880597015 9.064320895522387  17.450917910447764 8.764992537313432  C 17.54437313432836 8.118014925373133  17.286313432835822 7.449044776119402  17.286313432835822 7.449044776119402  Z M 7.420388059701494 3.1490492537313424  C 7.420388059701494 3.1534477611940295  8.083455223880598 3.069823880597015  8.879992537313434 3.135843283582089  C 8.87111194029851 3.074227611940298  8.862231343283582 3.0082082089552236  8.862231343283582 2.9421888059701486  C 8.862231343283582 2.1323619402985075  9.583126865671645 1.472178358208955  10.477611940298509 1.472178358208955  C 11.372097014925373 1.472178358208955  12.092992537313437 2.1323619402985075  12.092992537313437 2.9421888059701486  C 12.092992537313437 3.0434171641791044  12.079671641791048 3.144645522388059  12.057417910447764 3.2458738805970144  C 12.538014925373137 3.201862686567164  13.058679104477612 3.16225  13.530395522388059 3.1534477611940295  C 13.530395522388059 3.1534477611940295  12.186447761194032 3.7740238805970145  11.421044776119405 4.139324626865672  C 11.305335820895522 4.214146268656717  11.18518656716418 4.2713634328358205  11.047223880597016 4.319773134328358  C 11.03834328358209 4.3241768656716415  11.029410447761194 4.332979104477612  11.016089552238807 4.337377611940298  C 11.016089552238807 4.337377611940298  10.971582089552241 4.350583582089552  10.900380597014927 4.359385820895522  C 10.766858208955226 4.394594776119402  10.624455223880599 4.4166029850746265  10.477611940298509 4.4166029850746265  C 10.450917910447762 4.4166029850746265  10.424223880597017 4.407800746268657  10.393037313432838 4.407800746268657  C 10.03702985074627 4.407800746268657  9.583126865671645 4.337377611940298  9.218238805970152 4.033692537313432  C 9.218238805970152 4.033692537313432  8.666388059701495 3.6595895522388053  7.420388059701494 3.1490492537313424  Z M 16.075835820895524 7.365410447761195  L 16.071395522388062 7.365410447761195  L 3.860261194029853 7.365410447761195  L 3.860261194029853 6  L 16.075835820895524 6  L 16.075835820895524 7.365410447761195  Z " fill-rule="nonzero" fill="url(#LinearGradient803)" stroke="none" transform="matrix(1 0 0 1 17 17 )" />
    </g>
  </defs>
  <g transform="matrix(1 0 0 1 -13 -14 )">
    <use xlink:href="#widget807" filter="url(#filter806)" />
    <use xlink:href="#widget807" />
  </g>
</svg>