<?xml version="1.0" encoding="utf-8"?>
<svg version="1.1" xmlns:xlink="http://www.w3.org/1999/xlink" width="40px" height="40px" xmlns="http://www.w3.org/2000/svg">
  <defs>
    <linearGradient gradientUnits="userSpaceOnUse" x1="32" y1="16" x2="0" y2="16" id="LinearGradient808">
      <stop id="Stop809" stop-color="#4c5cff" offset="0" />
      <stop id="Stop810" stop-color="#95a6fe" stop-opacity="0.8" offset="0.37" />
      <stop id="Stop811" stop-color="#387dff" offset="1" />
    </linearGradient>
    <filter x="5px" y="2px" width="40px" height="40px" filterUnits="userSpaceOnUse" id="filter812">
      <feOffset dx="0" dy="1" in="SourceAlpha" result="shadowOffsetInner" />
      <feGaussianBlur stdDeviation="2" in="shadowOffsetInner" result="shadowGaussian" />
      <feComposite in2="shadowGaussian" operator="atop" in="SourceAlpha" result="shadowComposite" />
      <feColorMatrix type="matrix" values="0 0 0 0 0  0 0 0 0 0  0 0 0 0 0  0 0 0 0.09803921568627451 0  " in="shadowComposite" />
    </filter>
    <g id="widget813">
      <path d="M 30.62742456140351 1.3155705263157895  C 30.054175438596488 0.7391623859649122  29.27550877192982 0.4138655438596491  28.46254035087719 1  L 3.5376280701754386 1  C 2.7250021052631577 0.4149574736842105  1.9469978947368423 0.7406035087719299  1.3739284210526315 1.3167719298245613  C 0.8008645614035087 1.8929459649122806  0.47942287719298243 2.6726961403508773  0.4799792280701754 3.485333333333333  L 0.4799792280701754 13.1571649122807  L 2.6660828070175437 13.1571649122807  L 2.6660828070175437 3.9035115789473678  C 2.6660828070175437 3.1851564912280694  3.2457319298245615 2.603441403508772  3.9558063157894736 3  L 28.048505263157892 3  C 28.75856842105263 2.603441403508772  29.338217543859646 3.1851564912280694  29 3.9014399999999996  L 29 28.13698245614035  C 29.338217543859646 28.85327719298245  28.75856842105263 29.437024561403504  28.048505263157892 29  L 3.9516631578947368 29  C 3.6088477192982453 29.434329824561402  3.281038596491228 29.296056140350874  3.039792280701754 29.052519298245613  C 2.7985459649122806 28.808926315789467  2.663455438596491 28.479831578947366  2.664016842105263 28.13698245614035  L 2.664016842105263 18.440308771929825  L 6.816785964912281 18.440308771929825  C 6.960729824561404 18.44126315789474  7.103438596491228 18.41341754385965  7.236435087719298 18.358287719298243  C 7.369431578947368 18.30315789473684  7.489964912280701 18.221922807017545  7.591017543859649 18.11941052631579  L 9.071214035087719 16.63096140350877  L 12.371087719298245 24.37338947368421  C 12.547031578947367 24.775017543859647  12.938273684210523 25.035845614035086  13.418554385964912 25.035845614035086  C 13.640589473684209 25.02630175438596  13.854540350877192 24.949501754385963  14.03194385964912 24.815663157894733  C 14.20940350877193 24.68188070175438  14.342007017543859 24.49729122807017  14.412238596491228 24.286428070175432  L 18.542259649122805 11.83023157894737  L 20.194245614035086 17.647382456140353  C 20.260154385964913 17.87559298245614  20.398259649122807 18.076238596491226  20.587901754385964 18.21917192982456  C 20.77754385964912 18.36216140350877  21.00844912280702 18.43974736842105  21.24592280701754 18.440308771929825  L 25.179228070175437 18.440308771929825  C 25.328729824561403 18.449459649122808  25.478512280701754 18.427957894736846  25.61936842105263 18.377094736842107  C 25.760224561403504 18.326231578947368  25.889122807017543 18.247073684210527  25.998259649122804 18.144449122807018  C 26.107340350877195 18.041880701754387  26.19430175438596 17.9180350877193  26.253698245614036 17.780547368421054  C 26.31315087719298 17.643115789473686  26.343803508771927 17.494905263157893  26.343803508771927 17.34517894736842  C 26.343803508771927 17.19539649122807  26.31315087719298 17.04724210526316  26.253698245614036 16.909754385964913  C 26.19430175438596 16.77232280701754  26.107340350877195 16.648477192982458  25.998259649122804 16.54585263157895  C 25.889122807017543 16.443284210526315  25.760224561403504 16.364070175438595  25.61936842105263 16.31320701754386  C 25.478512280701754 16.262343859649125  25.328729824561403 16.24084210526316  25.179228070175437 16.250049122807017  L 22.07191578947368 16.250049122807017  L 19.670512280701754 7.816140350877192  C 19.607466666666667 7.590961403508771  19.473796491228068 7.391943859649122  19.289094736842102 7.248505263157894  C 19.104449122807015 7.105066666666667  18.87854035087719 7.02478596491228  18.64477192982456 7.019452631578947  C 18.41100350877193 7.014119298245613  18.181670175438594 7.084014035087718  17.99068070175439 7.218919298245614  C 17.7996350877193 7.3537684210526315  17.65698245614035 7.546442105263157  17.58377543859649 7.768533333333333  L 13.246764912280701 20.849964912280704  L 10.445810526315789 14.275087719298243  C 10.375129824561403 14.110821052631579  10.265319298245613 13.966315789473684  10.125922807017544 13.854315789473686  C 9.986526315789472 13.742259649122808  9.821810526315788 13.666077192982456  9.646147368421053 13.632392982456139  C 9.470540350877192 13.598652631578949  9.289319298245614 13.608477192982457  9.11837192982456 13.660968421052631  C 8.947424561403508 13.713459649122806  8.791915789473684 13.80704561403509  8.665431578947368 13.933529824561404  L 6.36339649122807 16.250049122807017  L 1.5688926315789473 16.250049122807017  C 1.4229277192982455 16.25139649122807  1.278680701754386 16.28165614035088  1.1445052631578947 16.339143859649123  C 1.0103298245614034 16.396631578947368  0.8888926315789473 16.480168421052632  0.7872280701754386 16.58492631578947  C 0.6855635087719297 16.689628070175438  0.6056926315789473 16.813529824561403  0.5522391578947369 16.949333333333332  C 0.4987884912280702 17.08519298245614  0.4728202105263158 17.230259649122807  1 17.376224561403507  L 1 28.555171929824557  C 0.4741889122807017 29.369207017543854  0.7957108771929824 30.150680701754382  1.3697908771929823 30.727859649122806  C 1.9438708771929825 31.305038596491226  2.7235649122807017 31.6307649122807  3.5376280701754386 31  L 28.460463157894736 31  C 29.27416140350877 31.630203508771924  30.05333333333333 31.304252631578944  30.62697543859649 30.727129824561402  C 31.200617543859646 30.150007017543857  31.52185263157895 29.36887017543859  31 28.555171929824557  L 31 3.485333333333333  C 31.52185263157895 2.672364912280702  31.200729824561403 1.8919803508771926  30.62742456140351 1.3155705263157895  Z " fill-rule="nonzero" fill="url(#LinearGradient808)" stroke="none" transform="matrix(1 0 0 1 9 5 )" />
    </g>
  </defs>
  <g transform="matrix(1 0 0 1 -5 -2 )">
    <use xlink:href="#widget813" filter="url(#filter812)" />
    <use xlink:href="#widget813" />
  </g>
</svg>