<?xml version="1.0" encoding="utf-8"?>
<svg version="1.1" xmlns:xlink="http://www.w3.org/1999/xlink" width="42px" height="44px" xmlns="http://www.w3.org/2000/svg">
  <defs>
    <radialGradient cx="2.2648549702353193E-14" cy="0" r="49.82803277569511" gradientTransform="matrix(-0.10593809075588076 0.9943727273648442 -0.9837162532146131 -0.10480277550175406 2.5047893816210162E-14 -2.2521100138387173E-14 )" gradientUnits="userSpaceOnUse" id="RadialGradient814">
      <stop id="Stop815" stop-color="#adbffc" offset="0" />
      <stop id="Stop816" stop-color="#5364f1" offset="1" />
    </radialGradient>
    <filter x="4px" y="1px" width="42px" height="44px" filterUnits="userSpaceOnUse" id="filter817">
      <feOffset dx="0" dy="1" in="SourceAlpha" result="shadowOffsetInner" />
      <feGaussianBlur stdDeviation="2" in="shadowOffsetInner" result="shadowGaussian" />
      <feComposite in2="shadowGaussian" operator="atop" in="SourceAlpha" result="shadowComposite" />
      <feColorMatrix type="matrix" values="0 0 0 0 0  0 0 0 0 0  0 0 0 0 0  0 0 0 0.09803921568627451 0  " in="shadowComposite" />
    </filter>
    <g id="widget818">
      <path d="M 0 29.510204081632658  L 0 4.763265306122449  C 0 2.2205000816326526  2.029641333333334 0.1591836734693871  4.533333333333334 0.1591836734693871  L 28.900000000000002 0.1591836734693871  C 31.403703333333336 0.1591836734693871  33.43333333333334 2.2205000816326526  33 4.763265306122449  L 33 29.510204081632658  C 33.43333333333334 30.568452244897962  33.08177333333334 31.54330897959184  32.490853333333334 32.320880816326536  L 31.15255666666667 30.961640816326533  C 31.79640333333333 29.94172163265306  32.18060333333334 28.73631551020408  32.18060333333334 27.43514448979592  C 32.18060333333334 23.813458775510203  29.28992333333333 20.87755102040816  25.72360666666667 20.87755102040816  C 22.157743333333336 20.87755102040816  19.266666666666666 23.813458775510203  19.266666666666666 27.43514448979592  C 19.266666666666666 31.057002857142862  22.157743333333336 33.99268040816327  25.72360666666667 33.99268040816327  C 27.004783333333336 33.99268040816327  28.191779999999998 33.6023118367347  29.195856666666668 32.94905020408163  L 30.16440333333333 33.93282734693878  C 29.763090000000002 34.050979591836736  29.338826666666666 34.114285714285714  28.900000000000002 34  L 4.533333333333334 34  C 2.029641333333334 34.114285714285714  0 32.05298081632654  0 29.510204081632658  Z M 32.490853333333334 32.320880816326536  C 31.910700000000002 33.08423755102041  31.099913333333333 33.657445714285714  30.16440333333333 33.93282734693878  L 31.63790666666667 35.429326530612244  C 32.17839333333333 35.97796040816327  33.054403333333326 35.97796040816327  33.59455 35.429326530612244  C 34.13515 34.88023224489796  34.13515 33.99095387755102  33.59455 33.44185959183674  L 32.490853333333334 32.320880816326536  Z M 11.707333333333333 19.461795918367343  L 8.647333333333334 13.039102040816324  C 8.45087 12.640100816326528  8.148666666666667 12.44057142857143  7.740666666666666 12.44057142857143  C 7.551796666666668 12.44057142857143  7.370463333333334 12.494266530612245  7.196666666666668 12.601714285714284  C 7.030463333333334 12.709162040816326  6.905796666666667 12.851082857142856  6.8226666666666675 13.027591836734693  L 3.7626666666666675 19.461795918367343  C 3.634220333333334 19.72267469387755  3.5700000000000003 19.918348163265307  3.5700000000000003 20.048816326530613  C 3.5700000000000003 20.325061224489794  3.7891130000000004 20.570631428571428  4.227333333333334 20.785469387755104  C 4.484220333333334 20.915937551020402  4.684446333333334 20.981142857142856  4.828 20.981142857142856  C 4.979113000000001 20.981142857142856  5.1000000000000005 20.946612244897956  5.190666666666668 20.87755102040816  C 5.288887000000002 20.80083551020408  5.3568869999999995 20.72791836734694  5.394666666666667 20.658857142857137  C 5.44 20.589795918367344  5.500446333333334 20.47854979591836  5.576000000000001 20.325061224489794  L 6.1653333333333356 19.08195918367347  L 9.30466666666667 19.08195918367347  L 9.894000000000004 20.325061224489794  L 10.064000000000002 20.670367346938775  C 10.109333333333334 20.747082857142853  10.177333333333335 20.819999999999997  10.268 20.889061224489794  C 10.366203333333333 20.958122448979594  10.48713 20.99265306122449  10.630666666666668 20.99265306122449  C 10.781796666666667 20.99265306122449  10.985796666666667 20.927447755102037  11.242666666666667 20.796979591836735  C 11.68087 20.574429795918366  11.899999999999999 20.325061224489794  11.899999999999999 20.048816326530613  C 11.899999999999999 19.918348163265307  11.835796666666669 19.72267469387755  11.707333333333333 19.461795918367343  Z M 20.645366666666664 15.502285714285712  C 20.645366666666664 15.00349102040816  20.547106666666668 14.55079469387755  20.350699999999996 14.144081632653059  C 20.154236666666662 13.737368571428572  19.901106666666667 13.415082857142858  19.59136666666667 13.177224489795918  C 18.964236666666668 12.686141632653058  18.31823666666667 12.44057142857143  17.653366666666667 12.44057142857143  L 15.228033333333334 12.44057142857143  C 14.744439999999999 12.44057142857143  14.449773333333333 12.544163265306121  14.344033333333334 12.751346938775509  C 14.283569999999997 12.866448979591834  14.245773333333332 12.970040816326529  14.230699999999999 13.062122448979592  C 14.223106666666665 13.146549795918368  14.219366666666668 13.276960408163262  14.219366666666668 13.453469387755103  L 14.219366666666668 19.841632653061225  C 14.219366666666668 20.11022326530612  14.242033333333334 20.309695102040816  14.287366666666665 20.44016326530612  C 14.378033333333333 20.72406244897959  14.687773333333332 20.866040816326528  15.216700000000001 20.866040816326528  C 15.700236666666667 20.866040816326528  15.994903333333331 20.762448979591834  16.1007 20.555265306122447  C 16.16110666666667 20.44016326530612  16.195106666666668 20.340427346938775  16.2027 20.256  C 16.217773333333334 20.163918367346934  16.225366666666666 20.029651836734693  16.225366666666666 19.853142857142856  L 16.225366666666666 18.552489795918365  L 17.642033333333334 18.552489795918365  C 18.31444 18.552489795918365  18.964236666666668 18.30691959183673  19.59136666666667 17.815836734693878  C 19.901106666666667 17.577978367346937  20.154236666666662 17.259491020408163  20.350699999999996 16.860489795918365  C 20.547106666666668 16.453776734693875  20.645366666666664 16.001080408163265  20.645366666666664 15.502285714285712  Z M 29.506163333333333 15.502285714285712  C 29.506163333333333 15.00349102040816  29.407960000000003 14.55079469387755  29.211496666666665 14.144081632653059  C 29.015033333333335 13.737368571428572  28.761960000000002 13.415082857142858  28.45216333333333 13.177224489795918  C 27.825033333333334 12.686141632653058  27.179033333333333 12.44057142857143  26.514163333333332 12.44057142857143  L 24.088829999999998 12.44057142857143  C 23.605293333333332 12.44057142857143  23.310626666666668 12.544163265306121  23.204829999999998 12.751346938775509  C 23.14436666666667 12.866448979591834  23.106626666666667 12.970040816326529  23.091496666666668 13.062122448979592  C 23.083960000000005 13.146549795918368  23.080163333333335 13.276960408163262  23.080163333333335 13.453469387755103  L 23.080163333333335 19.841632653061225  C 23.080163333333335 20.11022326530612  23.102829999999997 20.309695102040816  23.14816333333333 20.44016326530612  C 23.238830000000004 20.72406244897959  23.548626666666664 20.866040816326528  24.077496666666665 20.866040816326528  C 24.561033333333338 20.866040816326528  24.8557 20.762448979591834  24.961496666666665 20.555265306122447  C 25.021959999999996 20.44016326530612  25.055960000000002 20.340427346938775  25.06349666666667 20.256  C 25.078626666666665 20.163918367346934  25.08616333333333 20.029651836734693  25.08616333333333 19.853142857142856  L 25.08616333333333 18.552489795918365  L 26.502830000000003 18.552489795918365  C 27.175293333333332 18.552489795918365  27.825033333333334 18.30691959183673  28.45216333333333 17.815836734693878  C 28.761960000000002 17.577978367346937  29.015033333333335 17.259491020408163  29.211496666666665 16.860489795918365  C 29.407960000000003 16.453776734693875  29.506163333333333 16.001080408163265  29.506163333333333 15.502285714285712  Z M 25.72360666666667 32.119106938775516  C 23.17661 32.119106938775516  21.111449999999998 30.022177959183676  21.111449999999998 27.43514448979592  C 21.111449999999998 24.848283673469393  23.17661 22.751124489795913  25.72360666666667 22.751124489795913  C 28.271056666666663 22.751124489795913  30.33582 24.848283673469393  30.33582 27.43514448979592  C 30.33582 30.022177959183676  28.271056666666663 32.119106938775516  25.72360666666667 32.119106938775516  Z M 6.981333333333333 17.378448979591838  L 7.729333333333334 15.801551020408162  L 8.488666666666667 17.378448979591838  L 6.981333333333333 17.378448979591838  Z M 18.32203333333333 16.26195918367347  C 18.102903333333334 16.43075632653061  17.880033333333333 16.515183673469387  17.653366666666667 16.515183673469387  L 16.225366666666666 16.515183673469387  L 16.225366666666666 14.477877551020404  L 17.642033333333334 14.477877551020404  C 17.876236666666667 14.477877551020404  18.102903333333334 14.566103265306122  18.32203333333333 14.742612244897959  C 18.541106666666664 14.911409387755102  18.6507 15.164633877551019  18.6507 15.502285714285712  C 18.6507 15.839937551020409  18.541106666666664 16.093162040816324  18.32203333333333 16.26195918367347  Z M 27.18283 16.26195918367347  C 26.963700000000003 16.43075632653061  26.740830000000003 16.515183673469387  26.514163333333332 16.515183673469387  L 25.08616333333333 16.515183673469387  L 25.08616333333333 14.477877551020404  L 26.502830000000003 14.477877551020404  C 26.737033333333333 14.477877551020404  26.963700000000003 14.566103265306122  27.18283 14.742612244897959  C 27.40196 14.911409387755102  27.51149666666667 15.164633877551019  27.51149666666667 15.502285714285712  C 27.51149666666667 15.839937551020409  27.40196 16.093162040816324  27.18283 16.26195918367347  Z " fill-rule="nonzero" fill="url(#RadialGradient814)" stroke="none" transform="matrix(1 0 0 1 8 4 )" />
    </g>
  </defs>
  <g transform="matrix(1 0 0 1 -4 -1 )">
    <use xlink:href="#widget818" filter="url(#filter817)" />
    <use xlink:href="#widget818" />
  </g>
</svg>