<?xml version="1.0" encoding="utf-8"?>
<svg version="1.1" xmlns:xlink="http://www.w3.org/1999/xlink" width="42px" height="42px" xmlns="http://www.w3.org/2000/svg">
  <defs>
    <radialGradient cx="-1.509903313490213E-13" cy="-4.227729277772596E-13" r="43.294245604608406" gradientTransform="matrix(0.7853237658997587 0.6190852790311049 -0.5908499568683243 0.7495066171428527 -2.8220940186184454E-13 -1.24259294451383E-14 )" gradientUnits="userSpaceOnUse" id="RadialGradient819">
      <stop id="Stop820" stop-color="#adbffc" offset="0" />
      <stop id="Stop821" stop-color="#5364f1" offset="1" />
    </radialGradient>
    <filter x="3px" y="1px" width="42px" height="42px" filterUnits="userSpaceOnUse" id="filter822">
      <feOffset dx="0" dy="1" in="SourceAlpha" result="shadowOffsetInner" />
      <feGaussianBlur stdDeviation="2" in="shadowOffsetInner" result="shadowGaussian" />
      <feComposite in2="shadowGaussian" operator="atop" in="SourceAlpha" result="shadowComposite" />
      <feColorMatrix type="matrix" values="0 0 0 0 0  0 0 0 0 0  0 0 0 0 0  0 0 0 0.09803921568627451 0  " in="shadowComposite" />
    </filter>
    <g id="widget823">
      <path d="M 27.98685714285714 28.465285714285713  C 27.98685714285714 27.445528571428575  21.785742857142857 22.93457857142857  20.354403571428573 22.93457857142857  C 18.88311428571429 22.93457857142857  17.811628571428574 24.238296428571434  16.540210714285713 24.238296428571434  C 15.268792857142857 24.238296428571434  9.543496428571428 18.503650000000004  9.543496428571428 17.07595357142857  C 9.543496428571428 15.656332142857142  10.814914285714286 14.960485714285715  10.814914285714286 13.496846428571429  C 10.814914285714286 12.437078571428572  6.996714285714285 6.014581785714286  5.409454642857143 6.014581785714286  C 3.8222010714285717 6.014581785714286  0 8.89792142857143  0 11.545307142857142  C 0 19.27545  13.913467857142857 34  22.581342857142857 34  C 24.964257142857143 34  27.98685714285714 31.436582142857144  27.98685714285714 28.465285714285713  Z M 34 8.997857142857143  C 34 4.027051071428572  29.97391428571429 0  25.004207142857148 0  C 20.034560714285714 0  16.008475000000004 4.027051071428572  16.008475000000004 8.997857142857143  C 16.008475000000004 13.968717857142856  20.034560714285714 17.995775000000002  25.004207142857148 17.995775000000002  C 29.97391428571429 17.995775000000002  34 13.968717857142856  34 8.997857142857143  Z M 25.004207142857148 11.997203571428575  C 25.55597857142857 11.997203571428575  26.00374642857143 12.445092857142857  26.00374642857143 12.996925000000003  C 26.00374642857143 13.548817857142858  25.55597857142857 13.996707142857144  25.004207142857148 13.996707142857144  C 24.45249642857143 13.996707142857144  24.004728571428572 13.548817857142858  24.004728571428572 12.996925000000003  C 24.004728571428572 12.445092857142857  24.45249642857143 11.997203571428575  25.004207142857148 11.997203571428575  Z M 26.00374642857143 4.398962500000001  L 26.00374642857143 9.597714285714286  C 26.00374642857143 9.817682142857144  25.823850000000004 9.997639285714286  25.603942857142858 9.997639285714286  L 24.404532142857146 9.997639285714286  C 24.184625 9.997639285714286  24.004728571428572 9.817682142857144  24.004728571428572 9.597714285714286  L 24.004728571428572 4.398962500000001  C 24.004728571428572 4.179018928571429  24.184625 3.999061785714286  24.404532142857146 3.999061785714286  L 25.603942857142858 3.999061785714286  C 25.823850000000004 3.999061785714286  26.00374642857143 4.179018928571429  26.00374642857143 4.398962500000001  Z " fill-rule="nonzero" fill="url(#RadialGradient819)" stroke="none" transform="matrix(1 0 0 1 7 4 )" />
    </g>
  </defs>
  <g transform="matrix(1 0 0 1 -3 -1 )">
    <use xlink:href="#widget823" filter="url(#filter822)" />
    <use xlink:href="#widget823" />
  </g>
</svg>