<?xml version="1.0" encoding="utf-8"?>
<svg version="1.1" xmlns:xlink="http://www.w3.org/1999/xlink" width="45px" height="36px" xmlns="http://www.w3.org/2000/svg">
  <defs>
    <radialGradient cx="-1.3145040611561853E-13" cy="-5.968558980384842E-13" r="45.69600017171764" gradientTransform="matrix(0.8809100879144004 0.4732836538595469 -0.34446156143675927 0.641137005036808 -2.212483318990008E-13 -1.5197616662381472E-13 )" gradientUnits="userSpaceOnUse" id="RadialGradient824">
      <stop id="Stop825" stop-color="#adbffc" offset="0" />
      <stop id="Stop826" stop-color="#5364f1" offset="1" />
    </radialGradient>
    <filter x="3px" y="4px" width="45px" height="36px" filterUnits="userSpaceOnUse" id="filter827">
      <feOffset dx="0" dy="1" in="SourceAlpha" result="shadowOffsetInner" />
      <feGaussianBlur stdDeviation="2" in="shadowOffsetInner" result="shadowGaussian" />
      <feComposite in2="shadowGaussian" operator="atop" in="SourceAlpha" result="shadowComposite" />
      <feColorMatrix type="matrix" values="0 0 0 0 0  0 0 0 0 0  0 0 0 0 0  0 0 0 0.09803921568627451 0  " in="shadowComposite" />
    </filter>
    <g id="widget828">
      <path d="M 31.50965679012345 9  L 31.50965679012345 7  L 21.24517160493827 7  L 21.24517160493827 9  L 31.50965679012345 9  Z M 21.24517160493827 15.382716049382715  L 21.24517160493827 16.76543209876543  L 23.99034320987654 16.76543209876543  L 23.99034320987654 15.382716049382715  L 21.24517160493827 15.382716049382715  Z M 31.50965679012345 13  L 31.50965679012345 11.234567901234568  L 21.24517160493827 11.234567901234568  L 21.24517160493827 13  L 31.50965679012345 13  Z M 37 21.585165432098762  C 37 18.14814814814815  34.21504197530864 15.382716049382715  30.833333333333332 15.382716049382715  C 27.411838271604935 15.382716049382715  24.666666666666664 18.187647736625514  24.666666666666664 21.62471111111111  C 24.666666666666664 25.061728395061724  27.411838271604935 27.827160493827158  30.833333333333332 27.827160493827158  C 34.21504197530864 27.827160493827158  37 25.022228806584362  37 21.585165432098762  Z M 35.3688024691358 20.953079835390948  L 30.793546913580244 25.496316049382713  C 30.475255555555552 25.812358847736625  29.958077777777774 25.812358847736625  29.599999999999998 25.496316049382713  L 26.934401234567904 22.84938271604938  C 26.61610987654321 22.53333991769547  26.61610987654321 21.980253497942385  26.934401234567904 21.664210699588477  C 27.252692592592588 21.348167901234568  27.76987037037037 21.348167901234568  28.127948148148146 21.664210699588477  L 30.19679629629629 23.718511934156375  L 34.17525555555556 19.76790781893004  C 34.493546913580246 19.45186502057613  35.01077037037037 19.45186502057613  35.3688024691358 19.76790781893004  C 35.687093827160496 20.083950617283953  35.687093827160496 20.637037037037032  35.3688024691358 20.953079835390948  Z M 24.10965679012346 25  L 3.1430129629629624 25  C 2.1483890123456786 25.061728395061724  1.352688024691358 24.271598353909464  2 23.244424691358024  L 2 3.3728408230452667  C 1.352688024691358 2.3851851851851853  2.1483890123456786 1.5555555555555554  3.1430129629629624 2  L 33.180640740740735 2  C 34.17525555555556 1.5555555555555554  34.97098395061728 2.3456809876543208  35 3.3728408230452667  L 35 15.22467160493827  C 35.488161728395056 15.540760493827161  35.925812345679006 15.935802469135805  36 16.409889711934156  L 36 2.8592586008230447  C 36.36346296296296 1.3580253497942385  35.169916049382714 0.17283950617283939  33.69786419753086 0.17283950617283939  L 2.6655896296296295 0.17283950617283939  C 1.1935469135802466 0.17283950617283939  0 1.3975295473251026  0 2.8592586008230447  L 0 23.718511934156375  C 0 25.219772839506174  1.1935469135802466 26.404944855967074  2.6655896296296295 26  L 25.024744444444444 26  C 24.666666666666664 25.970357201646088  24.38816172839506 25.53581563786008  24.10965679012346 25  Z M 5.848375308641974 6.414834567901234  L 5.848375308641974 6.375288888888889  C 5.251624691358024 6.375288888888889  4.813974074074074 6.849376131687242  5 7.40246255144033  L 5 19.846906995884773  C 4.813974074074074 20.439493004115224  5.2914111111111115 20.87408065843621  5.848375308641974 20.87408065843621  L 17.425812345679013 20.87408065843621  C 18.02256296296296 20.87408065843621  18.539786419753085 20.39999341563786  18 19.846906995884773  L 18 7.441962139917695  C 18.539786419753085 6.849376131687242  18.02256296296296 6.414834567901234  17.425812345679013 6.414834567901234  L 5.848375308641974 6.414834567901234  Z M 17.10752098765432 19  L 6.84299012345679 19  C 6.84299012345679 19.530864197530864  6.7236765432098755 18.50369053497942  7.280640740740741 17.79260576131687  C 7.598932098765433 17.476562962962966  7.758077777777777 16.6864329218107  9.468802469135802 16.44938930041152  C 11.139786419753088 16.212345679012344  10.582776543209876 14.355542386831274  10.66234938271605 14.39504197530864  C 10.702135802469135 14.434587654320987  10.66234938271605 14  10.66234938271605 14  C 10.66234938271605 14  9.747307407407407 12.854327572016459  9.747307407407407 11.787654320987652  L 9.747307407407407 10.918525102880658  C 9.747307407407407 10.918525102880658  9.667734567901233 8.469135802469134  11.418291358024689 8.469135802469134  L 12.731197530864197 8.94322304526749  C 14.282776543209875 8.94322304526749  14.402135802469134 10.958024691358023  14.402135802469134 10.958024691358023  L 14.402135802469134 11.985198353909464  C 14.402135802469134 11.985198353909464  14.402135802469134 13.407413991769548  13.447307407407404 13.960500411522633  C 13.447307407407404 13.960500411522633  13.367734567901234 14.39504197530864  13.447307407407404 14.355542386831274  C 13.487093827160493 14.316042798353909  12.532265432098765 16.25184526748971  14.203203703703702 16.488888888888887  C 15.87418765432099 16.72593251028806  16.351624691358023 17.476562962962966  16.66987037037037 17.79260576131687  C 16.948375308641975 18.069148971193417  17.10752098765432 19.530864197530864  17.10752098765432 19  Z " fill-rule="nonzero" fill="url(#RadialGradient824)" stroke="none" transform="matrix(1 0 0 1 7 7 )" />
    </g>
  </defs>
  <g transform="matrix(1 0 0 1 -3 -4 )">
    <use xlink:href="#widget828" filter="url(#filter827)" />
    <use xlink:href="#widget828" />
  </g>
</svg>