<?xml version="1.0" encoding="utf-8"?>
<svg version="1.1" xmlns:xlink="http://www.w3.org/1999/xlink" width="7px" height="13px" xmlns="http://www.w3.org/2000/svg">
  <defs>
    <linearGradient gradientUnits="userSpaceOnUse" x1="3.464099999999999" y1="1.0000000000000009" x2="7.794199999999999" y2="8.5" id="LinearGradient831">
      <stop id="Stop832" stop-color="#3c4fff" offset="0" />
      <stop id="Stop833" stop-color="#838fff" offset="1" />
    </linearGradient>
  </defs>
  <g transform="matrix(1 0 0 1 -168 -675 )">
    <path d="M 3.3042 2.4256399999999996  L 3.2508999999999997 2.7230799999999995  L 3.4641 2.4666700000000006  L 3.6773000000000002 2.47692  L 3.6240000000000006 2.2410300000000003  L 3.730600000000001 1.9794900000000002  L 3.570700000000001 2.0051299999999994  L 3.4641 1.8666699999999992  L 3.3575 2.1281999999999996  L 3.1975999999999996 2.2871799999999993  L 3.3042 2.4256399999999996  Z M 3.3575 3.3282000000000003  C 2.6647 3.728199999999999  2.0252 4.1640999999999995  1.5988000000000007 4.5436  L 1.5988000000000007 4.8103  C 1.5988000000000007 5.2103  2.4514999999999993 5.0512999999999995  3.4641 4.4666999999999994  C 4.476699999999999 3.8820999999999994  5.3294 3.0564  5.3294 2.6564099999999993  L 5.3294 2.45641  C 4.9030000000000005 2.502560000000001  4.1569 2.866669999999999  3.3575 3.3282000000000003  Z M 1.1191999999999993 3.4205000000000005  C 1.1724999999999994 3.5897000000000006  1.2257999999999996 3.6922999999999995  1.2790999999999997 3.861499999999999  C 1.3856000000000002 4.1333  1.5988000000000007 4.410299999999999  1.5988000000000007 4.410299999999999  L 1.5988000000000007 4.4769000000000005  C 2.0252 4.0974  2.6647 3.6614999999999998  3.3575 3.2615  C 4.1569 2.8000000000000007  4.8497 2.5333299999999994  5.2761 2.42051  L 5.2761 2.2871799999999993  C 5.2761 2.2871799999999993  5.4893 1.6974400000000003  5.5959 1.36923  C 5.6492 1.2051300000000005  5.702400000000001 0.9743599999999999  5.702400000000001 0.8410299999999999  C 5.702400000000001 0.7076900000000004  5.6492 0.6717899999999997  5.5426 0.6666699999999999  C 5.3294 0.5897399999999999  4.6366 0.5897399999999999  4.316800000000001 0.5743600000000004  C 4.2635000000000005 0.60513  4.1569 0.5999999999999996  4.0503 0.6615399999999996  L 2.8779000000000003 1.3384599999999995  C 2.7713 1.4000000000000004  2.6647 1.5282099999999996  2.6113999999999997 1.5589700000000004  C 2.2916000000000007 1.9435900000000002  1.5988000000000007 2.7435899999999993  1.2790999999999997 3.0615000000000006  C 1.1724999999999994 3.1897  1.1191999999999993 3.2872000000000003  1.1191999999999993 3.4205000000000005  Z M 2.8779000000000003 2.1384600000000002  L 3.0378000000000007 1.7794899999999991  C 3.0378000000000007 1.7794899999999991  3.1442999999999994 1.7846200000000003  3.2508999999999997 1.7230799999999995  C 3.3575 1.6615400000000002  3.4641 1.4666700000000006  3.4641 1.4666700000000006  C 3.4641 1.4666700000000006  3.570700000000001 1.5384600000000006  3.6773000000000002 1.4769199999999998  C 3.783899999999999 1.4153800000000007  3.8904999999999994 1.2871799999999993  3.8904999999999994 1.2871799999999993  L 4.0503 1.4615399999999994  C 4.0503 1.4615399999999994  3.9436999999999998 1.5897400000000008  3.9436999999999998 1.7230799999999995  C 3.9436999999999998 1.9230800000000006  3.997 1.8256400000000002  3.997 2.15897  C 3.997 2.49231  3.4108 3.0307999999999993  3.4108 3.0307999999999993  C 3.4108 3.0307999999999993  2.8779000000000003 3.2051  2.8779000000000003 2.80513  C 2.9312000000000005 2.50769  2.9845000000000006 2.47692  2.9845000000000006 2.2769200000000005  C 2.9845000000000006 2.21026  2.8779000000000003 2.1384600000000002  2.8779000000000003 2.1384600000000002  Z M 6.9282 8  C 6.9282 7.733299999999999  6.6084 6.5846  4.6366 7.256399999999998  C 4.423400000000001 7.312799999999999  4.2635000000000005 7.271800000000001  4.2635000000000005 7.205100000000001  L 4.2635000000000005 6.671799999999998  C 4.2635000000000005 6.671799999999998  5.222799999999999 5.117900000000001  5.222799999999999 3.4513  L 5.222799999999999 3.1845999999999997  C 5.009600000000001 3.5744000000000007  4.316800000000001 4.1744  3.4641 4.6667000000000005  C 2.6113999999999997 5.159000000000001  1.9185999999999994 5.359  1.7053999999999991 5.1487  L 1.7053999999999991 5.4154  C 1.7053999999999991 7.082100000000001  2.6647 7.5282  2.6647 7.5282  L 2.6647 8.1282  C 2.6647 8.2615  2.4514999999999993 8.5179  2.344900000000001 8.6462  C 0.3197600000000005 10.215399999999999  0 11.7333  0 12  C 0.10659000000000063 12.8718  2.9312000000000005 11.3077  3.4108 11.0308  C 3.3042 10.759  3.1442999999999994 10.2513  3.1442999999999994 9.317900000000002  C 3.1442999999999994 8.9846  3.4641 8.8  3.4641 8.8  C 3.4641 8.8  3.783899999999999 8.6154  3.783899999999999 8.9487  C 3.783899999999999 9.8154  3.6240000000000006 10.5744  3.5174000000000003 10.9692  C 3.9436999999999998 10.723099999999999  6.8749 8.9641  6.9282 8  Z M 3.730600000000001 8.3128  C 3.730600000000001 8.5128  3.6240000000000006 8.7744  3.4108 8.8974  C 3.1975999999999996 9.020499999999998  3.0909999999999993 8.8821  3.0909999999999993 8.6821  C 3.0909999999999993 8.4154  3.2508999999999997 8.1897  3.4108 8.0974  C 3.570700000000001 8.0051  3.730600000000001 8.1128  3.730600000000001 8.3128  Z " fill-rule="nonzero" fill="url(#LinearGradient831)" stroke="none" transform="matrix(1 0 0 1 168 675 )" />
  </g>
</svg>