<?xml version="1.0" encoding="utf-8"?>
<svg version="1.1" xmlns:xlink="http://www.w3.org/1999/xlink" width="26px" height="12px" xmlns="http://www.w3.org/2000/svg">
  <g transform="matrix(1 0 0 1 -357 -10 )">
    <path d="M 25.74723736328125 5.038012236328125  C 25.747207392578126 4.507192119140626  25.32911083984375 4.0760244726562505  24.814389853515625 4.076024443359376  L 24.814389853515625 2.1520788867187495  C 24.814389853515625 1.0896292382812494  23.97906619140625 0.22813333007812453  22.948724775390623 0.22813333007812453  L 2.1183977148437503 0.22813333007812453  C 1.0880862695312503 0.22813333007812453  0.25273263671875057 1.0896292382812494  0.25273263671875057 2.1520788867187495  L 0.25273263671875057 9.847861142578125  C 0.25273263671875057 10.910790468750001  1.0880862695312508 11.77180669921875  2.1183977148437503 11.771806728515624  L 22.94875474609375 11.771806728515624  C 23.979096162109375 11.771806728515624  24.81441982421875 10.910790498046872  24.81441982421875 9.847861142578125  L 24.81441982421875 7.9239155859375  C 25.329140839843753 7.9239155859375  25.74723736328125 7.493587353515625  25.74723736328125 6.96195779296875  L 25.74723736328125 5.038012236328125  Z M 23.881542314453128 9.847861142578125  C 23.881542314453128 10.37955064453125  23.46344579101563 10.809818935546875  22.948694775390628 10.809818935546875  L 2.1183977148437503 10.809818935546875  C 1.60280728515625 10.809818935546875  1.1855501757812505 10.379520673828125  1.1855502050781253 9.847861142578125  L 1.1855502050781253 2.152108857421876  C 1.1855502050781253 1.6212887402343767  1.6028073144531256 1.1901510644531257  2.1183977148437503 1.1901510644531257  L 22.94875474609375 1.1901510644531257  C 23.46347576171875 1.1901510644531257  23.881572285156253 1.6213487109375002  23.881572285156253 2.152108857421876  L 23.881572285156253 9.847861142578125  Z " fill-rule="nonzero" fill="#000000" stroke="none" transform="matrix(1 0 0 1 357 10 )" />
  </g>
</svg>