<?xml version="1.0" encoding="utf-8"?>
<svg version="1.1" xmlns:xlink="http://www.w3.org/1999/xlink" width="22px" height="27px" xmlns="http://www.w3.org/2000/svg">
  <g transform="matrix(1 0 0 1 -8 -4 )">
    <path d="M 6.287929411764706 12.330376470588234  C 7.53845882352941 13.580823529411763  9.234517647058823 14.283376470588236  11.003047058823526 14.283376470588236  C 12.32184705882353 14.283376470588236  13.611082352941175 13.892282352941177  14.70761176470588 13.159588235294116  C 15.804141176470587 12.426894117647059  16.658882352941177 11.385458823529412  17.163541176470588 10.16704705882353  C 17.6682 8.948635294117645  17.80029411764706 7.607888235294117  17.543023529411762 6.314403529411765  C 17.285670588235295 5.020918823529411  16.650647058823527 3.8327717647058823  15.718082352941174 2.9002235294117646  C 14.785517647058821 1.967675294117647  13.597411764705882 1.3326023529411763  12.303894117647062 1.0753070588235294  C 11.010376470588232 0.8180183529411764  9.669670588235293 0.9500647058823529  8.451258823529411 1.4547647058823527  C 7.232847058823529 1.959456470588235  6.191411764705881 2.8141235294117646  5.458717647058823 3.910685882352941  C 4.725990588235294 5.007248235294117  4.33491294117647 6.296458823529411  4.33491294117647 7.615283529411766  C 4.33491294117647 9.383788235294118  5.037441176470589 11.07984705882353  6.287929411764706 12.330376470588234  Z M 21.85864705882353 26.332682352941177  C 21.878658823529413 23.07191764705882  21.07184705882353 19.511141176470588  18.73804705882353 17.517376470588236  C 16.850929411764707 15.897082352941178  13.783611764705881 15.483670588235292  11.042988235294116 15.450317647058823  L 10.929670588235293 15.450317647058823  C 8.18904705882353 15.483670588235292  5.121754117647059 15.897082352941178  3.2346776470588234 17.517376470588236  C 0.9008447058823528 19.51781176470588  0.09399999999999986 23.07191764705882  0.09399999999999986 26.332682352941177  L 0.09399999999999986 26.672717647058825  L 21.85864705882353 26.672717647058825  L 21.85864705882353 26.332682352941177  Z " fill-rule="nonzero" fill="#c5c9d4" stroke="none" transform="matrix(1 0 0 1 8 4 )" />
  </g>
</svg>