<?xml version="1.0" encoding="utf-8"?>
<svg version="1.1" xmlns:xlink="http://www.w3.org/1999/xlink" width="23px" height="27px" xmlns="http://www.w3.org/2000/svg">
  <g transform="matrix(1 0 0 1 -13 -4 )">
    <path d="M 22 3.9732073333333333  C 22.175746666666665 1.7774553333333334  20.172706666666667 -0.009426993333333333  17.732779999999998 0  L 4.423908666666667 0  C 1.9836006666666668 0.06174549333333334  -0.0054414446666666665 1.8656646666666667  0 4.061416666666667  L 0 22.02494666666667  C 0.07405978666666667 24.220646666666667  2.077114 26.00866666666667  4.5170406666666665 26  L 22 26  L 22 3.9732073333333333  Z M 11.486279999999999 12.998093333333333  L 4.716174666666667 13.024613333333333  C 3.953716000000001 13.027646666666667  3.3279306666666675 12.468820000000001  3.3252786666666667 11.782853333333334  C 3.3226353333333334 11.096886666666666  3.945014666666667 10.533553333333334  4.707464666666667 10.529826666666668  L 11.47718 10.503306666666667  C 12.239673333333334 10.500273333333334  12.865839999999999 11.059446666666666  12.868093333333332 11.745413333333333  C 12.87034666666667 12.43138  12.24912 12.995493333333334  11.486626666666668 12.998093333333333  Z M 15.232273333333335 7.150225333333334  L 4.69573 7.1911146666666665  C 3.9332800000000003 7.194139333333332  3.3071133333333336 6.6349833333333335  3.304834 5.948999333333334  C 3.3025633333333335 5.263015333333334  3.9241886666666668 4.699699333333333  4.686647333333334 5  L 15.223953333333332 5  C 15.98644666666667 4.651616666666667  16.61218 5.2104  16.614866666666668 5.8967566666666675  C 16.617466666666665 6.583113333333334  15.995546666666668 7.1472006666666665  15.232706666666665 7.150225333333334  Z " fill-rule="nonzero" fill="#c5c9d4" stroke="none" transform="matrix(1 0 0 1 13 4 )" />
  </g>
</svg>