<?xml version="1.0" encoding="utf-8"?>
<svg version="1.1" xmlns:xlink="http://www.w3.org/1999/xlink" width="29px" height="26px" xmlns="http://www.w3.org/2000/svg">
  <g transform="matrix(1 0 0 1 -12 -4 )">
    <path d="M 20.02835515873016 0.7179302  C 21.088158432539686 0.27085991111111113  22.223145932539687 0.03787217777777787  23.370708730158732 0.034719822222222446  C 23.64040873015873 0.034719822222222446  23.910019543650797 0.047320288888888874  24.179719543650794 0.07250331111111165  C 25.02627787698413 0.15121368888888886  25.675288095238095 0.8659118000000005  25.67216656746032 1.7191344444444447  L 25.67216656746032 20.285434000000002  C 25.67216656746032 21.176511777777776  24.96982281746032 21.90379244444445  24.085627777777784 21.935226444444446  C 22.489635218253966 21.99504955555556  21.135159722222227 22.20917688888889  20.02835515873016 22.580653333333334  C 18.576577182539683 23.068731111111113  17.16252509920635 23.95336088888889  15.795474305555556 25.23167688888889  L 15.795474305555556 4.470872177777778  C 16.80506557539683 2.7266344444444446  18.219206845238098 1.4767075555555558  20.02835515873016 0.7179302  Z M 24.182841071428577 23.62594577777778  C 26.001353968253966 23.559853777777782  27.321403472222226 22.187146222222225  27 20.675896222222224  L 27 3.7341344444444444  C 27.757257936507937 3.7341344444444444  28.177415575396825 3.9072990666666674  28.484663095238098 4.218997177777779  C 28.791910615079367 4.53069528888889  28.967518849206353 4.949439155555556  29 5.387070288888889  L 29 22.19654955555556  C 28.967518849206353 23.509434000000002  28.149143452380954 25.634676888888887  25.675288095238095 25.420549555555557  C 23.93195942460318 25.272603777777782  23.819138492063495 25.209646222222226  22.348542162698415 25.234811333333333  C 20.90942867063492 25.259976444444447  18.893278472222224 25.209646222222226  17.090373214285712 25.634676888888887  C 18.10005367063492 24.787750000000003  19.57680386904762 24.189518888888887  20.555090674603175 23.981749999999998  C 21.530255952380955 23.770757111111113  22.7498814484127 23.6795  24.182841071428577 23.62594577777778  Z M 5.768244136904762 0.07565566666666708  C 6.034760178571429 0.047320288888888874  6.304406666666667 0.034719822222222446  6.574053154761906 0.034719822222222446  C 7.712233531746032 0.034719822222222446  8.82528115079365 0.26455520000000027  9.916478075396824 0.7179302  C 11.72562638888889 1.4735551999999998  13.139678472222222 2.7266344444444446  14 4.470872177777778  L 14 25.234811333333333  C 12.782308134920635 23.95336088888889  11.368166865079367 23.068731111111113  9.916478075396824 22.583877333333337  C 8.809673511904762 22.21544577777778  7.4582571130952395 21.998184000000002  5.859169781746033 21.94158488888889  C 4.974965823412699 21.910061333333335  4.272622073412699 21.179646222222225  4.275761438492064 20.288658000000005  L 4.275761438492064 1.7191344444444447  C 4.275761438492064 0.8659118000000005  4.921667966269841 0.15436604444444474  5.768244136904762 0.07565566666666708  Z M 3 20.675896222222224  L 2.62337625 20.675896222222224  C 2.62337625 22.039110888888892  3.6267244642857146 23.547226444444444  5.796462748015873 23.62594577777778  C 7.232499305555556 23.6795  8.129269642857144 23.83693866666667  9.39286408730159 23.981749999999998  C 10.656458531746033 24.12342688888889  11.872962500000002 24.790884444444448  12.882642956349207 25.634676888888887  C 11.0797376984127 25.209646222222226  9.214134325396824 25.234811333333333  7.596219722222224 25.234811333333333  C 6.323216101190477 25.234811333333333  6.100597658730159 25.420549555555557  4.269491626984127 25.420549555555557  C 2.1091536011904766 25.420549555555557  0.974121507936508 23.45910377777778  1 22.19654955555556  L 1 5.383917933333334  C 0.974121507936508 4.470872177777778  1.7109536805555556 3.730991044444444  3 3.730991044444444  L 3 20.675896222222224  Z " fill-rule="nonzero" fill="#c5c9d4" stroke="none" transform="matrix(1 0 0 1 12 4 )" />
  </g>
</svg>