<?xml version="1.0" encoding="utf-8"?>
<svg version="1.1" xmlns:xlink="http://www.w3.org/1999/xlink" width="27px" height="26px" xmlns="http://www.w3.org/2000/svg">
  <g transform="matrix(1 0 0 1 -6 -4 )">
    <path d="M 26.58771818181818 10.495875  C 26.58771818181818 10.02373125  26.364027272727274 9.5766125  25.98365454545455 9.2906125  L 14.41448181818182 0.6315887499999999  C 13.874727272727272 0.22613499999999992  13.128054545454546 0.22613499999999992  12.585518181818182 0.6315887499999999  L 1.0163372727272726 9.2906125  C 0.6360054545454545 9.5766125  0.41229000000000005 10.02373125  0.41229000000000005 10.495875  L 0.41229000000000005 24.08973125  C 0.41229000000000005 24.92286875  1.091839090909091 25.59773125  1.9307945454545452 25.59773125  L 25.069172727272726 25.59773125  C 25.908136363636366 25.59773125  26.58771818181818 24.92286875  26.58771818181818 24.08973125  L 26.58771818181818 10.495875  Z M 20.057809090909092 15  L 20.057809090909092 17  L 6.942158181818181 17  L 6.942158181818181 15  L 20.057809090909092 15  Z " fill-rule="nonzero" fill="#c5c9d4" stroke="none" transform="matrix(1 0 0 1 6 4 )" />
  </g>
</svg>