<?xml version="1.0" encoding="utf-8"?>
<svg version="1.1" xmlns:xlink="http://www.w3.org/1999/xlink" width="28px" height="26px" xmlns="http://www.w3.org/2000/svg">
  <defs>
    <linearGradient gradientUnits="userSpaceOnUse" x1="13.954326666666667" y1="0.4529581333333334" x2="13.954326666666667" y2="25.227106666666668" id="LinearGradient843">
      <stop id="Stop844" stop-color="#3048c2" offset="0" />
      <stop id="Stop845" stop-color="#7e93ff" offset="1" />
    </linearGradient>
  </defs>
  <g transform="matrix(1 0 0 1 -12 -4 )">
    <path d="M 18.86893333333333 1.1141260000000002  C 19.898793333333334 0.6814738666666667  21.001713333333335 0.4560053333333334  22.116853333333335 0.45295813333333335  C 22.378933333333332 0.45295813333333335  22.64092666666667 0.4651460666666667  22.903006666666666 0.4895210666666666  C 23.72564666666667 0.5656924000000001  24.35632 1.257334  24 2.0830333333333337  L 24 20.050420000000003  C 24.35328666666667 20.912753333333335  23.670786666666668 21.616573333333335  22.811573333333335 21.646993333333334  C 21.260673333333333 21.704886666666667  19.944466666666667 21.912106666666666  18.86893333333333 22.2716  C 17.458173333333335 22.743933333333334  16.084073333333333 23.600026666666665  14.755646666666667 24.837106666666667  L 14.755646666666667 4.746005333333334  C 15.736713333333336 3.058033333333334  17.1109 1.8484266666666664  18.86893333333333 1.1141260000000002  Z M 22.90604 23.283173333333334  C 24.673173333333335 23.219213333333332  25.955926666666667 21.890786666666667  26 20.42828666666667  L 26 4.033033333333334  C 26.379466666666666 4.033033333333334  26.78775333333333 4.2006120000000005  27.08632 4.502255333333333  C 27.384886666666667 4.803898666666667  27.555533333333333 5.2091346666666665  27 5.632648666666666  L 27 21.899886666666667  C 27.555533333333333 23.17042  26.76028 25.227106666666668  24.35632 25.019886666666668  C 22.662246666666668 24.876713333333335  22.552613333333333 24.815786666666668  21.123566666666665 24.84014  C 19.725113333333333 24.864493333333336  17.76592666666667 24.815786666666668  16.013959999999997 25.227106666666668  C 16.995113333333332 24.407500000000002  18.430139999999998 23.828566666666667  19.38078666666667 23.6275  C 20.3284 23.423313333333336  21.513566666666666 23.335  22.90604 23.283173333333334  Z M 5.011722 0.4925674  C 5.270708 0.4651460666666667  5.532736 0.45295813333333335  5.794764 0.45295813333333335  C 6.900786666666667 0.45295813333333335  7.982421333333333 0.6753803333333334  9.042753333333332 1.1141260000000002  C 10.800786666666667 1.8453760000000003  12.174886666666666 3.058033333333334  13.156039999999999 4.746005333333334  L 13.156039999999999 24.84014  C 11.827613333333332 23.600026666666665  10.453426666666667 22.743933333333334  9.042753333333332 22.27472  C 7.967185333333332 21.918173333333332  6.653986 21.70792  5.100078666666667 21.653146666666668  C 4.240856666666666 21.62264  3.5583566666666657 20.91578666666667  4 20.05354  L 4 2.0830333333333337  C 3.5614073333333334 1.257334  4.189064666666666 0.5687396  5.011722 0.4925674  Z M 2 20.42828666666667  L 1.9557079999999993 20.42828666666667  C 1.9557079999999993 21.747526666666666  2.9307079999999996 23.206993333333333  5.039143333333333 23.283173333333334  C 6.434606666666666 23.335  7.306013999999999 23.48736  8.533907333333334 23.6275  C 9.761826666666666 23.76460666666667  10.94396 24.410533333333333  11.925113333333334 25.227106666666668  C 10.173146666666668 24.815786666666668  8.360236 24.84014  6.788050666666666 24.84014  C 5.5510139999999994 24.84014  5.334685333333333 25.019886666666668  3.555314666666666 25.019886666666668  C 1.4560139999999997 25.019886666666668  0.3530480666666662 23.121713333333332  0.3530480666666662 21.899886666666667  L 0.3530480666666662 5.629598  C 0.3530480666666662 4.746005333333334  1.0690646666666663 4.029991333333333  2 4.029991333333333  L 2 20.42828666666667  Z " fill-rule="nonzero" fill="url(#LinearGradient843)" stroke="none" transform="matrix(1 0 0 1 12 4 )" />
  </g>
</svg>