<?xml version="1.0" encoding="utf-8"?>
<svg version="1.1" xmlns:xlink="http://www.w3.org/1999/xlink" width="22px" height="26px" xmlns="http://www.w3.org/2000/svg">
  <defs>
    <linearGradient gradientUnits="userSpaceOnUse" x1="10.76803125" y1="0" x2="10.76803125" y2="25.381037499999998" id="LinearGradient846">
      <stop id="Stop847" stop-color="#3048c2" offset="0" />
      <stop id="Stop848" stop-color="#7e93ff" offset="1" />
    </linearGradient>
  </defs>
  <g transform="matrix(1 0 0 1 -8 -4 )">
    <path d="M 6.142249375 11.23070001207686  C 7.376014374999999 12.464481261067995  9.04935 13.15762501050121  10.79419375 13.15762501050121  C 12.095331250000001 13.15762501050121  13.367299999999997 12.771768760816725  14.449143750000001 12.048887511407825  C 15.530987499999998 11.326006261998927  16.3742 10.298518762839102  16.87218125 9.096425013822055  C 17.37008125 7.894274389805053  17.500406249999997 6.571500015886684  17.24658125 5.295338766930202  C 16.992675 4.019177517973719  16.366156250000003 2.8469512689322483  15.446081250000002 1.9268843946845868  C 14.52600625 1.0068256454369189  13.353812499999998 0.38025733344926393  12.07761875 0.12641283365683256  C 10.801425 -0.1274316661355988  9.478674999999999 0.0028504500078695098  8.27658125 0.5007835833507097  C 7.074446874999999 0.9987168954435495  6.046975624999999 1.841937519754048  5.324094374999999 2.923813768869398  C 4.601204999999999 4.005690017984748  4.215364999999999 5.277634391944679  4.215364999999999 6.578796265880719  C 4.215364999999999 8.323575014454013  4.908484374999999 9.996918763085722  6.142249375 11.23070001207686  Z M 21.50440625 25.045475000780517  C 21.52415 21.828462503411068  20.728143749999997 18.315375006283723  18.4256 16.34831250789218  C 16.56375625 14.749637509199424  13.53751875 14.341762509532941  10.833599999999999 14.308856259559851  L 10.7218 14.308856259559851  C 8.017905625 14.341762509532941  4.9916599999999995 14.749637509199424  3.1298649999999997 16.34831250789218  C 0.8272838749999993 18.321956256278334  0.03124999999999939 21.828462503411068  0.03124999999999939 25.045475000780517  L 0.03124999999999939 25  L 21.50440625 25  L 21.50440625 25.045475000780517  Z " fill-rule="nonzero" fill="url(#LinearGradient846)" stroke="none" transform="matrix(1 0 0 1 8 4 )" />
  </g>
</svg>