<?xml version="1.0" encoding="utf-8"?>
<svg version="1.1" xmlns:xlink="http://www.w3.org/1999/xlink" width="366px" height="84px" xmlns="http://www.w3.org/2000/svg">
  <defs>
    <filter x="13px" y="408px" width="366px" height="84px" filterUnits="userSpaceOnUse" id="filter895">
      <feOffset dx="0" dy="1" in="SourceAlpha" result="shadowOffsetInner" />
      <feGaussianBlur stdDeviation="2" in="shadowOffsetInner" result="shadowGaussian" />
      <feComposite in2="shadowGaussian" operator="atop" in="SourceAlpha" result="shadowComposite" />
      <feColorMatrix type="matrix" values="0 0 0 0 0  0 0 0 0 0  0 0 0 0 0  0 0 0 0.09803921568627451 0  " in="shadowComposite" />
    </filter>
    <g id="widget896">
      <path d="M 18 419  A 7 7 0 0 1 25 412 L 367 412  A 7 7 0 0 1 374 419 L 374 479  A 7 7 0 0 1 367 486 L 25 486  A 7 7 0 0 1 18 479 L 18 419  Z " fill-rule="nonzero" fill="#d4dbff" stroke="none" fill-opacity="0" />
      <path d="M 17.5 419  A 7.5 7.5 0 0 1 25 411.5 L 367 411.5  A 7.5 7.5 0 0 1 374.5 419 L 374.5 479  A 7.5 7.5 0 0 1 367 486.5 L 25 486.5  A 7.5 7.5 0 0 1 17.5 479 L 17.5 419  Z " stroke-width="1" stroke="#ffffff" fill="none" stroke-opacity="0.6980392156862745" />
    </g>
  </defs>
  <g transform="matrix(1 0 0 1 -13 -408 )">
    <use xlink:href="#widget896" filter="url(#filter895)" />
    <use xlink:href="#widget896" />
  </g>
</svg>