<?xml version="1.0" encoding="utf-8"?>
<svg version="1.1" xmlns:xlink="http://www.w3.org/1999/xlink" width="366px" height="84px" xmlns="http://www.w3.org/2000/svg">
  <defs>
    <filter x="13px" y="500px" width="366px" height="84px" filterUnits="userSpaceOnUse" id="filter897">
      <feOffset dx="0" dy="1" in="SourceAlpha" result="shadowOffsetInner" />
      <feGaussianBlur stdDeviation="2" in="shadowOffsetInner" result="shadowGaussian" />
      <feComposite in2="shadowGaussian" operator="atop" in="SourceAlpha" result="shadowComposite" />
      <feColorMatrix type="matrix" values="0 0 0 0 0  0 0 0 0 0  0 0 0 0 0  0 0 0 0.09803921568627451 0  " in="shadowComposite" />
    </filter>
    <g id="widget898">
      <path d="M 18 511  A 7 7 0 0 1 25 504 L 367 504  A 7 7 0 0 1 374 511 L 374 571  A 7 7 0 0 1 367 578 L 25 578  A 7 7 0 0 1 18 571 L 18 511  Z " fill-rule="nonzero" fill="#3048c2" stroke="none" fill-opacity="0" />
      <path d="M 17.5 511  A 7.5 7.5 0 0 1 25 503.5 L 367 503.5  A 7.5 7.5 0 0 1 374.5 511 L 374.5 571  A 7.5 7.5 0 0 1 367 578.5 L 25 578.5  A 7.5 7.5 0 0 1 17.5 571 L 17.5 511  Z " stroke-width="1" stroke="#ffffff" fill="none" stroke-opacity="0.6980392156862745" />
    </g>
  </defs>
  <g transform="matrix(1 0 0 1 -13 -500 )">
    <use xlink:href="#widget898" filter="url(#filter897)" />
    <use xlink:href="#widget898" />
  </g>
</svg>