<?xml version="1.0" encoding="utf-8"?>
<svg version="1.1" xmlns:xlink="http://www.w3.org/1999/xlink" width="366px" height="55px" xmlns="http://www.w3.org/2000/svg">
  <defs>
    <linearGradient gradientUnits="userSpaceOnUse" x1="3.9688335514790136" y1="1.4051762605972065" x2="355.1965857860426" y2="45.55287817938423" id="LinearGradient899">
      <stop id="Stop900" stop-color="#ffffff" stop-opacity="0.17254901960784313" offset="0" />
      <stop id="Stop901" stop-color="#ffffff" stop-opacity="0.9921568627450981" offset="1" />
    </linearGradient>
    <filter x="-4px" y="-3px" width="366px" height="55px" filterUnits="userSpaceOnUse" id="filter902">
      <feOffset dx="0" dy="1" in="SourceAlpha" result="shadowOffsetInner" />
      <feGaussianBlur stdDeviation="2" in="shadowOffsetInner" result="shadowGaussian" />
      <feComposite in2="shadowGaussian" operator="atop" in="SourceAlpha" result="shadowComposite" />
      <feColorMatrix type="matrix" values="0 0 0 0 0  0 0 0 0 0  0 0 0 0 0  0 0 0 0.09803921568627451 0  " in="shadowComposite" />
    </filter>
    <g id="widget903">
      <path d="M 0.5 23.500000000000004  A 23 23 0 0 1 23.499999999999996 0.5 L 334.5 0.5  A 23 23 0 0 1 357.5 23.5 A 23 23 0 0 1 334.5 46.5 L 23.5 46.5  A 23 23 0 0 1 0.5 23.500000000000004 Z " fill-rule="nonzero" fill="#e2e7fe" stroke="none" />
      <path d="M 0.5 23.500000000000004  A 23 23 0 0 1 23.499999999999996 0.5 L 334.5 0.5  A 23 23 0 0 1 357.5 23.5 A 23 23 0 0 1 334.5 46.5 L 23.5 46.5  A 23 23 0 0 1 0.5 23.500000000000004 Z " stroke-width="1" stroke="url(#LinearGradient899)" fill="none" />
    </g>
  </defs>
  <g transform="matrix(1 0 0 1 4 3 )">
    <use xlink:href="#widget903" filter="url(#filter902)" />
    <use xlink:href="#widget903" />
  </g>
</svg>