<?xml version="1.0" encoding="utf-8"?>
<svg version="1.1" xmlns:xlink="http://www.w3.org/1999/xlink" width="8px" height="8px" xmlns="http://www.w3.org/2000/svg">
  <defs>
    <linearGradient gradientUnits="userSpaceOnUse" x1="4" y1="0" x2="4" y2="8" id="LinearGradient909">
      <stop id="Stop910" stop-color="#3048c2" offset="0" />
      <stop id="Stop911" stop-color="#7e93ff" offset="1" />
    </linearGradient>
  </defs>
  <g transform="matrix(1 0 0 1 -360 -72 )">
    <path d="M 7.8795583760245895 4.001338242827869  C 7.8795583760245895 6.142522592213115  6.139846106557378 7.882234861680326  3.998661757172132 7.882234861680326  C 1.8574774077868859 7.882234861680326  0.11776513831967268 6.142522592213115  0.11776513831967268 4.001338242827869  C 0.11776513831967268 1.8601538934426254  1.8574774077868859 0.12044162397541051  3.998661757172132 0.12044162397541051  C 6.139846106557378 0.12044162397541051  7.8795583760245895 1.8601538934426236  7.8795583760245895 4.001338242827869  Z M 6.808966214139343 4.001338242827866  C 6.808966214139343 2.4489795850409797  5.551020414959017 1.1910337858606532  3.998661757172132 1.191033785860655  C 2.4463030993852475 1.191033785860655  1.188357300204919 2.4489795850409832  1.188357300204919 4.001338242827866  C 1.188357300204919 5.553696900614751  2.4463030993852475 6.8116426997950805  3.998661757172132 6.8116426997950805  C 5.551020414959017 6.8116426997950805  6.808966214139343 5.553696900614753  6.808966214139343 4.001338242827866  Z " fill-rule="nonzero" fill="url(#LinearGradient909)" stroke="none" transform="matrix(1 0 0 1 360 72 )" />
  </g>
</svg>