<?xml version="1.0" encoding="utf-8"?>
<svg version="1.1" xmlns:xlink="http://www.w3.org/1999/xlink" width="21px" height="21px" xmlns="http://www.w3.org/2000/svg">
  <defs>
    <linearGradient gradientUnits="userSpaceOnUse" x1="10.5" y1="0" x2="10.5" y2="21" id="LinearGradient912">
      <stop id="Stop913" stop-color="#3048c2" offset="0" />
      <stop id="Stop914" stop-color="#7e93ff" offset="1" />
    </linearGradient>
  </defs>
  <g transform="matrix(1 0 0 1 -353 -65 )">
    <path d="M 13.648954701791162 18.927700352515245  C 13.635888499190166 20.038327523580413  12.721254367139863 20.952961680640247  11.610627171065165 20.952961680640247  L 9.52003485494474 20.952961680640247  C 8.331010468273627 20.952961680640247  7.3641115008098295 19.98606273818598  7.3641115008098295 18.797038326505337  L 7.3641115008098295 18.22212543707127  C 7.3641115008098295 18.195993031869286  7.35104529820884 18.169860626667305  7.324912893006859 18.156794424066312  L 7.311846690405867 18.156794424066312  C 7.285714285203887 18.14372822146532  7.259581880001905 18.156794424066312  7.2334494747999205 18.169860626667305  L 6.867595826981705 18.54878047708651  C 6.4625435713605155 18.953832732707703  5.93989546732088 19.175958176924542  5.378048780487803 19.175958176924542  C 4.816202093654723 19.175958176924542  4.293554014624616 18.953832732707703  3.9015679365948905 18.561846679687505  L 2.4250871177115063 17.085365860804117  C 1.6149825814596004 16.27526132455221  1.6149825814596004 14.95557491187119  2.4250871177115063 14.132404173018294  L 2.8170731707317045 13.753484322599085  C 2.8432055759336863 13.727351917397103  2.8432055759336863 13.701219512195122  2.830139373332696 13.675087106993141  L 2.830139373332696 13.662020904392149  C 2.8170731707317045 13.635888499190166  2.790940765529723 13.622822296589174  2.7648083603277414 13.622822296589174  L 2.1898954708936715 13.622822296589174  C 1.0008710842225585 13.622822296589174  0.03397211675876247 12.655923354134908  0.03397211675876247 11.466898942454266  L 0.03397211675876247 9.50696865234375  C 0.04703831935975325 8.331010468273627  1.013937261814022 7.3641115008098295  2.202961673494662 7.3641115008098295  L 2.73867595512576 7.3641115008098295  C 2.7648083603277414 7.3641115008098295  2.790940765529723 7.35104529820884  2.804006968130714 7.311846690405867  C 2.8170731707317045 7.285714285203887  2.830139373332696 7.246515677400913  2.8432055759336867 7.220383272198931  C 2.856271778534677 7.19425086699695  2.8432055759336867 7.168118461794967  2.830139373332696 7.141986056592986  L 2.425087117711507 6.723867598370806  C 1.614982581459603 5.926829264719894  1.614982581459603 4.5940766494378815  2.425087117711509 3.783972113185976  L 3.901567936594893 2.307491294302592  C 4.293553989615091 1.9155052412823923  4.816202093654725 1.6933797970655484  5.378048780487805 1.6933797970655484  C 5.939895467320883 1.6933797970655484  6.462543546350991 1.9155052412823923  6.854529624380717 2.307491294302592  L 7.233449474799924 2.69947734732279  C 7.246515677400915 2.7256097525247713  7.285714285203888 2.7256097525247713  7.311846690405869 2.7125435499237804  L 7.324912893006861 2.7125435499237804  C 7.3510452982088434 2.69947734732279  7.364111500809833 2.6733449421208073  7.364111500809833 2.647212536918826  L 7.364111500809833 2.2029616734946647  C 7.364111500809832 1.013937286823552  8.3310104432641 0.047038319359756435  9.520034854944742 0.047038319359756435  L 11.61062717106517 0.047038319359756435  C 12.721254342130338 0.047038319359756435  13.63588849919017 0.9616724764195885  13.63588849919017 2.0722996474847557  L 13.63588849919017 2.608013929115854  C 13.63588849919017 2.6341463343178355  13.648954701791162 2.660278739519818  13.688153309594133 2.673344942120808  C 13.727351917397106 2.6864111447217986  13.753484322599087 2.69947734732279  13.77961672780107 2.712543549923781  C 13.805749133003049 2.7256097525247713  13.831881538205032 2.712543549923781  13.858013943407013 2.699477347322791  L 14.276132401629196 2.2944250917016014  C 15.086236937881102 1.4843205554496954  16.405923350562123 1.4843205554496954  17.229094064405494 2.307491294302592  L 18.705574908298402 3.783972113185976  C 19.0975609613186 4.175958166206175  19.319686405535446 4.698606270245809  19.319686405535446 5.260452957078888  C 19.319686405535446 5.8222996439119665  19.097560961318607 6.344947722942075  18.705574908298402 6.736933800971801  L 18.313588855278205 7.141986056592989  C 18.300522652677216 7.155052259193981  18.287456450076228 7.194250866996952  18.300522652677216 7.207317069597942  C 18.313588855278205 7.233449474799924  18.326655057879194 7.272648082602897  18.33972126048019 7.29878048780488  C 18.352787463081178 7.324912893006861  18.37891986828316 7.3510452982088434  18.405052273485143 7.3510452982088434  L 18.94076655511624 7.3510452982088434  C 20.05139372618141 7.3510452982088434  20.96602788324124 8.265679455268675  20.96602788324124 9.376306626333843  L 20.96602788324124 11.597560968464176  C 20.96602788324124 12.708188139529346  20.05139372618141 13.622822296589177  18.94076655511624 13.622822296589177  L 18.365853665682167 13.622822296589177  C 18.33972126048019 13.622822296589177  18.313588855278205 13.63588849919017  18.300522652677216 13.66202090439215  C 18.28745645007622 13.701219512195125  18.28745645007622 13.727351917397106  18.313588855278205 13.753484322599087  L 18.692508705697414 14.1193379704173  C 19.097560961318607 14.524390226038493  19.319686405535446 15.047038330078127  19.306620202934457 15.608885016911204  C 19.306620202934457 16.170731703744284  19.084494758717614 16.693379782774386  18.692508705697414 17.085365860804117  L 17.21602788681403 18.561846679687505  C 16.824041833793835 18.9538327327077  16.3013937297542 19.175958176924542  15.739547042921117 19.175958176924542  C 15.177700356088039 19.175958176924542  14.655052277057932 18.953832732707703  14.263066199028206 18.561846679687505  L 13.858013943407016 18.169860626667305  C 13.844947740806024 18.156794424066312  13.805749133003054 18.143728221465324  13.792682930402062 18.156794424066312  C 13.766550525200078 18.169860626667305  13.727351917397106 18.182926829268293  13.701219512195125 18.195993031869286  C 13.675087106993143 18.209059234470278  13.648954701791162 18.235191639672262  13.648954701791162 18.261324044874243  L 13.648954701791162 18.927700352515245  Z M 7.729965148628047 17.202961684213037  L 7.75609755383003 17.21602788681402  C 8.161149809451219 17.3989547232279  8.409407658870045 17.790940776248092  8.409407658870045 18.23519163967226  L 8.409407658870045 18.810104529106326  C 8.409407658870045 19.42421602634337  8.90592333269817 19.920731700171494  9.520034854944742 19.920731700171494  L 11.61062717106517 19.920731700171494  C 12.146341452696266 19.920731700171494  12.590592316120429 19.476480836747328  12.590592341129957 18.940766555116234  L 12.590592341129957 18.274390247475225  C 12.590592341129957 17.817073181450073  12.864982595750766 17.412020900819357  13.296167256573936 17.24216026700648  C 13.322299661775917 17.229094064405487  13.335365864376909 17.229094064405487  13.361498269578892 17.21602788681402  C 13.77961672780107 17.033101050400152  14.25000002143674 17.12456446860709  14.576655061451987 17.438153306021338  L 14.981707317073175 17.830139384051066  C 15.399825775295355 18.248257842273244  16.06620208293636 18.248257842273244  16.471254363567077 17.830139384051066  L 17.947735182450458 16.353658540158154  C 18.143728221465324 16.15766550114329  18.248257842273254 15.896341474133001  18.248257842273254 15.608885016911204  C 18.248257842273254 15.334494762290397  18.143728221465327 15.073170735280106  17.947735182450458 14.864111493664252  L 17.581881534632245 14.511324048447024  C 17.24216029201601 14.18466900843178  17.137630671208086 13.68815330959413  17.333623685213418 13.25696864877096  L 17.333623685213418 13.243902446169969  C 17.503484319026303 12.85191639314977  17.908536574647492 12.590592341129952  18.352787463081178 12.590592341129952  L 18.927700352515252 12.590592341129952  C 19.463414634146346 12.590592341129952  19.90766549757051 12.14634147770579  19.90766549757051 11.610627171065165  L 19.90766549757051 9.389372828934832  C 19.90766549757051 8.853658547303732  19.463414634146346 8.409407683879571  18.927700352515252 8.409407658870045  L 18.39198607088415 8.409407658870045  C 17.934669004859003 8.409407658870045  17.529616724228287 8.135017404249236  17.359756090415402 7.703832743426066  C 17.346689887814414 7.677700338224085  17.346689887814414 7.664634135623093  17.333623685213425 7.638501730421113  C 17.15069684879955 7.220383272198932  17.242160267006486 6.749999978563262  17.555749129430268 6.423344938548017  L 17.947735182450465 6.018292682926828  C 18.143728221465327 5.8222996439119665  18.261324044874247 5.547909414300685  18.261324044874247 5.273519159679878  C 18.261324044874247 4.986062702458079  18.15679442406632 4.72473867544779  17.960801385051454 4.528745636432927  L 16.484320566168066 3.052264817549543  C 16.079268310546876 2.6472125619283533  15.412892002905872 2.6472125619283533  15.007839722275154 3.052264817549543  L 14.576655061451984 3.457317073170732  C 14.250000021436737 3.770905935594513  13.766550525200078 3.84930312619093  13.361498269578888 3.679442517387576  C 13.348432066977896 3.6663763147865858  13.322299661775915 3.6663763147865858  13.296167256573932 3.6533101121855944  C 12.864982595750762 3.483449478372714  12.590592341129952 3.0783972227515246  12.590592341129952 2.621080131716844  L 12.590592341129952 2.085365850085747  C 12.590592341129952 1.5496515684546492  12.14634147770579 1.105400705030488  11.610627171065165 1.105400705030488  L 9.52003485494474 1.105400705030488  C 8.905923357707698 1.105400705030488  8.409407683879571 1.6019163788586128  8.409407658870045 2.2160278760956555  L 8.409407658870045 2.660278739519817  C 8.409407658870045 3.1045296029439786  8.148083606850227 3.4965156809737037  7.743031351229038 3.679442517387576  C 7.311846690405867 3.8754355564024396  6.8153309915682145 3.770905935594512  6.48867595155297 3.4442508705697414  L 6.1097561011337636 3.052264817549543  C 5.9137630621189015 2.8562717785346803  5.6524390351086105 2.751742157726753  5.378048780487803 2.751742157726753  C 5.1036585258669955 2.751742157726753  4.842334498856706 2.8562717785346803  4.646341459841842 3.052264817549543  L 3.1698606159489326 4.515679433831936  C 2.764808360327744 4.920731689453126  2.764808360327744 5.587107997094131  3.1698606159489326 5.992160277724849  L 3.57491289657965 6.423344938548018  C 3.8885017590034305 6.749999978563262  3.9799651522008386 7.233449474799924  3.797038315786967 7.638501730421114  C 3.783972113185976 7.651567933022105  3.783972113185976 7.677700338224085  3.770905935594513 7.703832743426067  C 3.6010453017816317 8.135017404249238  3.195993046160443 8.409407658870045  2.7386759551257627 8.409407658870045  L 2.2029616734946647 8.409407658870045  C 1.5888501762576221 8.409407658870045  1.0923345024294973 8.90592333269817  1.0923345024294973 9.520034854944742  L 1.0923345024294973 11.479965145055258  C 1.0923345024294973 12.094076642292302  1.5888501762576221 12.590592316120429  2.2029616734946647 12.590592341129952  L 2.777874562928735 12.590592341129952  C 3.222125426352896 12.590592341129952  3.6141115043826217 12.85191639314977  3.797038315786967 13.25696864877096  L 3.797038315786967 13.270034851371951  C 3.9799651522008386 13.68815330959413  3.888501733993903 14.197735211032775  3.561846693978659 14.511324048447024  L 3.1698606159489326 14.890243898866236  C 2.764808360327744 15.295296154487424  2.764808360327744 15.948606259527438  3.1698606159489326 16.353658540158154  L 4.646341459841844 17.830139384051066  C 4.842334498856706 18.02613242306593  5.103658525866996 18.130662043873862  5.378048780487805 18.13066201886433  C 5.652439035108612 18.13066201886433  5.913763062118903 18.026132398056404  6.122822303734756 17.817073181450077  L 6.475609748951981 17.451219508622334  C 6.802264788967224 17.1114982660061  7.298780487804876 17.006968645198175  7.729965148628047 17.202961684213037  Z " fill-rule="nonzero" fill="url(#LinearGradient912)" stroke="none" transform="matrix(1 0 0 1 353 65 )" />
  </g>
</svg>