<?xml version="1.0" encoding="utf-8"?>
<svg version="1.1" xmlns:xlink="http://www.w3.org/1999/xlink" width="25px" height="14px" xmlns="http://www.w3.org/2000/svg">
  <defs>
    <linearGradient gradientUnits="userSpaceOnUse" x1="12.5" y1="0" x2="12.5" y2="14" id="LinearGradient849">
      <stop id="Stop850" stop-color="#3048c2" offset="0" />
      <stop id="Stop851" stop-color="#7e93ff" offset="1" />
    </linearGradient>
  </defs>
  <g transform="matrix(1 0 0 1 -11 -68 )">
    <path d="M 24.37578026246489 13.63036304532797  C 24.063670393697333 13.78437844987624  23.595505617977533 13.938393854424508  23.283395749209973 13.938393827351483  C 22.815230946058634 13.938393827351483  22.347066170338834 13.784378422803218  22.034956301571277 13.476347640779702  L 13.45193507505267 3.4653465346534653  C 13.139825206285114 3.3113311301051986  12.983770271901331 3.157315725556932  12.51560549618153 3.157315725556932  C 12.359550561797752 3.157315725556932  11.891385758646418 3.3113311301052004  11.735330824262642 3.4653465346534653  L 2.6841448220242285 13.322332236231437  C 2.0599250844891155 13.938393854424504  1.1235955056179785 13.938393854424504  0.4993757680828662 13.476347640779707  C -0.12484396945224627 12.860286022586635  -0.12484396945224627 11.93619362237005  0.3433208611306189 11.32013200417698  L 9.394506863369031 1.4631463025990101  C 10.17478150785639 0.5390539023824262  11.423220982926615 0.07700768873762484  12.671660430565309 0.07700768873762484  C 13.920099878204004 0.07700768873762484  15.012484391458921 0.6930693069306941  15.94881397033006 1.6171617071472788  L 24.531835196848668 11.47414740872525  C 25.156054934383782 12.090209026918316  25.000000000000007 13.0143014271349  24.37578026246489 13.63036304532797  Z " fill-rule="nonzero" fill="url(#LinearGradient849)" stroke="none" transform="matrix(1 0 0 1 11 68 )" />
  </g>
</svg>