<?xml version="1.0" encoding="utf-8"?>
<svg version="1.1" xmlns:xlink="http://www.w3.org/1999/xlink" width="13px" height="7px" xmlns="http://www.w3.org/2000/svg">
  <defs>
    <linearGradient gradientUnits="userSpaceOnUse" x1="6.5" y1="0" x2="6.5" y2="7" id="LinearGradient852">
      <stop id="Stop853" stop-color="#3048c2" offset="0" />
      <stop id="Stop854" stop-color="#7e93ff" offset="1" />
    </linearGradient>
  </defs>
  <g>
    <path d="M 12.675405736481743 6.815181522663985  C 12.513108604722614 6.89218922493812  12.269662921348317 6.969196927212254  12.107365789589187 6.9691969136757415  C 11.86392009195049 6.9691969136757415  11.620474408576195 6.892189211401609  11.458177276817064 6.738173820389851  L 6.995006239027389 1.7326732673267327  C 6.832709107268259 1.6556655650525993  6.7515605413886925 1.578657862778466  6.508114858014396 1.578657862778466  C 6.426966292134831 1.578657862778466  6.183520594496137 1.6556655650526002  6.102372028616574 1.7326732673267327  L 1.3957553074525988 6.661166118115719  C 1.0711610439343402 6.969196927212252  0.5842696629213489 6.969196927212252  0.2596753994030904 6.738173820389854  C -0.06491886411516806 6.430143011293318  -0.06491886411516806 5.968096811185025  0.17852684778792183 5.66006600208849  L 4.8851435689518965 0.7315731512995051  C 5.290886384085322 0.2695269511912131  5.94007491112184 0.03850384436881242  6.589263423893961 0.03850384436881242  C 7.238451936666082 0.03850384436881242  7.806491883558639 0.34653465346534706  8.29338326457163 0.8085808535736394  L 12.756554302361309 5.737073704362625  C 13.081148565879566 6.045104513459158  13.000000000000004 6.50715071356745  12.675405736481743 6.815181522663985  Z " fill-rule="nonzero" fill="url(#LinearGradient852)" stroke="none" />
  </g>
</svg>