<?xml version="1.0" encoding="utf-8"?>
<svg version="1.1" xmlns:xlink="http://www.w3.org/1999/xlink" width="25px" height="25px" xmlns="http://www.w3.org/2000/svg">
  <defs>
    <linearGradient gradientUnits="userSpaceOnUse" x1="8.670757781121777" y1="7.549516567451064E-15" x2="8.670757781121777" y2="16.72137079608344" id="LinearGradient1089">
      <stop id="Stop1090" stop-color="#3048c2" offset="0" />
      <stop id="Stop1091" stop-color="#7e93ff" offset="1" />
    </linearGradient>
    <filter x="353px" y="62px" width="25px" height="25px" filterUnits="userSpaceOnUse" id="filter1092">
      <feOffset dx="0" dy="1" in="SourceAlpha" result="shadowOffsetInner" />
      <feGaussianBlur stdDeviation="2" in="shadowOffsetInner" result="shadowGaussian" />
      <feComposite in2="shadowGaussian" operator="atop" in="SourceAlpha" result="shadowComposite" />
      <feColorMatrix type="matrix" values="0 0 0 0 0  0 0 0 0 0  0 0 0 0 0  0 0 0 0.09803921568627451 0  " in="shadowComposite" />
    </filter>
    <g id="widget1093">
      <path d="M 15.583333326416014 14.4765625  L 15.583333326416014 8.942708326416016  C 15.583333326416014 8.575956734731506  15.880644234731506 8.278645826416016  16.247395826416014 8.278645826416016  C 16.61414741810053 8.278645826416016  16.911458326416014 8.575956734731506  16.911458326416014 8.942708326416016  L 16.911458326416014 14.4765625  C 16.911458326416014 15.8212890625  15.8212890625 16.911458326416014  14.4765625 17  L 2.5234375 17  C 1.1787109374999996 16.911458326416014  0.08854167358398432 15.8212890625  0 14.4765625  L 0 3.1875  C 0.08854167358398432 1.8427734375  1.1787109374999996 0.7526041735839848  2.5234375 0.7526041735839848  L 8.278645826416016 0.7526041735839848  C 8.645397418100526 0.7526041735839848  8.942708326416016 1.0499150818994736  8.942708326416016 1.4166666735839848  C 8.942708326416016 1.7834182652684973  8.645397418100528 2.080729173583985  8.278645826416016 2.080729173583985  L 2.5234375 2.080729173583985  C 1.9121848510128112 2.080729173583985  1.4166666735839841 2.5762473510128103  1.4166666735839841 3.1875  L 1.4166666735839841 14.4765625  C 1.4166666735839841 15.08781514898719  1.91218485101281 15.583333326416014  2.5234375 15.583333326416014  L 14.4765625 15.583333326416014  C 15.08781514898719 15.583333326416014  15.583333326416014 15.08781514898719  15.583333326416014 14.4765625  Z M 12.914023437499997 3.1875  L 14.710533861083984 3.1875000000000013  L 12.847174486083983 1.2077083264160167  C 12.73126165760672 1.0845227571862208  12.666720633075634 0.921750455724482  12.666720633075634 0.7526041632080088  C 12.666720633075634 0.385824844776569  12.964054018360553 0.08849145949165016  13.330833336791994 0.08849145949165016  C 13.513975488527599 0.08849145949165016  13.688988255340098 0.16412155063598027  13.814492187500003 0.2975000000000009  L 16.7310546875 3.396458326416017  C 17.129934888916015 3.8201302014160166  16.829335937499998 4.515625  16.247395826416014 4.515625  L 12.914023437499997 4.515625  C 11.219114576416015 4.515625  9.828125 5.993385423583985  9.828125 7.8359375  L 9.828125 11.8203125  C 9.828125 12.18706409168451  9.530814091684512 12.484375  9.1640625 12.484375  C 8.797310908315488 12.484375  8.5 12.18706409168451  8.5 11.8203125  L 8.5 7.8359375  C 8.5 5.2773046875  10.466953125 3.1875  12.914023437499997 3.1875  Z " fill-rule="nonzero" fill="url(#LinearGradient1089)" stroke="none" transform="matrix(1 0 0 1 357 65 )" />
    </g>
  </defs>
  <g transform="matrix(1 0 0 1 -353 -62 )">
    <use xlink:href="#widget1093" filter="url(#filter1092)" />
    <use xlink:href="#widget1093" />
  </g>
</svg>