<svg t="1705393573095" class="icon" viewBox="0 0 1024 1024" version="1.1" xmlns="http://www.w3.org/2000/svg" p-id="21567" width="200" height="200"><path d="M461.6 247.1a48.6 34.1 0 1 0 97.2 0 48.6 34.1 0 1 0-97.2 0Z" fill="#E74291" p-id="21568"></path><path d="M541.9 732.7s-1.7-59.1 48.7-88.7c35.2-20.7 94.4-17.6 127.1-13.9 11.6 1.3 17.8 14.3 11.7 24.1-12.7 20.4-35.4 50.6-65.8 66.9-41.2 22-121.7 11.6-121.7 11.6zM296.1 316.9s168.1 8.4 204.6 84.9 23 169.9 23 169.9-122.6 0.4-171.1-63.3-56.5-191.5-56.5-191.5zM512.3 286.6l55.2-33.9s84.3 104.3 73.7 191.5c-8 66-55.3 103.4-55.3 103.4l1.2-168.3-74.8-92.7z" fill="#E74291" p-id="21569"></path><path d="M740.4 369.7l-8.6-142.1c-0.8-13.7-7.5-26.3-18.3-34.7-10.8-8.4-24.6-11.8-38-9.3-12.3 2.3-27.8 5.8-45.1 11.1-24.4-40.4-69.3-64.4-117-61.7-27.7 1.6-53.5 11.7-74.8 29.4-17 14.1-29.8 32-37.6 52.2-28.7-7.9-54.8-11.4-73.4-12.9-13.8-1.1-27.4 3.8-37.3 13.5-9.9 9.7-15.1 23.1-14.2 37l8.6 141.5c3.3 55.1 29.8 105.8 74.5 142.7 41.2 34 93.1 52.3 147.4 52.3 4.2 0 8.3-0.1 12.5-0.3 2.5-0.1 5.1-0.4 7.7-0.9 1 0.2 2 0.3 3.1 0.3h0.8c-0.2 24.5-3.4 93.4-29.5 164.8-30.6 83.9-70.2 155.5-70.6 156.2-4.3 7.7-1.5 17.5 6.2 21.8 2.5 1.4 5.1 2 7.8 2 5.6 0 11.1-3 14-8.2 1.7-3 41.2-74.3 72.7-160.7 29.5-80.9 31.6-156.8 31.4-179.7 19.7-3.7 38.7-9.9 56.8-18.6 26.9-12.9 50.3-30.4 69.7-52.1 36.3-40.5 54.4-91.5 51.2-143.6zM515.3 164.9c33.5-1.9 65.2 13.8 84.1 40.8-31.3 12.7-65 31.3-93.9 58.7-23.5-17.8-49.1-30.7-73.9-40 14-34 46.1-57.4 83.7-59.5zM316.7 391.7l-8.6-141.5c-0.3-4.6 1.4-8.9 4.7-12.1 3-2.9 6.8-4.5 11-4.5 0.4 0 0.9 0 1.3 0.1 37.8 3.1 109.6 15 165.6 59.7 75.5 60.4 82 119.4 87.6 171.4l0.4 4c3.3 30.2-8.1 50.9-18.3 62.9-13.8 16.3-31.5 24.2-42.9 24.8-3.6 0.2-7.3 0.3-10.9 0.3-100.1-0.2-184.2-72.2-189.9-165.1z m348.8 100.1c-19.8 22.1-45 39.3-73 50.2 14.8-22.1 21.1-48.9 18.1-76.9l-0.4-3.9c-5.3-48.1-12.3-112.6-79.9-176 49.7-45.7 115.5-63.6 151.2-70.2 4.4-0.8 8.9 0.3 12.4 3.1 3.6 2.8 5.8 6.9 6 11.5l8.6 142.1c2.6 43.5-12.6 86.2-43 120.1z" fill="#4C3441" p-id="21570"></path></svg>