<?xml version="1.0" encoding="utf-8"?>
<svg version="1.1" xmlns:xlink="http://www.w3.org/1999/xlink" width="14px" height="14px" xmlns="http://www.w3.org/2000/svg">
  <defs>
    <filter x="164px" y="73px" width="14px" height="14px" filterUnits="userSpaceOnUse" id="filter706">
      <feOffset dx="1" dy="2" in="SourceAlpha" result="shadowOffsetInner" />
      <feGaussianBlur stdDeviation="1" in="shadowOffsetInner" result="shadowGaussian" />
      <feComposite in2="shadowGaussian" operator="atop" in="SourceAlpha" result="shadowComposite" />
      <feColorMatrix type="matrix" values="0 0 0 0 0  0 0 0 0 0  0 0 0 0 0  0 0 0 0.34901960784313724 0  " in="shadowComposite" />
    </filter>
    <g id="widget707">
      <path d="M 170 73  C 172.8 73  175 75.2  175 78  C 175 80.8  172.8 83  170 83  C 167.2 83  165 80.8  165 78  C 165 75.2  167.2 73  170 73  Z " fill-rule="nonzero" fill="#ffffff" stroke="none" />
      <path d="M 170 73.5  C 172.52 73.5  174.5 75.48  174.5 78  C 174.5 80.52  172.52 82.5  170 82.5  C 167.48 82.5  165.5 80.52  165.5 78  C 165.5 75.48  167.48 73.5  170 73.5  Z " stroke-width="1" stroke="#797979" fill="none" />
    </g>
  </defs>
  <g transform="matrix(1 0 0 1 -164 -73 )">
    <use xlink:href="#widget707" filter="url(#filter706)" />
    <use xlink:href="#widget707" />
  </g>
</svg>