<?xml version="1.0" encoding="utf-8"?>
<svg version="1.1" xmlns:xlink="http://www.w3.org/1999/xlink" width="39px" height="23px" xmlns="http://www.w3.org/2000/svg">
  <g transform="matrix(1 0 0 1 -299 -183 )">
    <path d="M 1.7571214240506352 22.582980648734168  C 1.7814130696202561 19.98377390822784  2.46157933544304 18.599149778481003  3.141745601265823 16.68010930379747  C 3.141745601265823 16.68010930379747  3.020287325949368 16.41290115506329  3.141745601265823 16.267151234177213  C 3.2632038765822786 16.267151234177213  3.020287325949368 16.825859224683544  3.263203829113925 16.68010930379747  C 3.1417455537974694 15.999943037974681  3.530411977848102 15.999943037974681  3.5304120253164566 15.56269332278481  C 3.4575370886075953 15.538401677215191  3.4332453955696214 15.441235047468354  3.3846621044303795 15.319776819620254  C 3.43324539556962 15.246901882911393  3.481828734177215 15.149735253164557  3.506120379746835 15.076860316455697  C 3.7247452373417715 15.10115196202532  3.6032870094936706 15.319776819620254  3.8462034651898724 15.198318544303799  C 3.967661740506328 14.931110395569618  3.5789953164556945 15.198318544303799  3.7247452373417715 14.931110395569618  C 3.821911867088607 15.028277025316456  3.749036882911392 14.809652120253167  3.797620174050633 14.712485537974683  C 3.749036882911393 14.736777183544305  3.700453544303797 14.736777183544305  3.6518702531645557 14.712485537974683  C 3.676161898734175 14.688193892405062  3.7004535443037962 14.688193892405062  3.749036882911392 14.688193892405062  C 3.749036882911392 14.566735617088607  3.481828734177214 14.420985743670885  3.627578607594936 14.275235822784808  C 3.627578607594936 14.396694098101264  3.894786756329114 14.275235822784808  3.749036882911392 14.542443971518985  C 3.870495158227847 14.663902246835441  3.749036882911392 14.420985696202528  3.8704951107594927 14.420985696202528  L 3.9919533860759477 14.542443971518985  C 3.9190784493670865 14.542443971518985  3.894786756329112 14.615318908227849  3.8704951107594927 14.639610553797464  C 3.8462034651898724 14.639610553797464  3.8462034651898724 14.639610553797464  3.8462034651898724 14.663902246835441  C 3.8704951107594927 14.663902246835441  3.8704951107594927 14.663902246835441  3.8704951107594927 14.639610553797464  C 3.8704951107594927 14.712485490506324  3.919078401898732 14.76106882911392  3.9919533860759477 14.76106882911392  C 4.672119651898733 13.400736344936703  5.352285870253162 11.9918205221519  6.469701851265821 11.044446155063287  L 6.469701851265821 10.63148803797468  L 6.736910047468353 10.63148803797468  C 6.736910047468353 9.951321772151895  7.417076313291139 10.07278004746835  7.562826186708858 9.39261382911392  L 7.830034335443038 9.39261382911392  C 7.951492610759494 8.979655759493667  8.388742325949366 8.566697689873413  8.80170039556962 8.27519784810126  C 9.360408386075948 7.862239778481008  9.627616534810125 7.303531787974681  10.162032927215188 7.157781867088602  C 10.283491202531645 6.890573718354425  10.429241075949367 6.744823797468349  10.574990996835442 6.599073876582274  C 10.987949066455696 6.72053215189873  10.842199145569623 6.331865727848097  11.255157215189875 6.331865727848097  C 11.813865205696203 5.505949588607589  13.174197689873417 5.214449746835438  14.024405522151902 4.412825253164552  C 16.11348756329114 3.732658987341767  17.86248647151899 2.615243053797463  20.510276503164558 2.3237432120253105  C 20.631734778481015 2.202284936708855  20.24306835443038 2.202284936708855  20.510276503164558 2.056535015822779  C 22.162108829113926 2.1779932911392343  24.348357452531644 1.7893268670886018  26.558897768987347 1.935076787974678  C 26.558897768987347 1.8136185126582214  26.558897768987347 1.6678686392405007  26.82610591772152 1.8136185126582214  C 26.704647642405067 1.935076787974678  26.94756419303798 1.935076787974678  26.94756419303798 2.0808266613923996  C 27.50627218354431 1.959368386075944  28.064980174050632 2.3480348101265767  28.307896677215197 2.0808266613923996  C 28.575104825949374 2.3480348101265767  29.425312658227853 2.639534651898728  29.54677093354432 2.0808266613923996  L 29.54677093354432 2.493784731012653  C 29.813979082278493 2.493784731012653  30.105478924050644 2.493784731012653  30.226937151898746 2.6152430063291083  C 30.348395427215202 2.3480348575949312  30.10547887658229 2.3480348575949312  30.105478924050644 2.202284936708855  C 30.37268707278482 2.3237432120253105  30.105478924050644 1.935076787974678  30.37268707278482 2.0808266613923996  C 30.494145348101277 2.3480348101265767  30.105478924050644 2.0808266613923996  30.251228797468364 2.3480348575949312  C 30.37268707278482 2.3480348575949312  30.37268707278482 2.4694931329113867  30.37268707278482 2.6152430063291083  C 30.931395063291152 2.6152430063291083  31.490103053797476 2.8824511550632854  31.903061123417732 3.028201075949361  C 31.903061123417732 2.9553261392405012  31.951644414556974 2.9067428006329052  32.024519398734185 2.90674284810126  C 31.757311250000008 2.7852845727848043  32.14597767405064 2.6395346993670827  31.903061123417732 2.3480348575949304  L 32.17026927215191 2.3480348575949304  C 32.17026927215191 2.4694931329113867  32.17026927215191 2.4694931329113867  32.29172754746836 2.6152430063291074  C 32.024519398734185 2.736701281645564  32.024519398734185 2.882451155063285  32.024519398734185 3.2954092721518933  C 32.14597767405064 3.4168675474683496  32.024519398734185 3.028201123417716  32.14597762658229 3.028201075949361  C 32.14597762658229 3.028201075949361  32.26743590189874 2.9067428006329052  32.26743590189874 3.028201075949361  C 32.194560965189886 3.028201075949361  32.14597762658229 3.0767843670886013  32.14597762658229 3.149659351265818  C 32.26743590189874 3.149659351265818  32.26743590189874 3.149659351265818  32.26743590189874 3.2711176265822726  C 32.3888941772152 3.392575901898729  32.3888941772152 3.149659351265818  32.53464405063292 3.149659351265818  L 32.53464405063292 3.416867499999995  C 34.74518436708862 4.097033765822779  36.37272500000001 5.335907974683538  38.170307246835456 6.453323955696198  C 38.170307246835456 6.331865680379741  38.43751539556963 6.186115806962018  38.58326531645571 6.331865727848097  C 38.48609868670887 6.331865727848097  38.55897367088609 6.550490585443033  38.486098734177226 6.599073876582274  C 38.486098734177226 6.574782231012653  38.486098734177226 6.574782231012653  38.46180708860761 6.599073876582274  L 38.729015237341784 6.599073876582274  C 38.85047351265824 6.186115806962019  38.85047351265824 5.62740781645569  38.85047351265824 5.238741392405059  C 38.43751544303799 5.360199667721513  38.43751544303799 4.825783322784805  38.02455732594938 4.97153324367088  C 38.14601560126583 4.850074968354425  38.02455732594938 4.850074968354425  38.02455732594938 4.704325047468348  C 36.494183275316466 3.878408908227843  35.13385079113925 3.0524927215189828  33.627768386075964 2.3480348575949312  C 33.50631011075951 2.3480348575949312  33.627768386075964 2.6152430063291083  33.36056023734179 2.469493085443032  L 33.36056023734179 2.202284936708855  C 32.680393971518995 2.202284936708855  32.24314425632913 1.5221186708860701  31.56297799050634 1.7893268670886018  C 31.684436265822796 1.7893268670886018  31.684436265822796 1.7893268670886018  31.684436265822796 1.9107850949367036  C 31.41722811708862 2.032243370253159  31.12572827531647 2.032243370253159  30.85852012658229 2.1779932911392352  C 30.85852012658229 1.9107851424050581  31.12572827531647 2.0565350158227798  31.12572827531647 1.765035221518982  C 31.247186550632925 1.6435769462025265  31.004270000000012 2.032243370253159  31.247186550632925 1.8864934493670829  C 31.247186550632925 1.7650351740506274  31.514394699367102 1.8864934493670829  31.36864477848102 1.6192853006329058  C 30.39697871835444 1.3520771518987287  29.44960430379748 1.0605773101265763  28.332188322784816 0.9391190348101208  C 28.332188322784816 1.0605773101265763  28.332188322784816 1.206327183544298  28.210730094936714 1.2063272310126525  C 28.33218837025317 0.9391190822784753  27.94352194620254 0.9391190822784753  27.652022104430387 0.9391190348101208  C 27.652022104430387 1.0605773101265763  27.53056382911393 1.206327183544298  27.23906403481013 1.2063272310126525  L 27.23906403481013 0.8176608069620199  C 26.607481107594946 0.696202531645568  26.048773117088615 1.2306188765822732  25.90302314873418 0.696202531645568  C 25.49006507911393 0.8176608069620199  25.49006507911393 0.696202531645568  25.077107009493673 0.8176608069620199  C 24.66414893987342 0.5504526582278428  23.716774525316456 0.8176608069620199  22.86656669303798 0.9391190348101208  C 22.86656669303798 1.206327183544298  22.453608623417722 1.0605773101265763  22.745108465189873 1.352077104430374  C 22.647941835443046 1.352077104430374  22.550775253164556 1.3763687499999948  22.477900268987348 1.424952088607589  L 22.477900268987348 1.352077104430374  L 22.405025332278488 1.424952088607589  C 22.332150395569627 1.424952088607589  22.307858702531654 1.424952088607589  22.30785875 1.352077104430374  C 22.30785875 1.2306188291139186  22.575066898734185 1.2306188291139186  22.42931697784811 1.084868955696197  C 21.31190099683545 0.9634106803797415  20.777484651898742 1.352077104430374  19.830110284810132 1.2063272310126525  C 19.95156856012659 1.3277855063291089  19.708652009493676 1.3277855063291089  19.708652009493676 1.4735353797468294  C 19.149944018987348 1.352077104430374  18.178277958860768 1.7407435284810067  17.619569968354437 2.032243370253159  C 17.35236181962026 2.1537016455696145  17.619569968354437 1.765035221518982  17.352361772151905 1.9107850949367036  C 16.793653781645578 2.1779932436708807  16.234945791139246 2.1779932436708807  15.700529493670892 2.469493085443033  C 15.700529493670892 2.5909513607594885  15.821987768987343 2.73670123417721  15.700529493670892 2.736701281645564  C 15.579071218354436 2.3237432120253114  15.141821503164564 2.736701281645564  15.020363227848105 2.736701281645564  C 15.020363227848105 2.85815955696202  15.141821503164563 3.149659351265818  15.020363227848105 3.149659351265818  C 14.898904952531648 3.149659351265818  15.141821503164563 2.5909513607594885  14.898905000000003 2.736701281645564  L 14.607405158227852 3.003909430379741  C 10.890782436708863 4.534283481012652  8.291575743670888 6.8419903797468296  5.789535632911395 9.611238686708855  C 5.789535632911395 9.73269696202531  6.056743781645572 9.73269696202531  6.056743781645572 9.878446835443032  C 5.789535632911395 9.756988560126578  6.056743781645572 10.14565498417721  5.789535632911395 9.999905110759489  C 5.789535632911395 9.878446835443032  5.91099390822785 9.73269696202531  5.6923690031645595 9.73269696202531  C 5.71666064873418 9.805571898734172  5.765243939873422 9.999905110759489  5.668077357594941 9.999905110759489  L 5.64378571202532 9.999905110759489  C 5.64378571202532 9.927030174050627  5.522327436708865 9.975613465189868  5.64378571202532 9.999905110759489  C 5.64378571202532 10.024196756329108  5.619494066455698 10.072780047468349  5.546619082278484 10.121363386075943  C 5.425160806962029 10.242821661392398  5.133661012658232 10.242821661392398  5.133661012658232 10.38857153481012  L 5.133661012658232 10.6557796835443  C 5.012202737341777 10.6557796835443  4.866452863924055 10.6557796835443  4.720702943037979 10.777237958860754  C 4.720702943037979 10.898696234177208  4.720702943037979 11.190196028481004  4.599244667721523 11.335945949367083  C 4.4777863924050685 11.60315409810126  4.4777863924050685 11.457404224683536  4.332036518987346 11.748904018987334  L 4.064828322784814 11.870362294303789  C 4.064828322784814 11.991820569620243  4.064828322784814 12.283320363924044  3.943370094936714 12.42907028481012  C 4.210578243670891 12.550528560126576  3.943370094936714 12.016112215189867  4.210578243670891 12.161862088607588  C 4.210578243670891 12.429070237341767  4.089119968354435 12.574820158227844  4.08912001582279 12.842028354430376  C 4.137703306962029 12.939194984177206  4.161994952531652 13.036361566455689  4.186286598101271 13.10923650316455  L 4.11341166139241 13.10923650316455  C 4.11341166139241 13.036361566455689  4.08912001582279 12.987778227848098  4.08912001582279 12.866319999999995  L 3.55470367088608 12.866319999999995  C 3.287495522151903 13.425027990506322  3.1417456012658276 13.98373598101265  2.874537405063296 14.396694050632906  C 2.9959956803797514 14.396694050632906  2.9959956803797514 14.809652120253162  2.874537405063296 14.955402041139234  C 2.874537405063296 14.882527104430373  2.8259541139240567 14.833943765822779  2.753079177215195 14.833943765822779  C 2.8259541139240567 14.90681870253164  2.8259541139240567 15.028276977848094  2.874537405063296 15.101151962025313  C 2.607329256329118 15.101151962025313  2.7530791297468404 15.927068101265817  2.3158294145569664 15.65985995253164  C 2.437287689873422 15.392651803797463  2.437287689873422 15.246901882911384  2.583037610759498 14.979693686708854  L 2.3158294145569664 14.979693686708854  C 2.3158294145569664 15.101151962025304  2.437287689873422 15.53840167721518  2.1943711867088656 15.53840167721518  C 2.1943711867088656 15.659859952531637  2.4615793354430426 15.659859952531637  2.3158294145569664 15.951359746835436  L 1.902871344936713 15.951359746835436  C 2.0243296202531686 16.218567895569613  1.7814130696202568 16.218567895569613  1.7814130696202568 16.364317863924043  C 2.048621218354435 16.242859588607587  2.048621218354435 16.4857761392405  2.1943711867088638 16.485776091772145  C 2.3158294620253193 16.36431781645569  2.1943711867088638 16.072818022151893  2.4615793354430417 16.072818022151893  C 2.3401210601265863 16.485776091772145  2.3401210601265863 16.63152601265822  2.4615793354430417 17.044484082278473  C 2.3401210601265863 17.044484082278473  2.0486212658227885 17.16594235759493  2.0486212658227885 17.044484082278473  C 1.927162990506332 16.923025806962016  2.170079541139244 16.923025806962016  2.1700794936708894 16.777275933544296  C 1.7571214240506359 16.89873420886075  1.9028713449367123 16.65581765822784  1.6113715506329145 16.65581765822784  C 1.7328298259493708 17.214525648734167  1.489913275316459 17.335983924050627  1.6113715506329145 17.773233639240498  L 1.3441633544303828 17.773233639240498  C 1.3441633544303828 18.744899699367082  0.9312052848101295 19.425065965189866  0.7854553639240534 20.372440379746827  C 0.663997088607598 21.34410643987341  0.7854553639240534 21.611314636075942  0.5182472151898763 22.582980648734168  L 1.7571214240506352 22.582980648734168  Z M 3.5304120253164566 14.931110395569618  C 3.5304120253164566 14.858235458860761  3.5547036708860764 14.785360474683543  3.603286962025318 14.712485537974683  C 3.6275786075949377 14.83394381329114  3.578995316455697 14.858235458860761  3.5304120253164566 14.931110395569618  Z " fill-rule="nonzero" fill="#677be5" stroke="none" transform="matrix(1 0 0 1 299 183 )" />
  </g>
</svg>