<?xml version="1.0" encoding="utf-8"?>
<svg version="1.1" xmlns:xlink="http://www.w3.org/1999/xlink" width="34px" height="6px" xmlns="http://www.w3.org/2000/svg">
  <g transform="matrix(1 0 0 1 -305 -192 )">
    <path d="M 6.983906772151897 5.797487310126581  C 7.00819841772152 5.797487310126581  7.00819841772152 5.797487310126581  7.00819841772152 5.846070648734177  L 7.00819841772152 5.773195664556962  C 7.00819841772152 5.651737389240505  6.886740142405063 5.773195664556962  6.886740189873418 5.773195664556962  C 6.886740189873418 5.797487310126581  6.862448544303797 5.797487310126581  6.862448544303797 5.797487310126581  L 6.983906772151897 5.797487310126581  Z M 33.51039037974684 0.5990738765822776  C 33.51039037974684 0.5504905854430362  33.4618070886076 0.501907246835442  33.38893210443038 0.5019072943037965  C 33.38893210443038 0.5747822310126569  33.461807041139245 0.5990739240506322  33.51039037974684 0.5990738765822776  Z M 7.323989905063289 5.530279161392407  C 7.80982295886076 5.43311253164557  8.004156170886077 5.020154462025317  8.368530901898737 4.9229878797468345  C 8.222780981012662 4.510029810126582  8.489989177215193 4.364279889240505  8.489989177215193 3.9513218196202526  C 8.222781028481016 3.9513218196202526  8.368530901898737 4.21852996835443  8.077031107594937 4.21852996835443  C 7.931281186708862 4.485738117088607  8.319947610759495 4.21852996835443  8.198489382911394 4.485738164556961  C 7.9312812341772165 4.6314880854430385  8.198489382911394 4.242821661392403  7.931281186708862 4.364279889240507  C 7.931281186708862 4.364279889240507  8.052739462025318 4.631488037974684  7.931281186708862 4.631488037974684  L 7.664073037974685 4.631488037974684  C 7.664073037974685 4.7529463132911385  7.518323117088606 4.7529463132911385  7.396864841772153 4.7529463132911385  C 7.494031471518987 5.06873780063291  7.421156487341772 5.287362658227849  7.323989905063289 5.530279161392407  Z M 0.6923690031645595 3.756988607594936  C 0.7166606487341802 3.732696962025315  0.6923690031645595 3.732696962025315  0.6923690031645595 3.756988607594936  Z " fill-rule="nonzero" fill="#677be5" stroke="none" transform="matrix(1 0 0 1 305 192 )" />
  </g>
</svg>