<?xml version="1.0" encoding="utf-8"?>
<svg version="1.1" xmlns:xlink="http://www.w3.org/1999/xlink" width="15px" height="7px" xmlns="http://www.w3.org/2000/svg">
  <g transform="matrix(1 0 0 1 -285 -213 )">
    <path d="M 9.931319161392405 5.4333402848101215  C 10.004194098101266 5.360465348101265  9.882735870253164 5.360465348101265  9.85844417721519 5.1904237816455705  C 8.741028196202532 5.068965506329114  7.7693621360759515 4.631715791139236  6.82198772151899 4.218757721518983  L 6.82198772151899 4.340215949367085  C 6.82198772151899 4.073007800632908  6.409029651898734 4.340215949367085  6.554779572784813 4.073007800632908  C 6.287571424050633 4.073007800632908  6.141821503164557 4.194466075949364  5.996071582278482 3.9515495253164516  C 5.728863433544305 3.6843413765822746  5.437363591772154 3.392841534810124  4.878655601265827 3.392841534810124  C 4.878655601265827 3.5385914556961993  4.75719732594937 3.660049683544301  4.611447452531646 3.6600497310126556  C 4.611447452531646 3.5385914556961993  4.878655601265827 3.5385914556961993  4.732905680379748 3.2470916613924032  C 4.319947610759495 3.125633386075947  4.052739414556964 2.6883836708860684  3.6154897468354434 2.566925395569612  L 3.3482815506329118 2.834133544303789  C 3.2268232753164554 2.71267526898734  3.0810734018987347 2.71267526898734  2.9353234810126576 2.566925395569612  C 3.056781756329112 2.0082174050632844  2.2551572151898718 1.7410092563291073  1.696449224683544 1.595259335443032  C 1.8179074999999987 1.1823012658227725  1.28349115506329 1.4738010601265756  1.429241075949367 1.0365513449366972  C 1.3077828006329106 0.9150930696202408  1.3077828006329106 1.1580096202531536  1.1620329272151881 1.1580096202531536  C 1.1620329272151881 1.0851346835442968  1.0648662974683525 1.0851346835442968  1.0162830063291128 1.0608429905063232  C 0.9191163765822754 1.3280511392405003  1.0162830063291128 1.6924259177215077  0.7733665031645565 1.6924259177215077  C 0.894824778481011 1.4252177689873307  0.5061583544303794 1.5709676424050514  0.5061583069620248 1.4252177689873307  L 0.5061583069620248 1.1580096202531536  L 0.8462414398734168 1.1580096202531536  C 0.5790332911392397 1.0365513449366972  0.5790332911392397 0.7450515506329012  0.8462414398734168 0.5993016297468259  C 0.8462414398734168 0.3320934810126488  0.7247831645569622 0.7207599050632751  0.43328337025316266 0.866509778481003  C 0.31182509493670807 0.9879680537974593  0.7004915189873415 0.9879680537974593  0.43328337025316266 1.1337179746835346  C 0.43328337025316266 1.0608430379746778  0.384700079113923 1.0122596993670783  0.31182509493670807 1.0122596993670783  C 0.1903668196202517 1.1337179746835346  0.1903668196202517 1.4252177689873307  0.1903668196202517 1.6924259177215077  C 0.6033248892405059 1.6924259177215077  0.6033248892405059 1.9596340664556848  0.8705330854430393 2.1053840348101147  C 0.8705330854430393 1.9839257594936655  0.8705330854430393 1.8381758860759376  0.9919913607594939 1.8381758386075828  L 0.9919913607594939 2.2511339082278425  C 1.6721576265822797 2.664091977848095  2.352323844936709 3.2227999683544226  3.2025316297468365 3.611466439873411  C 3.3239899050632893 3.052758449367083  3.761239620253164 3.878674588607588  4.028447816455696 3.4900081645569543  C 4.028447816455696 3.611466439873411  4.149906091772152 3.611466439873411  4.149906044303798 3.757216313291132  C 3.882697895569621 3.757216313291132  3.882697895569621 3.878674588607588  3.882697895569621 4.170174382911391  C 4.441405886075948 4.0487161075949345  4.562864161392405 4.29163265822784  4.854363955696201 4.583132499999998  C 4.975822231012657 4.4616742246835415  4.5871558069620235 4.315924351265821  4.854363955696201 4.170174382911391  C 4.975822231012657 4.29163265822784  4.975822231012657 4.437382531645568  4.975822231012657 4.7288823734177186  C 5.534530221518985 4.850340648734175  5.947488291139237 4.996090522151896  6.506196281645568 5.287590363924046  C 6.627654556962025 5.020382215189869  6.238988132911391 5.020382215189869  6.238988085443037 4.7288823734177186  C 6.506196234177214 4.607424098101262  6.238988085443037 4.996090522151896  6.506196281645568 4.850340648734175  C 6.627654556962025 4.7288823734177186  6.627654556962025 4.583132499999998  6.62765450949367 4.29163265822784  C 6.749112784810126 4.4130909335442965  7.186362499999998 4.7045907278481  6.894862705696202 4.971798924050631  C 6.894862705696202 4.8989239873417745  6.846279414556964 4.850340648734175  6.773404430379745 4.850340648734175  C 6.773404430379745 5.117548797468352  6.894862705696202 5.263298718354427  6.894862705696202 5.409048639240503  C 7.453570696202529 5.287590363924046  7.453570696202529 5.530506914556959  7.866528765822785 5.530506914556959  C 7.866528765822785 5.409048639240503  7.987987041139238 5.263298765822782  7.987987041139238 5.117548797468352  C 7.987987041139238 5.117548797468352  8.109445316455695 5.239007072784808  8.10944526898734 5.530506914556959  L 8.522403338607596 5.530506914556959  C 8.40094506329114 5.797715063291136  8.522403338607596 5.797715063291136  8.522403338607596 5.943464984177211  C 8.838194825949365 6.040631613924049  9.105402974683543 6.089214905063294  9.421194462025316 6.1863814873417695  C 9.494069398734176 6.283548117088607  9.518361091772153 6.307839762658226  9.542652737341772 6.307839762658226  C 9.736985949367089 6.380714699367083  9.882735870253164 6.405006392405063  10.1013607278481 6.453589683544301  C 9.979902452531643 6.186381534810124  10.222819003164552 6.040631613924049  10.222818955696201 5.8948816930379735  C 10.344277231012654 5.8948816930379735  10.101360680379745 6.307839762658226  10.344277231012654 6.162089841772151  C 10.46573550632911 5.8948816930379735  10.222818955696201 5.8948816930379735  10.222818955696201 5.749131772151898  L 10.490027151898733 5.749131772151898  L 10.490027151898733 5.31188205696202  C 10.222819003164552 5.31188205696202  10.077069082278477 5.433340332278476  9.931319161392405 5.4333402848101215  Z M 6.020363227848101 4.097299446202527  C 6.0446548734177235 4.145882737341772  6.0446548734177235 4.243049367088609  5.996071582278482 4.243049367088609  C 5.996071582278482 4.243049367088609  5.874613306962026 4.364507642405059  5.874613306962026 4.243049367088609  C 5.874613306962026 4.145882737341772  6.020363227848101 4.218757721518983  6.020363227848101 4.097299446202527  Z M 14.279524810126585 6.38071469936709  C 14.279524810126585 6.502172974683546  14.376691439873419 6.356423053797471  14.279524810126585 6.38071469936709  Z " fill-rule="nonzero" fill="#677be5" stroke="none" transform="matrix(1 0 0 1 285 213 )" />
  </g>
</svg>