<?xml version="1.0" encoding="utf-8"?>
<svg version="1.1" xmlns:xlink="http://www.w3.org/1999/xlink" width="38px" height="39px" xmlns="http://www.w3.org/2000/svg">
  <g transform="matrix(1 0 0 1 -295 -189 )">
    <path d="M 28.83830870253165 5.534321455696201  C 28.959766977848105 5.680071376582277  28.57110055379747 5.534321455696201  28.716850427215192 5.655779683544303  C 28.862600348101267 5.777237958860758  29.421308338607595 5.777237958860758  29.542766613924048 6.06873780063291  C 29.397016693037976 5.801529651898733  29.664224889240508 5.801529651898733  29.664224841772153 5.655779683544303  C 29.226975126582282 5.655779683544303  29.105516851265826 5.655779683544303  28.83830870253165 5.534321455696201  Z M 30.63589090189874 6.384529240506325  C 30.368682753164563 6.797487310126577  30.368682753164563 5.850112895569618  29.80997476265823 5.971571170886075  C 29.931433037974685 6.2387793196202495  30.077182911392406 6.2387793196202495  30.222932832278488 6.384529240506325  C 29.955724683544315 6.384529240506325  29.80997476265823 6.530279161392404  29.80997476265823 6.651737436708856  C 30.077182911392406 6.773195712025313  30.368682753164563 6.773195712025313  30.368682753164563 7.064695506329112  C 30.51443267405064 6.943237231012656  30.63589090189874 6.651737436708856  30.63589090189874 6.384529240506325  Z M 27.98810087025317 4.562655395569621  C 28.158142436708864 4.6841136708860756  27.866642594936714 4.53836375  27.86664264240507 4.829863544303796  C 27.98810091772152 4.829863544303796  27.86664264240507 5.097071693037973  27.98810087025317 5.2428216139240496  C 28.255309018987347 5.2428216139240496  28.42535058544304 5.364279889240503  28.546808860759498 5.364279889240503  C 28.692558781645573 5.364279889240503  28.546808860759498 5.121363386075947  28.81401705696203 5.2428216139240496  L 28.81401705696203 4.829863544303796  C 28.546808908227852 4.829863544303796  28.546808908227852 4.586947041139238  28.133850791139245 4.70840526898734  L 28.133850791139245 4.441197120253165  C 27.98810087025317 4.58694704113924  27.98810087025317 4.319738844936708  27.86664264240507 4.319738844936708  C 27.86664264240507 4.586946993670887  27.98810091772152 4.586946993670887  27.98810087025317 4.562655395569621  Z M 6.344239256329118 34.19847039556962  C 6.465697531645574 34.5142618829114  6.077031107594941 34.5142618829114  6.222781028481016 34.78147003164557  C 6.489989177215193 34.66001175632911  6.489989177215193 34.902928306962025  6.6357390981012685 34.90292825949367  C 6.6357390981012685 34.70859504746835  6.708614034810128 34.53855348101266  6.854363955696208 34.392803607594935  C 6.660030743670891 34.22276204113924  6.465697531645574 34.05272047468355  6.222781028481016 33.93126219936709  C 6.222781028481016 34.05272047468355  6.222781028481016 34.19847034810127  5.955572832278484 34.19847039556962  C 5.8341145569620325 34.4656785443038  6.2227809810126615 34.19847039556962  6.077031107594941 34.4656785443038  C 6.198489382911396 34.4656785443038  6.077031107594941 34.19847039556962  6.344239256329118 34.19847039556962  Z M 6.635739098101258 5.558613101265818  C 8.117529857594928 4.708405316455693  9.502153987341762 3.4452394145569585  11.42119446202532 3.056572990506325  C 11.688402610759496 2.7893648417721484  12.125652373417722 2.7893648417721484  12.247110601265824 2.4978649999999956  C 12.247110601265824 2.61932327531645  12.247110601265824 2.61932327531645  12.36856887658228 2.6193232278480956  C 12.927276867088608 2.206365158227843  14.166151075949369 2.3521150791139185  14.724859066455696 1.939157009493666  C 15.40502533227848 2.206365158227843  16.328108053797468 1.7205321518987304  17.27548251582278 1.8176987341772115  L 17.955648734177213 1.8176987341772115  C 17.955648734177213 1.6719488132911344  17.688440585443036 1.6719488132911344  17.688440585443036 1.5504905854430326  C 17.83419050632911 1.5504905854430326  17.955648734177213 1.429032310126578  17.955648734177213 1.283282389240501  L 17.27548251582278 1.283282389240501  C 17.27548251582278 1.429032310126578  17.396940791139237 1.550490537974678  17.27548251582278 1.5504905854430326  L 17.202607579113923 1.5504905854430326  C 17.445524082278478 1.5504905854430326  17.615565648734176 1.6719488607594892  17.324065806962025 1.7934070886075908  C 17.324065806962025 1.6719488132911344  17.324065806962025 1.6719488132911344  17.202607579113923 1.5504905854430344  L 17.178315886075946 1.5504905854430344  L 17.178315886075946 1.307574082278478  C 17.03256596518987 1.307574082278478  16.619607895569615 1.307574082278478  16.619607895569615 1.429032310126578  C 16.37669139240506 1.161824161392401  15.526483560126575 1.3075740348101237  15.259275411392398 1.429032310126578  C 15.259275411392398 1.5747822310126551  15.380733686708854 1.696240458860757  15.137817183544298 1.6962405063291113  C 14.894900680379742 1.6962405537974643  15.283567104430375 1.4290323575949326  15.016358908227843 1.429032310126578  C 14.894900632911387 1.429032310126578  14.894900632911387 1.696240458860757  14.603400838607588 1.6962405063291113  C 14.33619268987341 1.2832824367088556  13.510276503164548 1.5747822310126551  12.95156851265822 1.6962405063291113  C 12.805818591772145 1.9634486550632886  13.194485015822778 1.6962405063291113  13.073026787974676 1.9634486550632886  C 12.8058186392405 1.8176987341772115  13.073026787974676 2.206365158227845  12.805818591772145 2.084906930379743  C 12.927276867088597 1.6719488607594892  12.805818591772145 2.084906930379743  12.538610443037967 1.8176987341772115  C 12.538610443037967 1.939157009493666  12.660068718354422 2.230656803797464  12.538610443037967 2.230656803797464  L 12.538610443037967 1.9634486550632868  C 11.566944382911384 1.9634486550632868  11.299736186708852 2.5221566455696163  10.328070126582269 2.5221566455696163  C 10.473820047468347 2.6679065664556916  10.206611851265816 2.6679065664556916  10.20661189873417 2.7893647943037934  C 8.846279414556953 3.348072784810123  7.6074051582278415 4.028239050632907  6.635739098101258 4.878446835443034  C 6.781489018987334 4.878446835443034  6.902947246835435 4.75698856012658  6.902947246835435 4.878446835443034  C 6.902947246835435 5.145654984177212  6.635739098101258 5.291404905063286  6.635739098101258 5.558613101265818  Z M 15.5993585443038 1.7934070886075908  C 15.745108465189876 1.5261989398734137  16.036608259493676 1.696240458860757  16.158066534810132 1.5261989398734137  C 16.012316613924053 1.6719488607594892  15.890858386075951 1.7934070886075908  15.5993585443038 1.7934070886075908  Z M 18.85443985759494 1.3804490189873386  L 18.465773433544307 1.4047406645569573  C 18.611523354430382 1.6719488132911344  18.465773433544307 1.5261989398734137  18.70868993670886 1.9877403006329075  C 18.975898085443042 1.9877403006329075  19.267397927215193 2.2549484493670846  19.38885620253165 1.9877403006329075  C 19.510314477848105 2.2549484493670846  20.214772341772157 1.9877403006329075  20.360522262658233 2.254948496835439  C 20.23906398734178 1.987740348101262  20.62773041139241 1.8419904272151868  20.919230253164567 1.9877403006329075  L 20.919230253164567 2.109198575949364  C 20.797771977848107 2.109198575949364  20.50627218354431 1.9634486550632868  20.50627218354431 2.230656803797464  C 21.06498017405064 2.084906882911387  21.06498017405064 2.4735733069620203  21.623688164556967 2.3521150791139185  C 21.47793824367089 2.0849069303797414  21.745146439873423 2.0849069303797414  21.74514639240507 1.939157009493666  C 21.332188322784816 1.8176987341772115  21.623688117088612 2.206365158227843  21.332188322784816 2.206365158227843  L 21.332188322784816 1.6476571677215155  C 20.36052226265823 1.6476571677215155  20.23906398734177 1.6476571677215155  19.413147848101275 1.3804490189873386  C 19.267397927215193 1.5261989398734137  19.14593969936709 1.6476571677215155  18.85443985759494 1.6476571677215155  L 18.85443985759494 1.3804490189873386  Z M 31.000265680379748 7.210445427215184  C 30.8788074050633 7.186153781645565  30.8788074050633 7.186153781645565  30.878807452531653 7.064695506329109  L 30.46584933544304 7.064695506329109  C 30.46584933544304 7.331903655063286  30.587307610759495 7.331903655063286  30.587307610759495 7.477653575949361  C 30.854515759493673 7.477653575949361  30.854515759493673 7.331903655063286  31.000265680379748 7.210445427215184  Z M 17.494107373417723 29.947431329113922  C 17.66414893987342 30.06888960443038  17.66414893987342 30.214639477848102  17.907065443037975 30.214639525316453  C 17.907065443037975 30.06888960443038  17.78560716772152 29.94743137658228  17.494107373417723 29.947431329113922  Z M 0.4413679113924065 36.43330235759494  C 0.4413679113924065 36.31184408227848  0.5871178322784818 36.02034428797469  0.3199096835443047 36.02034424050633  C 0.4413679588607611 36.14180251582279  0.2956180379746858 36.433302310126585  0.4413679113924065 36.43330235759494  Z M 22.279562737341784 1.9634486550632886  C 22.012354588607607 1.9634486550632886  22.158104462025328 1.7205321518987322  21.890896313291144 1.841990379746834  L 21.890896313291144 2.522156645569618  C 22.303854382911396 2.4006983702531635  22.571062579113928 2.789364794303797  22.86256237341773 2.522156645569618  C 23.105478876582282 3.0808646360759475  23.664186867088617 3.0808646360759475  24.2228949050633 3.202322911392404  C 24.2228949050633 3.0808646360759475  24.101436629746843 2.7893648417721515  24.2228949050633 2.789364794303797  C 24.2228949050633 2.9108230696202515  24.490103053797476 3.056572943037974  24.490103053797476 3.202322911392404  C 24.2228949050633 3.348072832278479  24.490103053797476 2.9594064082278457  24.2228949050633 3.0808646360759475  C 24.2228949050633 3.3480727848101246  24.660144620253178 3.4938227056961995  25.04881104430381 3.4938227056961995  C 25.04881104430381 3.3480727848101246  25.04881104430381 3.3480727848101246  25.170269272151913 3.226614556962023  C 25.048810996835456 3.226614556962023  25.048810996835456 3.226614556962023  25.04881104430381 3.1051562816455665  L 25.07310268987343 3.1051562816455665  L 25.07310268987343 2.8379481329113894  C 24.805894541139253 2.9836980537974664  24.247186550632925 2.7164898575949348  24.101436629746843 2.4249900158227824  C 24.028561693037986 2.4249900158227824  23.979978354430386 2.473573306962024  23.979978354430386 2.5464482911392388  C 23.979978354430386 2.3035317879746806  23.469853655063304 2.2792401424050617  23.324103781645576 2.4492817088607577  C 23.445562056962036 2.084906930379745  22.813979082278493 2.5464483386075933  22.279562737341784 2.376406724683541  C 22.279562737341784 2.2549484493670864  22.158104462025328 2.2549484493670864  22.279562737341784 1.9634486550632886  Z M 24.805894541139246 3.0808646360759475  L 25.000227753164562 3.0808646360759475  C 25.000227753164562 3.153739572784808  25.000227753164562 3.202322911392404  24.927352768987348 3.202322911392404  C 24.854477784810136 3.202322911392404  24.80589449367089 3.1537396202531625  24.805894541139246 3.0808646360759475  Z M 32.36059816455696 0.9917825949367086  C 32.38488981012658 1.1618241613924063  32.65209800632911 1.04036588607595  32.65209800632912 1.1618241613924027  C 32.53063973101266 1.574782231012657  32.093390015822784 2.2792401424050617  32.65209800632912 2.4006983702531635  C 32.919306155063296 2.522156645569618  32.65209800632912 2.1334902215189864  32.919306155063296 2.2792401424050617  C 33.04076443037975 2.5464482911392388  32.65209800632912 2.2792401424050617  32.797847927215194 2.5464482911392388  C 33.35655591772152 2.959406360759493  33.6237640664557 3.6638642721518977  34.59543012658228 3.7853225474683536  C 34.59543012658228 3.9067808227848086  34.18247205696203 3.6638642721518977  34.3282219778481 3.906780775316454  C 34.44968025316456 3.906780775316454  34.59543012658228 4.02823905063291  34.59543012658228 4.319738844936708  C 34.69259675632912 4.344030490506327  34.716888401898736 4.344030490506327  34.716888401898736 4.319738844936708  C 34.78976333860759 4.2954471993670875  34.81405503164557 4.246863908227846  34.83834662974684 4.246863908227846  C 34.74118 4.684113623417721  35.66426276898734 4.58694704113924  35.29988803797468 4.829863544303796  C 35.42134631329114 4.829863544303796  35.42134631329114 4.70840526898734  35.712846107594935 4.829863544303796  C 35.712846107594935 4.829863544303796  35.59138783227848 4.70840526898734  35.712846107594935 4.70840526898734  C 35.83430438291139 4.975613417721517  35.83430438291139 4.70840526898734  35.98005425632911 4.70840526898734  C 35.98005425632911 4.829863544303796  36.24726240506329 4.975613417721517  36.10151253164557 5.388571534810126  L 35.83430438291139 5.388571534810126  L 35.83430438291139 5.655779683544303  C 36.10151253164557 5.655779683544303  36.10151253164557 5.655779683544303  36.393012373417726 5.534321455696201  C 36.393012373417726 5.655779731012657  36.27155409810127 5.80152960443038  35.98005425632911 5.80152960443038  C 36.24726240506329 6.068737753164555  36.10151253164557 6.068737753164555  36.393012373417726 6.360237594936706  L 37.75334485759494 5.947279525316455  C 37.63188658227848 5.947279525316455  37.48613670886076 6.06873780063291  37.48613666139241 5.947279525316455  L 37.48613666139241 5.680071376582277  C 37.21892851265823 5.5586131012658235  37.073178591772155 5.267113306962026  36.92742867088608 4.999905110759494  C 36.805970395569624 4.878446835443038  36.805970395569624 5.267113259493671  36.6602205221519 4.999905110759494  C 36.73309545886076 4.999905110759494  36.78167879746836 4.951321819620254  36.78167879746836 4.878446835443038  C 36.6602205221519 4.756988560126583  36.514470648734175 4.756988560126583  36.51447060126582 4.611238686708861  C 36.39301232594937 4.489780411392406  36.24726245253164 4.878446835443038  36.10151253164557 4.611238686708861  L 36.368720680379745 4.611238686708861  C 36.368720680379745 4.489780411392406  36.10151253164557 4.3440305379746835  36.10151253164557 4.052530696202531  L 35.688554462025316 4.052530696202531  L 35.688554462025316 3.6395726265822788  C 34.57113848101266 3.0808646360759493  34.4496802056962 1.720532151898734  32.91930615506329 1.720532151898734  C 32.91930615506329 1.720532151898734  33.040764430379745 1.987740300632911  32.91930615506329 1.987740300632911  C 33.040764430379745 1.720532151898734  32.65209800632911 1.5747822310126587  32.91930615506329 1.4290323101265834  C 33.040764430379745 1.6962404588607605  33.040764430379745 1.307574034810127  33.33226422468354 1.5504905854430382  C 33.33226422468354 1.1375325158227838  32.773556234177214 0.7245744462025314  32.36059816455696 0.9917825949367086  Z M 31.4618070886076 7.501945221518987  C 31.558973718354434 7.210445379746833  31.170307246835442 7.477653575949367  31.170307246835442 7.210445427215188  C 31.170307246835442 7.477653575949367  30.903099098101265 7.331903702531644  31.048848971518982 7.623403496835444  C 31.316057120253163 7.623403496835444  31.170307246835442 7.3804869936708855  31.4618070886076 7.501945221518987  Z M 25.923310474683547 3.6152809810126563  L 25.63181068037975 3.6152809810126563  C 25.510352405063294 3.7610309018987316  25.63181068037975 3.7610309018987316  25.63181068037975 3.8824891297468334  C 25.899018829113928 4.02823905063291  25.899018829113928 3.7610308544303788  26.044768750000003 3.7610308544303788  C 26.044768750000003 4.028239003164556  26.31197689873418 4.028239003164556  26.603476740506338 4.173988971518986  C 26.749226661392413 3.906780822784807  26.36056023734178 3.906780822784807  26.48201846518988 3.6152809810126563  L 26.48201846518988 3.3237811392405043  C 26.214810316455704 3.4695310601265814  26.069060395569622 3.2023228639240493  25.801852246835445 3.202322911392404  C 25.801852246835445 3.4695310601265814  26.044768750000003 3.3237811867088585  25.923310474683547 3.6152809810126563  Z M 22.838270727848105 37.30780178797469  C 22.765395791139248 37.40496841772152  23.008312294303806 36.99201030063291  22.765395791139238 37.11346857594937  C 22.35243772151899 37.380676724683546  21.647979810126586 37.380676724683546  21.405063306962028 37.6721765664557  C 21.28360503164557 37.40496841772152  20.99210523734177 37.6721765664557  20.846355316455696 37.79363484177215  C 20.020439177215188 37.526426693037976  18.92731484177215 38.06084299050633  17.80989886075949 37.915093069620255  C 17.80989886075949 37.98796800632911  17.761315569620248 38.03655134493671  17.688440585443036 38.03655134493671  C 17.688440585443036 37.963676408227855  17.737023876582278 37.915093069620255  17.80989886075949 37.915093069620255  C 16.98398272151898 37.915093069620255  16.449566376582272 37.7936347943038  15.890858386075948 38.03655134493671  L 15.890858386075948 37.769343196202534  C 15.477900316455692 37.769343196202534  15.21069212025316 37.769343196202534  14.919192325949364 37.64788492088608  C 14.651984177215184 37.769343196202534  14.651984177215184 37.915093069620255  14.651984129746833 38.06084299050633  C 14.651984129746833 37.98796805379747  14.603400838607588 37.939384715189874  14.530525854430376 37.939384715189874  C 14.651984129746833 37.939384715189874  14.651984129746833 37.81792643987342  14.651984129746833 37.6721765664557  C 14.239026060126575 37.6721765664557  13.971817863924043 37.55071829113924  13.680318069620245 37.40496841772152  C 13.680318069620245 37.526426693037976  13.801776344936702 37.6721765664557  13.680318069620245 37.6721765664557  C 13.413109920886068 37.40496841772152  13.000151803797461 37.259218496835445  12.708652009493665 37.11346857594937  C 12.708652009493665 37.234926851265826  12.830110284810118 37.380676724683546  12.708652009493665 37.3806767721519  C 12.708652009493665 37.3806767721519  12.587193734177209 37.50213504746836  12.587193734177209 37.3806767721519  C 12.66006867088607 37.3806767721519  12.708652009493665 37.332093481012656  12.708652009493665 37.259218496835445  C 12.29569393987341 37.259218496835445  12.028485743670878 37.13776022151899  11.591236028481006 36.99201030063291  C 11.46977775316455 36.99201030063291  11.591236028481006 37.25921844936709  11.46977775316455 37.259218496835445  C 11.46977775316455 37.259218496835445  11.348319477848095 37.3806767721519  11.348319525316448 37.259218496835445  C 11.469777800632905 37.259218496835445  11.469777800632905 37.259218496835445  11.46977775316455 36.99201030063291  C 11.202569604430373 36.87055202531646  10.911069762658222 37.11346857594937  10.643861613924045 36.99201030063291  C 10.643861613924045 36.87055202531646  11.056819683544298 37.11346857594937  10.911069762658222 36.87055207278481  C 10.085153623417717 36.749093797468355  9.793653781645563 36.044635933544306  8.992029287974677 35.898886012658224  C 8.992029287974677 36.044635933544306  8.870571012658221 36.1660941613924  8.7248211392405 36.1660941613924  C 8.603362863924044 35.898886012658224  8.846279414556953 35.898886012658224  8.846279414556953 35.75313609177215  C 8.14182150316455 35.340178022151896  7.510238575949359 34.87863661392405  6.902947246835435 34.417095253164554  C 6.927238892405057 34.392803607594935  6.927238892405057 34.36851196202531  6.927238892405057 34.3442203164557  L 6.854363955696197 34.417095253164554  C 6.878655601265816 34.417095253164554  6.878655601265816 34.44138689873417  6.878655601265816 34.44138689873417  C 6.805780664556956 34.63572011075949  6.9029472468354385 34.75717838607595  6.9029472468354385 34.90292825949366  L 6.635739098101261 34.90292825949366  C 6.757197373417714 35.17013640822784  7.048697167721513 35.31588632911392  7.315905316455691 35.46163625  C 7.437363591772147 35.19442810126582  7.048697167721513 35.46163625  7.194447088607593 35.19442810126582  L 7.46165523734177 35.19442810126582  C 7.46165523734177 35.46163625  7.5831135126582225 35.60738617088607  7.5831135126582225 35.75313609177215  C 7.6559884493670864 35.75313609177215  7.704571787974679 35.704552800632904  7.704571787974679 35.63167781645569  C 7.971779936708856 36.04463588607595  8.384738053797467 36.457593955696204  9.234945838607594 36.45759400316456  C 9.113487563291137 36.579052278481015  9.234945838607594 36.579052278481015  9.234945838607594 36.724802151898736  C 9.50215398734177 36.724802151898736  9.647903908227846 36.84626042721519  9.793653829113921 36.84626042721519  C 9.793653829113921 36.724802151898736  10.0608619778481 36.579052278481015  10.206611898734172 36.724802151898736  C 10.085153623417717 36.724802151898736  10.085153623417717 36.84626042721519  10.085153623417717 37.13776022151899  C 10.352361772151898 37.13776022151899  10.643861613924049 37.13776022151899  10.765319889240505 37.40496841772152  C 11.032528037974682 37.526426693037976  10.765319889240505 37.13776026898734  11.032528037974682 37.28351014240506  C 10.911069762658226 37.55071829113924  11.29973618670886 37.28351014240506  11.153986313291139 37.55071829113924  C 12.39286056962025 37.81792643987342  13.923234620253162 38.668134272151896  15.283567056962024 38.37663447784811  C 15.40502533227848 38.37663447784811  15.283567056962024 38.643842626582284  15.550775253164556 38.643842626582284  C 15.817983449367087 38.643842626582284  15.672233528481012 38.37663447784811  15.963733322784812 38.37663447784811  L 15.963733322784812 38.643842626582284  C 16.376691392405064 38.52238435126583  16.78964946202532 38.643842626582284  17.202607579113927 38.76530090189874  C 17.081149303797474 38.49809275316456  17.324065854430383 38.49809275316456  17.32406580696203 38.35234283227848  C 17.202607531645572 38.35234283227848  17.05685765822785 38.61955098101266  16.911107737341776 38.35234283227848  C 17.03256601265823 38.23088455696203  17.178315886075954 38.23088455696203  17.32406580696203 38.08513463607595  C 17.32406580696203 38.206592911392406  17.591273955696206 38.08513463607595  17.59127400316456 38.206592911392406  L 17.59127400316456 38.32805118670886  C 17.324065854430383 38.32805118670886  17.324065854430383 38.32805118670886  17.32406580696203 38.59525933544304  C 18.149981946202537 38.59525933544304  18.85443985759494 38.47380106012658  19.923272547468358 38.47380106012658  C 19.923272547468358 38.352342784810126  19.8018142721519 38.206592911392406  19.923272547468358 38.206592911392406  L 19.923272547468358 38.47380106012658  C 20.190480696202535 38.206592911392406  20.89493860759494 38.352342784810126  21.162146756329115 38.06084299050633  C 21.162146756329115 38.13371792721519  21.21073004746836 38.18230126582279  21.28360503164557 38.18230126582279  C 22.401021012658227 37.769343196202534  23.761353496835447 37.62359327531645  24.611561329113925 36.94342700949367  C 25.024519398734174 36.94342700949367  25.72897731012658 36.82196873417721  25.850435537974683 36.38471901898734  C 25.850435537974683 36.4575939556962  25.89901882911392 36.5061772943038  25.971893813291132 36.5061772943038  C 26.50631015822784 36.06892757911392  27.186476376582277 35.826011028481005  27.720892721518986 35.41305295886075  C 27.818059351265816 35.388761313291134  27.842350996835442 35.388761313291134  27.86664264240506 35.340178022151896  C 28.012392563291137 35.21871974683544  28.158142484177212 35.09726151898734  28.279600712025314 34.927219952531644  C 28.40105898734177 34.80576167721519  28.012392563291137 35.0486782278481  28.158142436708857 34.80576167721519  C 28.571100506329117 34.927219952531644  28.716850427215192 34.80576167721519  28.716850427215192 34.53855352848101  C 28.83830870253165 34.53855352848101  28.716850427215192 34.66001180379747  28.716850427215192 34.80576167721519  C 28.984058575949373 34.80576167721519  28.83830870253165 34.392803607594935  29.397016693037976 34.53855352848101  C 29.518474968354436 34.417095253164554  29.1298085443038 34.27134537974683  29.397016693037976 34.1255954113924  C 29.469891629746833 34.19847034810126  29.542766613924048 34.24705368670885  29.639933196202534 34.24705368670885  L 29.664224841772153 34.27134533227848  L 29.664224841772153 34.24705368670885  C 29.761391471518987 34.222762041139234  29.80997476265823 34.10130376582278  29.90714134493671 34.0041371835443  L 30.052891265822787 34.0041371835443  L 30.052891265822787 33.882678908227845  C 30.125766202531644 33.85838726265822  30.198641186708862 33.85838726265822  30.32009946202532 33.85838726265822  L 30.32009946202532 33.59117911392405  C 31.000265727848102 33.32397096518987  31.291765522151906 32.61951305379746  31.971931740506328 32.23084658227848  C 31.971931740506328 31.672138591772146  32.53063973101266 31.672138591772146  32.53063973101266 31.113430648734173  L 32.797847927215194 31.113430648734173  C 32.797847927215194 30.846222499999996  33.06505607594937 30.43326438291139  32.797847927215194 30.14176454113924  C 33.21080599683545 30.263222816455695  33.35655591772152 30.020306265822782  33.478014145569624 29.87455639240506  C 34.44968020569621 28.07697419303797  35.12984647151899 26.838099936708858  35.68855446202532 24.62755962025316  C 35.27559639240507 24.50610134493671  35.27559639240507 25.04051768987341  34.86263832278481 24.89476781645569  C 34.30393033227848 27.372516281645566  33.6237640664557 28.48993226265822  32.38488981012659 30.14176454113924  C 32.38488981012659 30.408972689873416  32.50634808544304 30.967680680379743  32.38488981012659 31.113430648734173  C 32.26343153481013 30.99197237341772  32.11768166139241 30.99197237341772  31.826181867088607 30.99197237341772  C 30.708765886075952 32.35230485759494  29.469891677215188 33.76122068037975  27.963809224683544 34.70859504746836  L 27.963809224683544 34.83005332278481  C 27.405101234177216 34.70859504746836  26.992143164556968 35.09726147151899  26.724935015822787 35.5102195886076  C 25.753268955696207 35.631677863924054  25.073102689873423 36.481885648734185  23.95568670886076 36.62763556962025  C 23.95568670886076 36.74909384493671  24.077144984177217 36.89484371835443  23.95568670886076 36.89484371835443  C 23.688478560126583 36.62763556962025  22.984020648734177 36.89484371835443  22.838270727848105 37.30780178797469  Z M 29.615641550632915 6.360237594936706  L 29.78568311708861 6.360237594936706  C 29.737099825949365 6.2873626582278455  29.737099825949365 6.190196028481012  29.712808132911395 6.117321091772148  C 29.688516487341783 6.214487721518985  29.61564150316456 6.311654303797468  29.615641550632915 6.360237594936706  Z M 1.9960336075949368 10.514110031645572  C 1.9960336075949368 10.538401677215191  2.1174918829113913 10.125443607594939  1.9960336075949368 10.246901882911388  C 1.9960336075949368 10.659859952531644  1.728825458860758 10.659859952531644  1.5830755379746826 10.92706810126582  C 1.7045338132911372 10.92706810126582  1.9960336075949368 10.805609825949366  1.9960336075949368 10.92706810126582  C 1.8745753322784804 10.92706810126582  1.8745753322784804 10.92706810126582  1.874575379746835 11.194276297468356  C 3.1134496360759485 10.076860316455694  3.6721575791139234 8.546486265822786  4.911031835443037 7.599111851265821  C 4.76528191455696 7.453361930379742  4.71669862341772 7.331903702531644  4.76528191455696 7.161862088607592  L 4.886740189873415 7.161862088607592  C 4.935323481012656 7.113278797468354  4.983906819620252 7.064695458860757  5.032490063291139 7.04040386075949  C 5.032490063291139 7.137570490506327  4.9596151265822765 7.259028718354429  4.9596151265822765 7.307612009493667  C 5.081073401898731 6.991820522151897  5.202531629746833 6.748904018987339  5.29969825949367 6.530279161392404  C 5.275406613924047 6.530279161392404  5.275406613924047 6.530279161392404  5.2268232753164545 6.554570806962026  C 5.2268232753164545 6.748904018987339  5.129656645569618 6.821778955696204  5.032490063291139 6.918945585443037  C 5.032490063291139 6.870362294303796  5.032490063291139 6.821778955696204  5.008198417721515 6.797487310126581  C 4.935323481012656 6.918945585443037  4.8138652056961995 6.918945585443037  4.76528191455696 6.991820522151897  C 4.789573560126583 6.918945585443037  4.838156851265822 6.846070601265821  4.862448544303797 6.773195664556962  C 4.59524039556962 6.846070601265821  4.546657056962026 7.04040381329114  4.30374055379747 7.186153781645569  C 4.30374055379747 7.3076120569620215  4.425198829113924 7.599111851265821  4.30374055379747 7.599111851265821  C 4.182282278481013 7.04040386075949  3.8907824841772154 8.012069920886077  3.6235742879746837 7.866319999999998  C 3.7450325632911383 8.279278069620254  2.943408022151896 8.425027990506326  3.356366139240505 8.837986060126582  C 3.0891579905063278 8.983735981012657  3.356366139240505 8.595069556962024  3.089157943037973 8.71652783227848  L 3.089157943037973 9.129485901898732  C 2.6761998734177186 8.983735981012657  2.821949794303796 9.542443971518988  2.408991724683542 9.542443971518988  C 2.408991724683542 9.809652120253165  2.1660752215189856 9.809652120253165  2.2875334493670874 10.101151962025316  C 2.4332833702531627 10.101151962025316  2.5547415981012644 9.979693686708861  2.5547415981012644 10.101151962025316  L 2.5547415981012644 10.246901882911395  C 2.2875334493670874 10.246901882911395  2.1174918829113913 10.39265180379747  1.9960336075949368 10.514110031645572  Z M 0.9757842563291135 36.724802151898736  C 0.7085761075949364 36.84626042721519  0.9757842563291135 36.43330231012658  0.7085761075949364 36.57905223101266  L 0.7085761075949364 36.99201030063291  C 0.8543260284810135 36.99201030063291  0.9757842563291135 36.87055202531646  0.9757842563291135 36.724802151898736  Z M 29.712808132911395 6.117321091772151  C 29.761391424050643 6.06873780063291  29.785683069620255 6.020154462025317  29.78568311708861 5.971571170886075  C 29.737099825949365 6.020154462025314  29.712808180379753 6.06873780063291  29.712808132911395 6.117321091772151  Z " fill-rule="nonzero" fill="#677be5" stroke="none" transform="matrix(1 0 0 1 295 189 )" />
  </g>
</svg>