<?xml version="1.0" encoding="utf-8"?>
<svg version="1.1" xmlns:xlink="http://www.w3.org/1999/xlink" width="20px" height="6px" xmlns="http://www.w3.org/2000/svg">
  <g transform="matrix(1 0 0 1 -298 -194 )">
    <path d="M 0.19032889240506368 5.044522056962027  C 0.16603724683544385 5.044522056962027  0.11745395569620243 5.068813702531646  0.11745390822784785 5.068813702531646  C 0.11745390822784785 5.044522056962027  0.11745390822784785 5.068813702531646  0.09316226265822802 5.093105348101268  C 0.14174555379746767 5.068813702531646  0.16603719936708927 5.068813702531646  0.2146205379746835 5.068813702531646  L 0.19032889240506368 5.044522056962027  Z M 19.405025332278488 0.9149412658227796  C 19.332150395569627 0.8420663291139157  19.332150395569627 0.8177746360759421  19.380733686708858 0.8177746360759492  L 19.283567056962024 0.8177746360759492  L 19.283567056962024 0.35623327531645543  C 19.18640042721519 0.35623327531645543  19.089233844936707 0.33194162974683294  19.04065055379747 0.259066645569618  C 18.773442405063292 0.35623327531645543  18.48194256329114 0.45339985759493473  18.166151123417723 0.4533999050632893  C 15.78556924050633 1.1578578164556923  13.162070901898737 1.8866073734177213  10.538572468354431 2.4696069620253134  C 9.445448132911395 2.7125234651898715  8.37661549050633 3.17406487341772  7.186324572784811 3.2955231012658217  C 6.360408433544304 3.5384396044303763  5.388742373417722 3.7570644620253155  4.53853454113924 3.9999810126582247  C 4.417076265822784 4.121439287974681  4.53853454113924 4.242897515822783  4.417076265822784 4.242897515822783  C 3.202493702531646 4.1214392405063265  2.2551192879746846 4.8258971518987295  1.0648283227848108 4.947355427215186  C 0.9433700474683544 5.165980284810125  1.1862865981012654 5.044522056962023  1.1862865981012654 5.287438560126578  C 1.0891199683544297 5.287438560126578  0.8219118196202526 5.360313496835438  0.773328528481013 5.165980284810125  C 0.773328528481013 5.238855221518985  0.7004535917721517 5.287438560126578  0.6518702531645575 5.408896835443034  L 0.8947868037974693 5.408896835443034  C 0.8947868037974693 5.481771772151895  0.8704951582278495 5.5546467563291095  0.8219118196202535 5.6275216930379734  C 0.8947867563291148 5.6275216930379734  0.943370094936709 5.6275216930379734  1.0162450316455711 5.603230047468351  C 1.0162450316455711 5.481771772151895  0.8947867563291148 5.481771772151895  0.8947868037974693 5.360313496835438  C 1.2348699367088631 5.263146867088604  0.991953433544305 5.724688275316453  1.3563281645569631 5.603230047468351  C 1.4777864398734177 5.384605189873412  1.2348698892405086 5.5060634177215135  1.2348698892405086 5.263146914556959  C 1.6964112500000024 5.603230047468351  2.5466190822784824 5.481771772151895  2.7895356329113934 5.020230411392401  C 3.0324521360759515 5.360313544303793  3.3725352689873436 4.898772136075944  3.7612016930379752 5.020230411392401  C 3.8826599683544316 4.801605553797465  3.518285189873419 4.923063781645563  3.6397434177215207 4.680147278481009  L 4.004118196202533 4.680147278481009  C 4.004118196202533 4.801605553797465  4.004118196202533 4.923063781645563  4.125576471518988 4.923063781645563  C 4.587117832278482 4.8258971518987295  4.951492610759496 4.582980648734171  5.558783892405065 4.582980648734171  C 10.07703110759494 3.2712314556961957  14.741028196202535 2.105232183544299  19.405025332278488 0.9149412658227796  Z M 4.611409477848101 4.315772499999998  C 4.854325981012659 4.218605870253164  4.732867753164557 4.704438924050631  4.489951250000001 4.558689003164556  C 4.489951250000001 4.4372307278481  4.611409525316455 4.4372307278481  4.611409477848101 4.315772499999998  Z " fill-rule="nonzero" fill="#677be5" stroke="none" transform="matrix(1 0 0 1 298 194 )" />
  </g>
</svg>