<?xml version="1.0" encoding="utf-8"?>
<svg version="1.1" xmlns:xlink="http://www.w3.org/1999/xlink" width="55px" height="15px" xmlns="http://www.w3.org/2000/svg">
  <g transform="matrix(1 0 0 1 -289 -195 )">
    <path d="M 26.356442041139243 7.817774636075949  C 26.405025332278488 7.744899699367089  26.5993585443038 7.842066281645571  26.50219196202532 7.6720247626582285  C 26.30785875 7.574858132911392  26.405025332278488 7.769191392405063  26.356442041139243 7.817774636075949  Z M 0.7530412025316473 13.98785417721519  L 0.7773328481012657 14.206479034810126  C 1.1417076265822783 14.30364566455696  0.7773328481012657 13.963562531645572  1.0202493512658226 13.963562531645572  L 1.0202493512658226 14.30364566455696  C 1.1659992721518986 14.352228955696205  1.3360408386075948 14.327937310126583  1.4574991139240505 14.230770680379749  C 1.3603324841772149 14.157895743670888  1.3117491930379745 14.060729113924051  1.3360408386075948 13.963562531645572  C 1.4817907594936708 13.963562531645572  1.578957341772152 13.98785417721519  1.651832325949367 14.085020759493673  C 1.7004156170886076 14.036437468354428  1.797582246835443 13.987854129746836  1.8704571835443038 13.963562531645572  C 1.8704571835443038 14.085020806962024  1.9919154588607595 14.473687231012658  1.9919154113924054 14.206479034810126  C 2.1133736867088606 14.109312405063292  1.9919154113924054 13.866395901898734  2.1133736867088606 13.866395901898734  C 2.356290189873418 13.866395901898734  2.2348319620253165 14.085020759493673  2.2348319620253165 14.206479034810126  C 2.5749150949367086 14.085020759493673  2.9392898734177213 13.963562531645572  3.425122879746836 13.963562531645572  C 3.5465811550632917 13.866395901898734  3.5465811550632917 13.744937674050632  3.668039382911392 13.623479398734176  C 3.7894976582278486 13.623479398734176  3.668039382911392 13.866395901898734  3.910955933544304 13.866395901898734  C 4.153872436708861 13.744937626582278  4.153872436708861 13.526312768987342  4.275330712025317 13.283396265822784  C 4.299622357594937 13.307687911392406  4.372497341772152 13.356271202531644  4.396788939873418 13.380562895569621  C 4.275330664556962 13.477729525316459  4.275330664556962 13.477729525316459  4.275330712025317 13.720646028481013  C 4.518247215189874 13.59918775316456  4.979788623417722 13.59918775316456  5.368455000000001 13.477729477848104  C 5.489913275316456 13.356271202531648  5.125538496835444 13.234812974683546  5.368455000000001 13.234812974683546  C 5.829996360759495 13.574896107594942  6.072912911392406 12.991896471518992  6.801662468354432 12.6518133386076  C 6.825954113924052 12.6518133386076  6.874537405063293 12.627521693037977  6.898829050632913 12.627521693037977  C 6.874537405063293 12.603230047468355  6.825954113924052 12.603230047468355  6.801662468354432 12.554646708860762  L 6.801662468354432 12.457480126582283  L 6.825954113924052 12.43318848101266  L 7.068870617088609 12.43318848101266  L 7.068870617088609 12.554646708860762  C 6.995995680379748 12.578938354430385  6.9474123417721545 12.578938354430385  6.874537405063293 12.627521693037977  C 6.9474123417721545 12.627521693037977  6.995995680379748 12.6518133386076  7.068870617088609 12.6518133386076  L 7.068870617088609 12.578938401898736  L 7.141745601265824 12.578938401898736  C 7.117453955696205 12.43318848101266  7.117453955696205 12.3603135443038  7.166037246835445 12.360313496835445  C 7.26320387658228 12.287438560126585  7.068870617088609 12.21456357594937  7.068870617088609 12.117396993670887  C 6.995995680379748 12.14168863924051  6.923120696202534 12.14168863924051  6.825954113924052 12.190271930379751  L 7.093162262658229 12.06881370253165  C 7.11745390822785 12.06881370253165  7.11745390822785 12.044522056962027  7.11745390822785 12.044522056962027  C 6.291537768987342 12.3603135443038  5.125538496835444 12.384605189873422  4.469663924050633 12.821854905063294  C 4.348205648734178 12.821854905063294  4.348205648734178 12.700396629746837  4.226747373417722 12.700396629746837  C 4.105289098101266 12.821854905063294  4.226747373417722 12.943313132911396  4.105289145569621 12.943313132911396  C 3.862372642405064 12.60323  3.400831234177216 12.943313132911396  3.2793729588607605 13.186229683544305  C 3.1579146835443046 13.307687958860761  3.522289462025318 13.064771408227848  3.522289509493672 13.307687911392406  L 3.522289509493672 13.550604462025316  L 3.2793729588607605 13.550604462025316  C 3.4008312341772164 13.210521329113924  3.0364564556962037 13.33197960443038  3.1579147310126596 13.089063053797467  C 2.6477900316455707 13.307687911392406  2.1862486708860773 13.089063053797467  2.1862486708860773 13.550604462025316  C 2.1862486708860773 13.429146186708863  2.1862486708860773 13.186229683544305  1.9433321202531664 13.307687911392406  C 1.9433321202531664 13.526312768987342  1.7004156170886093 13.526312768987342  1.5789573417721536 13.647771044303799  C 1.2145825632911411 13.307687911392406  0.9473744145569639 13.769229319620255  0.48583305379747005 13.647771044303799  C 0.3886664240506346 13.744937674050636  0.46154140822784984 13.842104256329115  0.4129580696202549 13.866395901898738  C 0.5344163449367106 13.890687547468357  0.5587079905063309 13.98785417721519  0.7530412025316473 13.98785417721519  Z M 6.534454272151899 12.38460514240506  C 6.583037563291138 12.287438512658223  6.631620901898734 12.165980284810125  6.80166246835443 12.165980284810125  L 6.80166246835443 12.287438560126581  C 6.7044958386075955 12.287438560126581  6.607329256329114 12.336021851265823  6.534454272151899 12.38460514240506  Z M 6.4372876898734175 12.50606341772152  C 6.461579335443037 12.481771772151898  6.534454319620253 12.45748012658228  6.583037610759495 12.481771772151898  C 6.510162674050633 12.554646708860759  6.485870981012659 12.627521693037973  6.4372876898734175 12.50606341772152  Z M 4.931205284810128 13.453437832278478  C 4.809747009493671 13.453437832278478  4.4453722310126595 13.599187753164557  4.566830506329114 13.331979556962025  C 4.6882887816455705 13.331979556962025  5.076955205696203 13.210521281645569  4.931205284810128 13.453437832278478  Z M 3.692331028481013 13.04047976265823  C 3.8866642405063287 12.943313132911392  4.056705806962026 13.11335469936709  4.251039018987342 13.283396265822784  C 3.9352475316455697 13.283396265822784  3.813789303797469 13.283396265822784  3.692331028481013 13.04047976265823  Z M 3.0121648101265825 13.720646028481013  L 3.2550813132911394 13.720646028481013  L 3.2550813132911394 13.939270886075949  C 3.0121648101265825 13.939270886075949  3.0121648101265825 13.817812610759493  3.0121648101265825 13.720646028481013  Z M 2.404873528481013 13.599187753164557  C 2.502040158227848 13.599187753164557  2.64779003164557 13.672062689873417  2.64779003164557 13.939270886075949  C 2.4291651740506333 13.939270886075949  2.5506234018987346 13.599187753164557  2.404873528481013 13.599187753164557  Z M 28.17831588607596 6.6031920727848075  C 28.1054409493671 6.676067009493668  28.032565965189885 6.724650348101264  27.95969102848102 6.773233639240505  C 28.03256596518987 6.748941993670886  28.08114930379747 6.748941993670886  28.154024240506335 6.700358702531645  C 28.17831588607596 6.676067056962022  28.17831588607596 6.6517754113924035  28.17831588607596 6.6031920727848075  Z M 47.87884537974684 1.5748202056962022  L 47.8302620886076 1.8663199999999982  C 47.49017895569621 1.7448617246835454  47.611637231012665 2.109236503164553  47.24726245253164 1.9877782753164546  C 47.32013738924051 1.8906116455696171  47.34442908227848 1.7934450632911378  47.441595664556964 1.7448617246835418  C 47.101512531645575 1.8420283544303757  46.73713775316456 1.8906116455696171  46.34847132911393 1.9634866297468319  C 46.372762974683546 1.9877782753164546  46.372762974683546 2.0606532594936695  46.3241796835443 2.109236503164553  C 46.22701305379747 2.109236503164553  46.12984647151899 2.109236503164553  46.10555482594937 1.9877782753164546  L 46.08126318037975 1.9877782753164546  C 45.959804905063294 2.2064031329113902  46.3241796835443 2.0849449050632884  46.20272140822785 2.3278614082278466  C 45.959804905063294 2.425028037974684  46.081263132911396 2.0849449050632884  45.83834662974684 2.084944857594934  C 40.03264186708861 3.5424439715189884  34.372687072784814 5.097109667721519  28.688440585443036 6.5789004272151885  L 28.688440585443036 6.724650348101267  L 28.32406580696203 6.724650348101267  C 28.566982310126587 6.821816977848101  28.251190870253172 6.9918584968354445  28.20260757911393 7.186191708860761  C 27.838232800632916 7.283358338607599  27.93539943037975 6.9918584968354445  27.765357816455698 6.870400221518988  C 27.741066170886082 6.894691867088611  27.69248287974684 6.894691867088611  27.643899588607592 6.943275205696203  C 27.959691075949372 6.9675668512658255  27.959691075949372 7.404816566455697  28.20260757911393 7.526274841772153  L 28.20260757911393 7.307649984177214  L 28.32406580696203 7.429108212025316  C 28.445524082278485 7.331941582278478  28.32406580696203 7.089025079113924  28.445524082278485 7.089025126582278  C 28.907065443037975 7.210483401898735  29.028523718354435 6.84610862341772  29.271440221518993 7.089025126582278  C 29.392898496835443 6.870400268987339  29.392898496835443 6.991858496835441  29.271440221518993 6.748941993670886  L 29.635815000000008 6.748941993670886  L 29.635815000000008 7.089025126582278  C 29.757273275316457 7.064733481012656  29.87873150316456 6.967566851265822  30.048773069620257 6.894691914556962  C 29.951606439873423 6.870400268987339  29.732981582278484 6.894691914556962  29.732981629746842 6.700358702531645  C 30.09735640822785 6.797525332278482  30.24310632911393 6.5789004272151885  30.243106281645574 6.6031920727848075  C 30.243106281645574 6.700358702531645  30.048773069620257 6.700358702531645  30.09735640822785 6.8704002215189846  C 30.413147895569622 6.748941946202532  30.728939335443037 6.651775363924049  30.971855838607596 6.797525284810124  C 31.093314113924052 6.700358655063287  31.093314113924052 6.5789004272151885  31.214772341772154 6.457442151898732  C 31.724897041139243 6.918983512658226  32.186438401898734 6.214525648734174  32.89089631329114 6.33598392405063  C 37.40914352848101 4.902776455696198  42.19459889240506 3.7367771835443016  46.85859602848102 2.5464862658227823  C 46.980054303797466 2.2064031329113902  46.85859602848102 2.0849449050632884  46.73713775316456 1.9634866297468319  C 46.85859602848102 1.9634866297468319  46.85859602848102 1.8420283544303757  46.98005425632911 1.8420283544303757  L 46.98005425632911 2.303569715189873  C 49.06913629746835 1.9391949367088588  50.9881767721519 1.3319036550632894  53.00438387658228 0.8217790031645578  C 53.02867552215189 0.8217790031645578  53.02867552215189 0.8217790031645578  53.10155050632911 0.7974873101265807  C 53.6116752056962 0.6760290348101279  54.09750821202532 0.5545708069620261  54.63192455696203 0.4331125791139243  L 54.656216202531645 0.4088208860759508  C 54.38900805379747 0.43311253164556973  54.00034162974684 0.5059875158227811  53.660258496835446 0.5302791613924036  L 54.024633275316454 0.3359459493670869  C 53.903175 0.2630710126582265  53.781716772151896 0.23877931962024945  53.87888335443038 0.0687378006329098  C 52.68859243670886 0.31165430379746795  51.741218022151905 0.7731957120253128  50.30801055379747 0.8946539398734146  L 49.21488621835444 1.2347370727848102  C 48.75334485759494 1.331903702531644  48.31609509493671 1.4533619303797458  47.87884537974684 1.5748202056962022  Z M 52.78575901898735 0.603154098101264  C 52.83434231012659 0.578862452531645  52.858633955696206 0.603154098101264  52.88292564873418 0.6274457911392375  C 52.85863400316456 0.6031541455696185  52.834342357594934 0.6031541455696185  52.78575901898735 0.603154098101264  Z M 52.032717816455694 1.0404038607594934  L 52.032717816455694 0.7974873101265807  L 52.39709259493671 0.7974873101265807  C 52.39709259493671 0.9189455854430371  52.15417609177214 0.9189455854430371  52.032717816455694 1.0404038607594934  Z M 54.63192455696203 0.3359459493670869  C 54.63192455696203 0.3602375949367058  54.607632911392415 0.4088208860759508  54.63192455696203 0.4088208860759508  L 54.63192455696203 0.3359459493670869  Z " fill-rule="nonzero" fill="#677be5" stroke="none" transform="matrix(1 0 0 1 289 195 )" />
  </g>
</svg>