<?xml version="1.0" encoding="utf-8"?>
<svg version="1.1" xmlns:xlink="http://www.w3.org/1999/xlink" width="65px" height="65px" xmlns="http://www.w3.org/2000/svg">
  <g transform="matrix(1 0 0 1 -49 -180 )">
    <path d="M 65 32.5  C 65 14.550745630499213  50.449254369500785 0  32.5 0  C 14.550745630499213 0  0 14.550745630499213  0 32.5  C 0 50.449254369500785  14.550745630499213 65  32.5 65  C 50.449254369500785 65  65 50.449254369500785  65 32.5  Z M 51.4583544921875 52  L 13.5416455078125 52  C 13.5416455078125 42.34208993207873  22.029589932078725 33.8541455078125  32.5 33.8541455078125  C 26.516903524639893 33.8541455078125  21.666645507998467 29.00388749117107  21.666645507998467 23.020791015625  C 21.666645507998467 17.03769454007892  26.516903524639893 12.187436523437496  32.50000000018597 12.187436523437496  C 38.48309647573204 12.187436523437496  43.333354492373466 17.03769454007892  43.333354492373466 23.020791015625  C 43.333319435195314 29.003926178578922  38.483071686494135 33.854145507915206  32.5 33.8541455078125  C 42.97041006792128 33.8541455078125  51.4583544921875 42.34208993207872  51.4583544921875 52.8125  C 51.4583544921875 52.8125  51.4583544921875 52.8125  51.4583544921875 52  Z " fill-rule="nonzero" fill="#677be5" stroke="none" fill-opacity="0.6745098039215687" transform="matrix(1 0 0 1 49 180 )" />
  </g>
</svg>