<?xml version="1.0" encoding="utf-8"?>
<svg version="1.1" xmlns:xlink="http://www.w3.org/1999/xlink" width="22px" height="32px" xmlns="http://www.w3.org/2000/svg">
  <g transform="matrix(1 0 0 1 -289 -468 )">
    <path d="M 6.967699715189875 25.963676408227855  C 6.919116424050635 26.03655134493671  6.967699715189875 26.08513468354431  6.967699715189875 26.109426281645575  C 6.967699715189875 26.08513463607595  6.967699715189875 26.08513463607595  6.991991360759496 26.03655134493671  C 6.991991360759496 26.012259699367092  6.991991360759496 25.963676408227855  6.967699715189875 25.963676408227855  Z M 17.631734778481015 31.162089841772158  C 17.388818275316456 31.283548117088607  17.267360000000004 31.0406315664557  17.097318433544306 31.0406315664557  C 17.364526582278483 30.627673496835442  17.923234572784814 30.919173291139245  17.097318433544306 30.627673496835442  C 17.097318433544306 31.0406315664557  16.97586015822785 31.186381487341777  16.97586015822785 31.45358968354431  C 16.97586015822785 31.45358968354431  16.562902088607597 31.575047958860765  16.708652009493672 31.57504791139241  C 17.121610079113925 31.453589636075954  17.121610079113925 31.842256060126587  17.53456814873418 31.696506186708866  C 17.53456814873418 31.45358968354431  17.53456814873418 31.332131408227852  17.631734778481015 31.162089841772158  Z M 21.469815727848104 0.603192072784811  L 21.68844058544304 0.5303171360759507  L 21.68844058544304 0.4574421518987357  C 21.494107373417723 0.48173379746835465  21.494107373417723 0.5789004272151885  21.469815727848104 0.603192072784811  Z M 20.54673295886077 1.0647334335443048  C 20.643899588607603 0.7975252848101277  20.30381645569621 0.9189835126582295  20.18235818037975 0.9189835601265841  C 20.060899905063298 1.040441835443037  20.18235818037975 1.1619000632911387  20.06089995253165 1.1619000632911387  C 19.793691803797472 1.0647334335443013  19.550775253164563 1.0890251265822783  19.307858750000005 1.1376084177215162  C 19.380733686708865 1.283358338607595  19.502191962025325 1.4291082594936704  19.623650189873427 1.5505664873417722  C 19.623650189873427 1.4533998575949347  19.38073368670887 1.331941629746833  19.623650189873427 1.2104833544303801  C 19.745108465189883 1.5505664873417722  20.085191550632917 1.4291082120253158  20.206649825949377 1.6720247626582285  C 20.30381645569621 1.5505664873417722  20.425274683544313 1.5505664873417722  20.668191234177225 1.5505664873417722  L 20.668191234177225 1.307649984177214  C 20.44956637658229 1.1861917088607612  20.328108101265833 1.6720247626582285  20.206649825949377 1.4291082120253158  C 20.328108101265833 1.3076499367088594  20.54673295886077 1.2104833544303801  20.57102460443039 0.9918584968354445  C 20.57102460443039 1.0161501424050634  20.54673295886077 1.0161501424050634  20.54673295886077 1.0647334335443048  Z M 20.595316250000007 0.9675668512658255  L 20.619607895569626 0.943275205696203  L 20.595316250000007 0.9675668512658255  Z M 20.813941107594943 0.7732336392405088  C 20.862524398734184 0.7975252848101313  20.911107737341776 0.7975252848101313  20.959691028481018 0.7489419936708863  C 20.911107737341776 0.7489419936708863  20.862524398734184 0.7489419936708863  20.813941107594943 0.7732336392405088  Z M 21.37264909810127 0.6517753639240524  C 21.34835745253165 0.62748371835443  21.34835745253165 0.603192072784811  21.299774161392406 0.603192072784811  L 21.22689922468355 0.6760670094936714  C 21.299774161392406 0.6760670094936714  21.324065854430383 0.6517753639240524  21.37264909810127 0.6517753639240524  Z M 19.234983765822793 0.7975252848101313  C 18.99206726265824 0.7003586550632939  18.99206726265824 0.9432752056962066  18.870608987341775 1.0647334335443048  C 18.943483924050636 1.1376083702531652  18.96777561708861 1.1861917088607612  18.99206726265823 1.2104833544303801  C 19.089233892405066 1.1861917088607612  19.210692120253167 1.1376084177215198  19.307858750000005 1.1133167721519008  C 19.259275458860763 1.0161501424050634  19.259275458860763 0.9189835601265841  19.234983765822793 0.7975252848101313  Z M 0.773328528481013 6.117396993670884  C 0.7490368829113931 6.093105348101261  0.773328528481013 6.068813702531642  0.7976201740506337 6.044522056962027  C -0.02829596518987287 6.141688686708861  0.43324539556962094 6.020230411392404  0.21462053797468442 6.068813702531646  C 0.33607881329113987 6.214563623417725  0.4089537500000011 6.336021851265823  0.48182868670886236 6.433188481012657  C 0.3603704113924069 6.433188481012657  0.23891218354430424 6.457480126582279  0.14174560126582492 6.506063417721521  C 0.16603724683544474 6.6275216930379734  0.23891223101266054 6.748979920886075  0.2632038291139258 6.870438196202532  C 0.28749547468354564 6.797563259493671  0.36037045886076147 6.748979920886075  0.3846621044303813 6.676104984177215  L 0.3846621044303813 6.700396629746834  C 0.6032869620253178 6.700396629746834  0.7247452373417742 6.676104984177215  0.7976201740506337 6.578938401898736  C 0.749036882911394 6.578938401898736  0.7004535443037989 6.554646756329113  0.6518702531645575 6.5546467088607585  C 0.6761618987341773 6.5546467088607585  0.6761618987341773 6.530355063291136  0.6761618987341773 6.481771772151898  L 0.6518702531645575 6.481771772151898  L 0.6518702531645575 6.384605142405061  C 0.6518702531645575 6.287438512658223  0.7004535443037971 6.165980284810125  0.773328528481013 6.117396993670884  Z M 0.6032869620253178 6.457480126582279  C 0.6032869620253178 6.506063417721521  0.5789953164556971 6.506063417721521  0.5789953164556971 6.53035506329114  C 0.5789953164556971 6.554646708860762  0.5547036708860773 6.554646708860762  0.5061203797468368 6.554646708860762  C 0.5061203797468368 6.53035506329114  0.5304120253164566 6.53035506329114  0.5789953164556971 6.53035506329114  L 0.5061203797468368 6.457480126582279  L 0.6032869620253178 6.457480126582279  Z " fill-rule="nonzero" fill="#c1c1c2" stroke="none" transform="matrix(1 0 0 1 289 468 )" />
  </g>
</svg>