<?xml version="1.0" encoding="utf-8"?>
<svg version="1.1" xmlns:xlink="http://www.w3.org/1999/xlink" width="43px" height="42px" xmlns="http://www.w3.org/2000/svg">
  <g transform="matrix(1 0 0 1 -291 -470 )">
    <path d="M 1.8786176740506324 8.728692594936707  C 1.489951250000001 9.821816930379743  0.9312432594936713 10.817774636075944  0.6397434177215189 12.178107167721517  L 1.0527014873417713 12.178107167721517  C 1.0527014873417713 12.105232231012657  1.101284778481011 12.056648892405065  1.1741597626582276 12.056648892405065  C 1.1741597626582276 11.935190617088608  1.0527014873417713 11.497940901898737  1.1741597626582276 11.376482626582275  L 1.2956179905063276 11.376482626582275  C 1.4413679113924045 11.230732705696202  1.2956179905063276 11.497940901898732  1.562826186708859 11.497940901898732  C 1.562826186708859 11.376482626582275  1.8057426898734175 11.230732753164556  1.6842844620253157 10.817774636075944  C 2.2429924525316434 10.259066645569618  2.2429924525316434 9.165942310126578  2.80170039556962 8.607234367088605  C 2.534492246835443 8.340026218354428  2.80170039556962 8.461484446202526  2.80170039556962 8.048526376582277  L 2.2429924050632923 8.048526376582277  C 2.2429924050632923 8.121401313291138  2.1944091139240527 8.16998465189873  2.1215341772151906 8.169984604430375  C 2.1215341772151906 8.315734525316454  2.242992452531647 8.437192753164556  2.2429924050632923 8.728692594936707  L 1.8786176740506324 8.728692594936707  Z M 0.4939934968354436 13.004023306962026  C 0.6154517721519 13.028314952531648  0.882659920886077 12.882565031645573  1.1741597626582294 12.88256503164557  L 1.1741597626582294 12.323857041139242  C 0.6154517721519 12.323857041139242  0.6154517721519 12.88256503164557  0.4939934968354436 13.004023306962026  Z M 27.530601803797474 0.6152809810126563  C 27.627768433544304 0.8824891297468351  27.749226661392406 0.8824891297468351  27.9192682278481 1.0039474050632897  C 27.773518306962025 1.1496973259493668  27.652060079113923 1.1496973259493668  27.652060031645572 1.2711555537974668  C 27.919268180379753 1.3926138291139232  28.065018101265828 1.5383637025316457  28.33222629746836 1.684113623417721  C 28.33222629746836 1.5626553481012646  28.453684572784816 1.5626553481012646  28.745184367088612 1.5626553955696192  C 28.623726091772152 1.295447246835442  28.623726091772152 1.4411971202531646  28.745184367088612 1.1496973259493668  C 28.477976218354435 1.2954472468354439  28.745184367088612 0.9067808227848086  28.477976218354435 1.0282390506329122  C 28.477976218354435 1.1496973259493668  28.35651794303798 1.2954471993670893  28.35651794303798 1.4411971202531646  C 28.0893097943038 1.2954471993670875  28.35651794303798 1.0039474050632897  28.35651794303798 0.8824891297468351  C 27.9192682278481 0.8824891297468351  28.0893097943038 0.46953106012658097  27.530601803797474 0.6152809810126563  Z M 3.991991360759494 34.890801424050636  C 3.8705330854430393 34.793634794303806  3.8705330854430393 35.03655134493671  3.7247831645569622 35.03655134493671  C 3.8219497943037983 35.03655134493671  3.919116376582279 34.963676408227855  3.967699715189873 34.963676408227855  C 3.967699715189873 34.93938476265823  3.991991360759494 34.93938476265823  3.991991360759494 34.890801424050636  Z M 17.692482879746834 40.72079783227848  C 17.54673295886076 40.59933955696202  17.158066534810125 40.866547753164554  17.158066534810125 41.27950582278481  L 17.425274683544302 41.27950582278481  C 17.30381640822785 40.842256107594935  17.69248283227848 40.842256107594935  17.692482879746834 40.72079783227848  Z M 17.13377488924051 40.47788132911393  C 17.18235818037975 40.38071469936709  17.230941518987343 40.38071469936709  17.27952481012658 40.38071469936709  C 17.182358180379747 40.16208984177216  17.182358180379747 40.28354806962025  17.27952481012658 40.016339920886075  C 16.866566740506325 39.894881645569626  16.453608670886073 39.894881645569626  15.919192325949364 40.016339920886075  C 15.919192325949364 39.894881645569626  15.651984177215184 39.7491317721519  15.506234208860754 39.7491317721519  C 15.506234208860754 39.870590047468355  15.62769248417721 40.016339920886075  15.506234208860754 40.016339920886075  C 15.3847759335443 40.016339920886075  15.3847759335443 39.894881645569626  15.384775981012652 39.7491317721519  C 15.117567832278475 39.870590047468355  14.826067990506324 39.870590047468355  14.70460971518987 39.7491317721519  C 14.607443085443036 39.94346498417722  14.631734778481007 40.089214905063294  14.631734778481007 40.21067313291139  C 14.65602642405063 40.45358963607595  14.70460971518987 40.672214493670886  14.534568148734174 40.745089477848104  C 14.801776297468354 40.866547753164554  14.801776297468354 41.15804754746836  15.214734414556961 41.01229762658228  C 15.336192689873418 40.745089477848104  14.947526265822784 41.01229762658228  15.093276139240505 40.745089477848104  C 15.50623420886076 40.745089477848104  16.332150395569617 40.47788132911393  16.064942199367092 41.01229762658228  L 16.064942199367092 40.745089477848104  C 15.797734050632911 40.866547753164554  15.797734050632911 41.01229762658228  15.651984129746836 41.15804754746836  C 16.210692120253167 41.15804754746836  16.890858386075948 41.27950582278481  17.012316613924053 40.89083939873418  L 17.012316613924053 41.30379746835443  C 17.13377488924051 41.30379746835443  17.13377488924051 40.745089477848104  17.13377488924051 40.47788132911393  Z M 17.838232800632913 40.4535896835443  C 17.838232800632913 40.307839762658226  17.838232800632913 40.186381534810124  17.716774525316456 40.18638148734177  C 17.838232800632913 40.307839762658226  17.57102460443038 40.18638148734177  17.57102460443038 40.4535896835443  L 17.838232800632913 40.4535896835443  Z M 41.425426534810114 20.583018623417722  C 40.96388517405062 23.522308449367088  40.16226063291138 26.29155675632911  38.4861366613924 28.06484731012658  C 38.36467838607595 28.332055458860758  38.75334481012658 28.06484731012658  38.60759493670886 28.332055506329112  C 38.4861366613924 28.332055506329112  38.4861366613924 28.599263655063286  38.194636867088605 28.453513734177214  C 38.07317859177215 28.866471803797467  37.92742871835443 29.27942987341772  37.92742867088607 29.813846218354424  L 37.80597044303797 29.692387990506326  C 37.92742871835443 29.692387990506326  37.92742871835443 29.692387990506326  37.92742867088607 29.425179794303794  C 37.660220522151896 29.838137863924057  37.368720680379745 30.105346060126585  37.10151253164556 30.542595775316457  C 36.98005425632911 30.664054050632906  37.368720680379745 30.80980392405063  37.22297080696202 30.95555384493671  C 37.22297080696202 30.95555384493671  37.10151253164556 30.95555384493671  37.10151253164556 30.688345696202532  C 36.834304382911384 30.95555384493671  36.54280454113923 31.24705368670886  36.54280454113923 31.660011756329112  C 36.42134626582278 31.78147003164557  36.42134626582278 31.660011756329112  36.275596392405056 31.660011756329112  C 36.275596392405056 31.78147003164557  36.275596392405056 32.07296982594937  35.862638322784804 32.07296982594937  C 35.59543017405063 32.6316778164557  34.62376406645569 33.04463588607595  34.89097221518986 33.60334387658228  L 34.623764066455685 33.3361357278481  L 34.623764066455685 33.60334387658228  C 33.6520980063291 33.87055202531646  33.263431582278464 34.8422181329114  32.267473876582265 35.25517620253164  C 32.267473876582265 35.3280511392405  32.29176552215189 35.35234283227848  32.34034881329112 35.35234283227848  C 32.12172395569619 35.27946789556962  31.975974034810115 35.498092753164556  31.708765886075938 35.4980927056962  L 31.708765886075938 35.76530090189873  C 30.348433401898717 36.59121704113924  28.93951757911391 37.12563338607595  27.70064337025315 37.97584117088608  C 27.579185094936697 37.85438289556962  26.874727231012642 38.09729944620253  26.728977262658212 38.388799287974685  C 26.728977262658212 38.31592435126583  26.680393971518974 38.26734101265823  26.60751903481011 38.26734101265823  C 26.048811044303783 38.68029908227848  25.077144984177203 38.826049003164556  24.251228797468343 38.94750727848101  C 24.129770522151887 39.21471542721519  24.372687072784792 39.06896555379747  24.372687072784792 39.360465348101265  C 24.251228797468343 39.360465348101265  24.105478924050615 39.48192362341772  23.95972900316454 39.360465348101265  C 24.081187278480996 39.360465348101265  24.081187278480996 39.360465348101265  24.081187231012642 39.239007072784815  C 23.813979082278465 39.360465348101265  24.081187231012642 38.97179892405064  23.813979082278465 39.11754879746836  C 23.401021012658212 39.384756946202536  22.453646598101244 39.11754879746836  22.1621467563291 39.530506914556966  C 21.89493860759492 39.26329876582279  21.190480696202513 39.530506914556966  20.923272547468343 39.530506914556966  C 21.19048069620252 39.79771506329114  20.801814272151887 39.79771506329114  20.923272547468343 40.210673132911396  L 20.947564193037962 40.210673132911396  C 20.923272547468343 40.28354806962025  21.020439129746823 40.453589636075954  20.801814272151887 40.33213140822785  C 20.923272547468343 40.064923259493675  20.53460612341771 40.210673132911396  20.53460612341771 40.06492321202532  C 20.413147848101254 39.943464936708864  20.656064398734163 39.943464936708864  20.65606435126581 39.79771506329114  C 20.243106281645556 39.79771506329114  20.38885620253163 40.47788132911393  19.830148212025303 40.210673132911396  C 19.830148212025303 40.08921485759494  19.708689936708847 39.94346498417722  19.830148212025303 39.94346498417722  C 20.09735636075948 39.82200670886076  19.830148212025303 40.35642305379747  20.097356408227835 40.210673132911396  L 20.097356408227835 39.530506914556966  C 19.830148259493654 39.40904863924051  19.68439833860758 39.79771506329114  19.538648417721504 39.530506914556966  C 19.538648417721504 39.79771506329114  18.979940427215173 39.65196518987342  18.858482151898716 39.65196514240507  C 18.858482151898716 39.773423417721524  18.979940427215173 40.06492321202532  18.858482151898716 40.06492321202532  C 18.737023876582263 39.65196514240507  18.737023876582263 40.3321313607595  18.59127400316454 40.18638148734178  C 18.469815727848083 39.9191733386076  18.858482151898716 39.9191733386076  18.71273223101264 39.62767349683544  L 18.032566012658208 39.62767349683544  C 18.032566012658208 39.7491317721519  18.445524082278464 39.7491317721519  18.445524082278464 39.89488169303798  C 18.445524082278464 39.89488169303798  18.445524082278464 40.16208984177216  18.324065806962007 40.16208984177216  C 18.20260753164555 40.16208984177216  18.324065806962007 39.89488169303798  18.05685765822783 40.0406315664557  C 18.178315933544287 40.16208984177216  18.324065806962007 40.453589636075954  18.05685765822783 40.720797832278485  C 18.275482515822766 40.745089477848104  18.51839901898732 40.745089477848104  18.737023876582263 40.745089477848104  C 18.664148939873403 40.81796441455697  18.591273955696185 40.86654775316456  18.494107373417705 40.86654775316456  C 18.494107373417705 40.98800602848102  18.494107373417705 41.13375590189874  18.61556564873416 41.13375590189874  C 18.712732278480996 40.93942268987342  19.077107009493652 40.93942268987342  19.125690300632893 40.81796441455697  C 19.222856930379727 40.81796441455697  19.320023512658214 40.79367276898734  19.392898496835425 40.79367276898734  L 19.392898496835425 41.060880965189874  C 19.51435677215188 40.93942268987342  19.51435677215188 41.32808911392405  19.514356724683527 41.060880965189874  C 19.39289844936707 40.93942268987342  19.514356724683527 40.93942268987342  19.514356724683527 40.79367276898734  L 19.392898496835443 40.79367276898734  C 20.02448142405063 40.720797832278485  20.510314477848098 40.64792284810127  20.874689256329116 40.81796441455697  C 21.31193897151899 40.72079778481013  21.894938607594938 40.69650613924051  22.332188322784816 40.57504791139241  C 22.30789667721519 40.64792284810127  22.235021693037975 40.696506186708866  22.235021740506333 40.81796441455697  L 22.50222988924051 40.81796441455697  C 22.50222988924051 40.672214493670886  22.52652153481013 40.57504791139241  22.52652153481013 40.502172974683546  C 22.67227145569621 40.4535896835443  22.793729683544306 40.38071469936709  22.890896313291144 40.28354811708861  C 23.012354588607597 40.40500639240506  22.769438037974687 40.40500639240506  22.769438085443042 40.550756265822784  C 23.182396155063294 40.429297990506335  23.74110414556963 40.429297990506335  23.886854018987343 40.13779819620253  C 24.0083122943038 40.13779819620253  24.0083122943038 40.13779819620253  24.0083122943038 40.25925642405063  C 24.275520443037976 40.25925642405063  24.275520443037976 39.992048275316456  24.567020284810127 39.992048275316456  C 24.567020284810127 40.11350655063291  24.567020284810127 40.25925642405063  24.688478560126583 40.25925642405063  C 24.95568670886076 40.13779814873418  25.101436629746843 39.992048275316456  25.514394699367095 39.992048275316456  C 25.514394699367095 39.87059  25.392936424050635 39.579090205696204  25.514394699367095 39.579090205696204  C 25.63585297468355 39.992048275316456  26.073102689873423 39.70054848101266  26.3403108386076 39.70054848101266  C 26.3403108386076 39.60338185126582  26.14597762658228 39.50621526898734  26.14597762658228 39.43334028481013  L 26.3403108386076 39.43334028481013  L 26.3403108386076 39.554798560126585  C 26.364602484177226 39.554798560126585  26.413185775316464 39.554798560126585  26.43747746835444 39.53050691455696  C 26.65610232594937 39.48192362341772  26.850435537974686 39.43334028481013  27.069060395569622 39.384756993670884  C 27.069060395569622 39.45763193037974  27.09335204113925 39.48192362341772  27.190518670886078 39.4090486392405  C 27.190518670886078 39.384756993670884  27.214810316455704 39.360465348101265  27.214810316455704 39.336173702531646  C 27.700643370253168 39.19042378164557  28.162184731012665 39.02038221518987  28.599434446202533 38.80175735759494  C 28.672309382911394 38.92321563291139  28.745184367088612 38.94750727848101  28.84235099683545 38.874632294303794  L 28.84235099683545 38.680299082278474  C 29.30389235759494 38.46167422468354  29.76543376582279 38.21875772151898  30.202683481012663 37.97584117088607  L 30.202683481012663 38.04871615506328  L 30.615641550632915 38.04871615506328  C 30.615641550632915 37.951549525316445  30.68851648734178 37.781508006329105  30.68851648734178 37.732924667721505  C 30.761391424050636 37.708633022151886  30.834266408227855 37.635758037974675  30.90714134493671 37.6114664398734  C 31.00430797468354 37.6114664398734  31.052891265822787 37.53859150316455  31.125766249999998 37.490008164556954  C 31.32009946202532 37.39284153481012  31.538724319620258 37.295674952531634  31.75734917721519 37.17421667721518  C 31.75734917721519 37.05275840189872  31.635890901898733 36.907008528481  31.75734917721519 36.761258607594925  C 31.75734917721519 36.882716882911375  31.75734917721519 37.0284667563291  31.878807452531646 37.0284667563291  C 32.82618186708861 36.63980033227847  33.50634813291139 35.91105077531645  34.35655591772152 35.400926123417705  C 34.47801419303797 35.13371797468353  34.08934776898734 35.400926123417705  34.235097642405066 35.13371797468353  C 34.50230579113924 35.01225969936707  34.235097642405066 35.400926123417705  34.50230579113924 35.25517620253163  C 34.50230579113924 35.13371792721517  34.380847515822786 34.84221813291138  34.50230579113924 34.84221813291138  C 34.6237640664557 34.84221813291138  34.380847515822786 35.25517620253163  34.6237640664557 35.109426281645554  C 35.449680205696204 33.9920103006329  36.712846107594935 33.31184408227846  37.393012373417726 32.07296982594935  C 37.27155409810127 32.07296982594935  37.12580422468355 32.1944281012658  37.125804177215194 32.07296982594935  C 37.24726245253164 32.07296982594935  37.24726245253164 31.951511550632894  37.393012373417726 31.95151159810125  L 37.393012373417726 32.218719746835426  C 37.80597044303798 32.09726147151897  37.95172036392405 31.53855348101264  38.21892851265823 31.101303765822767  C 38.34038678797469 30.97984549050631  38.48613666139241 30.97984549050631  38.63188658227848 30.834095617088593  C 38.75334485759494 30.712637341772137  38.63188658227848 30.421137547468334  38.75334485759494 30.275387626582262  C 38.8748031329114 30.153929351265806  39.16630292721519 30.00817947784808  39.312052848101274 29.862429556962006  C 39.43351112341773 29.59522140822783  39.43351112341773 29.30372156645568  39.57926099683545 29.036513370253147  C 39.57926099683545 28.91505509493669  39.84646914556963 29.036513370253147  39.846469193037976 28.915055142405045  L 39.846469193037976 28.647846946202534  L 40.25942726265823 28.234888876582275  C 40.38088553797469 27.821930806962023  40.526635411392405 27.263222816455695  40.67238533227848 26.996014667721518  C 40.793843607594944 26.996014667721518  40.93959348101266 26.996014667721518  40.93959348101266 26.87455639240507  C 40.93959348101266 26.753098117088612  40.8181352056962 26.461598322784813  40.93959348101266 26.315848401898734  C 40.93959348101266 26.194390126582277  41.20680162974684 26.194390126582277  41.20680167721519 26.048640253164557  L 41.20680167721519 25.63568213607595  C 41.20680167721519 25.63568213607595  41.474009825949366 25.63568213607595  41.474009825949366 25.514223908227848  L 41.474009825949366 25.101265838607596  C 41.474009825949366 25.101265838607596  41.74121797468354 24.97980756329114  41.74121802215189 24.83405764240506  C 41.74121802215189 24.42109957278481  41.74121802215189 24.008141503164556  41.86267624999999 23.595183433544307  C 41.86267624999999 23.595183433544307  42.12988439873417 23.47372515822785  42.12988444620252 23.327975237341775  C 42.25134272151898 22.50205909810126  42.25134272151898 21.53039303797469  42.54284251582277 20.8502267721519  L 41.425426534810114 20.583018623417722  Z M 21.214772341772157 40.13779819620253  C 21.214772341772157 40.25925647151899  21.336230617088614 40.40500634493671  21.21477234177215 40.40500634493671  C 21.21477234177215 40.40500634493671  21.093314066455697 40.40500634493671  21.093314113924052 40.13779819620253  C 21.06902246835443 40.13779819620253  21.06902246835443 40.13779819620253  21.020439129746837 40.11350655063291  C 21.11760575949367 40.089214905063294  21.214772341772157 40.040631613924056  21.214772341772157 40.13779819620253  Z M 30.664224841772153 37.7086330221519  C 30.639933196202534 37.73292466772153  30.591349905063296 37.757216313291146  30.542766613924048 37.78150795886076  C 30.615641550632915 37.75721631329114  30.63993324367089 37.7086330221519  30.664224841772153 37.7086330221519  Z M 1.5871178322784818 33.43330235759494  C 1.8543259810126587 33.554760632911396  1.8543259810126587 33.31184408227848  1.9757842563291133 33.31184408227848  L 1.9757842563291133 33.02034424050633  L 1.7085761075949364 33.02034424050633  C 1.8300343829113928 33.28755238924051  1.5871178322784818 33.28755238924051  1.5871178322784818 33.43330235759494  Z " fill-rule="nonzero" fill="#c1c1c2" stroke="none" transform="matrix(1 0 0 1 291 470 )" />
  </g>
</svg>