<?xml version="1.0" encoding="utf-8"?>
<svg version="1.1" xmlns:xlink="http://www.w3.org/1999/xlink" width="34px" height="24px" xmlns="http://www.w3.org/2000/svg">
  <g transform="matrix(1 0 0 1 -309 -483 )">
    <path d="M 0.9111077373417764 7.9432752056961995  C 1.1297325949367085 7.9432752056961995  1.1783158860759535 7.797525284810124  1.2268992246835424 7.676067009493668  C 1.2026075791139235 7.676067009493668  1.1540242879746856 7.676067009493668  1.1297325949367085 7.700358702531645  C 1.1297325949367085 7.821816977848101  1.0325659651898746 7.821816977848101  0.9111077373417764 7.9432752056961995  Z M 19.348471329113927 2.963486629746832  C 19.3241796835443 2.8663199999999946  19.154138117088607 2.8663199999999946  19.08126318037975 2.866319999999998  C 19.08126318037975 2.9391949367088586  19.08126318037975 2.9634866297468356  19.10555482594937 2.9877782753164546  C 19.202721455696206 2.9877782753164546  19.251304746835444 2.963486629746832  19.348471329113927 2.963486629746832  Z M 33.00037955696205 16.15385344936709  C 32.68458806962028 15.060729113924051  32.223046708860785 14.259104620253165  32.10158843354431 12.825897199367088  C 31.397130522151897 11.999981060126583  31.64004707278481 10.348148734177215  30.91129751582279 9.497940901898733  C 31.251380648734184 8.914941265822783  30.546922737341774 8.307649984177214  30.668381012658223 7.6031920727848075  C 30.304006234177216 7.481733797468355  30.668381012658223 7.9432752056961995  30.42546446202531 7.9432752056961995  C 30.546922737341774 7.117359066455695  30.304006186708854 6.267151234177213  29.72100659810127 5.927068101265821  C 29.963923101265827 5.805609825949368  29.842464873417725 6.048526376582277  30.085381376582276 6.048526376582277  C 29.866756518987344 5.586985015822783  29.866756518987344 4.7367771835443016  29.50238174050633 4.3966940506329095  C 29.842464873417725 3.6922361392405065  29.138006962025322 2.8663199999999946  29.138006962025322 2.04040386075949  C 29.01654868670886 1.9189455854430335  28.895090458860757 2.04040386075949  28.89509041139241 1.9189455854430335  C 29.138006914556968 1.5545708069620225  28.773632136075946 1.2144876740506305  28.773632183544308 0.6071963924050596  C 28.579298971518988 0.6314880379746803  28.45784069620254 0.6314880379746803  28.336382420886075 0.6800713765822746  C 28.45784069620254 0.6800713765822746  28.530715632911395 0.7772380063291102  28.530715632911395 0.9472795253164534  C 28.287799129746837 0.9472795253164534  28.166340854430388 0.8501128955696178  28.166340901898735 0.7043630221518953  C 28.142049256329116 0.7043630221518953  28.09346596518988 0.7043630221518953  28.069174272151898 0.728654667721516  L 28.093465917721517 0.7529463132911349  C 28.04488262658227 0.7529463132911349  27.972007642405053 0.7772379588607556  27.94771599683544 0.8258212499999971  L 27.80196612341772 0.8258212499999971  C 27.923424398734184 0.8015296044303764  27.874841060126585 0.7529463132911349  28.069174272151898 0.7043630221518953  L 27.850549414556966 0.4857381645569596  C 27.6076329113924 0.4857381645569596  27.850549414556966 0.8258212974683516  27.729091139240502 0.728654667721516  C 27.486174636075944 0.728654667721516  27.729091139240502 0.6071963924050614  27.6076329113924 0.4857381645569596  C 27.243258132911393 0.36427988924050325  27.243258132911393 0.728654667721516  27.024633275316454 0.728654667721516  C 27.024633275316454 0.8744045886075931  27.12179990506329 0.9472795253164534  27.170383148734174 0.9958628164556949  C 27.43759129746835 0.9229878797468327  27.607632863924046 0.8744045411392385  27.729091139240502 0.8501128955696178  C 27.70479949367089 0.8744045411392367  27.70479949367089 0.9472795253164534  27.70479949367089 1.0444461550632909  C 27.753382784810128 1.0687378006329098  27.826257768987347 1.0687378006329098  27.89913270569621 1.0687378006329098  C 27.972007642405067 0.9958628639240477  27.972007642405067 0.9229878797468309  27.99629933544304 0.8501128955696178  L 27.99629933544304 1.311654303797468  L 28.02059098101266 1.311654303797468  C 28.02059098101266 1.1901960284810116  28.02059098101266 1.0930294462025287  28.093465917721517 1.0930294462025287  C 28.21492419303798 1.311654303797468  28.21492419303798 1.4331125791139243  28.457840696202524 1.4331125791139243  C 28.11775756329113 1.4331125791139243  28.239215838607592 2.016112215189871  27.874841060126585 1.7731956645569618  C 28.239215838607592 3.2064031329113902  28.579298971518988 4.372402405063291  28.967965395569614 5.805609873417723  C 29.089423670886077 5.927068148734175  29.21088189873418 5.805609873417723  29.21088189873418 5.927068101265821  C 29.21088189873418 6.048526329113923  28.967965395569614 6.14569295886076  29.089423623417716 6.388609509493669  C 29.672423259493662 7.821816977848101  29.915339762658228 9.59510753164557  30.522631091772148 10.88256503164557  C 30.64408936708861 10.785398401898732  30.522631091772148 10.542481898734177  30.64408936708861 10.542481946202532  C 30.765547642405068 10.663940221518985  31.00846414556962 10.542481946202532  31.00846414556962 10.66394017405063  C 31.00846414556962 10.785398401898732  31.00846414556962 10.785398449367086  30.887005870253162 10.785398449367086  C 30.887005870253162 10.882565079113924  31.25138064873417 11.004023306962026  31.00846414556962 11.125481582278478  C 30.76554764240506 11.125481582278478  31.00846414556962 10.761106803797468  30.765547594936706 10.88256503164557  C 30.4011728164557 12.267189161392405  31.470005506329116 13.457480126582276  31.470005506329116 15.01214582278481  C 31.83438028481013 15.133604098101262  31.470005506329116 14.672062689873414  31.71292200949368 14.672062689873414  C 32.07729678797469 14.79352096518987  31.95583851265824 15.255062325949364  31.71292200949368 15.37652060126582  C 30.668380965189883 14.914979240506327  29.5752566772152 16.080978512658227  28.14204920886077 15.95952023734177  C 28.020590933544305 15.95952023734177  28.020590933544305 16.299603370253163  27.77767443037976 16.299603370253163  C 27.656216155063298 16.056686867088604  28.02059093354432 16.299603370253163  27.899132705696218 16.056686867088604  C 27.63192455696204 16.129561803797465  27.53475792721521 16.17814514240506  27.486174636075965 16.20243674050633  C 27.41329969936711 16.20243674050633  27.364716360759502 16.178145094936706  27.291841424050645 16.178145094936706  C 27.291841424050645 16.421061598101264  26.95175829113925 16.299603370253163  26.830300063291148 16.299603370253163  C 26.70884178797469 16.542519873417717  27.073216566455713 16.299603370253163  26.95175829113925 16.542519873417717  C 26.368758655063303 16.421061598101264  25.27563431962026 16.761144731012653  24.692634683544313 17.004061281645562  C 24.692634683544313 16.761144778481007  24.352551550632917 17.12551955696202  23.988176819620264 17.004061281645562  C 23.8667185443038 17.1012279113924  23.988176819620264 17.34414441455695  23.8667185443038 17.344144367088603  C 23.745260268987344 17.34414431962024  23.8667185443038 16.97976958860759  23.502343765822793 17.101227863924045  L 23.502343765822793 17.222686139240494  C 22.530677705696206 17.222686139240494  21.7047615664557 17.927144050632904  21.1217618829114 17.68422749999999  C 20.660220522151903 18.048602278481  19.567096186708866 18.048602278481  19.105554825949376 18.510143639240496  C 17.186514351265835 18.631601914556953  15.87476515822786 19.214601550632906  14.320099462025325 19.554684683544295  C 14.198641186708869 19.651851313291132  14.320099462025325 19.894767816455683  14.198641186708869 19.894767816455683  C 13.955724683544311 19.894767816455683  14.077182911392413 19.67614295886075  14.077182911392413 19.554684683544295  C 13.955724636075956 19.797601186708853  13.737099778481024 19.554684683544295  13.494183275316459 19.67614295886075  C 13.15410014240507 19.919059462025302  13.032641914556969 20.38060087025316  12.78972541139241 20.259142594936705  C 12.911183686708867 20.13768431962025  13.154100189873418 20.259142594936705  13.032641914556969 20.016226044303792  C 12.449642278481015 20.016226044303792  11.98810087025317 20.526350743670882  11.599434446202537 20.259142594936705  C 10.967851518987345 20.599225727848093  10.384851882911391 20.84214223101266  9.680393971518995 20.84214223101266  C 7.8828117721519035 21.35226693037974  6.230979446202532 21.935266566455695  4.4333972468354474 22.275349651898736  C 4.311938971518991 22.396807927215185  4.4333972468354474 22.518266155063287  4.311938971518991 22.518266202531642  C 4.311938971518991 22.396807927215185  4.093314113924055 22.396807927215185  3.8503975632911462 22.396807927215185  C 3.8503975632911462 22.639724430379744  3.72893928797469 22.7611827056962  3.607481060126588 22.518266202531642  C 3.607481060126588 22.7611827056962  3.7289393354430445 22.979807563291132  3.7289393354430445 23.101265838607596  C 3.4860228322784863 23.004099208860758  3.607481060126588 23.344182341772147  3.4860228322784863 23.344182341772147  C 3.364564604430388 23.344182341772147  3.3645645569620335 23.222724066455697  3.1216480537974753 23.222724066455697  C 3.218814683544309 23.562807199367086  2.7572732753164644 23.319890696202528  2.7572732753164644 23.562807199367086  C 3.461731186708871 23.684265474683542  4.190480743670896 23.344182341772147  5.137855110759503 23.222724066455697  C 5.259313386075959 23.12555743670886  5.137855110759503 22.8826409335443  5.259313386075959 22.882640981012656  C 5.380771661392416 22.88264102848101  5.259313386075959 23.125557484177214  5.5022298892405175 23.125557484177214  C 9.680393971518995 21.910974920886076  13.980016329113937 20.866433876582278  18.158180411392415 19.676142958860765  C 18.27963868670887 19.55468468354431  18.158180411392415 19.433226455696207  18.279638639240517 19.433226408227853  C 19.37276297468356 19.77330954113924  20.538762246835454 18.971685047468355  21.63188658227849 18.8502267721519  C 21.753344857594954 18.631601914556967  21.510428306962034 18.51014363924051  21.510428306962034 18.38868541139241  C 21.753344810126592 18.38868541139241  21.874803085443055 18.48585204113924  21.874803085443055 18.728768544303797  C 23.089385648734186 18.631601914556967  24.133926693037992 18.267227183544307  25.10559275316458 17.805685775316455  C 24.862676250000014 17.902852405063285  24.862676250000014 17.562769272151897  24.984134525316477 17.56276922468355  C 24.984134525316477 17.78139408227848  25.348509303797485 17.65993585443038  25.227051028481036 17.902852357594938  C 25.56713416139243 17.902852357594938  25.56713416139243 17.78139408227848  25.931508939873446 17.781394129746836  L 25.931508939873446 17.805685775316455  L 27.631924556962055 17.805685775316455  C 30.279714588607618 17.101227863924052  30.279714588607618 16.882603006329113  33.00037955696205 16.15385344936709  Z M 28.384965759493667 2.769153417721519  C 28.239215838607592 2.6962784810126585  28.14204925632911 2.574820205696202  28.14204920886076 2.4290702848101233  C 28.263507484177218 2.4290702848101233  28.38496571202532 2.5262369145569608  28.384965759493667 2.769153417721519  Z M 29.21088189873418 6.8744425158227855  C 29.089423623417716 6.631526012658227  29.42950675632911 6.777275886075948  29.33234017405063 6.631526012658227  L 29.575256677215187 6.631526012658227  C 29.575256677215187 6.752984287974684  29.33234017405063 6.752984287974684  29.21088189873418 6.8744425158227855  Z M 29.672423259493662 7.141650712025317  C 29.672423259493662 7.384567215189872  29.818173180379738 7.724650348101267  29.55096503164556 7.724650348101267  C 29.672423306962024 7.214525648734178  29.33234017405063 7.360275569620256  29.308048528481002 7.020192436708861  C 29.42950680379746 7.141650712025317  29.42950680379746 7.141650712025317  29.672423259493662 7.141650712025317  Z M 31.105630727848094 12.218605870253164  C 30.98417245253163 12.097147594936711  30.7655475949367 12.097147594936711  30.86271422468353 11.878522784810126  L 31.105630727848094 11.878522784810126  L 31.105630727848094 12.218605870253164  Z M 31.591463781645558 12.825897199367091  C 31.37283892405062 12.704438924050635  31.49429715189872 12.947355474683544  31.227089003164544 12.94735542721519  C 31.227089003164544 12.825897151898737  31.10563072784808 12.825897151898737  30.98417245253163 12.825897199367091  C 30.98417245253163 12.485814066455696  31.348547231012645 12.582980696202533  31.227089003164544 12.242897515822786  L 31.4700055063291 12.242897515822786  C 31.4700055063291 12.364355791139243  31.44571386075949 12.485814018987345  31.348547231012645 12.582980648734178  L 31.10563072784808 12.582980648734178  C 31.10563072784808 12.704438924050635  31.348547231012645 12.704438924050635  31.348547231012645 12.825897199367091  C 31.591463734177204 12.825897199367091  31.348547231012645 12.364355838607597  31.591463781645558 12.485814066455696  L 31.591463781645558 12.825897199367091  Z M 31.737213655063286 13.408896835443038  C 31.737213655063286 13.627521693037977  31.615755379746822 13.748979968354433  31.49429715189872 13.870438196202532  C 31.615755427215184 13.627521693037977  31.615755427215184 13.408896835443038  31.737213655063286 13.408896835443038  Z M 4.992105189873417 22.615432784810125  L 4.992105189873417 22.95551591772152  C 4.773480332278481 22.95551591772152  4.6520220569620285 22.858349287974683  4.773480332278481 22.615432784810125  L 4.992105189873417 22.615432784810125  Z M 6.060937879746838 22.49397450949367  L 5.81802137658228 22.49397450949367  L 5.81802137658228 22.251058006329117  C 5.963771297468355 22.251058006329117  6.060937879746838 22.372516281645574  6.060937879746838 22.49397450949367  Z M 23.45376047468355 17.319852721518984  C 23.526635411392405 17.562769224683535  23.93959352848102 17.659935854430373  23.818135253164563 17.87856071202532  C 23.818135253164563 17.635644208860754  23.478052120253167 17.635644208860754  23.45376047468355 17.319852721518984  Z M 25.615717452531655 17.538477579113923  L 25.615717452531655 17.781394129746836  C 25.397092594936716 17.878560759493666  25.27563431962026 17.781394129746836  25.37280094936709 17.538477579113923  L 25.615717452531655 17.538477579113923  Z " fill-rule="nonzero" fill="#c1c1c2" stroke="none" transform="matrix(1 0 0 1 309 483 )" />
  </g>
</svg>