<?xml version="1.0" encoding="utf-8"?>
<svg version="1.1" xmlns:xlink="http://www.w3.org/1999/xlink" width="56px" height="31px" xmlns="http://www.w3.org/2000/svg">
  <g transform="matrix(1 0 0 1 -284 -470 )">
    <path d="M 54.09750821202532 1.311654303797468  C 54.0732165664557 1.3359459493670869  54.04892492088607 1.3359459493670869  53.97604993670887 1.3602375949367058  C 54.00034158227848 1.3602375949367058  54.048924873417725 1.3845292405063283  54.0732165664557 1.4331125791139243  C 54.19467484177216 1.3602376424050604  54.170383196202536 1.3359459493670869  54.09750821202532 1.311654303797468  Z M 55.33638242088609 0.7043630221518988  C 55.26350748417723 0.6800713765822781  55.190632500000014 0.7043630221518988  55.14204920886077 0.7286546677215178  C 55.214924145569626 0.7286546677215178  55.26350748417723 0.7043630221518988  55.33638242088609 0.7043630221518988  Z M 47.85455373417722 2.6234034968354436  C 47.68451216772153 2.5505285601265797  47.514470601265835 2.5991118512658247  47.44159566455697 2.7448617246835454  C 47.56305393987343 2.696278433544304  47.70880381329115 2.647695094936708  47.85455373417722 2.6234034968354436  Z M 54.607632911392415 1.0930294462025287  C 54.53475797468356 1.0687378006329098  54.43759134493672 1.0687378006329098  54.43759134493672 1.1173210917721512  C 54.559049620253184 1.1416127373417702  54.583341265822796 1.2630710126582265  54.58334121835444 1.3602375949367058  C 54.60763286392405 1.2630709651898755  54.58334121835444 1.1659043829113926  54.607632911392415 1.0930294462025287  Z M 53.92746664556963 1.0444461550632909  C 53.87888335443039 1.1901960759493662  54.000341582278494 1.238779367088604  54.097508212025325 1.287362658227849  C 54.121799857594944 1.2630710126582265  54.19467484177216 1.2630710126582265  54.21896648734179 1.2144876740506305  C 54.21896648734179 1.1416127373417702  54.17038319620254 1.0687377531645552  54.12179985759495 1.0201544620253173  C 54.048924920886094 1.0201544620253173  54.000341582278494 1.0444461075949363  53.92746664556963 1.0444461550632909  Z M 27.692482879746844 7.870400221518988  C 27.765357816455705 7.846108575949366  27.789649509493678 7.846108575949366  27.789649462025324 7.821816930379747  C 27.716774525316467 7.846108575949366  27.64389954113925 7.846108575949366  27.57102460443039 7.846108575949366  C 27.64389954113925 7.846108575949366  27.668191234177225 7.870400221518988  27.692482879746844 7.870400221518988  Z M 7.16603724683545 14.016188117088607  C 7.311787167721527 14.089063053797467  7.311787167721527 13.991896471518984  7.263203829113931 13.870438196202532  C 7.238912183544311 13.91902148734177  7.19032889240507 13.967604825949369  7.16603724683545 14.016188117088607  Z M 0.7530412025316523 16.421061598101257  L 0.7530412025316525 16.372478306962027  C 0.8744994778481081 16.25102003164557  0.7530412025316525 16.12956180379747  0.8744994778481081 16.12956180379747  L 0.9959577056962094 16.12956180379747  C 0.9716660601265893 16.15385344936709  0.8744994303797539 16.20243674050633  0.8744994778481081 16.348186661392404  L 0.9473744145569689 16.348186661392404  C 0.9473744145569689 16.421061598101264  0.9959577056962094 16.46964493670886  1.0688326898734246 16.46964493670886  C 1.0688326898734246 16.372478306962027  1.0688326898734246 16.251020079113925  1.0445410443038043 16.153853449367084  C 1.1417076740506398 16.178145094936706  1.1174159810126651 16.178145094936706  1.0202493512658295 16.03239517405063  C 0.9716660601265891 15.838061962025309  0.9473744145569689 15.64372875  0.9473744145569689 15.449395537974677  C 0.8259161392405131 15.449395537974677  0.8259161392405131 15.206479034810123  0.5829996360759561 15.327937310126575  C 0.4615413607595003 15.449395585443032  0.5829996360759561 15.78947867088607  0.4615413607595003 15.78947867088607  L 0.2672081487341839 15.78947867088607  C 0.34008308544304466 15.983811882911386  0.3886664240506396 16.20243674050632  0.3886664240506396 16.421061598101257  L 0.7530412025316523 16.421061598101257  Z M 11.319909683544312 28.785512325949355  C 11.174159762658235 28.518304177215178  10.712618401898743 28.518304177215178  10.931243259493678 28.299679272151906  C 11.052701534810135 28.421137547468355  11.174159762658237 28.542595775316457  11.174159762658237 28.639762405063294  C 14.62357428797469 28.05676276898734  17.708614034810136 26.98793007911393  21.060861977848113 26.162013939873418  C 21.182320253164566 26.040555664556962  21.060861977848113 25.91909743670886  21.182320253164566 25.91909743670886  C 21.64386161392406 26.162013939873418  22.15398631329115 25.79763916139241  22.615527674050643 25.79763916139241  C 22.7369859493671 25.676180886075954  22.615527674050643 25.554722658227853  22.7369859493671 25.554722658227853  C 23.441443860759502 25.79763916139241  25.117567832278493 24.9717230221519  26.429316977848114 24.850264746835443  C 26.453608623417733 24.825973101265824  26.453608623417733 24.753098117088612  26.429316977848114 24.728806471518986  C 26.50219191455697 24.80168140822785  26.69652512658229 24.728806471518986  26.793691756329125 24.728806471518986  C 26.91515003164558 24.607348196202537  26.91515003164558 24.267265110759496  27.158066534810136 24.024348607594938  C 27.279524810126592 24.024348607594938  27.279524810126592 24.485889968354428  27.158066534810136 24.485889968354428  C 27.862524446202542 24.607348243670884  28.12973259493672 24.24297346518987  28.712732231012662 24.24297346518987  C 28.83419050632912 24.00005696202531  28.348357452531655 24.24297346518987  28.46981572784811 24.000056914556957  C 28.22689922468355 23.878598639240508  28.46981572784811 24.242973417721515  28.22689922468355 24.121515189873413  C 28.1054409493671 23.878598686708862  28.46981572784811 24.121515189873413  28.348357452531655 23.878598686708862  C 28.25119082278482 23.90289033227848  28.178315886075957 23.9271819778481  28.1054409493671 23.975765268987338  C 28.1054409493671 23.63568213607595  28.348357452531655 23.514223908227848  28.56698231012659 23.41705727848101  C 28.688440585443047 23.8785986392405  29.149981946202544 23.65997378164556  29.660106645569627 23.659973829113916  C 29.562940015822797 23.51422390822784  29.660106645569627 23.441348971518984  29.732981629746842 23.465640617088603  C 29.66010669303798 23.344182341772147  29.611523354430386 23.19843246835442  29.41719014240507 23.19843242088607  C 29.41719014240507 23.31989069620252  29.41719014240507 23.31989069620252  29.295731867088612 23.31989069620252  C 29.174273591772156 23.56280719936708  29.53864837025317 23.31989069620252  29.41719014240507 23.56280719936708  C 29.295731867088612 23.441348924050622  29.05281536392406 23.56280719936708  29.05281536392406 23.441348924050622  C 29.05281536392406 23.319890648734166  29.174273639240518 23.319890648734166  29.174273639240518 23.19843242088607  C 28.59127400316456 23.31989069620252  28.081149303797478 23.53851555379746  27.37669139240507 23.53851555379746  C 27.498149667721528 24.00005691455695  26.793691756329117 23.659973829113916  27.133774889240513 24.00005691455695  C 26.89085838607596 24.00005691455695  26.672233528481023 23.878598639240494  26.89085838607596 23.757140411392392  C 26.526483607594948 23.757140411392392  26.06494224683545 23.878598686708848  26.307858750000005 24.09722354430378  C 26.307858750000005 23.97576526898733  26.307858750000005 23.97576526898733  26.429316977848107 23.97576526898733  C 26.307858702531654 24.09722354430378  26.429316977848107 24.31584840189872  26.307858750000005 24.31584840189872  C 26.186400474683552 24.194390126582263  26.06494224683545 24.194390126582263  25.943483971518994 24.07293189873416  C 25.943483971518994 23.951473623417705  26.06494224683545 23.951473623417705  26.064942199367096 23.830015395569603  C 25.700567420886085 23.708557120253154  25.603400838607605 23.95147367088606  25.481942563291145 24.07293189873416  C 25.02040120253165 23.830015395569603  24.17019337025317 24.41301503164555  23.465735506329118 24.41301503164555  C 23.344277231012665 24.534473306962006  23.465735506329118 24.655931534810108  23.344277231012665 24.655931534810108  C 23.101360727848107 24.777389810126564  22.97990245253165 24.53447325949365  22.882735870253168 24.53447325949365  C 22.882735870253168 24.874556392405047  22.421194509493674 24.874556392405047  22.299736186708866 25.117472895569605  C 22.17827791139241 24.874556392405047  22.42119446202532 24.99601462025315  22.42119446202532 24.777389762658217  C 22.178277958860765 24.898848037974673  21.959653101265825 25.117472895569605  21.716736550632916 24.898848037974673  C 21.59527827531646 25.141764541139224  21.255195189873422 25.141764541139224  20.89082041139241 25.141764541139224  C 19.579071218354436 25.48184767405062  18.17015544303798 25.967680680379736  16.61548974683545 26.186305585443023  C 16.372573243670892 26.30776386075948  16.61548974683545 26.42922208860758  16.494031471518994 26.52638871835441  C 16.494031471518994 26.380638797468336  16.372573196202538 26.28347221518986  16.25111496835444 26.283472167721506  C 16.129656693037983 26.404930443037962  16.25111496835444 26.526388670886064  16.129656693037983 26.52638871835441  C 16.129656693037983 26.404930443037962  16.008198417721527 26.404930443037962  15.76528191455697 26.404930443037962  C 11.368492974683553 27.716679636075938  10.396826914556971 27.59522136075948  5.878579699367096 28.88267890822783  C 6.000037974683552 28.88267890822783  6.000037974683552 28.88267890822783  6.000037974683552 29.004137183544287  C 5.63566319620254 29.125595458860744  5.757121471518995 28.76122068037973  5.417038338607603 28.88267890822783  C 5.295580063291147 29.12559541139239  5.174121835443046 29.34422026898732  5.05266356012659 29.58713681962024  C 4.5911221993670965 29.247053686708853  5.05266356012659 28.76122068037973  4.8097470094936785 28.275387626582265  C 4.688288734177223 28.396845901898722  4.445372231012666 28.615470759493654  4.348205648734185 28.396845901898722  C 4.348205648734185 28.153929398734164  4.591122151898742 28.275387626582265  4.712580427215197 28.275387626582265  L 4.712580427215197 27.81384621835442  C 4.591122151898742 27.81384621835442  4.591122151898742 27.935304493670877  4.469663924050641 27.935304493670877  C 4.712580427215197 27.109388354430365  4.105289145569628 26.380638797468343  4.105289145569628 25.457556028481  C 3.983830870253172 25.336097753164545  3.862372642405071 25.457556028481  3.8623725949367165 25.336097753164545  C 3.862372547468362 25.21463947784809  3.740914319620261 25.093181249999986  3.7409143670886156 25.214639525316443  C 3.862372642405072 25.676180886075933  3.376539588607603 25.676180886075933  3.376539588607603 26.040555664556955  L 3.3036646044303875 26.040555664556955  L 4.0324141613924125 28.54259577531645  C 4.153872436708869 28.664054050632906  4.396788939873425 28.54259577531645  4.396788939873425 28.664054050632906  C 4.27533066455697 28.785512325949355  4.396788939873425 28.906970553797457  4.275330712025324 28.906970553797457  C 4.153872484177223 28.906970553797457  4.153872436708869 28.785512278481008  4.032414161392413 28.785512325949355  C 4.032414161392413 29.247053686708853  4.032414161392413 29.611428465189867  4.396788939873426 29.70859504746835  C 4.032414161392413 29.9515115506329  4.396788939873426 30.291594683544297  4.396788939873426 30.53451123417721  C 7.044578971518996 29.951511598101256  5.587079857594945 30.413052958860753  8.210578243670895 29.8300533227848  L 9.303702579113931 29.36851196202531  C 9.959577151898742 29.101303813291132  10.639743417721528 28.90697060126582  11.319909683544312 28.785512325949355  Z M 27.522441313291147 24.41301503164557  C 27.643899588607603 23.95147367088608  27.643899588607603 23.95147367088608  27.64389958860761 23.708557120253168  C 27.765357863924063 23.830015395569625  27.983982721519 23.830015395569625  28.1054409493671 23.951473623417726  C 27.886816091772165 24.072931898734176  27.692482879746844 24.242973465189877  27.522441313291147 24.41301503164557  Z M 26.429316977848114 24.704514825949367  C 26.38073368670887 24.607348196202537  26.283567056962035 24.58305655063291  26.429316977848114 24.58305655063291  C 26.40502533227849 24.655931487341768  26.40502533227849 24.68022318037975  26.429316977848114 24.704514825949367  Z M 1.7004156170886167 15.30364566455696  C 1.7004156170886167 15.230770727848103  1.6761239715189964 15.157895743670885  1.6518323259493761 15.085020759493673  C 1.6032490348101356 15.133604050632915  1.5303740506329206 15.206479034810126  1.4574991139240598 15.230770680379749  C 1.5303740506329206 15.27935397151899  1.6275406803797559 15.303645617088605  1.7004156170886167 15.30364566455696  Z M 30.09735640822786 7.9918584968354445  C 30.09735640822786 7.943275205696203  30.09735640822786 7.943275205696203  30.073064715189886 7.918983560126585  C 30.073064715189886 7.943275205696203  30.097356360759505 7.943275205696203  30.09735640822786 7.9918584968354445  Z M 54.65621620253166 1.4088208860759508  C 54.65621620253166 1.578862452531645  54.63192455696204 1.7731956645569618  54.92342435126584 1.7003207278481014  C 54.972007642405075 1.578862452531645  54.99629928797469 1.4574042246835432  54.996299335443055 1.3359459493670869  C 54.972007689873436 1.3359459493670869  54.85054941455697 1.3602375949367058  54.65621620253166 1.4088208860759508  Z " fill-rule="nonzero" fill="#c1c1c2" stroke="none" transform="matrix(1 0 0 1 284 470 )" />
  </g>
</svg>