<?xml version="1.0" encoding="utf-8"?>
<svg version="1.1" xmlns:xlink="http://www.w3.org/1999/xlink" width="710px" height="702px" xmlns="http://www.w3.org/2000/svg">
  <defs>
    <path d="M 0 0  L 476 0  L 476 470  L 0 470  Z " fill-rule="evenodd" fill="black" id="path1100" />
    <clipPath id="clip1101">
      <use xlink:href="#path1100" />
    </clipPath>
    <filter x="-50.00%" y="-50.00%" width="200.00%" height="200.00%" filterUnits="objectBoundingBox" id="filter1102">
      <feColorMatrix type="matrix" values="1 0 0 0 0  0 1 0 0 0  0 0 1 0 0  0 0 0 1 0  " in="SourceGraphic" />
    </filter>
  </defs>
  <g transform="matrix(1 0 0 1 -590 -200 )">
    <g transform="matrix(1.4915966386554622 0 0 1.4915966386554622 590 200.4747899159664 )" clip-path="url(#clip1101)" filter="url(#filter1102)">
      <path fill-rule="evenodd" clip-rule="evenodd" d="M420.744 185.048C419.123 184.458 419.123 184.458 420.302 177.385C421.334 170.165 423.544 155.872 423.691 142.758C423.986 129.644 422.07 117.709 417.945 107.1C413.819 96.3432 407.335 86.9129 398.789 78.6613C390.243 70.4097 379.339 63.3369 369.467 58.6217C359.742 54.0539 350.901 51.6963 342.354 50.9596C333.661 50.2228 325.262 50.8122 317.894 52.7278C310.379 54.4959 304.043 57.5903 300.802 59.2111C297.56 60.832 297.56 60.832 297.56 60.832C297.707 60.9793 297.707 60.9793 295.202 56.7062C292.845 52.5804 288.13 44.1815 282.678 37.1087C277.078 30.1833 270.89 24.584 263.08 19.2794C255.418 14.1222 246.282 9.25963 236.557 6.60734C226.98 3.80769 216.96 3.2183 206.645 4.39709C196.478 5.42854 186.016 8.37553 177.323 12.5013C168.629 16.6271 161.556 22.079 154.926 27.8257C148.295 33.5723 142.106 39.6136 137.686 45.9497C133.118 52.2857 130.171 58.7691 128.403 63.1896C126.635 67.6101 125.898 69.9677 125.603 71.1465C125.308 72.3252 125.308 72.3252 122.067 70.7044C118.825 69.0836 112.489 65.8419 105.269 64.221C98.0487 62.6002 90.0918 62.6002 80.9562 64.221C71.8205 65.9892 61.3587 69.3783 52.5177 74.8302C43.8241 80.2821 36.6039 87.6496 31.0046 95.0171C25.258 102.385 20.9849 109.752 16.8591 119.035C12.8806 128.318 8.90221 139.369 6.83932 149.389C4.77642 159.409 4.62907 168.25 6.54462 177.975C8.31281 187.7 12.1439 198.309 15.0909 205.235C18.0379 212.16 20.1008 215.402 21.1322 217.023C22.0163 218.643 22.0163 218.643 19.6587 224.39C17.3011 230.137 12.4386 241.63 9.04956 253.565C5.51317 265.501 3.30293 277.731 4.03967 290.697C4.62907 303.664 8.31281 317.22 12.2913 328.714C16.2697 340.354 20.6902 349.932 28.205 360.394C35.7198 370.855 46.1817 382.201 57.8223 392.221C69.3155 402.388 81.8403 411.082 96.7226 419.628C111.752 428.027 129.139 436.131 151.095 444.383C173.05 452.487 199.72 460.739 225.801 464.128C251.882 467.517 277.668 466.191 296.676 462.212C315.684 458.234 328.061 451.603 340.733 442.467C353.553 433.184 366.667 421.249 375.213 407.84C383.76 394.284 387.738 379.254 389.801 371.74C391.716 364.225 391.716 364.225 395.99 362.162C400.41 360.246 408.956 356.268 418.387 350.816C427.817 345.364 438.132 338.439 446.383 329.156C454.487 319.873 460.676 308.232 465.244 296.444C469.664 284.803 472.317 273.163 472.611 261.964C472.906 250.913 470.843 240.156 466.865 230.284C462.886 220.412 457.14 211.423 450.509 204.645C443.731 197.72 436.363 192.857 431.059 189.91C425.607 186.963 422.365 185.784 420.744 185.048Z" fill="white" stroke="white" stroke-width="6.23731" />
      <path fill-rule="evenodd" clip-rule="evenodd" d="M353.439 238.96L352.607 241.26L351.891 243.557L351.29 245.851L350.8 248.146L350.422 250.441L350.148 252.768L349.978 255.079L349.913 257.374L349.953 259.658L350.096 261.935L350.341 264.208L350.681 266.454L351.119 268.672L351.654 270.866L352.284 273.037L353.011 275.181L353.825 277.283L354.73 279.344L355.726 281.367L356.812 283.352L357.984 285.287L359.238 287.165L360.576 288.988L361.997 290.759L363.506 292.479L365.084 294.123L366.741 295.698L368.475 297.204L370.289 298.644L372.188 300.016L374.135 301.292L376.155 302.484L378.25 303.593L380.425 304.62L382.682 305.565L384.983 306.397L387.28 307.114L389.574 307.715L391.868 308.204L394.164 308.583L396.491 308.857L398.801 309.026L401.097 309.091L403.381 309.051L405.657 308.908L407.931 308.664L410.176 308.323L412.394 307.886L414.588 307.351L416.76 306.72L418.904 305.994L421.005 305.179L423.066 304.274L425.09 303.278L427.074 302.192L429.009 301.021L430.888 299.767L432.711 298.429L434.482 297.007L436.201 295.498L437.846 293.92L439.421 292.264L440.927 290.529L442.366 288.715L443.738 286.816L445.014 284.87L446.206 282.849L447.316 280.754L448.343 278.579L449.287 276.322L450.12 274.022L450.836 271.725L451.437 269.43L451.926 267.136L452.305 264.84L452.579 262.514L452.749 260.203L452.813 257.908L452.774 255.624L452.631 253.347L452.386 251.074L452.046 248.828L451.608 246.61L451.073 244.416L450.443 242.244L449.716 240.1L448.901 237.999L447.997 235.938L447 233.915L445.914 231.93L444.743 229.995L443.489 228.116L442.151 226.294L440.729 224.523L439.22 222.803L437.642 221.159L435.986 219.583L434.253 218.078L432.438 216.638L430.539 215.266L428.592 213.99L426.572 212.798L424.477 211.688L422.302 210.661L420.044 209.717L417.744 208.884L415.447 208.168L413.153 207.567L410.859 207.078L408.563 206.699L406.236 206.425L403.926 206.256L401.63 206.191L399.346 206.231L397.07 206.374L394.796 206.618L392.55 206.959L390.333 207.396L388.139 207.931L385.967 208.562L383.823 209.288L381.722 210.103L379.66 211.008L377.637 212.004L375.652 213.09L373.718 214.261L371.839 215.515L370.016 216.853L368.245 218.275L366.527 219.784L364.881 221.362L363.306 223.018L361.8 224.752L360.36 226.566L358.989 228.466L357.713 230.412L356.52 232.432L355.411 234.528L354.384 236.703L353.439 238.96Z" fill="#FFADC2" />
      <path fill-rule="evenodd" clip-rule="evenodd" d="M294.863 115.452L294.031 117.752L293.315 120.049L292.714 122.343L292.224 124.637L291.846 126.933L291.572 129.26L291.402 131.57L291.337 133.866L291.377 136.15L291.52 138.426L291.765 140.7L292.105 142.945L292.543 145.163L293.078 147.357L293.708 149.529L294.435 151.673L295.25 153.774L296.154 155.836L297.15 157.859L298.236 159.844L299.408 161.778L300.662 163.657L302 165.48L303.422 167.251L304.93 168.969L306.509 170.615L308.165 172.19L309.899 173.696L311.713 175.135L313.612 176.507L315.559 177.783L317.579 178.975L319.674 180.085L321.849 181.112L324.106 182.056L326.407 182.889L328.704 183.605L330.998 184.206L333.292 184.695L335.588 185.074L337.915 185.348L340.225 185.518L342.521 185.583L344.805 185.543L347.081 185.4L349.355 185.155L351.6 184.815L353.818 184.377L356.012 183.842L358.184 183.212L360.328 182.485L362.429 181.67L364.491 180.766L366.514 179.77L368.498 178.684L370.433 177.512L372.312 176.258L374.135 174.92L375.906 173.498L377.624 171.99L379.27 170.411L380.845 168.755L382.351 167.021L383.79 165.207L385.162 163.308L386.438 161.361L387.63 159.341L388.74 157.246L389.767 155.071L390.711 152.813L391.544 150.513L392.26 148.216L392.861 145.922L393.35 143.628L393.729 141.332L394.003 139.005L394.173 136.695L394.237 134.399L394.198 132.115L394.055 129.839L393.81 127.565L393.47 125.32L393.032 123.102L392.497 120.908L391.867 118.736L391.14 116.592L390.325 114.491L389.421 112.429L388.425 110.406L387.339 108.421L386.167 106.487L384.913 104.608L383.575 102.785L382.153 101.014L380.645 99.2961L379.066 97.6502L377.41 96.075L375.676 94.5691L373.862 93.1295L371.963 91.7577L370.016 90.4816L367.996 89.2896L365.901 88.18L363.726 87.153L361.468 86.2085L359.168 85.376L356.871 84.6599L354.577 84.0587L352.283 83.5695L349.987 83.1908L347.66 82.9167L345.35 82.7473L343.054 82.6824L340.769 82.7222L338.494 82.8651L336.22 83.1097L333.974 83.4501L331.757 83.8877L329.563 84.4226L327.391 85.0533L325.247 85.7797L323.146 86.5946L321.084 87.4993L319.061 88.4954L317.076 89.5813L315.142 90.7528L313.263 92.0067L311.44 93.3446L309.669 94.7666L307.951 96.2754L306.305 97.8535L304.73 99.5097L303.224 101.244L301.784 103.058L300.413 104.957L299.137 106.904L297.945 108.924L296.835 111.019L295.808 113.194L294.863 115.452Z" fill="#FFADC2" />
      <path fill-rule="evenodd" clip-rule="evenodd" d="M164.894 62.8448L164.061 65.1449L163.345 67.4421L162.744 69.7363L162.255 72.0305L161.876 74.3262L161.602 76.6529L161.433 78.9633L161.368 81.259L161.407 83.543L161.55 85.8195L161.795 88.0931L162.135 90.3387L162.573 92.5563L163.108 94.7504L163.739 96.9223L164.465 99.0662L165.28 101.167L166.185 103.229L167.181 105.252L168.268 107.237L169.438 109.171L170.692 111.05L172.03 112.873L173.452 114.644L174.961 116.362L176.539 118.008L178.195 119.583L179.929 121.089L181.743 122.529L183.643 123.901L185.589 125.177L187.609 126.369L189.704 127.478L191.879 128.505L194.137 129.45L196.437 130.282L198.734 130.998L201.028 131.6L203.323 132.089L205.618 132.467L207.945 132.742L210.255 132.911L212.551 132.976L214.835 132.936L217.112 132.793L219.385 132.548L221.631 132.208L223.848 131.77L226.042 131.236L228.214 130.605L230.358 129.878L232.459 129.064L234.521 128.159L236.544 127.163L238.529 126.077L240.463 124.905L242.342 123.651L244.165 122.314L245.936 120.892L247.656 119.383L249.3 117.805L250.875 116.148L252.381 114.414L253.821 112.6L255.193 110.701L256.469 108.754L257.661 106.734L258.77 104.639L259.797 102.464L260.742 100.207L261.574 97.9066L262.29 95.6094L262.892 93.3152L263.381 91.0209L263.759 88.7252L264.033 86.3986L264.203 84.0881L264.268 81.7924L264.228 79.5085L264.085 77.232L263.84 74.9584L263.5 72.7128L263.062 70.4951L262.528 68.3011L261.897 66.1292L261.171 63.9852L260.356 61.884L259.451 59.8226L258.455 57.7995L257.367 55.8147L256.197 53.88L254.944 52.0013L253.606 50.1786L252.184 48.4074L250.675 46.6879L249.097 45.0434L247.44 43.4683L245.706 41.9624L243.892 40.5228L241.993 39.1509L240.046 37.8749L238.026 36.6828L235.931 35.5733L233.756 34.5463L231.499 33.6018L229.199 32.7692L226.901 32.0531L224.607 31.4519L222.313 30.9627L220.017 30.584L217.691 30.31L215.38 30.1405L213.084 30.0757L210.801 30.1155L208.524 30.2584L206.25 30.503L204.005 30.8434L201.787 31.281L199.593 31.8159L197.421 32.4465L195.277 33.173L193.176 33.9878L191.115 34.8925L189.092 35.8886L187.107 36.9746L185.172 38.146L183.293 39.4L181.471 40.7379L179.699 42.1598L177.98 43.6687L176.335 45.2468L174.76 46.903L173.254 48.6373L171.815 50.4512L170.443 52.3505L169.167 54.297L167.975 56.3172L166.865 58.4125L165.838 60.5874L164.894 62.8448Z" fill="#FFADC2" />
      <path fill-rule="evenodd" clip-rule="evenodd" d="M37.0166 117.591L36.184 119.891L35.4679 122.188L34.8667 124.483L34.3775 126.777L33.9988 129.073L33.7248 131.399L33.5553 133.71L33.4905 136.005L33.5303 138.289L33.6732 140.566L33.9178 142.839L34.2582 145.085L34.6958 147.303L35.2307 149.497L35.8613 151.669L36.5878 153.813L37.4026 155.914L38.3073 157.975L39.3034 159.998L40.3894 161.983L41.5608 163.918L42.8148 165.796L44.1527 167.619L45.5746 169.39L47.0835 171.108L48.6616 172.754L50.3178 174.329L52.0521 175.835L53.866 177.275L55.7653 178.647L57.7118 179.923L59.732 181.115L61.8273 182.224L64.0021 183.251L66.2596 184.196L68.5597 185.029L70.8569 185.745L73.1511 186.346L75.4453 186.835L77.741 187.214L80.0677 187.488L82.3781 187.657L84.6738 187.722L86.9577 187.682L89.2343 187.539L91.5079 187.295L93.7535 186.954L95.9711 186.517L98.1652 185.982L100.337 185.351L102.481 184.625L104.582 183.81L106.644 182.905L108.667 181.909L110.652 180.823L112.586 179.652L114.465 178.398L116.288 177.06L118.059 175.638L119.777 174.129L121.423 172.551L122.998 170.895L124.504 169.16L125.944 167.347L127.315 165.447L128.591 163.501L129.783 161.481L130.893 159.385L131.92 157.21L132.865 154.953L133.697 152.653L134.413 150.356L135.014 148.061L135.504 145.767L135.882 143.472L136.156 141.145L136.326 138.834L136.391 136.539L136.351 134.255L136.208 131.978L135.963 129.705L135.623 127.459L135.185 125.241L134.65 123.047L134.02 120.875L133.293 118.732L132.478 116.63L131.574 114.569L130.578 112.546L129.492 110.561L128.32 108.626L127.066 106.748L125.728 104.925L124.306 103.154L122.798 101.436L121.219 99.7897L119.563 98.2145L117.829 96.7086L116.015 95.269L114.116 93.8972L112.169 92.6212L110.149 91.4291L108.054 90.3196L105.879 89.2925L103.622 88.348L101.321 87.5155L99.0242 86.7994L96.73 86.1982L94.4357 85.709L92.14 85.3303L89.8134 85.0562L87.5029 84.8868L85.2072 84.822L82.9233 84.8617L80.6468 85.0047L78.3732 85.2493L76.1276 85.5896L73.91 86.0273L71.7159 86.5621L69.544 87.1928L67.4 87.9192L65.2988 88.7341L63.2374 89.6388L61.2143 90.6349L59.2295 91.7209L57.2948 92.8923L55.4161 94.1462L53.5934 95.4842L51.8222 96.9061L50.1041 98.415L48.4582 99.9931L46.8831 101.649L45.3772 103.384L43.9376 105.197L42.5657 107.097L41.2897 109.043L40.0976 111.063L38.9881 113.159L37.9611 115.334L37.0166 117.591Z" fill="#FFADC2" />
      <path fill-rule="evenodd" clip-rule="evenodd" d="M66.3598 260.455L64.568 265.514L63.0975 270.59L61.9422 275.685L61.095 280.806L60.5542 285.957L60.3037 291.195L60.342 296.422L60.6633 301.639L61.2674 306.853L62.1559 312.067L63.3229 317.301L64.7493 322.491L66.4364 327.641L68.3829 332.755L70.5931 337.84L73.0568 342.883L75.7577 347.847L78.6959 352.739L81.8742 357.563L85.2971 362.324L88.9396 366.986L92.7987 371.538L96.8744 375.983L101.171 380.326L105.696 384.571L110.398 388.661L115.296 392.61L120.396 396.419L125.702 400.091L131.223 403.63L136.858 406.961L142.675 410.117L148.684 413.102L154.892 415.914L161.307 418.555L167.819 420.953L174.292 423.084L180.734 424.953L187.154 426.567L193.555 427.927L200.015 429.059L206.408 429.947L212.74 430.594L219.017 431.001L225.247 431.172L231.452 431.11L237.555 430.821L243.564 430.307L249.484 429.567L255.322 428.6L261.063 427.411L266.667 426.011L272.141 424.398L277.49 422.571L282.716 420.527L287.785 418.278L292.68 415.831L297.407 413.182L301.969 410.327L306.37 407.264L310.553 404.024L314.526 400.595L318.294 396.972L321.858 393.151L325.221 389.124L328.308 384.966L331.15 380.623L333.748 376.089L336.099 371.358L338.205 366.42L339.997 361.362L341.467 356.286L342.623 351.19L343.47 346.07L344.011 340.918L344.261 335.68L344.223 330.454L343.902 325.236L343.297 320.023L342.409 314.808L341.242 309.574L339.816 304.385L338.128 299.235L336.182 294.12L333.972 289.035L331.508 283.993L328.807 279.029L325.869 274.137L322.691 269.312L319.268 264.552L315.625 259.889L311.766 255.338L307.69 250.892L303.394 246.55L298.869 242.305L294.167 238.214L289.269 234.265L284.169 230.456L278.863 226.784L273.342 223.245L267.707 219.915L261.89 216.759L255.881 213.773L249.673 210.962L243.257 208.32L236.746 205.923L230.273 203.792L223.831 201.922L217.411 200.309L211.01 198.949L204.55 197.817L198.157 196.928L191.825 196.282L185.548 195.875L179.318 195.704L173.113 195.766L167.01 196.055L161.001 196.569L155.08 197.309L149.242 198.275L143.502 199.464L137.898 200.864L132.424 202.478L127.075 204.305L121.849 206.349L116.78 208.597L111.885 211.045L107.158 213.694L102.596 216.548L98.1947 219.611L94.0114 222.852L90.0388 226.281L86.2711 229.902L82.7067 233.725L79.3442 237.752L76.2573 241.91L73.4149 246.252L70.8171 250.786L68.4654 255.518L66.3598 260.455Z" fill="#FFADC2" stroke="white" stroke-width="2" />
    </g>
    <path d="M 590.5 901.5  L 590.5 200.5  L 1299.5 200.5  L 1299.5 901.5  L 590.5 901.5  Z " stroke-width="1" stroke="#797979" fill="none" />
  </g>
</svg>