<?xml version="1.0" encoding="utf-8"?>
<svg version="1.1" xmlns:xlink="http://www.w3.org/1999/xlink" width="81px" height="81px" xmlns="http://www.w3.org/2000/svg">
  <defs>
    <linearGradient gradientUnits="userSpaceOnUse" x1="40.5" y1="0" x2="40.5" y2="81" id="LinearGradient968">
      <stop id="Stop969" stop-color="#6d83f4" offset="0" />
      <stop id="Stop970" stop-color="#3e58db" offset="0.52" />
      <stop id="Stop971" stop-color="#7287f9" offset="0.91" />
      <stop id="Stop972" stop-color="#6d84fe" offset="1" />
    </linearGradient>
  </defs>
  <g transform="matrix(1 0 0 1 -152 -164 )">
    <path d="M 80.44874991596798 1.831512171875005  C 80.44874991596798 1.1061880390624879  79.86254935060977 0.5012141484374979  79.13292970369666 0.5012141484374979  C 52.81149591854039 0.5012141484374979  28.056788388624256 0.5012141484374979  1.8298037675304988 0.5012141484374979  C 1.1002868523247045 0.5012141484374979  0.514086286966471 1.1061879375000103  0.514086286966471 1.831512171875005  L 1.8298037675304988 40.373056994816835  C 4.643772105182931 59.343938713566814  38.61866561604421 79.87459102343752  39.95388897856328 80.47135439843748  C 40.12317879334986 80.55054867187499  40.29903892282775 80.583494328125  40.47828699152057 80.583494328125  C 40.654044489615096 80.583494328125  40.83976024161587 80.55054867187499  41.009152687785814 80.47135439843748  C 42.35084373361283 79.874694921875  76.90854987061739 58.50990421356684  79.13292970369666 40.373056994816835  L 80.44874991596798 1.831512171875005  Z M 73 9.037154914062484  L 73 39.04663212435173  C 70.98463863195502 53.33070753060173  41.94368577353277 70.138576078125  40.89170727181784 70.60334892968751  C 40.76481695950838 70.667681359375  40.61821540215318 70.69241650000001  40.47828699152057 70.69241650000001  C 40.33825584918063 70.69241650000001  40.20458985908917 70.66768125781249  40.064558716749225 70.60334892968751  C 39.02900605192455 70.138472078125  11.398425201219528 53.53679978060171  8.786496021722568 39.04663212435173  L 7.750840725514466 9.03705091406249  C 7.750840725514466 8.460034132812495  8.219903869378806 7.990272632812491  8.786496021722568 7.990272632812491  C 29.317273932450455 7.990272632812491  51.57431502238948 7.9903766328124854  72.18311605964179 7.9903766328124854  C 72.74991357507623 7.9903766328124854  73.20583588891009 8.460242031250004  73 9.037154914062484  Z " fill-rule="nonzero" fill="url(#LinearGradient968)" stroke="none" transform="matrix(1 0 0 1 152 164 )" />
  </g>
</svg>