<?xml version="1.0" encoding="utf-8"?>
<svg version="1.1" xmlns:xlink="http://www.w3.org/1999/xlink" width="23px" height="24px" xmlns="http://www.w3.org/2000/svg">
  <g transform="matrix(1 0 0 1 -1 0 )">
    <path d="M 10.33333334375 0.25133334375  C 10.935495818839897 -0.08157289596205035  11.666504196785107 -0.08157289596205035  12.268666671875 0.25133334375  L 21.220666671875 5.1979999921874995  C 21.85811694975046 5.549939848438585  22.253924958389398 6.220515220387154  22.2540000078125 6.94866665625  L 22.254000007812497 16.76933334375  C 22.25368230455081 17.49724596181676  21.857907973411812 18.167508934297857  21.220666671875 18.519333328124997  L 12.268666671875 23.467333335937496  C 11.666677832661307 23.799993923097407  10.935988839213692 23.7999939230974  10.334 23.467333335937496  L 1.3820000000000001 18.520666664062496  C 0.7443406578293899 18.168611402391818  0.3484989536678489 17.497723565952825  0.3486666640625 16.769333343749995  L 0.3486666640624998 6.949333335937496  C 0.3492268981608728 6.221659550307535  0.7449675721809426 5.551708890359185  1.3820000000000001 5.2000000078125  L 10.33333334375 0.25066666406250004  Z M 4.2066666640624994 7.938  C 4.1244061940484045 8.086372295276917  4.081245467454239 8.253233405965723  4.081245467454239 8.422883407240938  C 4.081245467454239 8.786759194973978  4.278899603846526 9.121916101138927  4.59733334375 9.2980000078125  L 10.301333328124999 12.44933334375  L 10.301333328124999 18.734666671875  C 10.301333328124999 19.28695142602052  10.749048581791982 19.7346666796875  11.301333335937498 19.7346666796875  C 11.853618090083012 19.7346666796875  12.301333343749997 19.28695142602052  12.301333343749997 18.734666671875  L 12.30133334375 12.44933334375  L 18.005333328125005 9.2959999921875  C 18.305992717059898 9.115144965064498  18.48987516072665 8.789947908251396  18.48987516072665 8.4390852442497  C 18.48987516072665 7.886800490104184  18.04215990705967 7.439085236437202  17.489875152914152 7.439085236437202  C 17.33311917726209 7.439085236437202  17.17855861600936 7.4759370389473006  17.038666671875 7.546666664062499  L 11.301333335937498 10.71666665625  L 5.565333335937498 7.546666664062499  C 5.081894069435691 7.279782625683454  4.473637937637855 7.455275558459748  4.206666664062499 7.93866665625  Z " fill-rule="nonzero" fill="#858a9d" stroke="none" transform="matrix(1 0 0 1 1 0 )" />
  </g>
</svg>