<?xml version="1.0" encoding="utf-8"?>
<svg version="1.1" xmlns:xlink="http://www.w3.org/1999/xlink" width="23px" height="19px" xmlns="http://www.w3.org/2000/svg">
  <g transform="matrix(1 0 0 1 -1 -349 )">
    <path d="M 17.83563047464882 11.11755439179954  C 17.83563047464882 11.35235930402271  17.743362334332918 11.577929567539616  17.57839515509601 11.746424103692762  L 14.325301008862628 14.971230474741507  C 14.154390395289013 15.141240093298338  13.922231267877757 15.236799849099333  13.68010938293944 15.236799849099333  C 13.43798749800112 15.236799849099333  13.205828370589863 15.141240093298341  13.034917757016249 14.971230474741507  L 9.781823610782864 11.746424103692762  C 9.610322679782549 11.576999669367611  9.51392468050962 11.346859316977325  9.51392468050962 11.10684283973412  C 9.51392468050962 10.866826362490917  9.610322679782549 10.63668601010063  9.781823610782864 10.46726157577548  C 9.952734902498781 10.297246791017635  10.184897674960279 10.201683752727703  10.427023730059084 10.201683752727703  C 10.669149785157888 10.201683752727703  10.901312557619388 10.297246791017635  11.072223849335304 10.46726157577548  L 12.818033481536188 12.197890254652881  L 12.818033481536188 5.9955390502215655  C 12.818033481536188 5.496853962464568  13.225843765976892 5.092589854410303  13.728903245937959 5.092589854410303  C 14.231962725899027 5.092589854410303  14.63977301033973 5.496853962464568  14.63977301033973 5.995539012165104  L 14.639773010339734 12.197890254652881  L 16.266303096750367 10.46726157577548  C 16.437214388466284 10.297246791017635  16.669377160927784 10.201683752727703  16.91150321602659 10.201683752727703  C 17.153629271125393 10.201683752727703  17.38579204358689 10.297246791017633  17.556703335302807 10.46726157577548  C 17.73493362592006 10.63746340795022  17.83563047464882 10.872228793197806  17.83563047464882 11.11755439179954  Z M 22.024267857459378 8.790348787592318  L 22.035105274002955 8.790365626587887  C 21.598027425641327 8.135773803436763  21.038545528769006 7.570205356791576  20.38688335081241 7.124212855539143  C 20.339323365713483 6.409813500792083  20.170693614304 5.708461520146359  19.888073330871496 5.049600324076811  C 19.530022390769354 4.240744797409958  19.014089042422025 3.5100972778588497  18.369985373707536 2.8997350286558348  C 17.726503934814506 2.2414794650532355  16.95568100091738 1.7186682716036605  16.103639894387005 1.3625846239290993  C 15.265359014998214 1.033178865561331  14.370352931444318 0.8688788658947791  13.468669304283607 0.8788720827178723  C 12.10271629954991 0.8677924133834601  10.765069835406168 1.2648457536345863  9.630048785081241 2.018289066174298  C 8.996000824979435 2.4373534864390423  8.435543477793548 2.956622692904608  7.970972458641064 3.5554394877400295  C 7.616256826597088 3.4683217775889257  7.252039161424135 3.424998196400257  6.886602092319055 3.4264539604135886  C 5.768468792016958 3.413014105611921  4.691165683166097 3.842506047978959  3.893758857459381 4.619620529394387  C 2.978233740404761 5.508107066545734  2.5262896539908577 6.764931600239884  2.6684340952732644 8.027162013293943  C 2.123745752331958 8.350959077074284  1.639520228160233 8.765520475040034  1.237079460856721 9.252591794682422  C 0.416841955622323 10.216275156754758  -0.02244545210059244 11.442452458728795  0.0009002954209748893 12.703122830132939  C -0.013993387014548574 14.157376214926526  0.5833080246230931 15.551962353583887  1.6491052149187593 16.5513704478582  C 2.1674532917092497 17.05314817558598  2.778661904579956 17.450990012046933  3.449169893648449 17.7230506605613  C 4.138373767176112 17.99667299398359  4.875538872744321 18.13186655172234  5.617876686853767 18  L 16.76513012038405 18  C 18.38975891250711 18.12757628454329  19.95035083263539 17.493288061412798  21.10256067651403 16.35787533471197  C 21.687781967779305 15.802596206900091  22.155887379549323 15.137595087334546  22.479694237813884 14.40148829660266  C 22.791449466715015 13.662850696850267  22.950025985530683 12.869561225371356  22.945975038404725 12.068887905169868  C 22.97609985298459 10.909295901135962  22.655061147285274 9.76735193384241  22.024267857459378 8.790348787592318  Z " fill-rule="nonzero" fill="#858a9d" stroke="none" transform="matrix(1 0 0 1 1 349 )" />
  </g>
</svg>