<?xml version="1.0" encoding="utf-8"?>
<svg version="1.1" xmlns:xlink="http://www.w3.org/1999/xlink" width="19px" height="19px" xmlns="http://www.w3.org/2000/svg">
  <g transform="matrix(1 0 0 1 -2 -39 )">
    <path d="M 10.111166666666668 0.18366666666666667  C 10.108 0.10450000000000059  10.044666666666666 0.037999999999999756  9.965499999999999 0.037999999999999756  C 9.886333333333333 0.037999999999999756  9.819833333333333 0.10133333333333343  9.819833333333333 0.18366666666666667  L 9.819833333333333 1.5073333333333327  C 9.819833333333333 1.5864999999999994  9.883166666666666 1.6529999999999996  9.965499999999999 1.6529999999999996  C 10.047833333333331 1.6529999999999996  10.111166666666668 1.5896666666666663  10.111166666666668 1.5073333333333327  L 10.111166666666668 0.18366666666666667  Z M 8.5785 0.2881666666666667  C 8.565833333333332 0.20900000000000005  8.489833333333333 0.15516666666666615  8.410666666666668 0.17099999999999974  C 8.331500000000002 0.18366666666666667  8.277666666666667 0.25966666666666677  8.293499999999998 0.3388333333333334  L 8.524666666666668 1.6434999999999993  C 8.537333333333335 1.722666666666666  8.613333333333333 1.7764999999999997  8.6925 1.7606666666666664  C 8.771666666666667 1.7479999999999987  8.8255 1.671999999999999  8.809666666666667 1.5928333333333324  L 8.5785 0.2881666666666667  Z M 6.817833333333334 0.7536666666666664  L 7.270666666666666 1.9981666666666662  C 7.299166666666666 2.0741666666666667  7.3815 2.112166666666667  7.457500000000001 2.083666666666666  C 7.5335 2.055166666666666  7.571500000000001 1.9728333333333337  7.543000000000001 1.8968333333333327  L 7.090166666666669 0.652333333333333  C 7.061666666666669 0.5763333333333329  6.979333333333336 0.5383333333333331  6.903333333333334 0.5668333333333331  C 6.827333333333335 0.595333333333333  6.789333333333334 0.6776666666666663  6.817833333333334 0.7536666666666664  Z M 5.437166666666666 1.421833333333334  L 6.098999999999999 2.5681666666666665  C 6.1401666666666666 2.637833333333333  6.228833333333333 2.6599999999999997  6.295333333333333 2.6220000000000003  C 6.361833333333332 2.584  6.3871666666666655 2.492166666666667  6.349166666666665 2.425666666666667  L 5.687333333333332 1.279333333333333  C 5.646166666666666 1.209666666666667  5.557499999999998 1.1875000000000004  5.490999999999999 1.2255000000000003  C 5.421333333333333 1.2666666666666666  5.399166666666666 1.3553333333333335  5.437166666666666 1.421833333333334  Z M 4.192666666666665 2.317999999999998  L 5.0445 3.331333333333332  C 5.095166666666666 3.3915  5.1869999999999985 3.4009999999999985  5.247166666666667 3.350333333333332  C 5.307333333333333 3.299666666666665  5.316833333333332 3.207833333333332  5.266166666666666 3.147666666666665  L 4.414333333333332 2.1343333333333314  C 4.363666666666665 2.074166666666666  4.271833333333332 2.0646666666666653  4.211666666666665 2.1153333333333313  C 4.151499999999998 2.1659999999999986  4.1419999999999995 2.257833333333332  4.192666666666665 2.317999999999998  Z M 3.125500000000001 3.416833333333333  L 4.138833333333333 4.268666666666667  C 4.199000000000002 4.319333333333334  4.290833333333335 4.312999999999999  4.3415 4.249666666666667  C 4.392166666666668 4.1895  4.385833333333334 4.097666666666667  4.322500000000002 4.047000000000001  L 3.3091666666666675 3.1951666666666667  C 3.249000000000002 3.1445000000000003  3.1571666666666673 3.1508333333333343  3.1065000000000005 3.214166666666666  C 3.0558333333333336 3.2743333333333333  3.0621666666666676 3.366166666666666  3.125500000000001 3.416833333333333  Z M 2.2071666666666663 4.487166666666667  C 2.166 4.5536666666666665  2.191333333333333 4.642333333333333  2.261 4.6834999999999996  L 3.4073333333333324 5.3453333333333335  C 3.477 5.3865  3.5656666666666657 5.361166666666667  3.6036666666666664 5.2915  C 3.6448333333333327 5.221833333333334  3.6195 5.133166666666667  3.549833333333334 5.092  L 2.4035 4.433333333333334  C 2.333833333333333 4.392166666666667  2.2451666666666665 4.4175  2.2071666666666663 4.487166666666667  Z M 1.5453333333333334 5.896333333333333  C 1.5168333333333337 5.972333333333332  1.5548333333333335 6.054666666666665  1.6308333333333327 6.083166666666666  L 2.8753333333333324 6.5360000000000005  C 2.951333333333334 6.5645  3.0336666666666665 6.523333333333331  3.062166666666666 6.450499999999999  C 3.090666666666666 6.3744999999999985  3.0494999999999997 6.292166666666666  2.976666666666666 6.263666666666665  L 1.7321666666666662 5.810833333333332  C 1.6561666666666668 5.782333333333333  1.573833333333333 5.823499999999999  1.5453333333333334 5.896333333333333  Z M 2.7264999999999997 7.682333333333333  C 2.7391666666666663 7.603166666666666  2.688500000000001 7.527166666666665  2.6093333333333337 7.514499999999999  L 1.3046666666666669 7.283333333333334  C 1.225500000000001 7.270666666666666  1.1495000000000009 7.321333333333333  1.1368333333333345 7.400499999999999  C 1.1241666666666674 7.479666666666666  1.1748333333333343 7.555666666666666  1.2540000000000002 7.568333333333333  L 2.558666666666667 7.799499999999998  C 2.637833333333333 7.812166666666667  2.7138333333333335 7.7615  2.7264999999999997 7.682333333333333  Z M 2.609333333333333 8.952166666666669  C 2.609333333333333 8.872999999999998  2.546 8.8065  2.463666666666667 8.8065  L 1.14 8.8065  C 1.060833333333333 8.8065  0.994333333333333 8.86983333333333  0.994333333333333 8.952166666666669  C 0.994333333333333 9.031333333333334  1.0576666666666665 9.097833333333334  1.14 9.097833333333334  L 2.463666666666666 9.097833333333334  C 2.542833333333333 9.097833333333334  2.609333333333333 9.034500000000003  2.609333333333333 8.952166666666669  Z M 2.716999999999999 10.225166666666668  C 2.701166666666666 10.146  2.6283333333333325 10.09533333333333  2.549166666666667 10.108  L 1.2444999999999997 10.339166666666669  C 1.1653333333333338 10.351833333333335  1.1115 10.427833333333334  1.127333333333334 10.507000000000003  C 1.1400000000000006 10.586166666666669  1.2160000000000006 10.640000000000002  1.2951666666666666 10.624166666666667  L 2.599833333333333 10.393  C 2.6790000000000003 10.380333333333336  2.732833333333333 10.304333333333336  2.716999999999999 10.225166666666668  Z M 3.0431666666666666 11.460166666666666  C 3.0146666666666664 11.384166666666667  2.932333333333333 11.346166666666669  2.856333333333333 11.374666666666666  L 1.6118333333333332 11.827499999999999  C 1.5358333333333332 11.856  1.497833333333333 11.938333333333333  1.5263333333333335 12.014333333333333  C 1.5548333333333335 12.090333333333334  1.6371666666666667 12.128333333333332  1.7131666666666667 12.099833333333335  L 2.957666666666667 11.647  C 3.0336666666666665 11.6185  3.0716666666666663 11.536166666666666  3.0431666666666666 11.460166666666666  Z M 3.5783333333333327 12.619166666666668  C 3.5371666666666663 12.549500000000002  3.448499999999999 12.527333333333333  3.378833333333334 12.565333333333333  L 2.2324999999999995 13.227166666666665  C 2.1628333333333325 13.268333333333334  2.1406666666666667 13.357  2.1786666666666665 13.426666666666664  C 2.219833333333333 13.496333333333332  2.3084999999999996 13.518499999999998  2.378166666666667 13.480500000000001  L 3.5244999999999993 12.818666666666669  C 3.594166666666666 12.7775  3.6163333333333325 12.688833333333335  3.5783333333333327 12.619166666666668  Z M 4.303499999999999 13.6705  C 4.255999999999999 13.607166666666668  4.164166666666667 13.600833333333336  4.100833333333334 13.6515  L 3.0875 14.503333333333336  C 3.0273333333333343 14.554  3.017833333333334 14.645833333333334  3.0685000000000007 14.706000000000003  C 3.119166666666667 14.766166666666667  3.2110000000000003 14.775666666666668  3.2711666666666672 14.725000000000003  L 4.2845 13.873166666666668  C 4.344666666666668 13.822500000000003  4.354166666666666 13.73066666666667  4.303499999999999 13.6705  Z M 5.202833333333333 14.572999999999999  C 5.145833333333334 14.5255  5.054 14.531833333333333  5.000166666666667 14.592  L 4.1483333333333325 15.605333333333334  C 4.097666666666666 15.6655  4.104 15.757333333333333  4.167333333333332 15.808000000000002  C 4.227499999999999 15.858666666666666  4.319333333333332 15.852333333333334  4.369999999999999 15.789  L 5.221833333333333 14.775666666666666  C 5.272499999999999 14.715499999999999  5.266166666666666 14.623666666666663  5.202833333333333 14.572999999999999  Z M 6.251 15.310833333333333  C 6.181333333333334 15.272833333333333  6.092666666666667 15.294999999999998  6.0515 15.364666666666666  L 5.389666666666666 16.511  C 5.3485000000000005 16.580666666666666  5.373833333333333 16.669333333333334  5.443499999999999 16.707333333333334  C 5.513166666666666 16.7485  5.601833333333332 16.723166666666668  5.643 16.6535  L 6.304833333333333 15.507166666666665  C 6.345999999999999 15.437499999999998  6.320666666666666 15.348833333333333  6.251 15.310833333333333  Z M 7.406833333333334 15.858666666666666  C 7.3308333333333335 15.830166666666665  7.245333333333334 15.868166666666665  7.22 15.944166666666668  L 6.767166666666668 17.188666666666666  C 6.738666666666668 17.264666666666667  6.779833333333334 17.347  6.852666666666668 17.375500000000002  C 6.928666666666667 17.404000000000003  7.011 17.362833333333338  7.039500000000001 17.29  L 7.492333333333334 16.0455  C 7.520833333333334 15.969500000000002  7.479666666666668 15.887166666666667  7.406833333333334 15.858666666666666  Z M 8.239666666666666 17.613  C 8.223833333333333 17.69216666666667  8.277666666666667 17.768166666666673  8.356833333333334 17.780833333333334  C 8.436 17.7935  8.512 17.742833333333333  8.524666666666668 17.663666666666668  L 8.755833333333333 16.359  C 8.7685 16.279833333333336  8.717833333333335 16.203833333333332  8.638666666666667 16.19116666666667  C 8.5595 16.178500000000003  8.4835 16.229166666666664  8.470833333333333 16.308333333333337  L 8.239666666666666 17.613  Z M 9.762833333333331 17.777666666666665  C 9.762833333333331 17.856833333333334  9.829333333333333 17.923333333333336  9.9085 17.923333333333336  C 9.987666666666666 17.923333333333336  10.054166666666667 17.86  10.054166666666667 17.777666666666665  L 10.054166666666667 16.454  C 10.054166666666667 16.37483333333333  9.990833333333333 16.308333333333334  9.9085 16.308333333333334  C 9.829333333333333 16.308333333333334  9.762833333333331 16.371666666666663  9.762833333333331 16.454  L 9.762833333333331 17.777666666666665  Z M 11.181499999999998 16.200666666666663  C 11.10233333333333 16.21333333333333  11.051666666666664 16.28933333333333  11.064333333333332 16.368499999999997  L 11.2955 17.673166666666667  C 11.308166666666663 17.752333333333333  11.384166666666665 17.806166666666662  11.463333333333335 17.790333333333333  C 11.5425 17.777666666666665  11.596333333333332 17.701666666666668  11.5805 17.6225  L 11.349333333333332 16.317833333333333  C 11.336666666666664 16.238666666666663  11.260666666666667 16.184833333333334  11.181499999999998 16.200666666666663  Z M 12.4165 15.874500000000001  C 12.340499999999999 15.903000000000002  12.302500000000004 15.985333333333335  12.330999999999998 16.061333333333334  L 12.783833333333332 17.305833333333336  C 12.812333333333333 17.381833333333333  12.894666666666666 17.41983333333333  12.970666666666666 17.391333333333332  C 13.046666666666669 17.36283333333333  13.084666666666664 17.280499999999996  13.056166666666668 17.2045  L 12.603333333333335 15.96  C 12.574833333333334 15.884000000000002  12.492500000000001 15.846000000000002  12.4165 15.874500000000001  Z M 13.575499999999998 15.339333333333336  C 13.505833333333332 15.380500000000001  13.483666666666666 15.46916666666667  13.524833333333332 15.538833333333333  L 14.186666666666666 16.685166666666667  C 14.227833333333331 16.754833333333337  14.3165 16.777  14.386166666666664 16.739000000000004  C 14.455833333333329 16.697833333333335  14.477999999999998 16.609166666666667  14.439999999999998 16.5395  L 13.774999999999997 15.39316666666667  C 13.733833333333333 15.323500000000003  13.645166666666663 15.301333333333336  13.575499999999998 15.339333333333336  Z M 14.626833333333334 14.611  C 14.563500000000003 14.661666666666665  14.557166666666667 14.7535  14.607833333333334 14.813666666666668  L 15.459666666666669 15.827000000000002  C 15.510333333333334 15.887166666666667  15.602166666666667 15.896666666666667  15.662333333333336 15.846000000000002  C 15.722500000000002 15.795333333333335  15.732000000000001 15.7035  15.681333333333336 15.643333333333336  L 14.829500000000001 14.63  C 14.778833333333335 14.569833333333333  14.687000000000003 14.560333333333334  14.626833333333334 14.611  Z M 15.529333333333334 13.71166666666667  C 15.481833333333332 13.771833333333333  15.488166666666665 13.863666666666667  15.548333333333334 13.914333333333335  L 16.561666666666667 14.766166666666667  C 16.621833333333335 14.816833333333337  16.71366666666667 14.810500000000003  16.764333333333333 14.747166666666667  C 16.815 14.687000000000001  16.808666666666667 14.59516666666667  16.745333333333335 14.5445  L 15.732 13.692666666666668  C 15.67183333333333 13.642  15.579999999999998 13.648333333333332  15.529333333333334 13.71166666666667  Z M 16.267166666666668 12.669833333333335  C 16.229166666666668 12.736333333333336  16.251333333333335 12.825000000000003  16.320999999999998 12.866166666666665  L 17.467333333333332 13.527999999999999  C 17.537 13.569166666666666  17.625666666666667 13.543833333333334  17.66683333333333 13.474166666666664  C 17.708 13.404499999999999  17.682666666666666 13.315833333333332  17.612999999999996 13.27783333333333  L 16.46666666666667 12.616000000000001  C 16.397 12.574833333333334  16.308333333333334 12.600166666666668  16.267166666666668 12.669833333333335  Z M 16.814999999999998 11.510833333333334  C 16.786499999999997 11.586833333333333  16.8245 11.669166666666664  16.9005 11.697666666666665  L 18.145 12.1505  C 18.220999999999997 12.179  18.30333333333333 12.137833333333337  18.331833333333332 12.064999999999998  C 18.360333333333333 11.989  18.319166666666664 11.906666666666668  18.24633333333333 11.878166666666667  L 17.00183333333333 11.425333333333333  C 16.925833333333333 11.396833333333332  16.8435 11.437999999999997  16.814999999999998 11.510833333333334  Z M 17.1475 10.278999999999998  C 17.134833333333333 10.358166666666667  17.1855 10.434166666666668  17.264666666666667 10.446833333333332  L 18.569333333333333 10.677999999999999  C 18.648500000000002 10.690666666666667  18.7245 10.640000000000002  18.737166666666667 10.560833333333335  C 18.74983333333333 10.481666666666664  18.699166666666667 10.405666666666667  18.62 10.393  L 17.315333333333335 10.161833333333332  C 17.236166666666666 10.14916666666667  17.160166666666665 10.199833333333332  17.1475 10.278999999999998  Z M 17.410333333333334 8.8635  C 17.328 8.8635  17.264666666666667 8.926833333333333  17.264666666666667 9.009166666666667  C 17.264666666666667 9.088333333333335  17.327999999999996 9.154833333333334  17.410333333333334 9.154833333333334  L 18.733999999999998 9.154833333333334  C 18.81316666666667 9.154833333333334  18.87966666666667 9.091500000000003  18.87966666666667 9.009166666666667  C 18.87966666666667 8.929999999999998  18.81633333333334 8.8635  18.733999999999998 8.8635  L 17.410333333333334 8.8635  Z M 17.157 7.736166666666667  C 17.169666666666664 7.815333333333333  17.245666666666665 7.8660000000000005  17.324833333333334 7.853333333333334  L 18.6295 7.622166666666667  C 18.708666666666666 7.609500000000001  18.7625 7.533499999999999  18.746666666666666 7.454333333333335  C 18.733999999999998 7.375166666666669  18.658 7.321333333333335  18.578833333333332 7.3371666666666675  L 17.274166666666666 7.568333333333335  C 17.194999999999997 7.581000000000001  17.141166666666667 7.657000000000003  17.157 7.736166666666667  Z M 16.830833333333334 6.5011666666666645  C 16.859333333333336 6.574  16.941666666666666 6.615166666666667  17.017666666666667 6.586666666666666  L 18.26216666666667 6.1338333333333335  C 18.338166666666666 6.105333333333334  18.376166666666666 6.023  18.347666666666665 5.946999999999999  C 18.319166666666664 5.8709999999999996  18.236833333333337 5.833  18.16083333333333 5.861499999999999  L 16.916333333333334 6.314333333333332  C 16.840333333333334 6.342833333333332  16.802333333333337 6.425166666666667  16.830833333333334 6.5011666666666645  Z M 16.29566666666667 5.342166666666668  C 16.336833333333335 5.408666666666668  16.425500000000003 5.434000000000002  16.49516666666667 5.392833333333333  L 17.6415 4.731  C 17.71116666666667 4.689833333333334  17.733333333333334 4.601166666666667  17.695333333333334 4.534666666666666  C 17.65416666666667 4.465  17.5655 4.442833333333334  17.495833333333337 4.480833333333334  L 16.349500000000003 5.142666666666668  C 16.279833333333336 5.183833333333334  16.25766666666667 5.272500000000001  16.29566666666667 5.342166666666668  Z M 15.567333333333334 4.2908333333333335  C 15.617999999999999 4.354166666666666  15.709833333333332 4.3605  15.770000000000001 4.309833333333334  L 16.783333333333335 3.4579999999999993  C 16.843500000000002 3.4073333333333324  16.853 3.3154999999999997  16.802333333333337 3.2553333333333323  C 16.75166666666667 3.1951666666666654  16.659833333333335 3.1856666666666666  16.59966666666667 3.236333333333333  L 15.586333333333336 4.088166666666667  C 15.526166666666667 4.138833333333333  15.516666666666666 4.230666666666666  15.567333333333334 4.2908333333333335  Z M 14.668000000000003 3.385166666666666  C 14.728166666666668 3.4358333333333326  14.82 3.429499999999998  14.87066666666667 3.366166666666666  L 15.722500000000002 2.3528333333333333  C 15.773166666666668 2.2926666666666664  15.766833333333334 2.200833333333333  15.7035 2.1501666666666663  C 15.643333333333336 2.0995  15.5515 2.105833333333333  15.500833333333334 2.169166666666666  L 14.649000000000003 3.182499999999999  C 14.598333333333333 3.242666666666666  14.604666666666665 3.3344999999999994  14.668000000000003 3.385166666666666  Z M 13.623000000000001 2.6504999999999983  C 13.69266666666667 2.688499999999998  13.781333333333334 2.666333333333332  13.822499999999998 2.5966666666666667  L 14.48433333333333 1.4503333333333328  C 14.5255 1.3806666666666665  14.500166666666665 1.2919999999999996  14.430499999999997 1.2539999999999998  C 14.360833333333332 1.2128333333333334  14.272166666666664 1.2381666666666666  14.231 1.307833333333333  L 13.569166666666668 2.4541666666666653  C 13.527999999999999 2.523833333333332  13.553333333333333 2.6124999999999976  13.623000000000001 2.6504999999999983  Z M 12.46716666666667 2.105833333333333  C 12.543166666666666 2.131166666666667  12.625499999999999 2.0931666666666664  12.654 2.017166666666667  L 13.106833333333332 0.7726666666666665  C 13.135333333333334 0.6966666666666664  13.09416666666667 0.6143333333333332  13.021333333333331 0.5858333333333332  C 12.945333333333332 0.5573333333333339  12.863000000000001 0.5985000000000001  12.8345 0.6713333333333331  L 12.381666666666668 1.9190000000000007  C 12.353166666666667 1.995  12.39433333333333 2.077333333333334  12.46716666666667 2.105833333333333  Z M 11.118166666666665 1.602333333333333  C 11.105500000000003 1.6814999999999996  11.156166666666666 1.754333333333333  11.235333333333331 1.7701666666666667  C 11.3145 1.7828333333333328  11.390500000000001 1.7321666666666662  11.403166666666666 1.6529999999999996  L 11.634333333333334 0.34833333333333377  C 11.647 0.2691666666666671  11.596333333333334 0.19316666666666704  11.517166666666668 0.1805000000000001  C 11.437999999999999 0.1678333333333337  11.362 0.2185000000000004  11.349333333333334 0.297666666666667  L 11.118166666666665 1.602333333333333  Z M 3.7113333333333327 2.8626666666666662  L 4.233833333333334 3.385166666666667  C 4.2940000000000005 3.445333333333334  4.395333333333334 3.445333333333334  4.455500000000001 3.385166666666667  C 4.515666666666666 3.3249999999999997  4.515666666666666 3.2236666666666665  4.455500000000001 3.163500000000001  L 3.9329999999999994 2.6410000000000013  C 3.8728333333333325 2.580833333333334  3.7715 2.580833333333334  3.7113333333333327 2.6410000000000013  C 3.651166666666666 2.7011666666666683  3.651166666666666 2.8025000000000015  3.7113333333333327 2.8626666666666662  Z M 2.7455000000000003 4.034333333333334  L 3.350333333333334 4.458666666666667  C 3.423166666666666 4.509333333333334  3.5213333333333336 4.490333333333333  3.568833333333333 4.420666666666667  C 3.6195 4.347833333333333  3.6005000000000007 4.249666666666667  3.5308333333333333 4.202166666666668  L 2.9259999999999993 3.7778333333333345  C 2.853166666666667 3.7271666666666676  2.755 3.7461666666666686  2.7075000000000005 3.8158333333333343  C 2.6600000000000006 3.8855  2.675833333333333 3.9868333333333337  2.7455000000000003 4.034333333333334  Z M 1.9189999999999996 5.149  C 1.8809999999999998 5.228166666666666  1.9158333333333335 5.323166666666668  1.9949999999999997 5.358  L 2.6663333333333328 5.6715  C 2.7454999999999994 5.709500000000001  2.8405 5.674666666666667  2.8753333333333324 5.5955  C 2.913333333333333 5.516333333333335  2.8785 5.421333333333332  2.7993333333333337 5.386500000000001  L 2.1279999999999997 5.073  C 2.0488333333333335 5.034999999999999  1.9538333333333333 5.069833333333334  1.9189999999999996 5.149  Z M 2.3939999999999997 6.874833333333333  C 2.416166666666666 6.7893333333333326  2.3655 6.703833333333335  2.2831666666666663 6.681666666666667  L 1.5675 6.491666666666667  C 1.482 6.469499999999999  1.3964999999999994 6.5201666666666656  1.3743333333333334 6.602500000000001  C 1.352166666666667 6.6880000000000015  1.4028333333333334 6.773499999999999  1.4851666666666665 6.795666666666667  L 2.200833333333333 6.985666666666667  C 2.286333333333333 7.007833333333335  2.371833333333333 6.957166666666666  2.3939999999999997 6.874833333333333  Z M 2.1406666666666667 8.214333333333332  C 2.1501666666666663 8.128833333333333  2.0868333333333333 8.052833333333334  1.9981666666666669 8.043333333333335  L 1.2603333333333335 7.98  C 1.1748333333333336 7.973666666666669  1.0956666666666663 8.037  1.0893333333333333 8.1225  C 1.0829999999999993 8.208  1.1463333333333332 8.287166666666668  1.231833333333333 8.293499999999998  L 1.9696666666666662 8.356833333333334  C 2.055166666666666 8.363166666666665  2.1343333333333336 8.299833333333334  2.1406666666666667 8.214333333333332  Z M 2.1279999999999997 9.579166666666666  C 2.121666666666666 9.493666666666666  2.045666666666666 9.430333333333333  1.9569999999999999 9.436666666666666  L 1.219166666666666 9.499999999999998  C 1.1336666666666662 9.50633333333333  1.0671666666666657 9.5855  1.0766666666666662 9.670999999999998  C 1.0829999999999993 9.756499999999999  1.1621666666666661 9.822999999999999  1.2476666666666667 9.8135  L 1.9854999999999998 9.750166666666667  C 2.0709999999999997 9.743833333333335  2.1375 9.664666666666665  2.1279999999999997 9.579166666666666  Z M 2.394 10.924999999999999  C 2.371833333333334 10.842666666666668  2.2863333333333338 10.792000000000002  2.2008333333333336 10.814166666666667  L 1.4851666666666672 11.004166666666668  C 1.3996666666666673 11.026333333333332  1.352166666666667 11.111833333333333  1.3743333333333339 11.197333333333335  C 1.3964999999999999 11.28283333333333  1.482000000000001 11.330333333333332  1.5675000000000003 11.308166666666668  L 2.2831666666666672 11.118166666666665  C 2.368666666666667 11.096000000000002  2.4161666666666672 11.0105  2.394 10.924999999999999  Z M 2.8025 12.213833333333335  C 2.7676666666666674 12.134666666666668  2.672666666666667 12.103  2.5935 12.137833333333337  L 1.9221666666666668 12.451333333333336  C 1.843 12.489333333333333  1.808166666666667 12.581166666666672  1.8461666666666667 12.660333333333336  C 1.8841666666666663 12.739500000000001  1.9759999999999993 12.774333333333333  2.055166666666667 12.736333333333336  L 2.7264999999999997 12.422833333333335  C 2.8056666666666668 12.384833333333336  2.8405 12.293000000000001  2.8025 12.213833333333335  Z M 3.473833333333333 13.4045  C 3.423166666666666 13.331666666666667  3.3249999999999997 13.315833333333336  3.255333333333334 13.3665  L 2.6505 13.790833333333335  C 2.577666666666667 13.841500000000003  2.5618333333333334 13.939666666666668  2.6125000000000003 14.009333333333336  C 2.6631666666666667 14.082166666666666  2.761333333333333 14.098000000000003  2.8309999999999995 14.047333333333333  L 3.4358333333333335 13.623  C 3.508666666666666 13.572333333333335  3.5244999999999993 13.474166666666665  3.473833333333333 13.4045  Z M 5.377 15.348833333333335  C 5.307333333333333 15.298166666666667  5.2059999999999995 15.314000000000004  5.158499999999999 15.386833333333335  L 4.734166666666666 15.991666666666667  C 4.6834999999999996 16.0645  4.702500000000001 16.16266666666667  4.772166666666666 16.210166666666666  C 4.845 16.260833333333334  4.9431666666666665 16.241833333333332  4.990666666666667 16.17216666666667  L 5.414999999999999 15.567333333333334  C 5.465666666666666 15.494500000000002  5.4466666666666645 15.396333333333336  5.377 15.348833333333335  Z M 6.029333333333334 16.789666666666665  C 5.9945 16.86883333333333  6.026166666666668 16.96066666666667  6.105333333333334 16.998666666666665  C 6.1845 17.036666666666665  6.279500000000001 17.00183333333333  6.314333333333334 16.922666666666665  L 6.627833333333334 16.251333333333335  C 6.665833333333334 16.172166666666662  6.631 16.077166666666667  6.5518333333333345 16.042333333333332  C 6.472666666666668 16.004333333333335  6.377666666666666 16.039166666666667  6.342833333333335 16.118333333333332  L 6.029333333333334 16.789666666666665  Z M 7.4448333333333325 17.35016666666667  C 7.422666666666665 17.4325  7.473333333333333 17.521166666666673  7.555666666666666 17.543333333333337  C 7.641166666666668 17.5655  7.726666666666666 17.514833333333335  7.748833333333333 17.4325  L 7.938833333333333 16.716833333333337  C 7.960999999999999 16.631333333333334  7.910333333333335 16.545833333333334  7.827999999999999 16.52366666666667  C 7.742499999999999 16.5015  7.656999999999999 16.552166666666672  7.634833333333333 16.634500000000003  L 7.4448333333333325 17.35016666666667  Z M 8.936333333333334 17.65416666666667  C 8.93 17.74283333333333  8.993333333333334 17.818833333333334  9.078833333333334 17.825166666666664  C 9.164333333333332 17.8315  9.2435 17.768166666666666  9.249833333333331 17.68266666666667  L 9.313166666666666 16.944833333333335  C 9.319499999999998 16.859333333333332  9.256166666666665 16.78016666666667  9.170666666666666 16.773833333333332  C 9.085166666666666 16.767500000000002  9.006 16.83083333333333  8.999666666666666 16.916333333333334  L 8.936333333333334 17.65416666666667  Z M 10.535499999999997 16.789666666666665  C 10.450000000000001 16.796  10.386666666666667 16.872  10.393 16.96066666666667  L 10.456333333333331 17.6985  C 10.462666666666664 17.784  10.541833333333331 17.850500000000004  10.62733333333333 17.841  C 10.712833333333332 17.834666666666664  10.779333333333334 17.755499999999998  10.769833333333333 17.669999999999998  L 10.7065 16.932166666666667  C 10.70016666666667 16.846666666666664  10.620999999999999 16.780166666666663  10.535499999999997 16.789666666666665  Z M 11.881333333333334 16.564833333333333  C 11.799000000000001 16.586999999999996  11.748333333333337 16.675666666666665  11.7705 16.758  L 11.9605 17.473666666666666  C 11.982666666666665 17.559166666666666  12.068166666666666 17.606666666666666  12.153666666666666 17.5845  C 12.239166666666666 17.562333333333335  12.286666666666665 17.47683333333333  12.264500000000002 17.391333333333332  L 12.0745 16.675666666666665  C 12.052333333333337 16.590166666666665  11.966833333333335 16.54266666666667  11.881333333333334 16.564833333333333  Z M 13.170166666666665 16.112000000000002  C 13.090999999999998 16.15  13.059333333333331 16.241833333333336  13.094166666666665 16.320999999999998  L 13.407666666666664 16.992333333333335  C 13.445666666666664 17.0715  13.5375 17.106333333333332  13.616666666666667 17.068333333333335  C 13.695833333333333 17.03033333333333  13.730666666666664 16.938499999999998  13.692666666666664 16.859333333333332  L 13.379166666666663 16.188000000000002  C 13.341166666666666 16.108833333333333  13.249333333333329 16.074  13.170166666666665 16.112000000000002  Z M 14.360833333333334 15.443833333333332  C 14.288000000000002 15.491333333333332  14.272166666666669 15.589500000000003  14.322833333333334 15.662333333333335  L 14.747166666666669 16.267166666666665  C 14.797833333333335 16.339999999999996  14.896000000000003 16.355833333333333  14.965666666666667 16.305166666666665  C 15.038499999999999 16.254499999999997  15.054333333333336 16.156333333333333  15.003666666666668 16.086666666666666  L 14.579333333333333 15.48183333333333  C 14.528666666666666 15.408999999999999  14.430499999999999 15.393166666666668  14.360833333333334 15.443833333333332  Z M 15.415333333333333 14.576166666666667  C 15.355166666666667 14.636333333333333  15.355166666666667 14.737666666666666  15.415333333333333 14.797833333333335  L 15.937833333333334 15.320333333333334  C 15.998000000000001 15.380500000000001  16.099333333333334 15.380500000000001  16.1595 15.320333333333334  C 16.21966666666667 15.260166666666665  16.21966666666667 15.158833333333334  16.1595 15.098666666666666  L 15.637 14.576166666666667  C 15.576833333333335 14.515999999999998  15.475500000000002 14.515999999999998  15.415333333333333 14.576166666666667  Z M 16.305166666666672 13.540666666666667  C 16.2545 13.610333333333335  16.270333333333337 13.7085  16.343166666666665 13.759166666666667  L 16.948 14.1835  C 17.020833333333336 14.234166666666669  17.119 14.215166666666667  17.1665 14.145500000000004  C 17.217166666666667 14.072666666666672  17.198166666666665 13.9745  17.128500000000003 13.927000000000001  L 16.52366666666667 13.502666666666666  C 16.450833333333335 13.452000000000002  16.352666666666668 13.471000000000002  16.305166666666672 13.540666666666667  Z M 16.998666666666665 12.365833333333335  C 16.96066666666667 12.445000000000002  16.9955 12.536833333333334  17.07466666666667 12.574833333333334  L 17.745999999999995 12.888333333333334  C 17.825166666666668 12.926333333333334  17.920166666666667 12.891500000000002  17.955000000000002 12.812333333333335  C 17.993 12.733166666666667  17.95816666666667 12.638166666666669  17.878999999999998 12.603333333333335  L 17.207666666666668 12.289833333333334  C 17.1285 12.251833333333336  17.0335 12.286666666666665  16.998666666666665 12.365833333333335  Z M 17.48 11.086500000000001  C 17.457833333333337 11.171999999999999  17.505333333333333 11.257499999999999  17.590833333333336 11.279666666666667  L 18.3065 11.469666666666665  C 18.392000000000003 11.49183333333333  18.477500000000003 11.441166666666664  18.499666666666666 11.358833333333331  C 18.52183333333333 11.27333333333333  18.471166666666665 11.187833333333328  18.388833333333334 11.165666666666665  L 17.673166666666667 10.975666666666667  C 17.587666666666667 10.953499999999998  17.502166666666664 11.004166666666668  17.48 11.086500000000001  Z M 17.73016666666667 9.743833333333335  C 17.72383333333333 9.8325  17.787166666666668 9.9085  17.872666666666667 9.914833333333334  L 18.6105 9.978166666666667  C 18.695999999999998 9.984499999999999  18.775166666666664 9.921166666666666  18.7815 9.835666666666668  C 18.787833333333335 9.750166666666667  18.7245 9.671000000000003  18.639 9.664666666666665  L 17.90116666666667 9.601333333333333  C 17.81566666666667 9.595000000000002  17.736500000000003 9.658333333333333  17.73016666666667 9.743833333333335  Z M 17.745999999999995 8.382166666666667  C 17.752333333333333 8.467666666666668  17.828333333333333 8.530999999999999  17.916999999999998 8.524666666666668  L 18.654833333333332 8.461333333333332  C 18.740333333333336 8.455000000000002  18.806833333333334 8.37583333333333  18.79733333333333 8.290333333333333  C 18.791 8.204833333333333  18.711833333333335 8.138333333333335  18.62633333333333 8.147833333333335  L 17.888499999999997 8.211166666666665  C 17.802999999999997 8.217500000000001  17.7365 8.296666666666667  17.745999999999995 8.382166666666667  Z M 17.521166666666666 7.033166666666667  C 17.543333333333333 7.118666666666665  17.632 7.1661666666666655  17.714333333333332 7.144000000000001  L 18.430000000000003 6.954  C 18.5155 6.9318333333333335  18.563000000000002 6.846333333333335  18.54083333333333 6.760833333333333  C 18.518666666666668 6.675333333333334  18.43316666666667 6.627833333333333  18.347666666666665 6.6499999999999995  L 17.632 6.840000000000001  C 17.5465 6.862166666666667  17.499000000000002 6.947666666666666  17.521166666666666 7.033166666666667  Z M 17.068333333333335 5.7475000000000005  C 17.106333333333332 5.8235  17.19816666666667 5.858333333333334  17.277333333333335 5.8235  L 17.948666666666668 5.51  C 18.027833333333334 5.472  18.062666666666665 5.380166666666667  18.024666666666665 5.301  C 17.98666666666667 5.221833333333334  17.89483333333333 5.187  17.81566666666667 5.2250000000000005  L 17.144333333333332 5.538500000000001  C 17.065166666666666 5.576500000000001  17.030333333333335 5.668333333333335  17.068333333333335 5.7475000000000005  Z M 16.400166666666667 4.556833333333333  C 16.447666666666667 4.626499999999999  16.545833333333334 4.645499999999999  16.618666666666666 4.594833333333333  L 17.223499999999998 4.1705  C 17.296333333333333 4.119833333333332  17.312166666666666 4.021666666666665  17.261499999999998 3.9520000000000004  C 17.210833333333333 3.8791666666666664  17.112666666666666 3.863333333333333  17.043 3.9139999999999997  L 16.438166666666667 4.338333333333333  C 16.365333333333332 4.388999999999999  16.3495 4.487166666666667  16.400166666666667 4.556833333333333  Z M 14.497 2.6125000000000003  C 14.566666666666668 2.6631666666666667  14.664833333333334 2.6473333333333335  14.715499999999999 2.5744999999999996  L 15.139833333333334 1.9696666666666662  C 15.190500000000002 1.8968333333333327  15.171500000000002 1.7986666666666666  15.101833333333337 1.751166666666666  C 15.029000000000003 1.7004999999999992  14.930833333333334 1.7195  14.883333333333335 1.7891666666666663  L 14.459 2.3939999999999997  C 14.408333333333335 2.466833333333333  14.427333333333337 2.564999999999999  14.497 2.6125000000000003  Z M 13.844666666666667 1.1716666666666669  C 13.879499999999998 1.0925000000000002  13.844666666666667 0.9975000000000006  13.768666666666665 0.9626666666666663  C 13.689499999999997 0.9246666666666666  13.5945 0.9595000000000004  13.559666666666667 1.038666666666667  L 13.246166666666666 1.7099999999999997  C 13.208166666666667 1.7891666666666663  13.242999999999997 1.8841666666666663  13.322166666666666 1.9190000000000007  C 13.401333333333334 1.9569999999999999  13.49633333333333 1.9221666666666668  13.531166666666666 1.843  L 13.844666666666667 1.1716666666666669  Z M 12.426 0.6111666666666666  C 12.451333333333332 0.5288333333333333  12.400666666666668 0.4401666666666668  12.315166666666666 0.4180000000000001  C 12.229666666666665 0.3958333333333339  12.144166666666665 0.44650000000000006  12.122 0.5288333333333333  L 11.932000000000002 1.2444999999999997  C 11.909833333333335 1.3299999999999998  11.960500000000003 1.4154999999999998  12.042833333333336 1.4376666666666662  C 12.128333333333337 1.459833333333333  12.213833333333335 1.4091666666666665  12.236000000000002 1.3268333333333338  L 12.426 0.6111666666666666  Z M 10.557666666666668 1.0164999999999997  C 10.551333333333336 1.1019999999999994  10.614666666666668 1.1779999999999995  10.70016666666667 1.1875  C 10.785666666666666 1.193833333333333  10.864833333333335 1.1305  10.871166666666667 1.0450000000000004  L 10.9345 0.3071666666666663  C 10.940833333333332 0.22166666666666646  10.8775 0.1424999999999998  10.792 0.13616666666666657  C 10.7065 0.1298333333333328  10.627333333333334 0.1931666666666665  10.620999999999999 0.27866666666666634  L 10.557666666666668 1.0164999999999997  Z M 9.414499999999999 0.2628333333333328  C 9.408166666666668 0.17733333333333348  9.332166666666666 0.11399999999999982  9.2435 0.12033333333333301  C 9.158 0.12666666666666676  9.0915 0.20583333333333287  9.101 0.29133333333333333  L 9.164333333333332 1.0291666666666672  C 9.170666666666666 1.1146666666666665  9.249833333333333 1.1811666666666674  9.335333333333333 1.1716666666666669  C 9.420833333333334 1.1653333333333333  9.487333333333334 1.0861666666666672  9.477833333333333 1.0006666666666666  L 9.414499999999999 0.2628333333333328  Z M 8.100333333333332 1.2033333333333334  L 7.910333333333335 0.48766666666666697  C 7.888166666666666 0.40216666666666706  7.802666666666667 0.35466666666666696  7.717166666666668 0.37683333333333374  C 7.631666666666667 0.39900000000000047  7.584166666666667 0.4845000000000004  7.606333333333332 0.5700000000000003  L 7.796333333333332 1.2856666666666674  C 7.818499999999999 1.3711666666666662  7.904000000000001 1.4186666666666667  7.989499999999999 1.3964999999999999  C 8.075 1.3743333333333334  8.1225 1.2888333333333335  8.100333333333332 1.2033333333333334  Z M 6.700666666666667 1.8493333333333333  C 6.7798333333333325 1.811333333333333  6.814666666666666 1.716333333333334  6.7798333333333325 1.6371666666666673  L 6.466333333333332 0.9658333333333337  C 6.428333333333332 0.8866666666666675  6.336499999999999 0.8518333333333338  6.2573333333333325 0.8898333333333336  C 6.178166666666667 0.9278333333333338  6.143333333333333 1.0196666666666667  6.181333333333332 1.0988333333333342  L 6.491666666666667 1.7733333333333337  C 6.5296666666666665 1.8524999999999994  6.621499999999999 1.8873333333333335  6.700666666666667 1.8493333333333333  Z M 4.870333333333334 1.8746666666666671  L 5.294666666666667 2.4795000000000007  C 5.3453333333333335 2.552333333333334  5.4435 2.5681666666666665  5.513166666666667 2.5175000000000005  C 5.585999999999999 2.466833333333333  5.6018333333333326 2.368666666666667  5.551166666666667 2.2990000000000004  L 5.126833333333334 1.694166666666667  C 5.0761666666666665 1.6213333333333335  4.977999999999999 1.6055000000000001  4.908333333333334 1.6561666666666668  C 4.8355 1.7068333333333336  4.8196666666666665 1.8049999999999997  4.870333333333334 1.8746666666666671  Z " fill-rule="nonzero" fill="#ffffff" stroke="none" transform="matrix(1 0 0 1 2 39 )" />
  </g>
</svg>