<?xml version="1.0" encoding="utf-8"?>
<svg version="1.1" xmlns:xlink="http://www.w3.org/1999/xlink" width="16px" height="5px" xmlns="http://www.w3.org/2000/svg">
  <g transform="matrix(1 0 0 1 -4 -77 )">
    <path d="M 1.5037142857142871 0.8918750000000009  C 1.770857142857145 0.8918750000000009  1.981428571428573 0.9606250000000005  2.1385714285714283 1.1050000000000004  C 2.2988571428571425 1.2459374999999995  2.3899999999999997 1.4556250000000004  2.412 1.7340624999999998  L 2.204571428571429 1.7340624999999998  C 2.1762857142857155 1.5278124999999998  2.104 1.3696874999999997  1.9908571428571429 1.2596875000000007  C 1.8777142857142854 1.1531250000000004  1.7142857142857142 1.098125000000001  1.5005714285714293 1.098125000000001  C 1.3057142857142858 1.098125000000001  1.1485714285714284 1.1359375000000005  1.035428571428572 1.2115625000000008  C 0.9065714285714291 1.2906250000000008  0.8437142857142865 1.4178125000000008  0.8437142857142865 1.589687500000001  C 0.8437142857142865 1.7375000000000007  0.9191428571428578 1.8543750000000003  1.0731428571428583 1.9437500000000019  C 1.1548571428571432 1.9850000000000012  1.3120000000000007 2.0434375000000014  1.5414285714285723 2.115625000000001  C 1.8588571428571439 2.2153125000000005  2.0662857142857143 2.3012500000000005  2.1700000000000017 2.370000000000001  C 2.371142857142859 2.5006249999999994  2.4748571428571444 2.6896875  2.4748571428571444 2.9303124999999994  C 2.4748571428571444 3.1606250000000005  2.386857142857145 3.3428125  2.2108571428571437 3.4768749999999993  C 2.044285714285716 3.6040624999999995  1.8211428571428578 3.665937499999999  1.5445714285714303 3.665937499999999  C 1.2648571428571438 3.665937499999999  1.0448571428571438 3.5971874999999995  0.8814285714285727 3.45625  C 0.696000000000001 3.2981250000000006  0.5954285714285723 3.0540624999999997  0.5734285714285718 2.7309375000000005  L 0.7777142857142861 2.7309375000000005  C 0.8028571428571435 2.9818750000000005  0.8814285714285717 3.167500000000001  1.0165714285714296 3.29125  C 1.1422857142857157 3.40125  1.3151428571428576 3.45625  1.5382857142857145 3.45625  C 1.7488571428571436 3.45625  1.9248571428571435 3.4115625000000005  2.0600000000000014 3.318749999999999  C 2.192 3.225937499999999  2.258000000000002 3.098749999999999  2.258000000000002 2.940625  C 2.258000000000002 2.7584375000000003  2.1762857142857164 2.6175000000000006  2.0097142857142862 2.514375  C 1.9185714285714295 2.4559375000000006  1.7394285714285727 2.3871874999999996  1.4722857142857149 2.3081249999999995  C 1.1800000000000008 2.2187500000000004  0.9945714285714301 2.146562499999999  0.9128571428571439 2.095  C 0.7274285714285723 1.9815625000000003  0.6331428571428585 1.8131249999999999  0.6331428571428585 1.5931250000000008  C 0.6331428571428585 1.3628125000000002  0.7211428571428584 1.1840625000000005  0.8971428571428584 1.063750000000001  C 1.0511428571428587 0.9503125000000012  1.255428571428573 0.8918750000000009  1.5037142857142871 0.8918750000000009  Z M 3.713142857142858 1.6343750000000001  C 3.964571428571429 1.6274999999999995  4.146857142857143 1.6996875  4.266285714285714 1.8474999999999997  C 4.369999999999999 1.9746874999999997  4.423428571428571 2.146562500000001  4.423428571428571 2.366562499999999  L 4.423428571428571 3.6109375  L 4.228571428571428 3.6109375  L 4.228571428571428 3.239687499999999  C 4.156285714285714 3.353124999999999  4.058857142857143 3.449374999999999  3.9425714285714273 3.528437499999999  C 3.8042857142857125 3.6178124999999994  3.650285714285713 3.6624999999999996  3.480571428571428 3.6624999999999996  C 3.3077142857142854 3.6624999999999996  3.1662857142857135 3.614375000000001  3.059428571428571 3.518125000000001  C 2.9525714285714293 3.4184375000000014  2.8991428571428566 3.2843750000000007  2.8991428571428566 3.119375  C 2.8991428571428566 2.871875  2.9902857142857138 2.6931249999999993  3.1757142857142853 2.5831249999999994  C 3.323428571428572 2.490312499999999  3.52142857142857 2.445625  3.7665714285714285 2.445625  L 4.215999999999999 2.4421875  L 4.215999999999999 2.370000000000001  C 4.215999999999999 2.005625000000001  4.046285714285714 1.8200000000000005  3.703714285714286 1.8200000000000005  C 3.5465714285714296 1.8200000000000005  3.4240000000000004 1.8578125  3.3360000000000007 1.9300000000000006  C 3.235428571428571 2.0021875  3.1757142857142853 2.1156249999999996  3.153714285714287 2.2668749999999993  L 2.9525714285714293 2.2668749999999993  C 2.980857142857143 2.0503124999999986  3.0625714285714287 1.8887500000000002  3.2008571428571435 1.7821874999999998  C 3.3297142857142865 1.6825  3.499428571428573 1.6343750000000001  3.713142857142858 1.6343750000000001  Z M 4.219142857142856 2.840937499999999  L 4.219142857142856 2.6209375  L 3.779142857142856 2.6243749999999997  C 3.3328571428571414 2.6278124999999997  3.1097142857142837 2.7893750000000006  3.1097142857142837 3.112499999999999  C 3.1097142857142837 3.2190625000000006  3.14742857142857 3.308437499999999  3.222857142857141 3.37375  C 3.2951428571428565 3.4424999999999994  3.395714285714285 3.4734374999999993  3.524571428571427 3.4734374999999993  C 3.71 3.4734374999999993  3.873428571428571 3.4046874999999996  4.014857142857141 3.270624999999999  C 4.1499999999999995 3.1399999999999997  4.219142857142856 2.9956249999999986  4.219142857142856 2.840937499999999  Z M 5.25 1.1496875000000006  L 5.451142857142857 1.0568750000000005  L 5.451142857142857 1.6790625000000003  L 5.913142857142857 1.6790625000000003  L 5.913142857142857 1.875  L 5.451142857142857 1.875  L 5.451142857142857 3.18125  C 5.451142857142857 3.2671874999999995  5.463714285714285 3.3256249999999987  5.492 3.3634374999999994  C 5.520285714285714 3.3978124999999992  5.570571428571428 3.415  5.645999999999999 3.415  L 5.869142857142857 3.415  L 5.869142857142857 3.6109375  L 5.620857142857143 3.6109375  C 5.485714285714285 3.6109375  5.385142857142857 3.573124999999999  5.328571428571428 3.4940625  C 5.275142857142858 3.4287500000000004  5.25 3.325625000000001  5.25 3.18125  L 5.25 1.875  L 4.872857142857143 1.875  L 4.872857142857143 1.6790625000000003  L 5.25 1.6790625000000003  L 5.25 1.1496875000000006  Z M 6.393999999999999 2.871875  L 6.393999999999999 1.6790625000000003  L 6.598285714285715 1.6790625000000003  L 6.598285714285715 2.8581250000000002  C 6.598285714285715 3.0609375000000005  6.636 3.20875  6.7145714285714275 3.308437499999999  C 6.796285714285712 3.4115624999999983  6.921999999999999 3.466562499999999  7.094857142857141 3.466562499999999  C 7.2299999999999995 3.466562499999999  7.349428571428571 3.4081249999999996  7.453142857142857 3.2946874999999998  C 7.556857142857142 3.18125  7.613428571428571 3.033437499999999  7.625999999999999 2.8512499999999994  L 7.625999999999999 1.6790624999999992  L 7.830285714285714 1.6790624999999992  L 7.830285714285714 3.6109375  L 7.625999999999999 3.6109375  L 7.625999999999999 3.2843750000000007  C 7.490857142857142 3.5353125000000007  7.292857142857143 3.6624999999999996  7.038285714285714 3.6624999999999996  C 6.6077142857142865 3.6624999999999996  6.393999999999999 3.3978125000000006  6.393999999999999 2.871875  Z M 9.175428571428572 1.6274999999999995  C 9.285428571428573 1.6274999999999995  9.370285714285716 1.6412499999999985  9.433142857142858 1.66875  L 9.433142857142858 1.8956249999999997  C 9.348285714285714 1.8681249999999994  9.260285714285716 1.8543749999999992  9.162857142857144 1.8543749999999992  C 9.002571428571429 1.8543749999999992  8.873714285714287 1.9334374999999993  8.779428571428571 2.0846875  C 8.685142857142855 2.2221875000000004  8.638000000000002 2.3906249999999996  8.638000000000002 2.589999999999999  L 8.638000000000002 3.6109375  L 8.433714285714286 3.6109375  L 8.433714285714286 1.6790624999999992  L 8.638000000000002 1.6790624999999992  L 8.638000000000002 2.0503124999999986  C 8.685142857142855 1.9265624999999986  8.751142857142856 1.8337499999999995  8.832857142857145 1.761562499999999  C 8.92714285714286 1.6721874999999986  9.043428571428574 1.6274999999999995  9.175428571428572 1.6274999999999995  Z M 11.168000000000001 2.0881249999999985  L 11.168000000000001 0.8918749999999998  L 11.372285714285715 0.8918749999999998  L 11.372285714285715 3.6109375  L 11.177428571428573 3.6109375  L 11.177428571428573 3.2293749999999988  C 11.054857142857145 3.5181249999999986  10.84742857142857 3.6624999999999988  10.558285714285715 3.6624999999999988  C 10.306857142857142 3.6624999999999988  10.105714285714285 3.5593749999999993  9.961142857142857 3.356562499999999  C 9.832285714285712 3.1709374999999995  9.766285714285713 2.9303124999999985  9.766285714285713 2.6415624999999974  C 9.766285714285713 2.3562499999999975  9.832285714285712 2.1224999999999983  9.961142857142857 1.936874999999998  C 10.102571428571427 1.7306249999999979  10.29742857142857 1.6274999999999973  10.548857142857143 1.6274999999999973  C 10.831714285714286 1.6274999999999973  11.036000000000001 1.7821874999999976  11.168000000000001 2.0881249999999985  Z M 10.58657142857143 1.8200000000000027  C 10.385428571428573 1.816562500000003  10.231428571428571 1.8990625000000017  10.12142857142857 2.0640625000000004  C 10.024000000000001 2.2015625000000005  9.973714285714285 2.3975  9.973714285714285 2.641562500000001  C 9.973714285714285 2.8821875000000006  10.020857142857142 3.0781250000000018  10.118285714285715 3.2259375000000015  C 10.225142857142858 3.3909375000000006  10.379142857142858 3.4734375000000006  10.580285714285717 3.4734375000000006  C 10.772000000000002 3.4734375000000006  10.919714285714287 3.3943750000000006  11.026571428571431 3.232812500000002  C 11.124 3.085000000000001  11.174285714285716 2.8959375000000023  11.174285714285716 2.672500000000002  L 11.174285714285716 2.6278125000000028  C 11.174285714285716 2.3940625000000026  11.120857142857144 2.2015625000000028  11.01714285714286 2.050312500000002  C 10.910285714285719 1.895625000000002  10.765714285714287 1.8200000000000027  10.58657142857143 1.8200000000000027  Z M 12.720571428571429 1.6343750000000001  C 12.968857142857141 1.6274999999999995  13.151142857142856 1.6996875  13.270571428571428 1.8474999999999997  C 13.374285714285715 1.9746874999999997  13.427714285714284 2.146562500000001  13.427714285714284 2.366562499999999  L 13.427714285714284 3.6109375  L 13.23285714285714 3.6109375  L 13.23285714285714 3.239687499999999  C 13.160571428571428 3.353124999999999  13.063142857142854 3.449374999999999  12.946857142857139 3.528437499999999  C 12.808571428571426 3.6178124999999994  12.654571428571426 3.6624999999999996  12.48485714285714 3.6624999999999996  C 12.311999999999998 3.6624999999999996  12.170571428571424 3.614375000000001  12.063714285714282 3.518125000000001  C 11.956857142857137 3.4184375000000014  11.903428571428565 3.2843750000000007  11.903428571428565 3.119375  C 11.903428571428565 2.871875  11.994571428571422 2.6931249999999993  12.179999999999994 2.5831249999999994  C 12.32771428571428 2.490312499999999  12.525714285714281 2.445625  12.770857142857137 2.445625  L 13.220285714285707 2.4421875  L 13.220285714285707 2.370000000000001  C 13.220285714285707 2.005625000000001  13.05057142857142 1.8200000000000005  12.707999999999993 1.8200000000000005  C 12.550857142857136 1.8200000000000005  12.428285714285705 1.8578125  12.340285714285708 1.9300000000000006  C 12.239714285714276 2.0021875  12.179999999999993 2.1156249999999996  12.157999999999992 2.2668749999999993  L 11.959999999999999 2.2668749999999993  C 11.988285714285714 2.0503124999999986  12.069999999999999 1.8887500000000002  12.208285714285712 1.7821874999999998  C 12.337142857142856 1.6825  12.506857142857141 1.6343750000000001  12.720571428571429 1.6343750000000001  Z M 13.22342857142857 2.840937499999999  L 13.22342857142857 2.6209375  L 12.783428571428573 2.6243749999999997  C 12.337142857142856 2.6278124999999997  12.114 2.7893750000000006  12.114 3.112499999999999  C 12.114 3.2190625000000006  12.151714285714286 3.308437499999999  12.227142857142855 3.37375  C 12.29942857142857 3.4424999999999994  12.399999999999997 3.4734374999999993  12.528857142857143 3.4734374999999993  C 12.714285714285714 3.4734374999999993  12.877714285714285 3.4046874999999996  13.019142857142855 3.270624999999999  C 13.154285714285715 3.1399999999999997  13.22342857142857 2.9956249999999986  13.22342857142857 2.840937499999999  Z M 14.530857142857148 3.5628124999999997  L 13.83 1.6790625000000003  L 14.056285714285716 1.6790625000000003  L 14.63457142857143 3.2878125000000002  L 15.203428571428573 1.6790625000000003  L 15.429714285714287 1.6790625000000003  L 14.455428571428573 4.3500000000000005  L 14.23228571428572 4.3500000000000005  L 14.530857142857148 3.5628124999999997  Z " fill-rule="nonzero" fill="#ff5876" stroke="none" transform="matrix(1 0 0 1 4 77 )" />
  </g>
</svg>