<?xml version="1.0" encoding="utf-8"?>
<svg version="1.1" xmlns:xlink="http://www.w3.org/1999/xlink" width="12px" height="9px" xmlns="http://www.w3.org/2000/svg">
  <g transform="matrix(1 0 0 1 -7 -83 )">
    <path d="M 2.6472000000000016 0.6381562499999995  C 2.3469000000000015 0.9629999999999999  2.0070000000000014 1.2445312500000012  1.6307999999999998 1.4796562499999988  C 1.2447000000000004 1.7055  0.8454000000000005 1.8756562499999991  0.43290000000000045 1.9901250000000001  L 0.43290000000000045 2.695500000000001  C 1.2546000000000008 2.46965625  1.9476000000000013 2.0705625000000003  2.5020000000000007 1.504406250000001  L 2.5020000000000007 8.74378125  L 3.2412000000000027 8.74378125  L 3.2412000000000027 0.6381562499999995  L 2.6472000000000016 0.6381562499999995  Z M 11.5704 4.690968750000002  C 11.5704 3.5029687500000017  11.359199999999998 2.5439062500000027  10.940100000000001 1.819968750000001  C 10.431899999999999 0.9258750000000004  9.656399999999998 0.48037500000000155  8.616900000000001 0.48037500000000155  C 7.5774000000000035 0.48037500000000155  6.8019 0.9258750000000024  6.293700000000001 1.819968750000001  C 5.874600000000003 2.5315312500000013  5.663400000000003 3.4875000000000016  5.663400000000003 4.690968750000002  C 5.663400000000003 5.885156250000003  5.874600000000003 6.8442187500000005  6.293700000000001 7.561968750000002  C 6.8084999999999996 8.456062500000002  7.584 8.9015625  8.616900000000001 8.9015625  C 9.649799999999999 8.9015625  10.4253 8.456062500000002  10.940100000000001 7.561968750000002  C 11.359199999999998 6.81946875  11.5704 5.8635  11.5704 4.690968750000002  Z M 10.834499999999998 4.690968749999999  C 10.831199999999999 5.6655  10.695899999999998 6.4636875  10.421999999999997 7.085531249999999  C 10.042499999999997 7.8868125000000004  9.4419 8.288999999999998  8.616900000000001 8.288999999999998  C 7.778699999999998 8.288999999999998  7.1747999999999985 7.8868125000000004  6.811800000000002 7.085531249999999  C 6.544499999999999 6.47915625  6.4125000000000005 5.68096875  6.4125000000000005 4.690968749999999  C 6.4125000000000005 3.6854999999999976  6.544499999999999 2.8873124999999975  6.811800000000002 2.2964062499999995  C 7.174800000000004 1.4951249999999987  7.775400000000001 1.0929374999999988  8.616900000000001 1.0929374999999988  C 9.4485 1.0929374999999988  10.0491 1.4951249999999987  10.421999999999997 2.2964062499999995  C 10.695899999999998 2.9027812499999976  10.834499999999998 3.7009687499999977  10.834499999999998 4.690968749999999  Z " fill-rule="nonzero" fill="#000000" stroke="none" transform="matrix(1 0 0 1 7 83 )" />
  </g>
</svg>