<?xml version="1.0" encoding="utf-8"?>
<svg version="1.1" xmlns:xlink="http://www.w3.org/1999/xlink" width="16px" height="13px" xmlns="http://www.w3.org/2000/svg">
  <g transform="matrix(1 0 0 1 -4 -117 )">
    <path d="M 12.205428571428573 2.4770909090909092  C 11.775000000000002 2.4770909090909092  11.374142857142859 2.249443181818182  11.144142857142858 1.8722954545454547  L 10.841857142857146 1.3796249999999999  C 10.582285714285717 0.9549090909090907  10.128857142857147 0.6966818181818173  9.639285714285718 0.6966818181818173  L 6.547428571428575 0.6966818181818173  C 6.126857142857146 0.6966818181818173  5.735857142857147 0.9243295454545453  5.51571428571429 1.2946818181818176  L 5.190428571428575 1.8519090909090912  C 4.963714285714289 2.23925  4.556285714285717 2.4770909090909092  4.116000000000004 2.4770909090909092  L 1.6122857142857174 2.4770909090909092  C 1.047142857142861 2.4770909090909092  0.5871428571428601 2.9493750000000007  0.5871428571428601 3.537181818181818  L 0.5871428571428601 11.233034090909094  C 0.5871428571428601 11.817443181818183  1.0438571428571461 12.293125000000005  1.6122857142857174 12.293125000000005  L 14.679571428571434 12.293125000000005  C 15.24471428571429 12.293125000000005  15.704714285714289 11.820840909090913  15.704714285714289 11.233034090909094  L 15.704714285714289 3.537181818181818  C 15.704714285714289 2.9527727272727273  15.248000000000003 2.4770909090909092  14.679571428571434 2.4770909090909092  L 12.205428571428573 2.4770909090909092  Z " fill-rule="nonzero" fill="#2a2a2b" stroke="none" transform="matrix(1 0 0 1 4 117 )" />
  </g>
</svg>