<?xml version="1.0" encoding="utf-8"?>
<svg version="1.1" xmlns:xlink="http://www.w3.org/1999/xlink" width="27px" height="27px" xmlns="http://www.w3.org/2000/svg">
  <defs>
    <filter x="0px" y="148px" width="27px" height="27px" filterUnits="userSpaceOnUse" id="filter955">
      <feOffset dx="1" dy="1" in="SourceAlpha" result="shadowOffsetInner" />
      <feGaussianBlur stdDeviation="1" in="shadowOffsetInner" result="shadowGaussian" />
      <feComposite in2="shadowGaussian" operator="atop" in="SourceAlpha" result="shadowComposite" />
      <feColorMatrix type="matrix" values="0 0 0 0 0  0 0 0 0 0  0 0 0 0 0  0 0 0 0.3137254901960784 0  " in="shadowComposite" />
    </filter>
    <g id="widget956">
      <path d="M 17.70372727272727 0.2718181818181818  C 20.476272727272725 0.2718181818181818  22.72818181818182 2.5237272727272724  22.72818181818182 5.299409090909092  L 22.72818181818182 17.5375  C 22.72818181818182 17.873090909090912  22.69681818181818 18.202409090909093  22.634090909090908 18.51918181818182  L 22.596454545454545 18.688545454545455  C 22.583909090909096 18.744999999999997  22.571363636363635 18.79518181818182  22.552545454545452 18.851636363636363  C 22.191863636363635 20.194000000000003  21.276045454545454 21.319954545454546  20.077954545454546 21.962909090909093  C 20.027772727272726 21.994272727272726  19.97759090909091 22.019363636363636  19.921136363636364 22.044454545454542  C 19.87095454545455 22.075818181818182  19.814500000000002 22.10090909090909  19.758045454545456 22.126  C 19.13077272727273 22.405136363636366  18.43136363636364 22.568227272727274  17.697454545454548 22.568227272727274  L 5.465636363636367 22.568227272727274  C 5.192772727272731 22.568227272727274  4.916772727272731 22.543136363636364  4.656454545454547 22.5055  C 4.60627272727273 22.49295454545455  4.549818181818185 22.486681818181818  4.499636363636367 22.47413636363636  C 4.449454545454548 22.461590909090912  4.3930000000000025 22.455318181818182  4.342818181818185 22.436500000000002  C 2.1097272727272753 21.93154545454546  0.43490909090909363 19.930545454545452  0.43490909090909363 17.540636363636366  L 0.43490909090909363 5.299409090909092  C 0.43490909090909363 4.6407727272727275  0.5666363636363665 4.004090909090909  0.7955909090909118 3.4270000000000005  C 0.8144090909090936 3.3768181818181824  0.8395000000000027 3.326636363636364  0.8645909090909119 3.2827272727272736  C 0.8834090909090937 3.2325454545454546  0.9022272727272754 3.182363636363637  0.9273181818181846 3.132181818181819  C 1.5828181818181815 1.7647272727272731  2.8310909090909093 0.7391363636363635  4.342818181818181 0.39727272727272733  C 4.393 0.38472727272727286  4.449454545454546 0.3721818181818183  4.499636363636363 0.365909090909091  C 4.549818181818182 0.35336363636363644  4.606272727272728 0.34709090909090917  4.656454545454546 0.33454545454545465  C 4.9105 0.29690909090909096  5.167681818181819 0.2718181818181818  5.4342727272727265 0.2718181818181818  L 17.70372727272727 0.2718181818181818  Z " fill-rule="nonzero" fill="#8ed980" stroke="none" transform="matrix(1 0 0 1 1 149 )" />
    </g>
  </defs>
  <g transform="matrix(1 0 0 1 0 -148 )">
    <use xlink:href="#widget956" filter="url(#filter955)" />
    <use xlink:href="#widget956" />
  </g>
</svg>