<?xml version="1.0" encoding="utf-8"?>
<svg version="1.1" xmlns:xlink="http://www.w3.org/1999/xlink" width="7px" height="7px" xmlns="http://www.w3.org/2000/svg">
  <g transform="matrix(1 0 0 1 -9 -120 )">
    <path d="M 6.873999999999999 3.711604166666668  C 6.873999999999999 5.489312499999999  5.424999999999999 6.934958333333334  3.6506458333333334 6.934958333333334  C 1.8729375000000006 6.934958333333334  0.4272916666666676 5.489312500000001  0.4272916666666676 3.711604166666668  C 0.4272916666666676 1.9338958333333327  1.8729375000000006 0.48824999999999985  3.6506458333333334 0.48824999999999985  C 5.428354166666666 0.48824999999999985  6.873999999999999 1.9338958333333347  6.873999999999999 3.711604166666668  Z M 6.4044166666666635 3.711604166666668  C 6.4044166666666635 2.192166666666668  5.1667291666666655 0.9578333333333351  3.6506458333333334 0.9578333333333351  C 2.1312083333333343 0.9578333333333351  0.8968749999999988 2.192166666666668  0.8968749999999988 3.711604166666668  C 0.8968749999999988 5.231041666666665  2.1312083333333316 6.465375  3.6506458333333316 6.465375  C 5.1700833333333325 6.465375  6.4044166666666635 5.231041666666665  6.4044166666666635 3.711604166666668  Z " fill-rule="nonzero" fill="#d7d7dc" stroke="none" transform="matrix(1 0 0 1 9 120 )" />
  </g>
</svg>