<?xml version="1.0" encoding="utf-8"?>
<svg version="1.1" xmlns:xlink="http://www.w3.org/1999/xlink" width="23px" height="21px" xmlns="http://www.w3.org/2000/svg">
  <g transform="matrix(1 0 0 1 -1 -151 )">
    <path d="M 9.912999999999991 12.719700000000007  C 9.865954545454537 12.814200000000008  9.818909090909083 12.908700000000005  9.768727272727272 13.00005  L 13.507272727272724 15.6618  L 14.056136363636362 16.05555  L 14.335272727272729 16.247700000000002  L 14.341545454545454 16.254  L 14.733590909090909 16.53435  L 16.041454545454542 17.46675  L 16.047727272727272 17.46675  L 16.45231818181818 17.7534  C 16.45231818181818 17.7534  16.45231818181818 17.759700000000002  16.458590909090905 17.759700000000002  L 16.750272727272723 17.970750000000002  L 17.484181818181817 18.509400000000003  L 17.502999999999997 18.509400000000003  L 19.76118181818181 20.115900000000003  C 19.81763636363636 20.090700000000005  19.874090909090903 20.065500000000004  19.92427272727272 20.034000000000006  C 19.98072727272727 20.008800000000004  20.030909090909084 19.983600000000006  20.081090909090904 19.952100000000005  L 17.97345454545454 18.452700000000007  L 17.352454545454535 18.018000000000004  L 17.13604545454545 17.854200000000006  C 17.129772727272723 17.854200000000006  17.129772727272723 17.854200000000006  17.123499999999993 17.847900000000003  L 16.875727272727268 17.67780000000001  L 15.200909090909086 16.487100000000005  L 15.100545454545449 16.411500000000007  L 14.297636363636359 15.844500000000009  L 14.068681818181812 15.680700000000007  L 13.864818181818174 15.535800000000007  L 13.403772727272719 15.205050000000007  L 9.912999999999991 12.719700000000007  Z M 3.9821363636363634 8.883000000000001  C 4.051136363636362 8.804250000000001  4.120136363636362 8.725500000000002  4.195409090909091 8.653049999999999  L 0.43804545454545457 5.978700000000002  L 0.43804545454545457 6.35985  L 3.9821363636363634 8.883000000000001  Z M 4.342818181818181 3.4839000000000016  L 0.9273181818181817 1.0458000000000005  C 0.9022272727272728 1.0962000000000005  0.8834090909090908 1.1466000000000005  0.8645909090909091 1.1970000000000007  C 0.8394999999999999 1.2411000000000005  0.8144090909090907 1.2915000000000003  0.795590909090909 1.3419000000000005  L 4.342818181818181 3.865050000000001  L 4.342818181818181 3.4839000000000016  Z M 22.640363636363634 16.4997  L 21.153727272727274 15.450750000000001  L 20.811863636363636 15.208200000000001  L 20.673863636363638 15.1074  L 20.52959090909091 15.006600000000002  L 19.472636363636365 14.2506  L 19.24995454545455 14.0931  L 19.033545454545457 13.9356  L 17.93268181818182 13.1544  L 17.93268181818182 13.148100000000003  L 17.421454545454548 12.79215  C 17.41518181818182 12.78585  17.408909090909095 12.78585  17.402636363636365 12.77955  L 17.239545454545457 12.663  L 16.816136363636364 12.363749999999998  L 9.059909090909091 6.8386499999999995  L 9.059909090909091 7.2198  L 16.433500000000002 12.4677  L 16.90081818181818 12.79845  L 17.05136363636364 12.91185  L 17.20190909090909 13.01265  L 18.497227272727272 13.938749999999999  L 18.713636363636365 14.096249999999998  L 18.936318181818184 14.25375  L 20.473136363636364 15.3531  L 20.611136363636362 15.447600000000001  L 20.749136363636367 15.5421  L 21.072181818181818 15.77205  L 22.558818181818182 16.8336  C 22.577636363636366 16.7769  22.590181818181815 16.7265  22.602727272727275 16.669800000000002  L 22.640363636363634 16.4997  Z " fill-rule="nonzero" fill="#ffa934" stroke="none" transform="matrix(1 0 0 1 1 151 )" />
  </g>
</svg>