<?xml version="1.0" encoding="utf-8"?>
<svg version="1.1" xmlns:xlink="http://www.w3.org/1999/xlink" width="23px" height="20px" xmlns="http://www.w3.org/2000/svg">
  <g transform="matrix(1 0 0 1 -1 -152 )">
    <path d="M 21.116090909090914 14.60105263157895  L 22.596454545454545 15.655789473684212  C 22.583909090909096 15.712631578947367  22.571363636363635 15.763157894736842  22.552545454545452 15.82  C 22.191863636363635 17.17157894736842  21.276045454545454 18.30526315789474  20.077954545454546 18.95263157894737  C 20.027772727272726 18.984210526315792  19.97759090909091 19.009473684210523  19.921136363636364 19.03473684210526  L 17.75077272727273 17.487368421052633  L 17.067045454545458 16.9978947368421  L 16.813 16.814736842105262  L 16.515045454545454 16.60315789473684  L 14.460727272727274 15.137894736842101  L 14.181590909090906 14.945263157894733  C 14.181590909090906 14.945263157894733  14.17531818181818 14.945263157894733  14.17531818181818 14.938947368421049  L 13.946363636363635 14.76842105263158  L 13.444545454545453 14.411578947368419  L 9.844 11.844210526315788  L 9.059909090909091 11.285263157894736  L 8.749409090909092 11.06105263157895  L 7.711272727272728 10.322105263157894  L 6.591590909090911 9.520000000000003  L 6.187000000000002 9.23263157894737  L 5.43427272727273 8.69263157894737  L 4.656454545454547 8.14  L 4.345954545454547 7.915789473684212  L 4.091909090909093 7.73263157894737  L 0.43804545454545685 5.127368421052633  L 0.43804545454545685 2.177894736842107  C 0.43804545454545685 1.5147368421052652  0.5697727272727298 0.8736842105263177  0.7987272727272751 0.2926315789473708  C 0.817545454545457 0.24210526315789707  0.842636363636366 0.19157894736842332  0.8677272727272751 0.14736842105263312  L 4.345954545454547 2.6294736842105277  L 4.656454545454547 2.8536842105263176  L 5.43427272727273 3.406315789473685  L 7.959045454545459 5.209473684210528  L 8.749409090909095 5.774736842105264  L 9.059909090909095 5.998947368421055  L 16.63109090909091 11.398947368421053  L 17.073318181818184 11.711578947368421  L 17.217590909090916 11.818947368421053  L 17.374409090909094 11.926315789473687  L 18.76695454545455 12.921052631578949  L 19.202909090909095 13.23368421052632  L 20.504500000000004 14.162105263157896  L 20.648772727272732 14.269473684210528  L 20.79304545454546 14.36421052631579  L 20.79304545454546 14.370526315789476  L 21.116090909090914 14.60105263157895  Z " fill-rule="nonzero" fill="#ffd34a" stroke="none" transform="matrix(1 0 0 1 1 152 )" />
  </g>
</svg>