<?xml version="1.0" encoding="utf-8"?>
<svg version="1.1" xmlns:xlink="http://www.w3.org/1999/xlink" width="13px" height="13px" xmlns="http://www.w3.org/2000/svg">
  <g transform="matrix(1 0 0 1 -11 -149 )">
    <path d="M 12.718333333333335 8.231166666666665  C 8.561583333333331 7.935416666666666  5.266083333333334 4.4969166666666665  5.201083333333336 0.2816666666666667  L 4.879333333333335 0.2816666666666667  C 4.944333333333334 4.672416666666667  8.386083333333334 8.257166666666667  12.718333333333335 8.552916666666667  L 12.718333333333335 8.231166666666665  Z M 12.718333333333335 8.231166666666665  C 8.561583333333331 7.935416666666666  5.266083333333334 4.4969166666666665  5.201083333333336 0.2816666666666667  L 4.879333333333335 0.2816666666666667  C 4.944333333333334 4.672416666666667  8.386083333333334 8.257166666666667  12.718333333333335 8.552916666666667  L 12.718333333333335 8.231166666666665  Z M 12.718333333333335 8.231166666666665  C 8.561583333333331 7.935416666666666  5.266083333333334 4.4969166666666665  5.201083333333336 0.2816666666666667  L 4.879333333333335 0.2816666666666667  C 4.944333333333334 4.672416666666667  8.386083333333334 8.257166666666667  12.718333333333335 8.552916666666667  L 12.718333333333335 8.231166666666665  Z M 12.718333333333335 12.332666666666666  C 6.309333333333331 12.020666666666667  1.177583333333333 6.7491666666666665  1.1093333333333362 0.2816666666666667  L 0.7908333333333338 0.2816666666666667  C 0.8558333333333343 6.927916666666666  6.127333333333332 12.348916666666668  12.718333333333335 12.647916666666667  L 12.718333333333335 12.332666666666666  Z " fill-rule="nonzero" fill="#80c073" stroke="none" transform="matrix(1 0 0 1 11 149 )" />
  </g>
</svg>