<?xml version="1.0" encoding="utf-8"?>
<svg version="1.1" xmlns:xlink="http://www.w3.org/1999/xlink" width="7px" height="6px" xmlns="http://www.w3.org/2000/svg">
  <g transform="matrix(1 0 0 1 -15 -164 )">
    <path d="M 6.265000000000001 0.33899999999999864  C 6.604000000000003 0.8129999999999988  6.802000000000003 1.3859999999999992  6.802 2.0009999999999977  C 6.802 3.6630000000000003  5.347000000000001 5.009999999999998  3.5499999999999976 5.009999999999998  C 1.7529999999999981 5.009999999999998  0.29800000000000004 3.6630000000000003  0.29800000000000004 2.0009999999999977  C 0.29800000000000004 1.3709999999999987  0.5080000000000009 0.7859999999999978  0.8650000000000002 0.29999999999999893  C 1.243000000000002 0.4469999999999992  1.6510000000000016 0.5219999999999985  2.0859999999999985 0.5219999999999985  C 2.6439999999999984 0.5219999999999985  3.1630000000000003 0.39299999999999713  3.619 0.16199999999999903  C 4.075000000000003 0.39299999999999713  4.594000000000001 0.5219999999999985  5.152000000000001 0.5219999999999985  C 5.545000000000002 0.5219999999999985  5.917000000000002 0.45599999999999774  6.265000000000001 0.33899999999999864  Z " fill-rule="nonzero" fill="#0078d3" stroke="none" transform="matrix(1 0 0 1 15 164 )" />
  </g>
</svg>