<?xml version="1.0" encoding="utf-8"?>
<svg version="1.1" xmlns:xlink="http://www.w3.org/1999/xlink" width="7px" height="7px" xmlns="http://www.w3.org/2000/svg">
  <g transform="matrix(1 0 0 1 -15 -163 )">
    <path d="M 6.946000000000009 3.003999999999998  C 6.955000000000009 2.8569999999999958  6.9430000000000085 2.7129999999999974  6.924999999999997 2.571999999999999  L 6.888999999999999 2.392000000000003  L 6.888999999999999 2.386000000000003  C 6.8530000000000015 2.206000000000003  6.7989999999999995 2.0350000000000037  6.727 1.8670000000000009  C 6.721 1.8610000000000022  6.721 1.8490000000000002  6.715 1.8430000000000015  L 6.661000000000001 1.7170000000000023  C 6.583000000000002 1.549000000000003  6.487000000000002 1.3960000000000008  6.3820000000000014 1.240000000000002  L 6.3160000000000025 1.1560000000000041  L 6.214000000000002 1.1920000000000037  C 6.040000000000003 1.2520000000000024  5.8629999999999995 1.2940000000000023  5.683000000000003 1.3240000000000016  C 5.509000000000004 1.3480000000000025  5.326000000000004 1.3660000000000032  5.140000000000001 1.3660000000000032  C 4.609000000000002 1.3660000000000032  4.123000000000001 1.2520000000000024  3.6820000000000026 1.027000000000001  L 3.616000000000003 0.9910000000000033  L 3.5500000000000007 1.0300000000000011  C 3.532 1.0420000000000016  3.514000000000003 1.0480000000000018  3.490000000000002 1.0600000000000023  C 3.4360000000000035 1.0840000000000014  3.382000000000005 1.1080000000000005  3.328000000000003 1.1260000000000012  C 3.274000000000001 1.1560000000000024  3.2200000000000024 1.174000000000003  3.1600000000000037 1.1920000000000037  C 2.8210000000000015 1.312000000000003  2.458000000000002 1.3720000000000017  2.0770000000000017 1.3720000000000017  C 1.6720000000000041 1.3720000000000017  1.2790000000000035 1.3000000000000007  0.9100000000000019 1.1650000000000027  L 0.8080000000000034 1.123000000000001  L 0.7360000000000024 1.213000000000001  C 0.6760000000000037 1.2910000000000004  0.6280000000000037 1.3750000000000036  0.5800000000000036 1.450000000000001  C 0.5500000000000043 1.498000000000001  0.5200000000000049 1.5460000000000012  0.4960000000000058 1.5940000000000012  C 0.48400000000000537 1.618000000000002  0.4720000000000049 1.6420000000000012  0.4660000000000047 1.660000000000002  C 0.4300000000000068 1.7200000000000006  0.4000000000000057 1.7860000000000014  0.3760000000000048 1.8490000000000002  C 0.31600000000000605 1.9809999999999999  0.268000000000006 2.122  0.23800000000000307 2.259999999999998  C 0.2200000000000024 2.308  0.21400000000000396 2.3500000000000014  0.2020000000000053 2.3979999999999997  L 0.2020000000000053 2.4160000000000004  L 0.16600000000000747 2.5660000000000025  L 0.16600000000000747 2.5779999999999994  C 0.1480000000000068 2.7220000000000013  0.13600000000000634 2.8629999999999995  0.13600000000000634 3.006999999999998  C 0.13600000000000634 3.280000000000001  0.17200000000000593 3.5499999999999976  0.2500000000000071 3.8049999999999993  C 0.2680000000000078 3.882999999999999  0.2920000000000087 3.9609999999999985  0.3280000000000065 4.035999999999998  C 0.35800000000000765 4.125999999999998  0.394000000000009 4.2159999999999975  0.43600000000000705 4.296999999999997  C 0.9010000000000069 5.253999999999998  1.8640000000000063 5.955999999999996  3.0130000000000052 6.123999999999999  C 3.1150000000000055 6.1419999999999995  3.2080000000000055 6.153999999999996  3.316000000000006 6.153999999999996  C 3.3880000000000052 6.165999999999997  3.4660000000000046 6.165999999999997  3.5410000000000075 6.165999999999997  L 3.5890000000000057 6.165999999999997  C 5.149000000000008 6.147999999999996  6.457000000000008 5.148999999999994  6.832000000000008 3.804999999999996  C 6.8500000000000085 3.7569999999999975  6.862000000000009 3.7089999999999956  6.874000000000009 3.6549999999999976  L 6.874000000000009 3.6489999999999974  C 6.886000000000006 3.5949999999999993  6.89800000000001 3.5409999999999973  6.89800000000001 3.4869999999999948  C 6.934000000000008 3.330999999999996  6.946000000000009 3.171999999999997  6.946000000000009 3.003999999999998  Z M 6.643000000000004 3.2859999999999943  C 6.634000000000004 3.3459999999999965  6.628000000000004 3.3999999999999986  6.609999999999999 3.4510000000000005  C 6.609999999999999 3.5109999999999992  6.5980000000000025 3.5650000000000013  6.580000000000002 3.619  C 6.277000000000001 4.897000000000002  5.032 5.8629999999999995  3.5500000000000007 5.8629999999999995  C 3.4060000000000024 5.8629999999999995  3.271000000000001 5.857000000000003  3.139000000000003 5.839000000000002  C 3.019000000000002 5.8210000000000015  2.9080000000000013 5.803000000000004  2.794000000000004 5.773  C 2.6380000000000052 5.743000000000002  2.491000000000003 5.695  2.3470000000000013 5.634999999999998  L 2.341000000000001 5.634999999999998  C 1.8460000000000036 5.4460000000000015  1.4200000000000017 5.134  1.0900000000000034 4.747  C 0.9940000000000034 4.632999999999999  0.9070000000000036 4.509999999999998  0.8290000000000042 4.378  C 0.7690000000000055 4.287999999999997  0.7210000000000054 4.189  0.6730000000000054 4.086999999999996  C 0.5230000000000068 3.7539999999999973  0.4420000000000055 3.384999999999998  0.4420000000000055 2.9979999999999976  C 0.4420000000000055 2.8539999999999957  0.45400000000000423 2.7129999999999974  0.47800000000000514 2.5689999999999955  C 0.48400000000000354 2.5209999999999972  0.4960000000000058 2.4729999999999954  0.5080000000000027 2.418999999999997  C 0.5200000000000031 2.370999999999995  0.5320000000000036 2.3169999999999966  0.5440000000000023 2.2689999999999984  C 0.5560000000000009 2.232999999999997  0.5680000000000014 2.190999999999999  0.5800000000000018 2.1549999999999976  C 0.5919999999999987 2.1069999999999958  0.6099999999999994 2.0589999999999975  0.6340000000000003 2.0109999999999957  C 0.6820000000000004 1.8909999999999965  0.7360000000000007 1.7739999999999974  0.8019999999999996 1.6599999999999966  C 0.8379999999999992 1.5939999999999959  0.8799999999999991 1.5339999999999971  0.9220000000000007 1.4709999999999965  C 1.2910000000000004 1.5969999999999978  1.6839999999999993 1.6599999999999966  2.083000000000002 1.6599999999999966  C 2.5720000000000027 1.6599999999999966  3.0280000000000022 1.5699999999999967  3.451000000000004 1.386999999999997  C 3.5050000000000026 1.3749999999999964  3.565000000000005 1.3449999999999953  3.6190000000000033 1.3209999999999944  C 3.793000000000003 1.404999999999994  3.9700000000000024 1.4709999999999948  4.156000000000006 1.5159999999999965  L 4.156000000000006 1.521999999999995  C 4.471000000000004 1.6119999999999965  4.804000000000006 1.6599999999999966  5.1490000000000045 1.6599999999999966  C 5.251000000000005 1.6599999999999966  5.344000000000008 1.6539999999999964  5.446000000000005 1.647999999999998  C 5.701000000000008 1.6299999999999972  5.959000000000007 1.5819999999999972  6.2080000000000055 1.5039999999999978  C 6.352000000000007 1.722999999999999  6.469000000000008 1.9629999999999976  6.5410000000000075 2.2179999999999964  C 6.547000000000004 2.229999999999997  6.553000000000004 2.2479999999999976  6.553000000000004 2.2659999999999982  C 6.571000000000005 2.3139999999999965  6.5830000000000055 2.3619999999999948  6.595000000000006 2.415999999999997  C 6.607000000000006 2.463999999999995  6.619000000000007 2.511999999999997  6.625000000000007 2.5659999999999954  C 6.6490000000000045 2.7099999999999937  6.661000000000005 2.8509999999999955  6.661000000000005 2.994999999999994  C 6.661000000000005 3.096999999999994  6.655000000000005 3.1899999999999977  6.643000000000004 3.2859999999999943  Z " fill-rule="nonzero" fill="#eeeae5" stroke="none" transform="matrix(1 0 0 1 15 163 )" />
  </g>
</svg>