<?xml version="1.0" encoding="utf-8"?>
<svg version="1.1" xmlns:xlink="http://www.w3.org/1999/xlink" width="18px" height="10px" xmlns="http://www.w3.org/2000/svg">
  <g transform="matrix(1 0 0 1 -5 -159 )">
    <path d="M 0.48070588235294187 0.7330000000000005  L 0.48070588235294187 0.5559999999999992  L 0.16305882352941167 0.33999999999999986  L 0.16305882352941167 0.7029999999999994  L 0.48070588235294187 0.9190000000000005  L 0.48070588235294187 0.7330000000000005  Z M 4.626 3.5050000000000026  L 4.626 3.6910000000000007  L 4.78164705882353 3.7989999999999995  L 4.940470588235295 3.8979999999999997  L 4.940470588235295 3.535000000000002  L 4.78164705882353 3.436  L 4.626 3.328000000000003  L 4.626 3.5050000000000026  Z M 16.629882352941173 3.753999999999998  C 17.055529411764702 4.353999999999999  17.303294117647056 5.073999999999998  17.303294117647056 5.847999999999999  C 17.303294117647056 7.942  15.508588235294116 9.64  13.288235294117644 9.64  C 11.071058823529409 9.64  9.273176470588234 7.945  9.273176470588234 5.847999999999999  C 9.273176470588234 5.055999999999997  9.530470588235294 4.318  9.971999999999998 3.7059999999999977  C 10.438941176470587 3.8889999999999976  10.940823529411762 3.9849999999999977  11.477647058823528 3.9849999999999977  C 12.163764705882352 3.9849999999999977  12.808588235294115 3.822999999999997  13.367647058823525 3.5319999999999983  C 13.929882352941172 3.8230000000000004  14.571529411764708 3.9849999999999977  15.257647058823526 3.9849999999999977  C 15.743647058823527 3.9849999999999977  16.20423529411764 3.901  16.629882352941173 3.753999999999998  Z " fill-rule="nonzero" fill="#0078d3" stroke="none" transform="matrix(1 0 0 1 5 159 )" />
  </g>
</svg>