<?xml version="1.0" encoding="utf-8"?>
<svg version="1.1" xmlns:xlink="http://www.w3.org/1999/xlink" width="8px" height="8px" xmlns="http://www.w3.org/2000/svg">
  <g transform="matrix(1 0 0 1 -3 -158 )">
    <path d="M 6.666 4.535000000000002  L 7.482000000000001 5.114000000000001  C 7.689 4.673  7.809000000000001 4.184000000000001  7.809000000000001 3.662000000000001  C 7.809000000000001 2.6510000000000016  7.365 1.745000000000001  6.666 1.1210000000000004  L 6.666 4.535000000000002  Z M 2.154 1.7029999999999994  L 1.8090000000000002 1.459999999999999  C 1.3049999999999997 2.0539999999999985  0.9989999999999997 2.821999999999999  0.9989999999999997 3.662000000000001  C 0.9989999999999997 4.679000000000002  1.4489999999999998 5.591000000000001  2.154 6.215  L 2.154 1.7029999999999994  Z M 4.403999999999997 0.2569999999999997  C 3.6779999999999973 0.2569999999999997  3.0059999999999967 0.48799999999999955  2.4540000000000006 0.875  L 2.4540000000000006 1.5559999999999992  L 3.1979999999999995 2.0809999999999995  L 3.9719999999999995 2.6270000000000024  L 4.553999999999999 3.0440000000000023  L 5.292 3.5690000000000026  L 5.297999999999998 3.5690000000000026  L 6.368999999999998 4.331000000000003  L 6.368999999999998 0.8840000000000003  C 5.813999999999998 0.49099999999999966  5.1359999999999975 0.2569999999999997  4.403999999999997 0.2569999999999997  Z M 6.369 4.6910000000000025  L 5.457000000000001 4.0489999999999995  L 4.041 3.0440000000000005  L 3.8609999999999998 2.9179999999999993  L 3.1950000000000003 2.4410000000000007  L 2.4509999999999996 1.9160000000000004  L 2.4509999999999996 6.449000000000002  C 3.003 6.8359999999999985  3.6750000000000007 7.067000000000004  4.404 7.067000000000004  C 5.135999999999999 7.067000000000004  5.814 6.833000000000002  6.369 6.440000000000005  L 6.369 4.6910000000000025  Z M 2.154 1.343  L 2.154 1.112  C 2.106 1.154  2.058 1.1960000000000015  2.013 1.2410000000000014  L 2.154 1.343  Z M 6.666 4.897999999999998  L 6.666 6.202999999999999  C 6.933 5.966000000000001  7.161 5.689999999999998  7.341000000000001 5.377999999999998  L 6.666 4.897999999999998  Z " fill-rule="nonzero" fill="#0078d3" stroke="none" transform="matrix(1 0 0 1 3 158 )" />
  </g>
</svg>