<?xml version="1.0" encoding="utf-8"?>
<svg version="1.1" xmlns:xlink="http://www.w3.org/1999/xlink" width="7px" height="6px" xmlns="http://www.w3.org/2000/svg">
  <g transform="matrix(1 0 0 1 -4 -159 )">
    <path d="M 4.298 2.5660000000000007  L 4.292 2.5660000000000007  L 3.554 2.0440000000000005  L 2.9689999999999994 1.626999999999999  L 2.1979999999999995 1.0779999999999994  L 1.4539999999999997 0.5559999999999992  L 1.4539999999999997 0.7330000000000005  L 2.1979999999999995 1.258000000000001  L 2.918 1.7680000000000007  L 3.3049999999999997 2.0440000000000005  L 4.3759999999999994 2.803000000000001  L 5.369 3.504999999999999  L 5.369 3.3279999999999994  L 4.298 2.5660000000000007  Z M 1.154 0.6999999999999993  L 1.154 0.33999999999999986  L 1.013 0.23799999999999955  C 0.9409999999999998 0.3070000000000004  0.875 0.3819999999999997  0.8090000000000002 0.45700000000000074  L 1.154 0.6999999999999993  Z M 5.666 3.535  L 5.666 3.8979999999999997  L 6.341000000000001 4.378  C 6.3919999999999995 4.291  6.437000000000001 4.204000000000001  6.482000000000001 4.111000000000001  L 5.666 3.535  Z M 1.4509999999999996 0.9190000000000005  L 1.154 0.7029999999999994  L 1.154 5.214999999999996  C 1.25 5.298999999999996  1.3490000000000002 5.376999999999999  1.4509999999999996 5.451999999999998  L 1.4509999999999996 0.9190000000000005  Z M 5.663000000000002 3.8980000000000032  L 5.516 3.7989999999999995  L 5.366000000000001 3.6910000000000007  L 5.366000000000001 5.440000000000001  C 5.471000000000002 5.365000000000002  5.57 5.286999999999999  5.663000000000002 5.203000000000003  L 5.663000000000002 3.8980000000000032  Z " fill-rule="nonzero" fill="#0078d3" stroke="none" transform="matrix(1 0 0 1 4 159 )" />
  </g>
</svg>