<?xml version="1.0" encoding="utf-8"?>
<svg version="1.1" xmlns:xlink="http://www.w3.org/1999/xlink" width="10px" height="16px" xmlns="http://www.w3.org/2000/svg">
  <g transform="matrix(1 0 0 1 -7 -190 )">
    <path d="M 9.927 13.937749999999994  C 9.9205 13.911749999999994  9.914000000000001 13.888999999999996  9.91075 13.86625  C 9.868500000000001 13.596499999999999  9.81325 13.33325  9.7515 13.07975  C 9.722249999999999 12.959499999999998  9.683250000000001 12.845749999999999  9.6475 12.728750000000002  C 9.601999999999997 12.576  9.559749999999998 12.42325  9.5045 12.277000000000001  C 9.455750000000002 12.143749999999997  9.403750000000002 12.02025  9.348500000000001 11.890250000000002  C 9.296500000000002 11.77  9.24775 11.6465  9.192499999999999 11.529500000000002  C 9.130749999999999 11.3995  9.0625 11.272750000000002  8.994250000000001 11.149250000000002  C 8.939 11.0485  8.880500000000001 10.94775  8.822 10.850250000000003  C 8.747250000000001 10.726750000000001  8.666 10.609750000000002  8.58475 10.492750000000001  C 8.523 10.405000000000001  8.46125 10.323750000000002  8.396249999999998 10.242500000000001  C 8.308499999999999 10.132000000000001  8.217500000000001 10.021500000000003  8.123250000000002 9.917500000000002  C 8.055 9.846000000000002  7.986750000000001 9.777750000000001  7.918500000000002 9.709500000000002  C 7.8210000000000015 9.612000000000002  7.720250000000002 9.517750000000001  7.616250000000003 9.430000000000001  C 7.541500000000003 9.368250000000002  7.463500000000003 9.31625  7.388750000000002 9.261000000000003  C 7.281499999999999 9.183000000000003  7.1775 9.101750000000001  7.067 9.036750000000003  C 7.060500000000001 9.033500000000002  7.054000000000002 9.027000000000003  7.047499999999999 9.023750000000003  C 6.7094999999999985 8.822250000000004  6.50475 8.464750000000006  6.50475 8.071500000000004  L 6.50475 7.626250000000004  C 6.50475 7.233000000000004  6.71275 6.875500000000004  7.047499999999999 6.674000000000003  C 7.0539999999999985 6.6707500000000035  7.0604999999999976 6.664250000000003  7.067 6.661000000000003  C 7.1775 6.592750000000004  7.281499999999999 6.514750000000003  7.388750000000002 6.4367500000000035  C 7.466750000000001 6.381500000000004  7.541499999999999 6.329500000000003  7.616250000000003 6.267750000000003  C 7.720250000000002 6.180000000000003  7.817750000000004 6.085750000000003  7.918500000000002 5.988250000000004  C 7.986750000000001 5.9200000000000035  8.058250000000001 5.8517500000000044  8.126500000000004 5.780250000000004  C 8.220750000000002 5.676250000000003  8.311750000000004 5.569000000000004  8.3995 5.458500000000003  C 8.464500000000001 5.377250000000004  8.526250000000001 5.292750000000002  8.588000000000001 5.208250000000003  C 8.669250000000002 5.094500000000002  8.750499999999999 4.974250000000003  8.82525 4.850750000000003  C 8.887 4.753250000000005  8.942250000000001 4.652500000000003  8.997500000000002 4.551750000000004  C 9.065750000000001 4.428250000000004  9.134 4.3015000000000025  9.19575 4.1715000000000035  C 9.251000000000001 4.054500000000003  9.303 3.934250000000004  9.351750000000003 3.8107500000000023  C 9.403750000000002 3.684000000000001  9.459000000000003 3.5572500000000034  9.507750000000001 3.4240000000000013  C 9.559750000000001 3.277750000000001  9.605250000000002 3.1250000000000018  9.650749999999999 2.9722500000000007  C 9.686500000000002 2.8552500000000007  9.7255 2.7415000000000003  9.754750000000001 2.6212500000000007  C 9.819749999999999 2.3644999999999996  9.871749999999999 2.1012500000000003  9.914000000000001 1.8347500000000005  C 9.917250000000003 1.8120000000000003  9.923750000000002 1.7925000000000013  9.927 1.7697500000000002  C 10.030999999999999 1.0905000000000005  9.511 0.47300000000000075  8.822 0.47300000000000075  L 1.4802499999999998 0.47300000000000075  C 0.791249999999998 0.47300000000000075  0.2712500000000002 1.0905000000000005  0.3752499999999994 1.7697500000000002  C 0.37849999999999895 1.7925000000000013  0.3849999999999998 1.8120000000000003  0.3882499999999993 1.8347500000000005  C 0.4305000000000003 2.1045000000000016  0.48574999999999946 2.367750000000001  0.5474999999999994 2.6245000000000003  C 0.5767499999999988 2.74475  0.6157499999999985 2.8585000000000003  0.6515000000000004 2.9755000000000003  C 0.6969999999999992 3.1282500000000013  0.7392500000000002 3.2810000000000006  0.7944999999999993 3.427250000000001  C 0.8432500000000012 3.5604999999999993  0.8952500000000008 3.684000000000001  0.9504999999999999 3.814  C 1.0024999999999995 3.9342499999999987  1.0512499999999996 4.05775  1.1065000000000005 4.1747499999999995  C 1.1682500000000005 4.30475  1.2364999999999995 4.4315  1.3047500000000003 4.555  C 1.3599999999999994 4.655750000000001  1.4184999999999999 4.756499999999999  1.4770000000000003 4.853999999999999  C 1.5517500000000002 4.977499999999999  1.6329999999999991 5.0945  1.7142499999999998 5.211499999999999  C 1.7759999999999998 5.299250000000001  1.8377499999999998 5.3805  1.9027499999999993 5.46175  C 1.990499999999999 5.572249999999999  2.0815 5.68275  2.175749999999999 5.7835  C 2.2439999999999998 5.855  2.312249999999999 5.923250000000001  2.383749999999999 5.9915  C 2.4812499999999993 6.089  2.581999999999999 6.183250000000001  2.686 6.271000000000001  C 2.76075 6.332750000000001  2.838749999999999 6.38475  2.913499999999999 6.4399999999999995  C 3.020749999999998 6.518000000000001  3.124749999999999 6.59925  3.235249999999999 6.664249999999999  C 3.2417499999999997 6.6675  3.2482499999999987 6.6739999999999995  3.2547499999999996 6.677250000000001  C 3.5927499999999988 6.87875  3.7974999999999977 7.23625  3.7974999999999977 7.6295  L 3.7974999999999977 8.074749999999998  C 3.7974999999999977 8.468  3.5894999999999975 8.825499999999998  3.2547499999999996 9.027  C 3.2482499999999987 9.03025  3.2417499999999997 9.03675  3.235249999999999 9.039999999999997  C 3.1247500000000006 9.108249999999998  3.0207499999999996 9.186249999999998  2.913499999999999 9.264249999999997  C 2.838749999999999 9.3195  2.760749999999998 9.3715  2.686 9.433249999999997  C 2.581999999999999 9.520999999999997  2.4845000000000006 9.615249999999996  2.383749999999999 9.712749999999998  C 2.3155 9.780999999999997  2.2439999999999998 9.845999999999998  2.1789999999999985 9.920749999999998  C 2.0847499999999997 10.024749999999997  1.9937499999999986 10.132  1.9059999999999988 10.245749999999997  C 1.8409999999999993 10.326999999999998  1.7792499999999976 10.411499999999997  1.7174999999999994 10.495999999999997  C 1.6362500000000004 10.612999999999996  1.5549999999999997 10.729999999999997  1.4802499999999998 10.853499999999997  C 1.4217499999999994 10.950999999999999  1.363249999999999 11.051749999999998  1.3079999999999998 11.152499999999996  C 1.2397500000000008 11.275999999999996  1.1715 11.402749999999997  1.10975 11.532749999999997  C 1.0545000000000009 11.649749999999994  1.0024999999999995 11.769999999999996  0.9537499999999994 11.893499999999996  C 0.9017499999999998 12.020249999999994  0.8465000000000007 12.146999999999995  0.7977499999999988 12.280249999999995  C 0.7457499999999992 12.426499999999994  0.7002500000000005 12.579249999999995  0.6547499999999999 12.731999999999996  C 0.6189999999999998 12.848999999999993  0.5799999999999983 12.962749999999996  0.550749999999999 13.082999999999995  C 0.48574999999999946 13.339749999999995  0.43374999999999986 13.602999999999994  0.39149999999999885 13.872749999999996  C 0.3882499999999993 13.895499999999995  0.3817499999999985 13.914999999999996  0.37849999999999895 13.937749999999994  C 0.27449999999999974 14.616999999999994  0.7944999999999993 15.234499999999993  1.4834999999999994 15.234499999999993  L 8.822 15.234499999999993  C 9.511 15.234499999999993  10.030999999999999 14.616999999999994  9.927 13.937749999999994  Z " fill-rule="nonzero" fill="#ffffff" stroke="none" transform="matrix(1 0 0 1 7 190 )" />
  </g>
</svg>