<?xml version="1.0" encoding="utf-8"?>
<svg version="1.1" xmlns:xlink="http://www.w3.org/1999/xlink" width="16px" height="8px" xmlns="http://www.w3.org/2000/svg">
  <g transform="matrix(1 0 0 1 -5 -159 )">
    <path d="M 11.697066666666668 7.390000000000001  C 11.908266666666668 7.167999999999999  12.052266666666666 7  12.135466666666666 6.885999999999999  C 12.237866666666665 6.741999999999997  12.295466666666664 6.622  12.305066666666665 6.513999999999999  C 12.317866666666665 6.406000000000002  12.301866666666664 6.310000000000002  12.257066666666667 6.228999999999999  C 12.212266666666665 6.151000000000003  12.154666666666666 6.088000000000001  12.087466666666668 6.049000000000003  C 12.020266666666664 6.010000000000002  11.953066666666667 5.986000000000004  11.892266666666668 5.974  C 11.831466666666666 5.962000000000003  11.761066666666666 5.962000000000003  11.690666666666667 5.9680000000000035  C 11.559466666666667 5.974  11.441066666666666 6.016000000000002  11.34506666666667 6.091000000000001  C 11.249066666666668 6.163000000000004  11.172266666666667 6.277000000000005  11.111466666666669 6.430000000000003  L 11.079466666666667 6.514000000000003  L 11.434666666666667 6.565000000000005  L 11.457066666666666 6.508000000000003  C 11.485866666666668 6.4360000000000035  11.524266666666666 6.385000000000002  11.575466666666667 6.349000000000004  C 11.626666666666665 6.313000000000006  11.681066666666668 6.295000000000005  11.738666666666665 6.289000000000005  C 11.786666666666664 6.286000000000005  11.828266666666666 6.295000000000005  11.866666666666667 6.322000000000006  C 11.905066666666665 6.352000000000004  11.92746666666667 6.385000000000005  11.933866666666665 6.427000000000007  C 11.940266666666666 6.475000000000005  11.92746666666667 6.535000000000004  11.895466666666668 6.607000000000006  C 11.85706666666667 6.685000000000002  11.773866666666667 6.802000000000007  11.642666666666669 6.952000000000005  C 11.511466666666669 7.105000000000004  11.39946666666667 7.216000000000005  11.31626666666667 7.288000000000004  C 11.213866666666668 7.375000000000007  11.156266666666669 7.474000000000007  11.146666666666668 7.585000000000008  L 11.146666666666668 7.699000000000005  L 12.33066666666667 7.699000000000005  L 12.33066666666667 7.390000000000001  L 11.697066666666668 7.390000000000001  Z M 14.036266666666666 7.177  C 14.036266666666666 7.071999999999999  14.004266666666668 6.981999999999999  13.946666666666669 6.904  C 13.914666666666669 6.861999999999998  13.869866666666667 6.82  13.812266666666668 6.789999999999999  C 13.882666666666667 6.736000000000001  13.92746666666667 6.669999999999998  13.953066666666667 6.594999999999999  C 13.991466666666664 6.480999999999998  13.991466666666664 6.381999999999998  13.959466666666666 6.291999999999998  C 13.92746666666667 6.207999999999998  13.869866666666667 6.135999999999999  13.793066666666668 6.0909999999999975  C 13.722666666666669 6.042999999999999  13.658666666666667 6.012999999999998  13.597866666666668 6.000999999999998  C 13.476266666666668 5.9709999999999965  13.313066666666668 5.9709999999999965  13.185066666666671 6.000999999999998  C 13.114666666666668 6.024999999999999  13.044266666666669 6.060999999999996  12.989866666666671 6.108999999999995  C 12.93866666666667 6.162999999999997  12.893866666666668 6.216999999999995  12.868266666666667 6.270999999999997  C 12.836266666666669 6.330999999999996  12.823466666666668 6.402999999999995  12.82986666666667 6.477999999999994  C 12.836266666666669 6.555999999999997  12.849066666666669 6.627999999999997  12.88106666666667 6.684999999999995  C 12.906666666666668 6.7209999999999965  12.932266666666669 6.756999999999998  12.977066666666671 6.792999999999996  C 12.919466666666672 6.834999999999994  12.874666666666672 6.876999999999995  12.842666666666673 6.930999999999997  C 12.797866666666671 7.0149999999999935  12.77226666666667 7.098999999999997  12.77226666666667 7.179999999999996  C 12.77226666666667 7.263999999999996  12.78506666666667 7.335999999999995  12.804266666666672 7.398999999999997  C 12.823466666666672 7.4709999999999965  12.86186666666667 7.530999999999995  12.919466666666668 7.581999999999997  C 12.977066666666667 7.6299999999999955  13.04746666666667 7.671999999999997  13.127466666666669 7.695999999999998  C 13.210666666666668 7.719999999999999  13.300266666666671 7.731999999999996  13.405866666666668 7.731999999999996  C 13.521066666666668 7.731999999999996  13.607466666666669 7.719999999999999  13.677866666666667 7.695999999999998  C 13.75466666666667 7.671999999999997  13.818666666666669 7.635999999999999  13.863466666666666 7.588000000000001  C 13.908266666666668 7.545999999999999  13.946666666666669 7.491999999999997  13.978666666666667 7.432000000000002  C 14.017066666666665 7.366  14.036266666666666 7.282  14.036266666666666 7.177  Z M 13.17866666666667 6.454000000000001  C 13.17866666666667 6.4090000000000025  13.191466666666667 6.376000000000001  13.223466666666669 6.34  C 13.249066666666666 6.310000000000002  13.300266666666667 6.292000000000002  13.377066666666668 6.292000000000002  C 13.389866666666668 6.292000000000002  13.396266666666667 6.286000000000001  13.409066666666668 6.286000000000001  C 13.473066666666666 6.286000000000001  13.524266666666666 6.298000000000002  13.55626666666667 6.321999999999999  C 13.581866666666667 6.34  13.613866666666668 6.364000000000001  13.613866666666668 6.436  C 13.620266666666664 6.495999999999999  13.601066666666668 6.5440000000000005  13.562666666666667 6.5859999999999985  C 13.530666666666669 6.622  13.473066666666666 6.640000000000001  13.396266666666667 6.640000000000001  C 13.319466666666669 6.640000000000001  13.268266666666667 6.622  13.236266666666669 6.5859999999999985  C 13.197866666666672 6.5440000000000005  13.17866666666667 6.5020000000000024  13.17866666666667 6.454000000000001  Z M 13.66506666666667 7.140999999999998  C 13.67466666666667 7.195  13.66186666666667 7.248999999999999  13.63626666666667 7.303000000000001  C 13.610666666666669 7.350999999999999  13.572266666666671 7.381  13.508266666666668 7.393000000000001  C 13.431466666666669 7.411000000000001  13.35466666666667 7.411000000000001  13.287466666666667 7.399000000000001  C 13.21706666666667 7.381  13.191466666666667 7.350999999999999  13.17866666666667 7.332999999999998  C 13.15306666666667 7.285  13.140266666666669 7.231000000000002  13.14666666666667 7.170999999999999  C 13.14666666666667 7.116999999999997  13.16586666666667 7.074999999999999  13.210666666666668 7.0390000000000015  C 13.25546666666667 7.003  13.313066666666668 6.978999999999999  13.38346666666667 6.972999999999999  L 13.402666666666672 6.972999999999999  C 13.46666666666667 6.972999999999999  13.524266666666673 6.991  13.57546666666667 7.021000000000001  C 13.633066666666673 7.056999999999999  13.65866666666667 7.098999999999997  13.66506666666667 7.140999999999998  Z M 15.713066666666661 6.973000000000006  C 15.71626666666666 6.796000000000003  15.709866666666661 6.637000000000004  15.684266666666668 6.493000000000002  C 15.652266666666666 6.349  15.588266666666664 6.225999999999999  15.489066666666668 6.124000000000002  C 15.386666666666663 6.016000000000002  15.261866666666666 5.9680000000000035  15.121066666666666 5.9680000000000035  C 14.980266666666664 5.9680000000000035  14.868266666666667 6.004000000000001  14.772266666666663 6.0760000000000005  C 14.676266666666663 6.142000000000003  14.605866666666664 6.231999999999999  14.557866666666662 6.337  C 14.513066666666665 6.439  14.487466666666664 6.573999999999998  14.474666666666668 6.748000000000001  C 14.468266666666667 6.916  14.481066666666663 7.051000000000002  14.500266666666665 7.152999999999999  C 14.519466666666665 7.254999999999999  14.557866666666662 7.3480000000000025  14.609066666666665 7.444000000000003  C 14.666666666666663 7.540000000000003  14.762666666666663 7.624000000000002  14.887466666666663 7.681000000000001  C 14.964266666666663 7.7109999999999985  15.041066666666666 7.728999999999999  15.114666666666661 7.728999999999999  C 15.178666666666663 7.728999999999999  15.236266666666666 7.717000000000002  15.30026666666666 7.693000000000001  C 15.434666666666661 7.645000000000003  15.533866666666661 7.555  15.60426666666666 7.432000000000002  C 15.66186666666666 7.312000000000005  15.70026666666666 7.1590000000000025  15.713066666666661 6.973000000000006  Z M 15.348266666666662 6.928000000000004  C 15.348266666666662 7.036000000000001  15.32906666666666 7.141000000000002  15.297066666666664 7.231000000000002  C 15.265066666666666 7.314999999999998  15.220266666666666 7.369  15.162666666666663 7.393000000000001  C 15.124266666666665 7.411000000000001  15.073066666666668 7.417000000000002  15.002666666666665 7.369  C 14.938666666666666 7.326999999999998  14.893866666666668 7.243000000000002  14.868266666666667 7.1320000000000014  C 14.836266666666665 7.0120000000000005  14.829866666666666 6.865000000000002  14.849066666666666 6.709000000000003  C 14.868266666666667 6.553000000000004  14.900266666666663 6.442  14.957866666666662 6.370000000000001  C 15.002666666666665 6.3160000000000025  15.053866666666666 6.286000000000001  15.111466666666665 6.286000000000001  L 15.117866666666664 6.286000000000001  C 15.149866666666663 6.286000000000001  15.201066666666664 6.298000000000002  15.252266666666662 6.376000000000001  C 15.297066666666664 6.442000000000004  15.322666666666665 6.526000000000003  15.335466666666662 6.607000000000003  C 15.341866666666663 6.703000000000003  15.348266666666662 6.808000000000003  15.348266666666662 6.928000000000004  Z M 2.7658666666666685 0.5230000000000032  C 2.727466666666669 0.4180000000000028  2.5706666666666687 0.4180000000000028  2.532266666666667 0.5169999999999995  L 1.0314666666666672 4.369  C 0.9898666666666676 4.474  1.127466666666667 4.561  1.2234666666666678 4.492000000000001  L 2.5738666666666687 3.5170000000000012  C 2.618666666666668 3.4840000000000018  2.6858666666666693 3.4840000000000018  2.7306666666666684 3.520000000000003  L 3.975466666666669 4.480000000000004  C 4.068266666666669 4.552000000000003  4.2090666666666685 4.4680000000000035  4.170666666666668 4.363000000000003  L 2.7658666666666685 0.5230000000000032  Z " fill-rule="nonzero" fill="#ffffff" stroke="none" transform="matrix(1 0 0 1 5 159 )" />
  </g>
</svg>