<?xml version="1.0" encoding="utf-8"?>
<svg version="1.1" xmlns:xlink="http://www.w3.org/1999/xlink" width="20px" height="23px" xmlns="http://www.w3.org/2000/svg">
  <g transform="matrix(1 0 0 1 -1 -149 )">
    <path d="M 17.623157894736842 20.52331818181818  L 17.60421052631579 20.52331818181818  C 17.54421052631579 20.526454545454545  17.48421052631579 20.53272727272727  17.42105263157895 20.53272727272727  C 15.605263157894738 20.53272727272727  14.07684210526316 19.328363636363637  13.593684210526318 17.681772727272726  L 9.835789473684214 15.037818181818183  L 9.832631578947371 15.034681818181816  C 9.643157894736845 15.35772727272727  9.403157894736845 15.64940909090909  9.122105263157897 15.897181818181817  L 9.122105263157897 22.565090909090912  L 17.822105263157894 22.565090909090912  C 18.56105263157895 22.565090909090912  19.2621052631579 22.402000000000005  19.89684210526316 22.12286363636364  L 17.623157894736842 20.52331818181818  Z M 4.372631578947368 5.572272727272727  L 4.372631578947368 0.4098181818181819  C 2.850526315789474 0.7516818181818185  1.5936842105263156 1.7772727272727276  0.9336842105263159 3.147863636363637  L 4.372631578947368 5.572272727272727  Z " fill-rule="nonzero" fill="#dfdcd6" stroke="none" transform="matrix(1 0 0 1 1 149 )" />
  </g>
</svg>