<?xml version="1.0" encoding="utf-8"?>
<svg version="1.1" xmlns:xlink="http://www.w3.org/1999/xlink" width="7px" height="3px" xmlns="http://www.w3.org/2000/svg">
  <g transform="matrix(1 0 0 1 -15 -163 )">
    <path d="M 6.913000000000004 2.578000000000003  L 6.888999999999999 2.392000000000003  L 6.888999999999999 2.386000000000003  C 6.847000000000001 2.206000000000003  6.792999999999999 2.0350000000000037  6.727 1.8670000000000009  C 6.721 1.8610000000000024  6.721 1.8490000000000002  6.715 1.8430000000000017  L 6.661000000000001 1.7170000000000023  C 6.583000000000002 1.549000000000003  6.487000000000002 1.3960000000000008  6.3820000000000014 1.240000000000002  L 6.3160000000000025 1.1560000000000041  L 6.3160000000000025 1.1500000000000057  L 6.208000000000002 1.1860000000000035  C 6.0340000000000025 1.2460000000000022  5.8629999999999995 1.2880000000000038  5.683000000000003 1.3240000000000052  C 5.509000000000004 1.3480000000000043  5.326000000000004 1.366000000000005  5.140000000000001 1.366000000000005  C 4.609000000000002 1.366000000000005  4.123000000000001 1.2520000000000042  3.6820000000000026 1.0270000000000046  L 3.616000000000003 0.991000000000005  L 3.5500000000000007 1.0300000000000047  C 3.532 1.0420000000000034  3.514000000000003 1.0480000000000054  3.490000000000002 1.060000000000004  C 3.4360000000000035 1.0840000000000032  3.382000000000005 1.108000000000004  3.328000000000003 1.1260000000000048  C 3.274000000000001 1.1560000000000041  3.2200000000000024 1.1740000000000048  3.1600000000000037 1.1920000000000055  C 2.8210000000000015 1.3120000000000047  2.458000000000002 1.3720000000000034  2.0770000000000017 1.3720000000000034  C 1.6720000000000041 1.3720000000000034  1.2790000000000035 1.3000000000000043  0.9100000000000019 1.1650000000000045  L 0.8080000000000034 1.1230000000000047  L 0.8020000000000032 1.1230000000000047  L 0.7360000000000024 1.2130000000000045  C 0.6760000000000037 1.291000000000004  0.6280000000000037 1.3750000000000053  0.5800000000000036 1.4500000000000028  C 0.5500000000000043 1.4980000000000047  0.5200000000000049 1.546000000000003  0.4960000000000058 1.5940000000000047  C 0.48400000000000537 1.6180000000000039  0.4720000000000049 1.642000000000003  0.4660000000000047 1.6600000000000037  C 0.4300000000000068 1.7200000000000024  0.4000000000000057 1.786000000000005  0.3760000000000048 1.8490000000000038  C 0.31600000000000605 1.9810000000000016  0.268000000000006 2.1220000000000034  0.23800000000000307 2.260000000000005  C 0.2200000000000024 2.308000000000007  0.21400000000000396 2.350000000000005  0.2020000000000053 2.398000000000007  L 0.2020000000000053 2.4160000000000075  L 0.16600000000000747 2.566000000000006  L 0.16600000000000747 2.578000000000003  L 6.913000000000004 2.578000000000003  Z M 0.5470000000000006 2.2720000000000056  L 0.5470000000000006 2.275000000000002  C 0.5589999999999993 2.2390000000000043  0.5710000000000015 2.1970000000000027  0.5829999999999984 2.1610000000000014  C 0.5949999999999989 2.1129999999999995  0.6129999999999995 2.0650000000000013  0.6369999999999987 2.017000000000003  C 0.6789999999999985 1.897000000000002  0.7389999999999972 1.7800000000000011  0.8049999999999997 1.6660000000000004  C 0.8409999999999975 1.6000000000000014  0.8829999999999992 1.5400000000000027  0.9249999999999988 1.477000000000002  C 1.2940000000000005 1.6030000000000015  1.6869999999999976 1.6660000000000004  2.0859999999999985 1.6660000000000004  C 2.575000000000003 1.6660000000000004  3.0310000000000024 1.5760000000000005  3.4540000000000006 1.3930000000000007  C 3.5080000000000027 1.381000000000002  3.5680000000000014 1.350999999999999  3.6220000000000003 1.327  C 3.795999999999999 1.4109999999999978  3.9730000000000025 1.4770000000000003  4.1590000000000025 1.522000000000002  L 4.1590000000000025 1.5280000000000005  C 4.474000000000004 1.618000000000002  4.807000000000002 1.6660000000000004  5.152000000000005 1.6660000000000004  C 5.254000000000005 1.6660000000000004  5.347000000000005 1.660000000000002  5.449000000000005 1.6540000000000035  C 5.710000000000004 1.6300000000000026  5.9680000000000035 1.5820000000000025  6.211000000000006 1.5100000000000016  C 6.355000000000004 1.7290000000000028  6.472000000000005 1.9690000000000012  6.544000000000004 2.2240000000000038  C 6.550000000000004 2.2420000000000044  6.5560000000000045 2.254000000000005  6.562000000000005 2.2720000000000056  L 0.5470000000000006 2.2720000000000056  Z " fill-rule="nonzero" fill="#eeeae5" stroke="none" transform="matrix(1 0 0 1 15 163 )" />
  </g>
</svg>