<?xml version="1.0" encoding="utf-8"?>
<svg version="1.1" xmlns:xlink="http://www.w3.org/1999/xlink" width="17px" height="17px" xmlns="http://www.w3.org/2000/svg">
  <g transform="matrix(1 0 0 1 -4 -228 )">
    <path d="M 8.354968749999998 13.317109374999998  C 8.451656249999997 13.251499999999998  8.575968749999998 13.251499999999998  8.67265625 13.317109374999998  L 13.379265625 16.459453125  C 13.600265625000002 16.6079375  13.886875 16.400749999999995  13.814359375000002 16.141765625  L 12.281171875000004 10.6961875  C 12.250093750000003 10.5856875  12.288078125000002 10.464828125  12.381312500000002 10.392312500000001  L 16.82203125 6.887390625  C 17.032671875000002 6.721640625  16.922171874999997 6.386687499999999  16.65628125 6.376328124999999  L 11.003515624999999 6.151874999999999  C 10.886109374999998 6.1484218749999995  10.78596875 6.072453124999999  10.74453125 5.965406249999999  L 8.78315625 0.6579531250000001  C 8.689921875 0.4093281250000001  8.337703124999999 0.4093281250000001  8.24446875 0.6579531250000001  L 6.283093749999999 5.965406249999999  C 6.241656249999999 6.072453125000001  6.1415156249999985 6.1484218749999995  6.024109374999998 6.151874999999999  L 0.37134374999999803 6.376328124999999  C 0.10545312499999865 6.386687499999999  -0.0050468750000014495 6.721640625  0.20559374999999835 6.887390625  L 4.646312499999997 10.392312500000001  C 4.7360937499999975 10.464828125  4.777531249999997 10.582234374999999  4.746453124999998 10.6961875  L 3.2132656249999982 16.141765625  C 3.1407499999999984 16.397296875  3.4273593749999978 16.604484375000002  3.648359374999998 16.459453125  L 8.354968749999998 13.317109374999998  Z " fill-rule="nonzero" fill="#f6def6" stroke="none" transform="matrix(1 0 0 1 4 228 )" />
  </g>
</svg>