<?xml version="1.0" encoding="utf-8"?>
<svg version="1.1" xmlns:xlink="http://www.w3.org/1999/xlink" width="6px" height="11px" xmlns="http://www.w3.org/2000/svg">
  <g transform="matrix(1 0 0 1 -9 -194 )">
    <path d="M 0.42274999999999885 9.817499999999999  C 0.2732500000000009 9.94425  0.3609999999999989 10.187999999999999  0.5592500000000005 10.187999999999999  L 5.743 10.187999999999999  C 5.937999999999999 10.187999999999999  6.029 9.941000000000003  5.876250000000002 9.817499999999999  L 3.490750000000002 7.958500000000001  C 3.4420000000000037 7.919500000000003  3.416000000000004 7.861000000000001  3.416000000000004 7.795999999999999  L 3.416000000000004 1.8127499999999994  C 3.416000000000004 1.7542500000000008  3.4420000000000037 1.6989999999999996  3.484250000000003 1.66  L 4.904500000000004 0.49324999999999974  C 5.044250000000005 0.36324999999999896  4.953250000000002 0.12924999999999898  4.761500000000005 0.12924999999999898  L 1.5374999999999996 0.12924999999999898  C 1.345749999999999 0.12924999999999898  1.2547499999999996 0.36324999999999896  1.394499999999999 0.49324999999999974  L 2.798499999999999 1.6534999999999995  C 2.840749999999998 1.6924999999999992  2.8667499999999997 1.7477499999999981  2.8667499999999997 1.8062499999999986  L 2.8667499999999997 7.789499999999997  C 2.8667499999999997 7.85125  2.8374999999999986 7.90975  2.791999999999998 7.951999999999998  L 0.42274999999999885 9.817499999999999  Z " fill-rule="nonzero" fill="#ff9429" stroke="none" transform="matrix(1 0 0 1 9 194 )" />
  </g>
</svg>