<?xml version="1.0" encoding="utf-8"?>
<svg version="1.1" xmlns:xlink="http://www.w3.org/1999/xlink" width="328px" height="49px" xmlns="http://www.w3.org/2000/svg">
  <defs>
    <linearGradient gradientUnits="userSpaceOnUse" x1="38.54756071640582" y1="561.2257920571167" x2="352.49415489255205" y2="599.7376171352075" id="LinearGradient884">
      <stop id="Stop885" stop-color="#ffffff" stop-opacity="0.17254901960784313" offset="0" />
      <stop id="Stop886" stop-color="#ffffff" stop-opacity="0.9921568627450981" offset="1" />
    </linearGradient>
    <filter x="31px" y="557px" width="328px" height="49px" filterUnits="userSpaceOnUse" id="filter887">
      <feOffset dx="0" dy="1" in="SourceAlpha" result="shadowOffsetInner" />
      <feGaussianBlur stdDeviation="2" in="shadowOffsetInner" result="shadowGaussian" />
      <feComposite in2="shadowGaussian" operator="atop" in="SourceAlpha" result="shadowComposite" />
      <feColorMatrix type="matrix" values="0 0 0 0 0  0 0 0 0 0  0 0 0 0 0  0 0 0 0.09803921568627451 0  " in="shadowComposite" />
    </filter>
    <g id="widget888">
      <path d="M 35.5 580.5  A 20 20 0 0 1 55.5 560.5 L 334.5 560.5  A 20 20 0 0 1 354.5 580.5 A 20 20 0 0 1 334.5 600.5 L 55.5 600.5  A 20 20 0 0 1 35.5 580.5 Z " fill-rule="nonzero" fill="#3048c2" stroke="none" />
      <path d="M 35.5 580.5  A 20 20 0 0 1 55.5 560.5 L 334.5 560.5  A 20 20 0 0 1 354.5 580.5 A 20 20 0 0 1 334.5 600.5 L 55.5 600.5  A 20 20 0 0 1 35.5 580.5 Z " stroke-width="1" stroke="url(#LinearGradient884)" fill="none" />
    </g>
  </defs>
  <g transform="matrix(1 0 0 1 -31 -557 )">
    <use xlink:href="#widget888" filter="url(#filter887)" />
    <use xlink:href="#widget888" />
  </g>
</svg>