<?xml version="1.0" encoding="utf-8"?>
<svg version="1.1" xmlns:xlink="http://www.w3.org/1999/xlink" width="8px" height="13px" xmlns="http://www.w3.org/2000/svg">
  <g transform="matrix(1 0 0 1 -60 -3 )">
    <path d="M 2.4380952366071407 12.4484848515625  C 2.2857142812499984 12.527272731889203  2.057142861607141 12.60606061221591  1.9047619062499999 12.60606061221591  C 1.6761904732142858 12.60606061221591  1.5238095312500002 12.527272731889203  1.3714285758928568 12.369696971235793  C 1.0666666651785712 12.054545449928977  1.1428571428571428 11.581818181818182  1.4476190535714284 11.266666660511364  L 6.323809517857144 6.696969698508522  C 6.476190473214287 6.539393937855112  6.552380950892859 6.381818177201704  6.552380950892859 6.224242430397727  C 6.552380950892859 6.066666669744317  6.476190473214287 5.909090909090908  6.323809517857144 5.7515151484375  L 1.3714285758928568 1.4181818135653406  C 1.0666666651785712 1.103030292258523  0.9904762008928572 0.6303030241477272  1.2952380982142853 0.3151515166903408  C 1.6000000089285713 0  2.0571428616071428 -0.07878787109375013  2.36190475892857 0.2363636363636363  L 7.238095236607141 4.569696971235795  C 7.695238089285714 4.963636359019886  7.999999999999998 5.593939401633522  7.999999999999998 6.224242430397727  C 7.999999999999998 6.85454545916193  7.771428566964283 7.406060607599432  7.314285714285712 7.878787875710228  L 2.4380952366071407 12.4484848515625  Z " fill-rule="nonzero" fill="#868992" stroke="none" transform="matrix(1 0 0 1 60 3 )" />
  </g>
</svg>