<?xml version="1.0" encoding="utf-8"?>
<svg version="1.1" xmlns:xlink="http://www.w3.org/1999/xlink" width="13px" height="13px" xmlns="http://www.w3.org/2000/svg">
  <g transform="matrix(1 0 0 1 -152 -643 )">
    <path d="M 0.9602272715250649 1.7296401479085284  L 0.9602272715250649 4.0378787902832025  C 0.9602272715250649 4.292839790513937  0.7535405432808638 4.499526518758138  0.49857954305013025 4.499526518758138  C 0.2436185428193967 4.499526518758138  0.03693181457519537 4.292839790513937  0.03693181457519537 4.0378787902832025  L 0.03693181457519537 1.7296401479085284  C 0.03693181457519537 0.7947831494970294  0.7947831494970294 0.03693181457519531  1.7296401479085284 0.03693181457519531  L 4.0378787902832025 0.03693181457519531  C 4.292839790513937 0.03693181457519537  4.499526518758138 0.2436185428193967  4.499526518758138 0.49857954305013025  C 4.499526518758138 0.7535405432808638  4.292839790513937 0.9602272715250649  4.0378787902832025 0.9602272715250649  L 1.7296401479085284 0.9602272715250649  C 1.304705149958496 0.9602272715250649  0.9602272715250649 1.304705149958496  0.9602272715250649 1.7296401479085284  Z M 1.7296401479085284 12.039772728474937  L 4.0378787902832025 12.039772728474933  C 4.292839790513937 12.039772728474933  4.499526518758138 12.246459456719135  4.499526518758138 12.501420456949868  C 4.499526518758138 12.756381457180602  4.292839790513937 12.963068185424802  4.0378787902832025 12.963068185424802  L 1.7296401479085284 12.963068185424804  C 0.7947831494970294 12.963068185424804  0.03693181457519531 12.20521685050297  0.03693181457519531 11.27035985209147  L 0.03693181457519531 8.962121209716797  C 0.03693181457519537 8.707160209486064  0.2436185428193967 8.500473481241862  0.49857954305013025 8.500473481241862  C 0.7535405432808638 8.500473481241862  0.9602272715250649 8.707160209486064  0.9602272715250649 8.962121209716797  L 0.9602272715250649 11.27035985209147  C 0.9602272715250649 11.695294850041503  1.304705149958496 12.039772728474933  1.7296401479085284 12.039772728474937  Z M 12.039772728474937 11.27035985209147  L 12.039772728474933 8.962121209716797  C 12.039772728474933 8.707160209486064  12.246459456719135 8.500473481241862  12.501420456949868 8.500473481241862  C 12.756381457180602 8.500473481241862  12.963068185424802 8.707160209486064  12.963068185424802 8.962121209716797  L 12.963068185424804 11.27035985209147  C 12.963068185424804 12.20521685050297  12.20521685050297 12.963068185424804  11.27035985209147 12.963068185424804  L 8.962121209716797 12.963068185424802  C 8.707160209486064 12.963068185424802  8.500473481241862 12.756381457180602  8.500473481241862 12.501420456949868  C 8.500473481241862 12.246459456719135  8.707160209486064 12.039772728474933  8.962121209716797 12.039772728474933  L 11.27035985209147 12.039772728474933  C 11.695294850041503 12.039772728474933  12.039772728474933 11.695294850041503  12.039772728474937 11.27035985209147  Z M 11.27035985209147 0.9602272715250649  L 8.962121209716797 0.9602272715250649  C 8.707160209486064 0.9602272715250649  8.500473481241862 0.7535405432808638  8.500473481241862 0.49857954305013025  C 8.500473481241862 0.2436185428193967  8.707160209486064 0.03693181457519537  8.962121209716797 0.03693181457519537  L 11.27035985209147 0.03693181457519537  C 12.20521685050297 0.03693181457519537  12.963068185424804 0.7947831494970294  12.963068185424804 1.7296401479085284  L 12.963068185424802 4.0378787902832025  C 12.963068185424802 4.292839790513937  12.756381457180602 4.499526518758138  12.501420456949868 4.499526518758138  C 12.246459456719135 4.499526518758138  12.039772728474933 4.292839790513937  12.039772728474937 4.0378787902832025  L 12.039772728474933 1.7296401479085284  C 12.039772728474933 1.3047051499584958  11.695294850041503 0.9602272715250649  11.27035985209147 0.9602272715250649  Z M 0.49857954305013036 6.038352271525064  C 0.49857954305013036 6.038352271525064  0.49857954305013036 6.038352271525064  0.49857954305013025 6  L 12.501420456949868 6  C 12.501420456949868 6.038352271525064  12.501420456949868 6.038352271525064  12.501420456949868 6.038352271525064  C 12.756381457180602 6.038352271525064  12.963068185424802 6.245038999769267  12.963068185424802 6.499999999999999  C 12.963068185424802 6.7549610002307325  12.756381457180602 6.961647728474935  12.501420456949868 6.961647728474935  C 12.501420456949868 6.961647728474935  12.501420456949868 6.961647728474935  12.50142045694987 7  L 0.49857954305013036 7  C 0.49857954305013036 6.961647728474935  0.49857954305013036 6.961647728474935  0.49857954305013036 6.961647728474935  C 0.2436185428193969 6.961647728474935  0.03693181457519555 6.7549610002307325  0.03693181457519555 6.499999999999999  C 0.03693181457519555 6.245038999769267  0.2436185428193969 6.038352271525064  0.49857954305013036 6.038352271525064  Z " fill-rule="nonzero" fill="#ffffff" stroke="none" fill-opacity="0.5450980392156862" transform="matrix(1 0 0 1 152 643 )" />
  </g>
</svg>