<?xml version="1.0" encoding="utf-8"?>
<svg version="1.1" xmlns:xlink="http://www.w3.org/1999/xlink" width="23px" height="27px" xmlns="http://www.w3.org/2000/svg">
  <defs>
    <linearGradient gradientUnits="userSpaceOnUse" x1="11.5" y1="0" x2="11.5" y2="27" id="LinearGradient878">
      <stop id="Stop879" stop-color="#3048c2" offset="0" />
      <stop id="Stop880" stop-color="#7e93ff" offset="1" />
    </linearGradient>
  </defs>
  <g transform="matrix(1 0 0 1 -341 -134 )">
    <path d="M 23 4.653921801242236  C 22.978549739368997 3.145902351375333  21.71402828532236 1.919265226264419  20.1601153909465 1.9192652262644192  L 18.2474426611797 1.9192652262644192  L 18.2474426611797 1.3099494676131325  C 18.2474426611797 0.6549720851818991  17.700135281207135 0.12393338065661075  17.02509229080933 0.12393338065661075  L 5.974128230452675 0.12393338065661075  C 5.299085240054869 0.12393338065661075  4.7517778600823055 0.6549720851818991  4.7517778600823055 1.3099494676131325  L 4.7517778600823055 1.9192652262644192  L 2.8391051303155006 1.9192652262644192  C 1.2848866392318246 1.9192652262644192  0.02067078189300407 3.1461988642413488  0 4.653921801242236  L 0 24.203914418811  C 0.02067075445816225 25.711933868677903  1.2851922085048006 26.938570993788815  2.8391051303155006 27  L 20.1601153909465 27  C 21.71433388203018 26.938570993788815  22.978549739368997 25.711637355811888  23 24.203914418811  L 23 4.653921801242236  Z M 7.196478573388202 3.3033459982253777  L 7.196478573388202 2.495965554569654  L 15.802741920438955 2.495965554569654  L 15.802741920438955 3.3033459982253777  L 7.196478573388202 3.3033459982253777  Z M 20.533849026063102 4.653921801242236  L 20.533849026063102 24.203914418811003  C 20.533849026063102 24.40405464063886  20.366081426611796 24.566538846495117  20.1601153909465 24.566538819875777  L 2.8391051303155006 24.566538819875777  C 2.632833497942387 24.566538819875777  2.465371495198902 24.403758101153503  2.465371495198902 24.203914418811003  L 2.465371495198902 4.653921801242236  C 2.465371495198902 4.453781579414375  2.6331390946502053 4.291297373558119  2.8391051303155006 4.291297400177463  L 4.7517778600823055 4.291297400177463  L 4.7517778600823055 4.489362085181899  C 4.7517778600823055 5.144339467613133  5.299085240054871 5.675378172138419  5.974128230452675 6  L 17.02509229080933 6  C 17.700135281207135 5.675378172138419  18.2474426611797 5.144339467613132  18.2474426611797 4.489362085181899  L 18.2474426611797 4.291297400177463  L 20.1601153909465 4.291297400177463  C 20.366387023319618 4.291297400177463  20.533849026063102 4.454078118899733  20.533849026063102 4.653921801242236  Z M 17.367961563786007 8  C 18.043004554183817 8.007678793256433  18.59031193415638 8.53871749778172  18.590311934156382 9.193694880212956  C 18.590311934156382 9.84867226264419  18.043004554183817 10.379710967169476  17.36796156378601 10.379710940550133  L 5.631258930041152 10.379710940550133  C 4.9562159396433465 10.379710940550133  4.408908559670781 9.848672236024846  4.408908587105624 9.193694880212956  C 4.408908614540466 8.538717524401065  4.956215967078189 8.007678793256433  5.631258930041152 8  L 17.367961563786007 8  Z M 17.367961563786007 13  C 18.043004554183817 13.154099068322981  18.59031193415638 13.685137772848268  18.590311934156382 14.340115155279504  C 18.590311934156382 14.995092537710736  18.043004554183817 15.526131242236023  17.36796156378601 15  L 5.631258930041152 15  C 4.9562159396433465 15.526131242236023  4.408908559670781 14.995092537710736  4.408908587105624 14.340115155279504  C 4.408908614540466 13.685137772848268  4.956215967078189 13.154099068322981  5.631258930041152 13  L 17.367961563786007 13  Z M 17.367961563786007 18  C 18.043004554183817 18.300519370008875  18.59031193415638 18.831558074534158  18.590311934156382 19.486535456965395  C 18.590311934156382 20.14151283939663  18.043004554183817 20.672551543921912  17.36796156378601 20.67255151730257  L 5.631258930041152 20.67255151730257  C 4.9562159396433465 20.67255151730257  4.408908559670781 20.141512812777286  4.408908587105624 19.486535456965395  C 4.408908614540466 18.8315581011535  4.956215967078189 18.300519370008875  5.631258930041152 18  L 17.367961563786007 18  Z " fill-rule="nonzero" fill="url(#LinearGradient878)" stroke="none" transform="matrix(1 0 0 1 341 134 )" />
  </g>
</svg>