<?xml version="1.0" encoding="utf-8"?>
<svg version="1.1" xmlns:xlink="http://www.w3.org/1999/xlink" width="366px" height="48px" xmlns="http://www.w3.org/2000/svg">
  <defs>
    <linearGradient gradientUnits="userSpaceOnUse" x1="19.968833551479015" y1="630.19589468987" x2="371.1965857860426" y2="667.768406961178" id="LinearGradient873">
      <stop id="Stop874" stop-color="#ffffff" stop-opacity="0.17254901960784313" offset="0" />
      <stop id="Stop875" stop-color="#ffffff" stop-opacity="0.9921568627450981" offset="1" />
    </linearGradient>
    <filter x="12px" y="626px" width="366px" height="48px" filterUnits="userSpaceOnUse" id="filter876">
      <feOffset dx="0" dy="1" in="SourceAlpha" result="shadowOffsetInner" />
      <feGaussianBlur stdDeviation="2" in="shadowOffsetInner" result="shadowGaussian" />
      <feComposite in2="shadowGaussian" operator="atop" in="SourceAlpha" result="shadowComposite" />
      <feColorMatrix type="matrix" values="0 0 0 0 0  0 0 0 0 0  0 0 0 0 0  0 0 0 0.09803921568627451 0  " in="shadowComposite" />
    </filter>
    <g id="widget877">
      <path d="M 16.5 649  A 19.5 19.5 0 0 1 36 629.5 L 354 629.5  A 19.5 19.5 0 0 1 373.5 649 A 19.5 19.5 0 0 1 354 668.5 L 36 668.5  A 19.5 19.5 0 0 1 16.5 649 Z " fill-rule="nonzero" fill="#5873ff" stroke="none" />
      <path d="M 16.5 649  A 19.5 19.5 0 0 1 36 629.5 L 354 629.5  A 19.5 19.5 0 0 1 373.5 649 A 19.5 19.5 0 0 1 354 668.5 L 36 668.5  A 19.5 19.5 0 0 1 16.5 649 Z " stroke-width="1" stroke="url(#LinearGradient873)" fill="none" />
    </g>
  </defs>
  <g transform="matrix(1 0 0 1 -12 -626 )">
    <use xlink:href="#widget877" filter="url(#filter876)" />
    <use xlink:href="#widget877" />
  </g>
</svg>