<?xml version="1.0" encoding="utf-8"?>
<svg version="1.1" xmlns:xlink="http://www.w3.org/1999/xlink" width="12px" height="12px" xmlns="http://www.w3.org/2000/svg">
  <defs>
    <linearGradient gradientUnits="userSpaceOnUse" x1="3" y1="0" x2="3" y2="6" id="LinearGradient980">
      <stop id="Stop981" stop-color="#3048c2" offset="0" />
      <stop id="Stop982" stop-color="#7e93ff" offset="1" />
    </linearGradient>
    <filter x="51px" y="157px" width="12px" height="12px" filterUnits="userSpaceOnUse" id="filter983">
      <feOffset dx="1" dy="1" in="SourceAlpha" result="shadowOffsetInner" />
      <feGaussianBlur stdDeviation="1.5" in="shadowOffsetInner" result="shadowGaussian" />
      <feComposite in2="shadowGaussian" operator="atop" in="SourceAlpha" result="shadowComposite" />
      <feColorMatrix type="matrix" values="0 0 0 0 0  0 0 0 0 0  0 0 0 0 0  0 0 0 0.3137254901960784 0  " in="shadowComposite" />
    </filter>
    <g id="widget984">
      <path d="M 0.34097331792091906 1.6351648278061233  C -0.02673337701167834 1.267347073828582  -0.02673337701167834 0.6711144535948903  0.34097331792091906 0.30329669961734884  C 0.708791071898457 -0.0644099953152486  1.305023692132152 -0.0644099953152486  1.6728414461096937 0.30329669961734884  L 5.668445830676017 4.29890110809949  C 5.852215748834997 4.47639217705323  5.956001164673004 4.720920678174643  5.956001164673004 4.9764093518541275  C 5.956001164673004 5.496614762627174  5.53429135701493 5.91832457028525  5.01408594624188 5.91832457028525  C 4.758597272562399 5.91832457028525  4.514068771440982 5.814539154447244  4.336577702487243 5.630769236288264  L 0.34097331792091906 1.6351648278061233  Z M 0.34097331792091906 1.6351648278061233  C 0.708791071898457 2.0028715227387206  1.305023692132152 2.0028715227387206  1.6728414461096937 1.6351648278061233  C 2.0405481410422874 1.267347073828582  2.0405481410422874 0.6711144535948903  1.6728414461096937 0.30329669961734884  L 5.668445830676017 4.29890110809949  C 5.4909547617222785 4.115131189940507  5.246426260600861 4.011345774102507  4.990937586921384 4.011345774102507  C 4.470732176148333 4.011345774102507  4.0490223684902595 4.433055581760581  4.0490223684902595 4.953260992533627  C 4.0490223684902595 5.208749666213108  4.152807784328263 5.453278167334526  4.336577702487243 5.630769236288264  L 0.34097331792091906 1.6351648278061233  Z " fill-rule="nonzero" fill="url(#LinearGradient980)" stroke="none" transform="matrix(1 0 0 1 53 159 )" />
    </g>
  </defs>
  <g transform="matrix(1 0 0 1 -51 -157 )">
    <use xlink:href="#widget984" filter="url(#filter983)" />
    <use xlink:href="#widget984" />
  </g>
</svg>