<?xml version="1.0" encoding="utf-8"?>
<svg version="1.1" xmlns:xlink="http://www.w3.org/1999/xlink" width="14px" height="14px" xmlns="http://www.w3.org/2000/svg">
  <defs>
    <linearGradient gradientUnits="userSpaceOnUse" x1="7" y1="0" x2="7" y2="14" id="LinearGradient922">
      <stop id="Stop923" stop-color="#3048c2" offset="0" />
      <stop id="Stop924" stop-color="#7e93ff" offset="1" />
    </linearGradient>
  </defs>
  <g transform="matrix(1 0 0 1 -18 -756 )">
    <path d="M 14 7  C 14 10.860117187499997  10.860089843750002 14  7 14  C 3.1404296874999997 14  0 10.8601171875  0 7  C 0 3.140470703125  3.1404296874999997 0  7 0  C 10.860089843750002 0  14 3.13991015625  14 7  Z M 7 1.0044453124999995  C 3.6938808593750005 1.0044453124999995  1.0044316406249998 3.6938808593749988  1.0044316406249998 7.000013671874999  C 1.0044316406249998 10.305667968749999  3.6938808593749997 12.995568359375  6.999986328125 12.995568359375  C 10.305654296875 12.995568359375  12.995568359375 10.306119140625  12.995568359375 7.000013671874999  C 12.995568359375 3.6938808593749997  10.305654296874998 1.0044453124999995  6.999986328125 1.0044453124999995  Z M 6.2466796874999995 3.7355664062500002  C 6.2466796874999995 3.538322265625  6.327849609375 3.3423085937500003  6.467316406249999 3.202896484375  C 6.606796875 3.0634433593750003  6.802742187499999 2.9821914062500006  6.999986328125 2.9821914062500006  C 7.1972578125 2.9821914062500006  7.393189453125 3.0634296875000007  7.53268359375 3.202896484375  C 7.67213671875 3.3423085937500003  7.753306640624999 3.538322265625  7.753306640624999 3.7355664062500002  C 7.753306640624999 3.9327558593750003  7.672150390624998 4.128769531250001  7.53268359375 4.268263671875  C 7.393203124999999 4.407716796875  7.1972578125 4.488886718750002  6.999986328125 4.488886718750002  C 6.802742187499999 4.488886718750002  6.606796875 4.4077304687500005  6.467330078125 4.268263671875  C 6.327849609375 4.128769531250001  6.2466933593750005 3.9327558593750003  6.2466933593750005 3.7355664062500002  Z M 7 11.017822265625  C 6.722734375 11.017822265625  6.49775 10.793275390625  6.49775 10.51555859375  L 6.49775 5.99558203125  C 6.49775 5.7183164062500005  6.722748046875 5.4933183593749995  6.999986328125001 5.4933183593749995  C 7.277251953125 5.4933183593749995  7.50225 5.71831640625  7.50225 5.99558203125  L 7.50225 10.515558593749999  C 7.50225 10.793275390624999  7.277251953125 11.017822265624998  6.999986328125 11.017822265624998  Z " fill-rule="nonzero" fill="url(#LinearGradient922)" stroke="none" transform="matrix(1 0 0 1 18 756 )" />
  </g>
</svg>