<?xml version="1.0" encoding="utf-8"?>
<svg version="1.1" xmlns:xlink="http://www.w3.org/1999/xlink" width="20px" height="20px" xmlns="http://www.w3.org/2000/svg">
  <defs>
    <linearGradient gradientUnits="userSpaceOnUse" x1="6" y1="0" x2="6" y2="12" id="LinearGradient930">
      <stop id="Stop931" stop-color="#3048c2" offset="0" />
      <stop id="Stop932" stop-color="#7e93ff" offset="1" />
    </linearGradient>
    <filter x="355px" y="60px" width="20px" height="20px" filterUnits="userSpaceOnUse" id="filter933">
      <feOffset dx="0" dy="1" in="SourceAlpha" result="shadowOffsetInner" />
      <feGaussianBlur stdDeviation="2" in="shadowOffsetInner" result="shadowGaussian" />
      <feComposite in2="shadowGaussian" operator="atop" in="SourceAlpha" result="shadowComposite" />
      <feColorMatrix type="matrix" values="0 0 0 0 0  0 0 0 0 0  0 0 0 0 0  0 0 0 0.09803921568627451 0  " in="shadowComposite" />
    </filter>
    <g id="widget934">
      <path d="M 1.5520149887242272 11.640112475837627  C 1.3936353215754775 11.797822722561472  1.1794596140162759 11.886725846126351  0.9559512564432981 11.88753515625  C 0.732442898870324 11.886725846126351  0.5182671913111224 11.797822722561472  0.35988752416236935 11.640112475837627  C 0.20054054196127674 11.482698857534732  0.11085601258631747 11.268036484211859  0.11085601258631747 11.044048743556697  C 0.11085601258631747 10.820061002901536  0.20054054196127846 10.605398629578664  0.35988752416237113 10.44798501127577  L 10.48172445231959 0.3261480831185551  C 10.637858489955327 0.18066086090368116  10.843336686544678 0.09976563223048877  11.056747955076213 0.09976563223048877  C 11.522592637496205 0.09976563223048877  11.90023436776951 0.4774073625037955  11.90023436776951 0.943252044923788  C 11.90023436776951 1.1566633134553213  11.819339139096316 1.362141510044673  11.673851916881445 1.5182755476804115  L 1.5520149887242272 11.640112475837627  Z " fill-rule="nonzero" fill="url(#LinearGradient930)" stroke="none" transform="matrix(1 0 0 1 359 63 )" />
    </g>
  </defs>
  <g transform="matrix(1 0 0 1 -355 -60 )">
    <use xlink:href="#widget934" filter="url(#filter933)" />
    <use xlink:href="#widget934" />
  </g>
</svg>