<?xml version="1.0" encoding="utf-8"?>
<svg version="1.1" xmlns:xlink="http://www.w3.org/1999/xlink" width="29px" height="29px" xmlns="http://www.w3.org/2000/svg">
  <defs>
    <linearGradient gradientUnits="userSpaceOnUse" x1="10.5" y1="0" x2="10.5" y2="21" id="LinearGradient925">
      <stop id="Stop926" stop-color="#3048c2" offset="0" />
      <stop id="Stop927" stop-color="#7e93ff" offset="1" />
    </linearGradient>
    <filter x="346px" y="60px" width="29px" height="29px" filterUnits="userSpaceOnUse" id="filter928">
      <feOffset dx="0" dy="1" in="SourceAlpha" result="shadowOffsetInner" />
      <feGaussianBlur stdDeviation="2" in="shadowOffsetInner" result="shadowGaussian" />
      <feComposite in2="shadowGaussian" operator="atop" in="SourceAlpha" result="shadowComposite" />
      <feColorMatrix type="matrix" values="0 0 0 0 0  0 0 0 0 0  0 0 0 0 0  0 0 0 0.09803921568627451 0  " in="shadowComposite" />
    </filter>
    <g id="widget929">
      <path d="M 20.92319748787715 16.80877743803879  C 20.920175413904 19.07985592409405  19.07985592409405 20.920175413904005  16.80877743803879 21  L 4.191222561961205 21  C 1.9201440759059365 20.920175413904005  0.07982458609599098 19.07985592409406  0 16.80877743803879  L 0 4.191222561961205  C 0.07982458609599098 1.9201440759059385  1.9201440759059407 0.07982458609599034  4.191222561961207 0.07680251212284475  L 10.499999999999998 0.07680251212284432  C 10.954466279926542 0.07680251212284432  11.322884002420182 0.4452202346164869  11.322884002420182 0.8996865268049561  C 11.322884002420182 1.354152818993426  10.954466279926542 1.7225705414870678  10.499999987738072 1.7225705414870678  L 4.191222561961206 1.7225705414870678  C 2.8290753204484727 1.725587499408252  1.725587499408252 2.8290753204484727  2 4.191222561961207  L 2 16.80877743803879  C 1.7255874994082512 18.170924679551526  2.8290753204484727 19.274412500591747  4.191222561961206 19  L 16.80877743803879 19  C 18.170924679551522 19.274412500591747  19.274412500591744 18.170924679551526  19.27742945851293 16.808777438038796  L 19.277429458512927 10.499999999999998  C 19.277429458512927 10.04553370781153  19.64584718100657 9.677115985317887  20.10031347319504 9.677115985317887  C 20.554779765383508 9.677115985317887  20.92319748787715 10.04553370781153  20.92319748787715 10.499999999999998  L 20.92319748787715 16.80877743803879  Z " fill-rule="nonzero" fill="url(#LinearGradient925)" stroke="none" transform="matrix(1 0 0 1 350 63 )" />
    </g>
  </defs>
  <g transform="matrix(1 0 0 1 -346 -60 )">
    <use xlink:href="#widget929" filter="url(#filter928)" />
    <use xlink:href="#widget929" />
  </g>
</svg>