<?xml version="1.0" encoding="utf-8"?>
<svg version="1.1" xmlns:xlink="http://www.w3.org/1999/xlink" width="15px" height="19px" xmlns="http://www.w3.org/2000/svg">
  <defs>
    <filter x="352px" y="396px" width="15px" height="19px" filterUnits="userSpaceOnUse" id="filter859">
      <feOffset dx="0" dy="1" in="SourceAlpha" result="shadowOffsetInner" />
      <feGaussianBlur stdDeviation="2" in="shadowOffsetInner" result="shadowGaussian" />
      <feComposite in2="shadowGaussian" operator="atop" in="SourceAlpha" result="shadowComposite" />
      <feColorMatrix type="matrix" values="0 0 0 0 0  0 0 0 0 0  0 0 0 0 0  0 0 0 0.09803921568627451 0  " in="shadowComposite" />
    </filter>
    <g id="widget860">
      <path d="M 2.133333332031248 10.533333335937499  C 1.9999999960937487 10.60000000390625  1.8000000039062485 10.666666671875  1.6666666679687498 10.666666671875  C 1.4666666640625001 10.666666671875  1.3333333398437501 10.60000000390625  1.2000000039062497 10.466666667968749  C 0.9333333320312498 10.19999999609375  1 9.8  1.266666671875 9.533333328125  L 5.533333328125001 5.66666666796875  C 5.666666664062501 5.533333332031249  5.733333332031251 5.39999999609375  5.733333332031251 5.266666671874999  C 5.733333332031251 5.133333335937499  5.666666664062501 4.999999999999999  5.533333328125001 4.8666666640625  L 1.2000000039062497 1.1999999960937497  C 0.9333333320312498 0.93333332421875  0.86666667578125 0.5333333281249999  1.1333333359374995 0.26666666796874994  C 1.4000000078125 0  1.8000000039062498 -0.06666666015625011  2.066666664062499 0.19999999999999996  L 6.333333332031248 3.8666666679687496  C 6.733333328124999 4.19999999609375  6.999999999999998 4.73333333984375  6.999999999999998 5.266666671874999  C 6.999999999999998 5.800000003906248  6.799999996093748 6.2666666679687495  6.399999999999999 6.6666666640625  L 2.133333332031248 10.533333335937499  Z " fill-rule="nonzero" fill="#868992" stroke="none" transform="matrix(1 0 0 1 356 399 )" />
    </g>
  </defs>
  <g transform="matrix(1 0 0 1 -352 -396 )">
    <use xlink:href="#widget860" filter="url(#filter859)" />
    <use xlink:href="#widget860" />
  </g>
</svg>