<?xml version="1.0" encoding="utf-8"?>
<svg version="1.1" xmlns:xlink="http://www.w3.org/1999/xlink" width="892px" height="501px" xmlns="http://www.w3.org/2000/svg">
  <defs>
    <mask fill="white" id="clip671">
      <path d="M 0 490.01098901098896  L 0 0.3406593406609204  L 441.310861423221 274.59550561797755  L 881.7582417582416 0.3406593406609204  L 881.7582417582416 490.01098901098896  L 0 490.01098901098896  Z " fill-rule="evenodd" />
    </mask>
    <filter x="543px" y="295px" width="892px" height="501px" filterUnits="userSpaceOnUse" id="filter672">
      <feOffset dx="5" dy="5" in="SourceAlpha" result="shadowOffsetInner" />
      <feGaussianBlur stdDeviation="2.5" in="shadowOffsetInner" result="shadowGaussian" />
      <feComposite in2="shadowGaussian" operator="atop" in="SourceAlpha" result="shadowComposite" />
      <feColorMatrix type="matrix" values="0 0 0 0 0  0 0 0 0 0  0 0 0 0 0  0 0 0 0.34901960784313724 0  " in="shadowComposite" />
    </filter>
    <g id="widget673">
      <path d="M 0 490.01098901098896  L 0 0.3406593406609204  L 441.310861423221 274.59550561797755  L 881.7582417582416 0.3406593406609204  L 881.7582417582416 490.01098901098896  L 0 490.01098901098896  Z " fill-rule="nonzero" fill="#ffffff" stroke="none" transform="matrix(1 0 0 1 543 295 )" />
      <path d="M 0 490.01098901098896  L 0 0.3406593406609204  L 441.310861423221 274.59550561797755  L 881.7582417582416 0.3406593406609204  L 881.7582417582416 490.01098901098896  L 0 490.01098901098896  Z " stroke-width="2" stroke="#797979" fill="none" transform="matrix(1 0 0 1 543 295 )" mask="url(#clip671)" />
    </g>
  </defs>
  <g transform="matrix(1 0 0 1 -543 -295 )">
    <use xlink:href="#widget673" filter="url(#filter672)" />
    <use xlink:href="#widget673" />
  </g>
</svg>