<?xml version="1.0" encoding="utf-8"?>
<svg version="1.1" xmlns:xlink="http://www.w3.org/1999/xlink" width="252px" height="186px" xmlns="http://www.w3.org/2000/svg">
  <defs>
    <linearGradient gradientUnits="userSpaceOnUse" x1="146" y1="192" x2="16" y2="128" id="LinearGradient985">
      <stop id="Stop986" stop-color="#ffffff" stop-opacity="0.17254901960784313" offset="0" />
      <stop id="Stop987" stop-color="#ffffff" stop-opacity="0.9921568627450981" offset="1" />
    </linearGradient>
    <filter x="-36px" y="76px" width="252px" height="186px" filterUnits="userSpaceOnUse" id="filter988">
      <feOffset dx="9" dy="9" in="SourceAlpha" result="shadowOffsetInner" />
      <feGaussianBlur stdDeviation="30.5" in="shadowOffsetInner" result="shadowGaussian" />
      <feComposite in2="shadowGaussian" operator="atop" in="SourceAlpha" result="shadowComposite" />
      <feColorMatrix type="matrix" values="0 0 0 0 0  0 0 0 0 0  0 0 0 0 0  0 0 0 0.34901960784313724 0  " in="shadowComposite" />
    </filter>
    <g id="widget989">
      <path d="M 16.5 136  A 7.5 7.5 0 0 1 24 128.5 L 138 128.5  A 7.5 7.5 0 0 1 145.5 136 L 145.5 184  A 7.5 7.5 0 0 1 138 191.5 L 24 191.5  A 7.5 7.5 0 0 1 16.5 184 L 16.5 136  Z " fill-rule="nonzero" fill="#ffffff" stroke="none" fill-opacity="0.6" />
      <path d="M 16.5 136  A 7.5 7.5 0 0 1 24 128.5 L 138 128.5  A 7.5 7.5 0 0 1 145.5 136 L 145.5 184  A 7.5 7.5 0 0 1 138 191.5 L 24 191.5  A 7.5 7.5 0 0 1 16.5 184 L 16.5 136  Z " stroke-width="1" stroke="url(#LinearGradient985)" fill="none" />
    </g>
  </defs>
  <g transform="matrix(1 0 0 1 36 -76 )">
    <use xlink:href="#widget989" filter="url(#filter988)" />
    <use xlink:href="#widget989" />
  </g>
</svg>