<?xml version="1.0" encoding="utf-8"?>
<svg version="1.1" xmlns:xlink="http://www.w3.org/1999/xlink" width="38px" height="27px" xmlns="http://www.w3.org/2000/svg">
  <defs>
    <linearGradient gradientUnits="userSpaceOnUse" x1="0" y1="0" x2="38" y2="26.195294117645822" id="LinearGradient993">
      <stop id="Stop994" stop-color="#ffffff" stop-opacity="0.2901960784313726" offset="0" />
      <stop id="Stop995" stop-color="#e9efff" offset="0.41" />
      <stop id="Stop996" stop-color="#ffffff" offset="1" />
    </linearGradient>
  </defs>
  <g transform="matrix(1 0 0 1 -24 -152 )">
    <path d="M 7.216380965457598 9.327600013007814  C 3.266190463113839 10.126800013007811  0.2533333202566964 13.58999998699219  0.2533333202566964 17.78579998699219  C 0.2533333202566964 22.514399973984375  4.069619034542411 26.310599973984374  8.823238108314733 26  L 29.109809536886164 26  C 33.86342857142857 26.310600013007814  37.67971428571429 22.514400013007815  37.67971428571429 17.78579998699219  C 37.67971428571429 14.18939998699219  35.4033333202567 11.059200000000002  32.18961903454242 9.79379998699219  L 32.18961903454242 9.593999986992186  C 32.18961903454242 4.6656  28.17247617739956 0.6696000000000011  23.218000000000007 0.6696000000000011  C 20.071238108314738 0.6696000000000011  17.32619046311385 2.268  15.719333320256705 4.6656  C 14.848952354799117 4.0661999999999985  13.777714285714294 3.733200013007813  12.706476177399562 3.733200013007813  C 9.69361903454242 3.733200013007813  7.216380926227688 6.197400026015624  7.216380965457598 9.19439998699219  L 7.216380965457598 9.327600013007814  Z " fill-rule="nonzero" fill="url(#LinearGradient993)" stroke="none" transform="matrix(1 0 0 1 24 152 )" />
  </g>
</svg>