<?xml version="1.0" encoding="utf-8"?>
<svg version="1.1" xmlns:xlink="http://www.w3.org/1999/xlink" width="23px" height="19px" xmlns="http://www.w3.org/2000/svg">
  <defs>
    <linearGradient gradientUnits="userSpaceOnUse" x1="-5.10702591327572E-15" y1="0" x2="23" y2="19" id="LinearGradient990">
      <stop id="Stop991" stop-color="#ffeba3" offset="0" />
      <stop id="Stop992" stop-color="#ff9a00" offset="1" />
    </linearGradient>
  </defs>
  <g transform="matrix(1 0 0 1 -24 -144 )">
    <path d="M 1.741428571428576 18.165490182617187  C 2.8896031614118356 17.200588235294116  3.9026983995070728 16.373529411764704  5.456111124302455 16.097843123793663  L 5.658730171921504 15.96  C 6.131507962890626 12.513921582088695  8.360317486700149 10.239509817382812  11.804841256649926 9.825980405618106  C 13.08809523809524 9.688137281824446  14.236269828078498 9.894901987706799  15.587063505254838 10.377352941176468  C 17.208015886207217 7.896176470588233  19.77452380952381 6.58666665320542  22.813809523809525 6.242058823529409  C 20.65253969573103 2.933823529411762  16.937857142857144 0.7283333467945745  12.750396838588175 0.7283333467945745  C 6.063968267159603 0.7283333467945745  0.6607936771763437 6.242058823529409  0.660793637602311 13.065294117647056  C 0.660793637602311 14.857254888499536  1.0660317328404065 16.580294117647057  1.741428571428576 18.165490182617187  Z " fill-rule="nonzero" fill="url(#LinearGradient990)" stroke="none" transform="matrix(1 0 0 1 24 144 )" />
  </g>
</svg>