<?xml version="1.0" encoding="utf-8"?>
<svg version="1.1" xmlns:xlink="http://www.w3.org/1999/xlink" width="28px" height="28px" xmlns="http://www.w3.org/2000/svg">
  <defs>
    <linearGradient gradientUnits="userSpaceOnUse" x1="350.2660670537304" y1="560.7175368139219" x2="373.8120616169414" y2="583.2610441767068" id="LinearGradient997">
      <stop id="Stop998" stop-color="#ffffff" stop-opacity="0.17254901960784313" offset="0" />
      <stop id="Stop999" stop-color="#ffffff" stop-opacity="0.9921568627450981" offset="1" />
    </linearGradient>
    <filter x="349px" y="558px" width="28px" height="28px" filterUnits="userSpaceOnUse" id="filter1000">
      <feOffset dx="1" dy="0" in="SourceAlpha" result="shadowOffsetInner" />
      <feGaussianBlur stdDeviation="1" in="shadowOffsetInner" result="shadowGaussian" />
      <feComposite in2="shadowGaussian" operator="atop" in="SourceAlpha" result="shadowComposite" />
      <feColorMatrix type="matrix" values="0 0 0 0 0  0 0 0 0 0  0 0 0 0 0  0 0 0 0.34901960784313724 0  " in="shadowComposite" />
    </filter>
    <g id="widget1001">
      <path d="M 362 560  C 368.72 560  374 565.28  374 572  C 374 578.72  368.72 584  362 584  C 355.28 584  350 578.72  350 572  C 350 565.28  355.28 560  362 560  Z " fill-rule="nonzero" fill="#ffffff" stroke="none" fill-opacity="0.6" />
      <path d="M 362 560.5  C 368.44 560.5  373.5 565.56  373.5 572  C 373.5 578.44  368.44 583.5  362 583.5  C 355.56 583.5  350.5 578.44  350.5 572  C 350.5 565.56  355.56 560.5  362 560.5  Z " stroke-width="1" stroke="url(#LinearGradient997)" fill="none" />
    </g>
  </defs>
  <g transform="matrix(1 0 0 1 -349 -558 )">
    <use xlink:href="#widget1001" filter="url(#filter1000)" />
    <use xlink:href="#widget1001" />
  </g>
</svg>