<?xml version="1.0" encoding="utf-8"?>
<svg version="1.1" xmlns:xlink="http://www.w3.org/1999/xlink" width="11px" height="14px" xmlns="http://www.w3.org/2000/svg">
  <defs>
    <linearGradient gradientUnits="userSpaceOnUse" x1="5.5" y1="0" x2="5.5" y2="14" id="LinearGradient1011">
      <stop id="Stop1012" stop-color="#3048c2" offset="0" />
      <stop id="Stop1013" stop-color="#7e93ff" offset="1" />
    </linearGradient>
  </defs>
  <g transform="matrix(1 0 0 1 -357 -603 )">
    <path d="M 7.938333345998627 0.22995800140557066  C 7.933055536148252 0.22995800140557066  7.927777735581852 0.22997200098629733  7.922500000000001 0.23000000000000043  C 6.405840248848513 0.23172710129260388  5.130291532856926 1.367815826993172  4.953749999999999 2.8741666728515636  C 4.949450947547302 2.9242134043309846  4.949450947547302 2.974536595669017  4.953749999999999 3.024583327148439  L 4.953749999999998 10.458333327148438  C 4.953749999999998 11.450835048031438  4.149168384457216 12.255416663574218  3.1566666635742173 12.255416663574218  C 2.164164942691219 12.255416663574218  1.3595833271484343 11.450835048031438  1.359583327148436 10.458333327148438  L 1.359583327148436 4.125  C 1.359583327148436 3.797080929787967  1.0937523973604693 3.53125  0.7658333271484361 3.53125  C 0.43791425693640207 3.53125  0.1720833271484361 3.797080929787967  0.1720833271484361 4.125  L 0.1720833271484361 10.45833332714844  C 0.1720833271484361 12.10667318845551  1.5083268022671508 13.442916663574223  3.156666663574218 13.442916663574223  C 4.805006524881287 13.442916663574223  6.141250000000002 12.10667318845551  6.141250000000002 10.45833332714844  L 6.141249999999999 3.2145833271484374  C 6.141249999999999 2.222081606265439  6.94583161554278 1.4174999907226553  7.93833333642578 1.4174999907226553  C 8.93083505730878 1.4174999907226553  9.73541667285156 2.2220816062654363  9.73541667285156 3.2145833271484374  L 9.735416672851562 8.083333327148438  C 9.735416672851562 8.411252397360471  10.001247602639529 8.677083327148438  10.329166672851562 8.677083327148438  C 10.657085743063595 8.677083327148438  10.922916672851562 8.411252397360471  10.922916672851562 8.083333327148438  L 10.922916672851564 3.2145833271484374  C 10.922916673147064 1.5662014723706763  9.58667320218196 0.22995800140557066  7.938333345998627 0.22995800140557066  Z " fill-rule="nonzero" fill="url(#LinearGradient1011)" stroke="none" transform="matrix(1 0 0 1 357 603 )" />
  </g>
</svg>