<?xml version="1.0" encoding="utf-8"?>
<svg version="1.1" xmlns:xlink="http://www.w3.org/1999/xlink" width="18px" height="29px" xmlns="http://www.w3.org/2000/svg">
  <defs>
    <mask fill="white" id="clip1017">
      <path d="M 17.9889 2.57102  C 17.9889 2.57102  12.7389 28.909200000000002  12.7389 28.909200000000002  C 12.7389 28.909200000000002  8.261140000000001 26.6197  8.261140000000001 26.6197  C 7.483370000000001 25.8565  3.40003 21.85  1.8055899999999998 20.400000000000002  C 0.716699 19.4079  0.01669899999999999 17.843400000000003  0.01669899999999999 15.5921  C 0.01669899999999999 12.9973  0.95003 9.89734  2.42781 7.302599999999999  C 3.9444799999999995 4.70786  6.005590000000001 2.45655  8.30003 1.1591799999999999  C 10.555599999999998 -0.17634640000000001  12.8167 -0.29081999999999997  14.2945 0.548654  C 14.2945 0.548654  17.9889 2.57102  17.9889 2.57102  Z " fill-rule="evenodd" />
    </mask>
  </defs>
  <g transform="matrix(1 0 0 1 -15 -22 )">
    <path d="M 17.9889 2.57102  C 17.9889 2.57102  12.7389 28.909200000000002  12.7389 28.909200000000002  C 12.7389 28.909200000000002  8.261140000000001 26.6197  8.261140000000001 26.6197  C 7.483370000000001 25.8565  3.40003 21.85  1.8055899999999998 20.400000000000002  C 0.716699 19.4079  0.01669899999999999 17.843400000000003  0.01669899999999999 15.5921  C 0.01669899999999999 12.9973  0.95003 9.89734  2.42781 7.302599999999999  C 3.9444799999999995 4.70786  6.005590000000001 2.45655  8.30003 1.1591799999999999  C 10.555599999999998 -0.17634640000000001  12.8167 -0.29081999999999997  14.2945 0.548654  C 14.2945 0.548654  17.9889 2.57102  17.9889 2.57102  Z " fill-rule="nonzero" fill="#ffb772" stroke="none" transform="matrix(1 0 0 1 15 22 )" />
    <path d="M 17.9889 2.57102  C 17.9889 2.57102  12.7389 28.909200000000002  12.7389 28.909200000000002  C 12.7389 28.909200000000002  8.261140000000001 26.6197  8.261140000000001 26.6197  C 7.483370000000001 25.8565  3.40003 21.85  1.8055899999999998 20.400000000000002  C 0.716699 19.4079  0.01669899999999999 17.843400000000003  0.01669899999999999 15.5921  C 0.01669899999999999 12.9973  0.95003 9.89734  2.42781 7.302599999999999  C 3.9444799999999995 4.70786  6.005590000000001 2.45655  8.30003 1.1591799999999999  C 10.555599999999998 -0.17634640000000001  12.8167 -0.29081999999999997  14.2945 0.548654  C 14.2945 0.548654  17.9889 2.57102  17.9889 2.57102  Z " stroke-width="0.4" stroke="#ffffff" fill="none" transform="matrix(1 0 0 1 15 22 )" mask="url(#clip1017)" />
  </g>
</svg>