<?xml version="1.0" encoding="utf-8"?>
<svg version="1.1" xmlns:xlink="http://www.w3.org/1999/xlink" width="15px" height="15px" xmlns="http://www.w3.org/2000/svg">
  <defs>
    <linearGradient gradientUnits="userSpaceOnUse" x1="7.5" y1="0" x2="7.5" y2="15" id="LinearGradient1014">
      <stop id="Stop1015" stop-color="#3048c2" offset="0" />
      <stop id="Stop1016" stop-color="#7e93ff" offset="1" />
    </linearGradient>
  </defs>
  <g transform="matrix(1 0 0 1 -355 -641 )">
    <path d="M 14.0657666015625 2.2545703125000003  C 14.0657666015625 1.5319775390625  13.4745556640625 0.9407666015625002  12.751962890625 1  L 2.241533203125 1  C 1.5189404296874998 0.9407666015625  0.9342919921874999 1.5319775390625  1 2.2545703125  L 1 14.078803710937501  L 3.5553369140625 11.451196289062501  L 12.751962890625 11.451196289062501  C 13.4745556640625 11.451196289062501  14.0657666015625 10.859985351562502  14.0657666015625 10.137392578125002  L 14.0657666015625 2.2545703125000003  Z M 8.153657226562501 2.9114794921875  L 8.153657226562501 6.8528759765625  L 6.839853515625001 6.8528759765625  L 6.839853515625001 2.9114794921875  L 8.153657226562501 2.9114794921875  Z M 8.153657226562501 8.1666796875  L 8.153657226562501 9.4804833984375  L 6.839853515625001 9.4804833984375  L 6.839853515625001 8.1666796875  L 8.153657226562501 8.1666796875  Z " fill-rule="nonzero" fill="url(#LinearGradient1014)" stroke="none" transform="matrix(1 0 0 1 355 641 )" />
  </g>
</svg>