<?xml version="1.0" encoding="utf-8"?>
<svg version="1.1" xmlns:xlink="http://www.w3.org/1999/xlink" width="20px" height="20px" xmlns="http://www.w3.org/2000/svg">
  <defs>
    <linearGradient gradientUnits="userSpaceOnUse" x1="10" y1="0" x2="10" y2="20" id="LinearGradient1005">
      <stop id="Stop1006" stop-color="#3048c2" offset="0" />
      <stop id="Stop1007" stop-color="#7e93ff" offset="1" />
    </linearGradient>
  </defs>
  <g transform="matrix(1 0 0 1 -352 -562 )">
    <path d="M 18.75 9.375  L 18.093125 9.375  C 17.788125 5.393750000000001  14.606250000000001 2.211875  10.625 1.906875  L 10.625 1.25  C 10.625 0.9048220313557541  10.345177968644245 0.625  10 0.625  C 9.654822031355755 0.625  9.375 0.9048220313557541  9.375 1.25  L 9.375 1.906875  C 5.393750000000001 2.211875  2.211875 5.393750000000001  1.906875 9.375  L 1.25 9.375  C 0.9048220313557541 9.375  0.625 9.654822031355755  0.625 10  C 0.625 10.345177968644245  0.9048220313557541 10.625  1.25 10.625  L 1.906875 10.625  C 2.211875 14.606250000000001  5.393750000000001 17.788125  9.375 18.093125  L 9.375 18.75  C 9.375 19.095177968644247  9.654822031355755 19.375  10 19.375  C 10.345177968644245 19.375  10.625 19.095177968644247  10.625 18.75  L 10.625 18.093125  C 14.606250000000001 17.788125  17.788125 14.606250000000001  18.093125 10.625  L 18.75 10.625  C 19.095177968644247 10.625  19.375 10.345177968644245  19.375 10  C 19.375 9.654822031355755  19.095177968644247 9.375  18.75 9.375  Z M 16.843125 10.625  C 16.545 13.9175  13.9175 16.545  10.625 16.843125  L 10.625 15.625  C 10.625 15.279822031355755  10.345177968644245 15  10 15  C 9.654822031355755 15  9.375 15.279822031355755  9.375 15.625  L 9.375 16.843125  C 6.0825 16.545  3.4549999999999996 13.9175  3.1568750000000003 10.625  L 4.375 10.625  C 4.720177968644245 10.625  5 10.345177968644245  5 10  C 5 9.654822031355755  4.720177968644245 9.375  4.375 9.375  L 3.1568750000000003 9.375  C 3.4549999999999996 6.0825  6.0825 3.4549999999999996  9.375 3.1568750000000003  L 9.375 4.375  C 9.375 4.720177968644245  9.654822031355755 5  10 5  C 10.345177968644245 5  10.625 4.720177968644245  10.625 4.375  L 10.625 3.1568750000000003  C 13.9175 3.455625  16.545 6.0825  16.843125 9.375  L 15.625 9.375  C 15.279822031355755 9.375  15 9.654822031355755  15 10  C 15 10.345177968644245  15.279822031355755 10.625  15.625 10.625  L 16.843125 10.625  Z " fill-rule="nonzero" fill="url(#LinearGradient1005)" stroke="none" transform="matrix(1 0 0 1 352 562 )" />
  </g>
</svg>