<?xml version="1.0" encoding="utf-8"?>
<svg version="1.1" xmlns:xlink="http://www.w3.org/1999/xlink" width="14px" height="14px" xmlns="http://www.w3.org/2000/svg">
  <defs>
    <linearGradient gradientUnits="userSpaceOnUse" x1="7" y1="0" x2="7" y2="14" id="LinearGradient1008">
      <stop id="Stop1009" stop-color="#3048c2" offset="0" />
      <stop id="Stop1010" stop-color="#7e93ff" offset="1" />
    </linearGradient>
  </defs>
  <g transform="matrix(1 0 0 1 -355 -603 )">
    <path d="M 2.75 0.36094688456599044  C 2.6739699308617775 0.36094688456599044  2.6017117435572557 0.39406813382568195  2.5520833271484378 0.4516666728515624  L 1.0083333271484376 2.3120833271484376  C 0.9723590955140384 2.357015097419003  0.9527582124438415 2.4128579757131634  0.9527582124438415 2.470416722410188  C 0.9527582124438415 2.6103288556181656  1.0661794063843013 2.7237500495586255  1.2060915395922782 2.7237500495586255  L 4.333333327148437 2.723750000000001  C 4.473403920764136 2.7237500495586255  4.586825114704596 2.6103288556181656  4.586825114704596 2.470416722410188  C 4.586825114704596 2.4128579757131634  4.567224231634399 2.357015097419004  4.53125 2.3120833271484376  L 2.947916672851563 0.45166667285156326  C 2.8982882564427443 0.39406813382568195  2.8260300691382225 0.36094688456599044  2.75 0.36094688456599044  Z M 13.967916672851565 11.297500000000001  C 13.967916672851565 12.246279179895975  13.198779179895975 13.015416672851565  12.250000000000002 13.015416672851565  C 11.301220820104028 13.015416672851565  10.532083327148438 12.246279179895975  10.532083327148438 11.297500000000001  C 10.532083327148438 10.348720820104027  11.301220820104028 9.579583327148438  12.250000000000002 9.579583327148438  C 13.198779179895975 9.579583327148438  13.967916672851565 10.348720820104027  13.967916672851565 11.297500000000001  Z M 13.176250000000001 11.2975  C 13.171904031323816 10.789040595316305  12.758477977212467 10.379148099983595  12.250000000000002 10.379166672851564  C 11.738459463202618 10.379185357583797  11.323783832574303 10.793876135095047  11.323783832574303 11.305416672233672  C 11.323783832574303 11.816970421764447  11.738480083043534 12.231666672233672  12.250033832574307 12.231666672233672  C 12.761587582105076 12.231666672233672  13.176283832574304 11.816970421764445  13.176283832574304 11.305416672233672  C 13.176283832574304 11.30277774534268  13.176272554946554 11.300138830500503  13.176250000000001 11.2975  Z " fill-rule="nonzero" fill="url(#LinearGradient1008)" stroke="none" transform="matrix(1 0 0 1 355 603 )" />
  </g>
</svg>