<?xml version="1.0" encoding="utf-8"?>
<svg version="1.1" xmlns:xlink="http://www.w3.org/1999/xlink" width="18px" height="27px" xmlns="http://www.w3.org/2000/svg">
  <defs>
    <mask fill="white" id="clip1018">
      <path d="M 2.7447 7.553990000000001  C 4.222480000000001 4.99741  6.522499999999999 2.7461  8.8169 1.4487299999999999  C 11.0725 0.11319999999999997  13.133600000000001 -0.0012699999999998823  14.6114 0.8382000000000001  C 16.089100000000002 1.67768  17.0225 3.4711000000000007  17.0225 6.02768  C 17.0225 8.279  16.3225 10.6448  15.233600000000003 12.9343  C 13.678 16.215799999999998  9.2391 25.497400000000003  8.578000000000001 26.871100000000002  C 7.8003 26.1079  3.7169300000000005 22.1014  2.1224800000000004 20.651400000000002  C 1.0335900000000002 19.6593  0.33359000000000005 18.094800000000003  0.33359000000000005 15.843500000000002  C 0.33359000000000005 13.2487  1.2669300000000003 10.1487  2.7447 7.553990000000001  Z M 4.066930000000001 8.3553  C 2.9391500000000006 10.301400000000001  2.2391500000000004 12.6764  2.2391500000000004 14.660600000000002  C 2.2780400000000007 16.6448  2.97804 18.056600000000003  4.1447 18.7435  C 5.31137 19.430300000000003  7.1058 19.315800000000003  8.8558 18.285600000000002  C 10.5669 17.2935  12.122500000000002 15.576400000000003  13.250300000000003 13.6303  C 14.378 11.6843  15.078000000000003 9.3093  15.039100000000001 7.325050000000001  C 15.039100000000001 5.34084  14.339100000000002 3.9289900000000006  13.172500000000003 3.28031  C 12.0058 2.6316300000000004  10.211400000000001 2.7461  8.500300000000001 3.7382  C 6.750300000000001 4.73031  5.194700000000001 6.40926  4.066930000000001 8.3553  Z " fill-rule="evenodd" />
    </mask>
  </defs>
  <g transform="matrix(1 0 0 1 -19 -24 )">
    <path d="M 2.7447 7.553990000000001  C 4.222480000000001 4.99741  6.522499999999999 2.7461  8.8169 1.4487299999999999  C 11.0725 0.11319999999999997  13.133600000000001 -0.0012699999999998823  14.6114 0.8382000000000001  C 16.089100000000002 1.67768  17.0225 3.4711000000000007  17.0225 6.02768  C 17.0225 8.279  16.3225 10.6448  15.233600000000003 12.9343  C 13.678 16.215799999999998  9.2391 25.497400000000003  8.578000000000001 26.871100000000002  C 7.8003 26.1079  3.7169300000000005 22.1014  2.1224800000000004 20.651400000000002  C 1.0335900000000002 19.6593  0.33359000000000005 18.094800000000003  0.33359000000000005 15.843500000000002  C 0.33359000000000005 13.2487  1.2669300000000003 10.1487  2.7447 7.553990000000001  Z M 4.066930000000001 8.3553  C 2.9391500000000006 10.301400000000001  2.2391500000000004 12.6764  2.2391500000000004 14.660600000000002  C 2.2780400000000007 16.6448  2.97804 18.056600000000003  4.1447 18.7435  C 5.31137 19.430300000000003  7.1058 19.315800000000003  8.8558 18.285600000000002  C 10.5669 17.2935  12.122500000000002 15.576400000000003  13.250300000000003 13.6303  C 14.378 11.6843  15.078000000000003 9.3093  15.039100000000001 7.325050000000001  C 15.039100000000001 5.34084  14.339100000000002 3.9289900000000006  13.172500000000003 3.28031  C 12.0058 2.6316300000000004  10.211400000000001 2.7461  8.500300000000001 3.7382  C 6.750300000000001 4.73031  5.194700000000001 6.40926  4.066930000000001 8.3553  Z " fill-rule="nonzero" fill="#ffb772" stroke="none" transform="matrix(1 0 0 1 19 24 )" />
    <path d="M 2.7447 7.553990000000001  C 4.222480000000001 4.99741  6.522499999999999 2.7461  8.8169 1.4487299999999999  C 11.0725 0.11319999999999997  13.133600000000001 -0.0012699999999998823  14.6114 0.8382000000000001  C 16.089100000000002 1.67768  17.0225 3.4711000000000007  17.0225 6.02768  C 17.0225 8.279  16.3225 10.6448  15.233600000000003 12.9343  C 13.678 16.215799999999998  9.2391 25.497400000000003  8.578000000000001 26.871100000000002  C 7.8003 26.1079  3.7169300000000005 22.1014  2.1224800000000004 20.651400000000002  C 1.0335900000000002 19.6593  0.33359000000000005 18.094800000000003  0.33359000000000005 15.843500000000002  C 0.33359000000000005 13.2487  1.2669300000000003 10.1487  2.7447 7.553990000000001  Z " stroke-width="0.4" stroke="#ffffff" fill="none" transform="matrix(1 0 0 1 19 24 )" mask="url(#clip1018)" />
    <path d="M 4.066930000000001 8.3553  C 2.9391500000000006 10.301400000000001  2.2391500000000004 12.6764  2.2391500000000004 14.660600000000002  C 2.2780400000000007 16.6448  2.97804 18.056600000000003  4.1447 18.7435  C 5.31137 19.430300000000003  7.1058 19.315800000000003  8.8558 18.285600000000002  C 10.5669 17.2935  12.122500000000002 15.576400000000003  13.250300000000003 13.6303  C 14.378 11.6843  15.078000000000003 9.3093  15.039100000000001 7.325050000000001  C 15.039100000000001 5.34084  14.339100000000002 3.9289900000000006  13.172500000000003 3.28031  C 12.0058 2.6316300000000004  10.211400000000001 2.7461  8.500300000000001 3.7382  C 6.750300000000001 4.73031  5.194700000000001 6.40926  4.066930000000001 8.3553  Z " stroke-width="0.4" stroke="#ffffff" fill="none" transform="matrix(1 0 0 1 19 24 )" mask="url(#clip1018)" />
  </g>
</svg>