<?xml version="1.0" encoding="utf-8"?>
<svg version="1.1" xmlns:xlink="http://www.w3.org/1999/xlink" width="36px" height="54px" xmlns="http://www.w3.org/2000/svg">
  <defs>
    <mask fill="white" id="clip1020">
      <path d="M 5.4894 15.107980000000001  C 8.444960000000002 9.99482  13.044999999999998 5.4922  17.6338 2.8974599999999997  C 22.145 0.22639999999999993  26.267200000000003 -0.0025399999999997647  29.2228 1.6764000000000001  C 32.178200000000004 3.35536  34.045 6.9422000000000015  34.045 12.05536  C 34.045 16.558  32.645 21.2896  30.467200000000005 25.8686  C 27.356 32.431599999999996  18.4782 50.994800000000005  17.156000000000002 53.742200000000004  C 15.6006 52.2158  7.433860000000001 44.2028  4.244960000000001 41.302800000000005  C 2.0671800000000005 39.3186  0.6671800000000001 36.189600000000006  0.6671800000000001 31.687000000000005  C 0.6671800000000001 26.4974  2.5338600000000007 20.2974  5.4894 15.107980000000001  Z M 8.133860000000002 16.7106  C 5.878300000000001 20.602800000000002  4.478300000000001 25.3528  4.478300000000001 29.321200000000005  C 4.5560800000000015 33.2896  5.95608 36.113200000000006  8.2894 37.487  C 10.62274 38.860600000000005  14.2116 38.631600000000006  17.7116 36.571200000000005  C 21.1338 34.587  24.245000000000005 31.152800000000006  26.500600000000006 27.2606  C 28.756 23.3686  30.156000000000006 18.6186  30.078200000000002 14.650100000000002  C 30.078200000000002 10.68168  28.678200000000004 7.857980000000001  26.345000000000006 6.56062  C 24.0116 5.263260000000001  20.422800000000002 5.4922  17.000600000000002 7.4764  C 13.500600000000002 9.46062  10.389400000000002 12.81852  8.133860000000002 16.7106  Z " fill-rule="evenodd" />
    </mask>
  </defs>
  <g transform="matrix(1 0 0 1 -8 -4 )">
    <path d="M 5.4894 15.107980000000001  C 8.444960000000002 9.99482  13.044999999999998 5.4922  17.6338 2.8974599999999997  C 22.145 0.22639999999999993  26.267200000000003 -0.0025399999999997647  29.2228 1.6764000000000001  C 32.178200000000004 3.35536  34.045 6.9422000000000015  34.045 12.05536  C 34.045 16.558  32.645 21.2896  30.467200000000005 25.8686  C 27.356 32.431599999999996  18.4782 50.994800000000005  17.156000000000002 53.742200000000004  C 15.6006 52.2158  7.433860000000001 44.2028  4.244960000000001 41.302800000000005  C 2.0671800000000005 39.3186  0.6671800000000001 36.189600000000006  0.6671800000000001 31.687000000000005  C 0.6671800000000001 26.4974  2.5338600000000007 20.2974  5.4894 15.107980000000001  Z M 8.133860000000002 16.7106  C 5.878300000000001 20.602800000000002  4.478300000000001 25.3528  4.478300000000001 29.321200000000005  C 4.5560800000000015 33.2896  5.95608 36.113200000000006  8.2894 37.487  C 10.62274 38.860600000000005  14.2116 38.631600000000006  17.7116 36.571200000000005  C 21.1338 34.587  24.245000000000005 31.152800000000006  26.500600000000006 27.2606  C 28.756 23.3686  30.156000000000006 18.6186  30.078200000000002 14.650100000000002  C 30.078200000000002 10.68168  28.678200000000004 7.857980000000001  26.345000000000006 6.56062  C 24.0116 5.263260000000001  20.422800000000002 5.4922  17.000600000000002 7.4764  C 13.500600000000002 9.46062  10.389400000000002 12.81852  8.133860000000002 16.7106  Z " fill-rule="nonzero" fill="#ffb772" stroke="none" transform="matrix(1 0 0 1 8 4 )" />
    <path d="M 5.4894 15.107980000000001  C 8.444960000000002 9.99482  13.044999999999998 5.4922  17.6338 2.8974599999999997  C 22.145 0.22639999999999993  26.267200000000003 -0.0025399999999997647  29.2228 1.6764000000000001  C 32.178200000000004 3.35536  34.045 6.9422000000000015  34.045 12.05536  C 34.045 16.558  32.645 21.2896  30.467200000000005 25.8686  C 27.356 32.431599999999996  18.4782 50.994800000000005  17.156000000000002 53.742200000000004  C 15.6006 52.2158  7.433860000000001 44.2028  4.244960000000001 41.302800000000005  C 2.0671800000000005 39.3186  0.6671800000000001 36.189600000000006  0.6671800000000001 31.687000000000005  C 0.6671800000000001 26.4974  2.5338600000000007 20.2974  5.4894 15.107980000000001  Z " stroke-width="0.4" stroke="#ffffff" fill="none" transform="matrix(1 0 0 1 8 4 )" mask="url(#clip1020)" />
    <path d="M 8.133860000000002 16.7106  C 5.878300000000001 20.602800000000002  4.478300000000001 25.3528  4.478300000000001 29.321200000000005  C 4.5560800000000015 33.2896  5.95608 36.113200000000006  8.2894 37.487  C 10.62274 38.860600000000005  14.2116 38.631600000000006  17.7116 36.571200000000005  C 21.1338 34.587  24.245000000000005 31.152800000000006  26.500600000000006 27.2606  C 28.756 23.3686  30.156000000000006 18.6186  30.078200000000002 14.650100000000002  C 30.078200000000002 10.68168  28.678200000000004 7.857980000000001  26.345000000000006 6.56062  C 24.0116 5.263260000000001  20.422800000000002 5.4922  17.000600000000002 7.4764  C 13.500600000000002 9.46062  10.389400000000002 12.81852  8.133860000000002 16.7106  Z " stroke-width="0.4" stroke="#ffffff" fill="none" transform="matrix(1 0 0 1 8 4 )" mask="url(#clip1020)" />
  </g>
</svg>