<?xml version="1.0" encoding="utf-8"?>
<svg version="1.1" xmlns:xlink="http://www.w3.org/1999/xlink" width="11px" height="13px" xmlns="http://www.w3.org/2000/svg">
  <g transform="matrix(1 0 0 1 -23 -29 )">
    <path d="M 9.845000056748493 3.953900000000001  C 10.825200008588428 2.35201  10.825200008588428 0.6771099999999999  9.845000056748493 0.2073200000000002  C 9.611400068225937 0.0942400000000001  9.332900081909447 0.058099999999999596  9.02580009699816 0.10099000000000036  C 8.718700112086871 0.14388999999999985  8.389100128281074 0.2649600000000003  8.056200144637415 0.45716999999999963  C 7.723200160998669 0.6493900000000004  7.39360017719287 0.9089  7.086500192281582 1.2206200000000003  C 6.779400207370295 1.5323499999999992  6.500900221053805 1.8900500000000005  6.26730023253125 2.27294  L 4.854300301956029 4.5565  L 4.30160032911178 4.2987  C 3.8261003524744717 4.0829  3.1841003840177904 4.1806  2.5164004168238243 4.570399999999999  C 1.8487504496274012 4.960100000000001  1.2099404810139842 5.609999999999999  0.7402305040921968 6.3774  C -0.24020944773594877 7.9771  -0.24761944737187414 9.652899999999999  0.7234805049151728 10.1356  L 1.2491304790884656 10.384799999999998  L 3.7540003560169533 11.579799999999999  L 4.891000300152852 9.764800000000001  L 4.138900337105701 9.646  C 3.6043003633721478 9.5551  3.2109003827010287 9.2092  3.020000392080497 8.6619  L 2.762300404742044 7.933299999999998  C 2.7034004076359723 7.7598  2.591100413153597 7.637899999999999  2.4377004206905815 7.581099999999999  C 2.284300428227568 7.5243  2.0956004374989448 7.534700000000001  1.8923404474856982 7.611100000000001  L 1.7519104543854302 7.6635  L 1.9148904463777505 7.2212000000000005  C 1.9613304440960193 7.092  2.0282004408105023 6.962600000000001  2.1110004367422994 6.8416999999999994  C 2.1938004326740947 6.7209  2.2906004279180303 6.611300000000001  2.39490042279347 6.5204  C 2.4992004176689093 6.429399999999999  2.6086004122937694 6.359299999999999  2.7157004070316377 6.3147  C 2.822800401769505 6.27  2.9251003967432103 6.251899999999999  3.015800392286856 6.2616  L 4.089000339557434 6.3711  C 4.2227003329883654 6.388400000000001  4.38430032504849 6.336399999999999  4.544600317172487 6.2247  C 4.704900309296485 6.1129  4.853300302005163 5.9487000000000005  4.963100296610371 5.761699999999999  L 6.996800196688804 2.3707499999999992  C 7.084500192379848 2.228160000000001  7.194900186955577 2.09971  7.3156001810252365 1.99967  C 7.436400175089983 1.8996200000000008  7.5629001688746715 1.8318899999999996  7.680900163076989 1.8040100000000001  L 7.871000153736827 1.7660300000000007  L 6.218000234953502 4.651199999999999  L 6.37160022740669 4.672000000000001  L 7.757900159293756 2.2603899999999992  C 7.868900153840006 2.0740700000000007  8.012500146784522 1.9066899999999996  8.170000139046092 1.7800600000000006  C 8.32750013130766 1.6534300000000002  8.491700123240042 1.5734100000000009  8.641100115899587 1.5504300000000004  L 8.813100107448726 1.5225299999999997  L 6.774900207591393 4.982799999999999  L 6.946900199140535 5.0074000000000005  L 8.455200125033391 2.3966700000000003  C 8.53760012098484 2.2519100000000005  8.64640011563918 2.1205300000000005  8.767000109713754 2.0201600000000006  C 8.887700103783411 1.9197799999999994  9.014500097553364 1.8552199999999992  9.130300091863772 1.8351299999999995  L 9.410900078077084 1.7826199999999994  L 7.417800176003855 5.2074  L 7.613000166413113 5.1899999999999995  L 8.627500116567793 3.4029000000000003  C 8.727000111679068 3.2279999999999998  8.86010010513948 3.0703999999999994  9.007100097916947 2.9537999999999993  C 9.15410009069441 2.8371899999999997  9.306900083186902 2.76783  9.442700076514654 2.7560900000000004  L 9.592200069169287 2.74592  L 4.057100341124773 11.7481  L 4.826900303302271 12.095099999999999  L 9.845000056748493 3.953900000000001  Z " fill-rule="nonzero" fill="#ff6a61" stroke="none" transform="matrix(1 0 0 1 23 29 )" />
  </g>
</svg>