<?xml version="1.0" encoding="utf-8"?>
<svg version="1.1" xmlns:xlink="http://www.w3.org/1999/xlink" width="22px" height="26px" xmlns="http://www.w3.org/2000/svg">
  <g transform="matrix(1 0 0 1 -16 -14 )">
    <path d="M 19.690000113496986 7.907800000000002  C 21.650400017176857 4.70402  21.650400017176857 1.3542199999999998  19.690000113496986 0.4146400000000004  C 19.222800136451873 0.1884800000000002  18.665800163818894 0.11619999999999919  18.05160019399632 0.20198000000000071  C 17.437400224173743 0.2877799999999997  16.778200256562148 0.5299200000000006  16.11240028927483 0.9143399999999993  C 15.446400321997338 1.2987800000000007  14.78720035438574 1.8178  14.173000384563164 2.4412400000000005  C 13.55880041474059 3.0646999999999984  13.00180044210761 3.780100000000001  12.5346004650625 4.54588  L 9.708600603912059 9.113  L 8.60320065822356 8.5974  C 7.652200704948943 8.1658  6.368200768035581 8.3612  5.032800833647649 9.140799999999999  C 3.6975008992548024 9.920200000000001  2.4198809620279684 11.219999999999999  1.4804610081843936 12.7548  C -0.48041889547189753 15.9542  -0.49523889474374827 19.305799999999998  1.4469610098303456 20.2712  L 2.4982609581769313 20.769599999999997  L 7.5080007120339065 23.159599999999998  L 9.782000600305704 19.529600000000002  L 8.277800674211402 19.292  C 7.2086007267442955 19.1102  6.4218007654020575 18.4184  6.040000784160994 17.3238  L 5.524600809484088 15.866599999999996  C 5.406800815271945 15.5196  5.182200826307194 15.275799999999998  4.875400841381163 15.162199999999999  C 4.568600856455136 15.0486  4.1912008749978895 15.069400000000002  3.7846808949713964 15.222200000000003  L 3.5038209087708605 15.327  L 3.829780892755501 14.442400000000001  C 3.9226608881920386 14.184  4.056400881621005 13.925200000000002  4.222000873484599 13.683399999999999  C 4.3876008653481895 13.4418  4.581200855836061 13.222600000000002  4.78980084558694 13.0408  C 4.998400835337819 12.858799999999999  5.217200824587539 12.718599999999999  5.4314008140632755 12.6294  C 5.64560080353901 12.54  5.850200793486421 12.503799999999998  6.031600784573712 12.5232  L 8.178000679114868 12.7422  C 8.445400665976731 12.776800000000001  8.76860065009698 12.672799999999999  9.089200634344975 12.4494  C 9.40980061859297 12.2258  9.706600604010326 11.897400000000001  9.926200593220742 11.523399999999999  L 13.993600393377609 4.7414999999999985  C 14.169000384759697 4.456320000000002  14.389800373911154 4.19942  14.631200362050473 3.99934  C 14.872800350179967 3.7992400000000015  15.125800337749343 3.663779999999999  15.361800326153977 3.6080200000000002  L 15.742000307473655 3.5320600000000013  L 12.436000469907004 9.302399999999999  L 12.74320045481338 9.344000000000001  L 15.515800318587512 4.5207799999999985  C 15.737800307680011 4.1481400000000015  16.025000293569043 3.813379999999999  16.340000278092184 3.5601200000000013  C 16.65500026261532 3.3068600000000004  16.983400246480084 3.1468200000000017  17.282200231799173 3.100860000000001  L 17.62620021489745 3.0450599999999994  L 13.549800415182785 9.965599999999998  L 13.89380039828107 10.014800000000001  L 16.910400250066782 4.793340000000001  C 17.07520024196968 4.503820000000001  17.29280023127836 4.241060000000001  17.534000219427508 4.040320000000001  C 17.775400207566822 3.8395599999999988  18.02900019510673 3.7104399999999984  18.260600183727544 3.670259999999999  L 18.82180015615417 3.565239999999999  L 14.83560035200771 10.4148  L 15.226000332826226 10.379999999999999  L 17.255000233135586 6.8058000000000005  C 17.454000223358136 6.4559999999999995  17.72020021027896 6.140799999999999  18.014200195833894 5.907599999999999  C 18.30820018138882 5.674379999999999  18.613800166373803 5.53566  18.88540015302931 5.512180000000001  L 19.184400138338574 5.49184  L 8.114200682249546 23.4962  L 9.653800606604541 24.190199999999997  L 19.690000113496986 7.907800000000002  Z " fill-rule="nonzero" fill="#ff6a61" stroke="none" transform="matrix(1 0 0 1 16 14 )" />
  </g>
</svg>