<?xml version="1.0" encoding="utf-8"?>
<svg version="1.1" xmlns:xlink="http://www.w3.org/1999/xlink" width="36px" height="58px" xmlns="http://www.w3.org/2000/svg">
  <defs>
    <mask fill="white" id="clip1021">
      <path d="M 35.9778 5.14204  C 35.9778 5.14204  25.4778 57.818400000000004  25.4778 57.818400000000004  C 25.4778 57.818400000000004  16.522280000000002 53.2394  16.522280000000002 53.2394  C 14.966740000000001 51.713  6.80006 43.7  3.6111799999999996 40.800000000000004  C 1.433398 38.8158  0.03339799999999998 35.686800000000005  0.03339799999999998 31.1842  C 0.03339799999999998 25.9946  1.90006 19.79468  4.85562 14.605199999999998  C 7.888959999999999 9.41572  12.011180000000001 4.9131  16.60006 2.3183599999999998  C 21.111199999999997 -0.35269280000000003  25.6334 -0.5816399999999999  28.589 1.097308  C 28.589 1.097308  35.9778 5.14204  35.9778 5.14204  Z " fill-rule="evenodd" />
    </mask>
  </defs>
  <g>
    <path d="M 35.9778 5.14204  C 35.9778 5.14204  25.4778 57.818400000000004  25.4778 57.818400000000004  C 25.4778 57.818400000000004  16.522280000000002 53.2394  16.522280000000002 53.2394  C 14.966740000000001 51.713  6.80006 43.7  3.6111799999999996 40.800000000000004  C 1.433398 38.8158  0.03339799999999998 35.686800000000005  0.03339799999999998 31.1842  C 0.03339799999999998 25.9946  1.90006 19.79468  4.85562 14.605199999999998  C 7.888959999999999 9.41572  12.011180000000001 4.9131  16.60006 2.3183599999999998  C 21.111199999999997 -0.35269280000000003  25.6334 -0.5816399999999999  28.589 1.097308  C 28.589 1.097308  35.9778 5.14204  35.9778 5.14204  Z " fill-rule="nonzero" fill="#81acff" stroke="none" />
    <path d="M 35.9778 5.14204  C 35.9778 5.14204  25.4778 57.818400000000004  25.4778 57.818400000000004  C 25.4778 57.818400000000004  16.522280000000002 53.2394  16.522280000000002 53.2394  C 14.966740000000001 51.713  6.80006 43.7  3.6111799999999996 40.800000000000004  C 1.433398 38.8158  0.03339799999999998 35.686800000000005  0.03339799999999998 31.1842  C 0.03339799999999998 25.9946  1.90006 19.79468  4.85562 14.605199999999998  C 7.888959999999999 9.41572  12.011180000000001 4.9131  16.60006 2.3183599999999998  C 21.111199999999997 -0.35269280000000003  25.6334 -0.5816399999999999  28.589 1.097308  C 28.589 1.097308  35.9778 5.14204  35.9778 5.14204  Z " stroke-width="0.4" stroke="#ffffff" fill="none" mask="url(#clip1021)" />
  </g>
</svg>