<?xml version="1.0" encoding="utf-8"?>
<svg version="1.1" xmlns:xlink="http://www.w3.org/1999/xlink" width="14px" height="26px" xmlns="http://www.w3.org/2000/svg">
  <defs>
    <linearGradient gradientUnits="userSpaceOnUse" x1="6.928199999999998" y1="2.0000000000000018" x2="15.588399999999998" y2="17" id="LinearGradient1023">
      <stop id="Stop1024" stop-color="#3c4fff" offset="0" />
      <stop id="Stop1025" stop-color="#838fff" offset="1" />
    </linearGradient>
  </defs>
  <g transform="matrix(1 0 0 1 -18 -14 )">
    <path d="M 6.6084 4.851279999999999  L 6.501799999999999 5.446159999999999  L 6.9282 4.933340000000001  L 7.3546000000000005 4.95384  L 7.248000000000001 4.482060000000001  L 7.461200000000002 3.9589800000000004  L 7.141400000000002 4.010259999999999  L 6.9282 3.7333399999999983  L 6.715 4.256399999999999  L 6.395199999999999 4.574359999999999  L 6.6084 4.851279999999999  Z M 6.715 6.6564000000000005  C 5.3294 7.456399999999998  4.0504 8.328199999999999  3.1976000000000013 9.0872  L 3.1976000000000013 9.6206  C 3.1976000000000013 10.4206  4.902999999999999 10.102599999999999  6.9282 8.933399999999999  C 8.953399999999998 7.764199999999999  10.6588 6.1128  10.6588 5.3128199999999985  L 10.6588 4.91282  C 9.806000000000001 5.005120000000002  8.3138 5.733339999999998  6.715 6.6564000000000005  Z M 2.2383999999999986 6.841000000000001  C 2.344999999999999 7.179400000000001  2.451599999999999 7.384599999999999  2.5581999999999994 7.722999999999998  C 2.7712000000000003 8.2666  3.1976000000000013 8.820599999999999  3.1976000000000013 8.820599999999999  L 3.1976000000000013 8.953800000000001  C 4.0504 8.1948  5.3294 7.3229999999999995  6.715 6.523  C 8.3138 5.600000000000001  9.6994 5.066659999999999  10.5522 4.84102  L 10.5522 4.574359999999999  C 10.5522 4.574359999999999  10.9786 3.3948800000000006  11.1918 2.73846  C 11.2984 2.410260000000001  11.404800000000002 1.9487199999999998  11.404800000000002 1.6820599999999999  C 11.404800000000002 1.4153800000000007  11.2984 1.3435799999999993  11.0852 1.3333399999999997  C 10.6588 1.1794799999999999  9.2732 1.1794799999999999  8.633600000000001 1.1487200000000009  C 8.527000000000001 1.21026  8.3138 1.1999999999999993  8.1006 1.3230799999999991  L 5.755800000000001 2.676919999999999  C 5.5426 2.8000000000000007  5.3294 3.0564199999999992  5.222799999999999 3.117940000000001  C 4.5832000000000015 3.8871800000000003  3.1976000000000013 5.487179999999999  2.5581999999999994 6.123000000000001  C 2.344999999999999 6.3794  2.2383999999999986 6.574400000000001  2.2383999999999986 6.841000000000001  Z M 5.755800000000001 4.2769200000000005  L 6.075600000000001 3.5589799999999983  C 6.075600000000001 3.5589799999999983  6.288599999999999 3.5692400000000006  6.501799999999999 3.446159999999999  C 6.715 3.3230800000000005  6.9282 2.933340000000001  6.9282 2.933340000000001  C 6.9282 2.933340000000001  7.141400000000002 3.076920000000001  7.3546000000000005 2.9538399999999996  C 7.567799999999998 2.8307600000000015  7.780999999999999 2.5743599999999986  7.780999999999999 2.5743599999999986  L 8.1006 2.923079999999999  C 8.1006 2.923079999999999  7.8873999999999995 3.1794800000000016  7.8873999999999995 3.446159999999999  C 7.8873999999999995 3.846160000000001  7.994 3.6512800000000003  7.994 4.31794  C 7.994 4.98462  6.8216 6.0615999999999985  6.8216 6.0615999999999985  C 6.8216 6.0615999999999985  5.755800000000001 6.4102  5.755800000000001 5.61026  C 5.862400000000001 5.01538  5.969000000000001 4.95384  5.969000000000001 4.553840000000001  C 5.969000000000001 4.42052  5.755800000000001 4.2769200000000005  5.755800000000001 4.2769200000000005  Z M 13.8564 16  C 13.8564 15.466599999999998  13.2168 13.1692  9.2732 14.512799999999997  C 8.846800000000002 14.625599999999999  8.527000000000001 14.543600000000001  8.527000000000001 14.410200000000001  L 8.527000000000001 13.343599999999997  C 8.527000000000001 13.343599999999997  10.445599999999999 10.235800000000001  10.445599999999999 6.9026  L 10.445599999999999 6.369199999999999  C 10.019200000000001 7.148800000000001  8.633600000000001 8.3488  6.9282 9.333400000000001  C 5.222799999999999 10.318000000000001  3.837199999999999 10.718  3.4107999999999983 10.2974  L 3.4107999999999983 10.8308  C 3.4107999999999983 14.164200000000003  5.3294 15.0564  5.3294 15.0564  L 5.3294 16.2564  C 5.3294 16.523  4.902999999999999 17.0358  4.689800000000002 17.2924  C 0.639520000000001 20.430799999999998  0 23.4666  0 24  C 0.21318000000000126 25.7436  5.862400000000001 22.6154  6.8216 22.0616  C 6.6084 21.518  6.288599999999999 20.5026  6.288599999999999 18.635800000000003  C 6.288599999999999 17.9692  6.9282 17.6  6.9282 17.6  C 6.9282 17.6  7.567799999999998 17.2308  7.567799999999998 17.8974  C 7.567799999999998 19.6308  7.248000000000001 21.1488  7.034800000000001 21.9384  C 7.8873999999999995 21.446199999999997  13.7498 17.9282  13.8564 16  Z M 7.461200000000002 16.6256  C 7.461200000000002 17.0256  7.248000000000001 17.5488  6.8216 17.7948  C 6.395199999999999 18.040999999999997  6.181999999999999 17.7642  6.181999999999999 17.3642  C 6.181999999999999 16.8308  6.501799999999999 16.3794  6.8216 16.1948  C 7.141400000000002 16.0102  7.461200000000002 16.2256  7.461200000000002 16.6256  Z " fill-rule="nonzero" fill="url(#LinearGradient1023)" stroke="none" transform="matrix(1 0 0 1 18 14 )" />
  </g>
</svg>