<?xml version="1.0" encoding="utf-8"?>
<svg version="1.1" xmlns:xlink="http://www.w3.org/1999/xlink" width="14px" height="11px" xmlns="http://www.w3.org/2000/svg">
  <defs>
    <linearGradient gradientUnits="userSpaceOnUse" x1="7" y1="0" x2="7" y2="11" id="LinearGradient1029">
      <stop id="Stop1030" stop-color="#3048c2" offset="0" />
      <stop id="Stop1031" stop-color="#7e93ff" offset="1" />
    </linearGradient>
  </defs>
  <g transform="matrix(1 0 0 1 -341 -586 )">
    <path d="M 7.75 7.205468750000001  C 10.76171875 6.877343750000001  13.196874999999999 4.599218749999999  13.670312500000001 1.5406249999999986  C 13.73359375 1.1304687499999986  13.454687499999999 0.7484374999999996  13.044531249999999 0.6851562499999986  C 12.634374999999999 0.6242187499999989  12.252343750000001 0.9031249999999993  12.189062499999999 1.3109374999999996  C 11.795312500000001 3.8421875000000014  9.56640625 5.75  7 5.75  C 4.43359375 5.75  2.2023437500000007 3.83984375  1.8109375000000003 1.30859375  C 1.7476562500000004 0.8984375  1.36328125 0.6195312500000014  0.9554687500000005 0.6828125000000007  C 0.5453125000000005 0.74609375  0.2664062500000002 1.1281250000000007  0.32968750000000036 1.5382812500000007  C 0.8031250000000005 4.596874999999999  3.2359375000000004 6.877343750000001  6.25 7.205468750000001  L 6.25 9.5  L 4 9.5  C 3.5851562500000003 9.5  3.25 9.835156249999997  3.25 10.25  C 3.25 10.664843750000003  3.5851562500000003 11  4 11  L 10 11  C 10.414843750000001 11  10.75 10.664843750000003  10.75 10.25  C 10.75 9.835156249999997  10.414843750000001 9.5  10 9.5  L 7.75 9.5  L 7.75 7.205468750000001  Z " fill-rule="nonzero" fill="url(#LinearGradient1029)" stroke="none" transform="matrix(1 0 0 1 341 586 )" />
  </g>
</svg>