<?xml version="1.0" encoding="utf-8"?>
<svg version="1.1" xmlns:xlink="http://www.w3.org/1999/xlink" width="20px" height="22px" xmlns="http://www.w3.org/2000/svg">
  <g transform="matrix(1 0 0 1 -16 -692 )">
    <path d="M 19.999999999999996 17.023999999999994  C 19.999999999999996 19.233139003637895  18.209138997224507 21.024000007812493  15.999999995312502 21.0240000078125  L 13.333333325520831 21.024000007812496  C 12.965143498340918 21.024000007812496  12.666666669791667 20.725523179030063  12.666666669791667 20.357333351562495  L 12.666666669791667 21.0240000078125  L 12.666666669791667 15.690666664062498  C 12.66666666979167 15.322476836594937  12.368189841242419 15.024000007812496  12.000000014062506 15.024000007812496  L 8.000000009375002 15.024000007812496  C 7.631810158757587 15.024000007812496  7.333333330208336 15.322476836594937  7.333333330208336 15.690666664062498  L 7.333333330208336 20.357333328125  C 7.333333330208336 20.725523179030063  7.034856501659085 21.024000007812496  6.6666666744791705 21.024000007812496  L 4.000000004687499 21.024000007812493  C 1.7908610027754914 21.024000007812493  0 19.233139003637895  0 17.024  L 0 9.0240000078125  C 0 8.270666679687501  0.011999999990625456 7.983333335937502  1.333333334895834 6.968  L 9.424666656699479 0.536  C 9.760721124231182 0.26604215811181575  10.239278875768818 0.26604215811181575  10.575333343300521 0.536  L 18.666666665104167 6.968  C 19.858666671985418 7.850000000000001  19.998666664063542 8.270000000000001  20 9.0240000078125  L 19.999999999999996 17.023999999999994  Z " fill-rule="nonzero" fill="#c5c9d4" stroke="none" transform="matrix(1 0 0 1 16 692 )" />
  </g>
</svg>