<?xml version="1.0" encoding="utf-8"?>
<svg version="1.1" xmlns:xlink="http://www.w3.org/1999/xlink" width="17px" height="18px" xmlns="http://www.w3.org/2000/svg">
  <g transform="matrix(1 0 0 1 -225 -621 )">
    <path d="M 16.41015625 14.3359375  C 16.48828125 13.482421875  15.376953125 12.447265625  13.93359375 11.662109375  C 12.830078125 11.064453124999998  11.765625 10.6953125  11.115234375 10.81640625  C 10.75390625 10.8828125  10.515624999999998 11.05078125  10.212890624999996 11.37109375  L 10.0703125 11.51953125  C 9.84765625 11.75390625  9.701171875 11.859375  9.48046875 11.916015625  C 9.273437499999998 11.96484375  9.0546875 11.91015625  8.890624999999998 11.7734375  C 8.662109374999998 11.595703125  7.658203124999998 10.58984375  7.197265624999998 10.0390625  L 6.849609375 9.625  L 6.837890624999999 9.611328125  C 6.279296874999998 8.951171874999998  5.998046874999999 8.59765625  5.962890624999999 8.509765625  C 5.796874999999999 8.123046875  5.794921874999998 7.818359375  5.925781249999999 7.57421875  C 5.9765625 7.4765625  6.09765625 7.37890625  6.310546874999999 7.25390625  C 6.328124999999998 7.2421875  6.662109374999999 7.0625  6.753906249999999 7.00390625  C 6.898437499999998 6.923828125  7.017578124999998 6.806640625  7.105468749999998 6.666015625  C 7.523437499999998 5.9453125  7.359374999999998 4.451171875  6.796874999999998 3.091796875  C 6.107421874999998 1.431640625  4.703124999999999 0.14648437499999978  3.7246093749999982 0.3925781250000002  C 2.8652343749999982 0.609375  1.7167968749999982 1.283203125  1.1210937499999982 1.9707031250000004  C -0.3320312500000019 3.64453125  0.9179687499999982 9.087890625  4.009765624999998 12.7734375  C 6.744140625 16.03125  11.220703125 18.1171875  14.05859375 17.46484375  C 15.052734375 17.236328125  16.296875 15.537109375  16.41015625 14.3359375  Z M 16.8515625 8.302734375  C 17.0859375 4.414062499999998  14.103515625 1.0644531249999987  10.205078125 0.83203125  C 9.945312500000002 0.81640625  9.72265625 1.015625  9.708984375000004 1.271484375  C 9.693359375000002 1.53125  9.892578125 1.75390625  10.148437500000002 1.767578125  C 13.527343750000004 1.9648437499999996  16.115234375 4.873046875  15.9140625 8.24609375  C 15.896484375 8.41796875  15.97265625 8.5859375  16.1171875 8.68359375  C 16.259765625 8.78125  16.4453125 8.791015625  16.599609375 8.712890625  C 16.75390625 8.632812499999998  16.849609375 8.474609375  16.8515625 8.302734375  Z " fill-rule="nonzero" fill="#ffffff" stroke="none" transform="matrix(1 0 0 1 225 621 )" />
  </g>
</svg>