<?xml version="1.0" encoding="utf-8"?>
<svg version="1.1" xmlns:xlink="http://www.w3.org/1999/xlink" width="6px" height="6px" xmlns="http://www.w3.org/2000/svg">
  <g transform="matrix(1 0 0 1 -234 -624 )">
    <path d="M 0.57421875 1.265625  C 0.65625 1.4179687500000009  0.8125 1.5156250000000009  0.982421875 1.521484375  C 2.8261718749999982 1.638671875  4.255859375 3.251953124999999  4.162109374999998 5.107421875  C 4.152343749999998 5.36328125  4.349609374999998 5.583984374999998  4.609374999999998 5.59765625  C 4.865234374999998 5.609375  5.0859374999999964 5.412109375  5.101562499999998 5.154296875  C 5.218749999999998 2.783203124999999  3.3984374999999982 0.734375  1.041015625 0.583984375  C 0.869140625 0.56640625  0.703125 0.642578125  0.60546875 0.78515625  C 0.5078125 0.927734375  0.49609375 1.111328125  0.57421875 1.265625  Z M 0.423828125 4.013671875  C 0.498046875 4.171875  0.65625 4.265624999999998  0.830078125 4.271484375  C 1.171875 4.2890625  1.439453125 4.58203125  1.421875 4.923828125  C 1.40625 5.18359375  1.6054687499999982 5.40625  1.865234375 5.419921875  C 2.125 5.435546875  2.34765625 5.236328125  2.361328125 4.9765625  C 2.41015625 4.1171875  1.75 3.380859375  0.88671875 3.330078124999999  C 0.71484375 3.3125  0.548828125 3.390625  0.451171875 3.5332031249999982  C 0.35546875 3.675781249999999  0.34375 3.861328124999999  0.423828125 4.013671875  Z " fill-rule="nonzero" fill="#ffffff" stroke="none" transform="matrix(1 0 0 1 234 624 )" />
  </g>
</svg>