<?xml version="1.0" encoding="utf-8"?>
<svg version="1.1" xmlns:xlink="http://www.w3.org/1999/xlink" width="25px" height="19px" xmlns="http://www.w3.org/2000/svg">
  <g transform="matrix(1 0 0 1 -135 -621 )">
    <path d="M 24.176684570312503 9.017626953125001  C 24.176684570312503 8.3361572265625  23.3249755859375 7.7834228515625  22.27431640625 7.7834228515625  C 21.932885742187498 7.7834228515625  21.61328125 7.842358398437501  21.33642578125 7.94443359375  L 19.896215820312502 3.8333496093750012  C 19.565063476562504 3.2874755859375018  19.523388671875004 2.7022216796875007  18.998046875000004 2.7022216796875007  L 16.732397460937502 2.7022216796875007  L 16.408862304687503 1.0408935546875009  C 16.27529296875 0.5706054687500011  15.639306640625003 0.3771728515625008  15.114038085937503 0.3771728515625008  L 9.935424804687504 0.3771728515625008  C 9.410156250000004 0.3771728515625008  8.769946289062505 0.5706054687500011  8.640820312500004 1.0408935546875009  L 8.317065429687503 2.7022216796875007  L 6.051367187500004 2.7022216796875007  C 5.526098632812504 2.7022216796875007  5.380786132812504 3.3551269531250014  5.152929687500003 3.8333496093750012  L 3.7133056640625037 7.94443359375  C 3.4362060546875037 7.842333984375001  3.1160888671875036 7.7834228515625  2.7749023437500036 7.7834228515625  C 1.7242675781250036 7.7834228515625  0.8727294921875038 8.336181640625002  0.8727294921875038 9.017626953125001  C 0.8727294921875038 9.6990234375  1.7242675781250036 10.251782226562502  2.7749023437500036 10.251782226562502  C 2.7834960937500037 10.251782226562502  2.7917968750000037 10.2508544921875  2.8003906250000035 10.2508544921875  C 2.8052978515625036 10.281274414062498  2.8072753906250036 10.309790039062502  2.8146240234375037 10.341162109374999  C 2.726269531250004 11.884643554687498  3.5790283203125037 16.907958984375  3.726269531250004 17.6580810546875  C 3.917724609375004 18.5014892578125  4.2314453125000036 18.645825195312497  4.756738281250004 18.645825195312497  L 6.698632812500003 18.645825195312497  C 7.223901367187503 18.645825195312497  7.531274414062504 18.203002929687496  7.531274414062504 17.6580810546875  L 7.531274414062504 16.586865234375  C 7.778442382812504 16.612353515625  8.036181640625003 16.635986328125  8.316967773437504 16.65263671875  C 11.381420898437504 16.837255859375  14.104589843750004 16.8597900390625  16.732348632812506 16.65263671875  C 17.008789062500004 16.6310302734375  17.267724609375005 16.604541015625  17.518334960937505 16.5760498046875  L 17.518334960937505 17.658081054687504  C 17.518334960937505 18.203002929687504  17.825415039062502 18.6458251953125  18.350708007812504 18.6458251953125  L 20.292846679687504 18.6458251953125  C 20.8181396484375 18.6458251953125  21.190966796875006 18.2314697265625  21.323071289062504 17.658081054687504  C 21.631152343750003 16.76259765625  22.876977539062505 11.483178710937505  22.55263671875 10.237060546875  C 23.470922851562502 10.149707031250003  24.176611328125002 9.638134765625  24.176611328125002 9.017578125000002  Z M 7.9935058593749995 12.334375  C 7.9935058593749995 13.43505859375  7.1238037109375 14.3275634765625  6.0513427734375 14.3275634765625  C 4.9786376953125 14.3275634765625  4.10947265625 13.43505859375  4.10947265625 12.334375  C 4.10947265625 11.23369140625  4.9786376953125 10.341162109374999  6.0513427734375 10.341162109374999  C 7.123779296875001 10.341162109374999  7.9935058593749995 11.23369140625  7.9935058593749995 12.334375  Z M 18.4696533203125 8.277270507812501  C 18.4696044921875 8.277294921875  17.1101806640625 8.4962890625  15.761303710937499 8.6808349609375  C 14.4127685546875 8.8644775390625  10.957055664062498 8.7966796875  9.9354248046875 8.6808349609375  C 8.913525390624999 8.565966796875001  6.579638671874999 8.277270507812501  6.579638671874999 8.277270507812501  C 6.054321289062499 8.277270507812501  5.628442382812499 7.83447265625  5.628442382812499 7.289526367187502  L 6.104443359374999 5.314941406250002  C 6.302221679687499 4.620776367187501  6.497143554687498 4.362548828125001  7.022509765624998 4.362548828125001  L 18.0270263671875 4.362548828125001  C 18.552587890625 4.362548828125001  18.747021484374997 4.620776367187501  18.945361328125 5.314941406250002  L 19.420849609374997 7.289526367187502  C 19.420849609374997 7.834472656250002  18.994970703125 8.277270507812501  18.4696533203125 8.277270507812501  Z M 21.263720703125 12.334375  C 21.263720703125 13.43505859375  20.39404296875 14.3275634765625  19.3218505859375 14.3275634765625  C 18.2491943359375 14.3275634765625  17.3797119140625 13.43505859375  17.3797119140625 12.334375  C 17.3797119140625 11.23369140625  18.249169921875 10.341162109374999  19.3218505859375 10.341162109374999  C 20.3940673828125 10.341162109374999  21.263720703125 11.23369140625  21.263720703125 12.334375  Z " fill-rule="nonzero" fill="#fdfdfd" stroke="none" transform="matrix(1 0 0 1 135 621 )" />
  </g>
</svg>