<?xml version="1.0" encoding="utf-8"?>
<svg version="1.1" xmlns:xlink="http://www.w3.org/1999/xlink" width="19px" height="19px" xmlns="http://www.w3.org/2000/svg">
  <g transform="matrix(1 0 0 1 -314 -620 )">
    <path d="M 9.849084349063663 2.375580471686906  C 9.849084349063663 3.666796761328432  10.880677420410183 4.721453940286919  12.171578125 4.75  C 12.189077525917396 4.750386969301167  12.206580670087295 4.750580471686906  12.224084349063663 4.750580471686906  C 13.535760629911797 4.750580471686906  14.599084349063663 3.68725675253504  14.599084349063663 2.375580471686906  C 14.599084349063663 1.0639041908387712  13.535760629911797 0.0005804716869057258  12.224084349063663 0.0005804716869057258  C 12.206184725406548 0.0005804716869057258  12.188285673676758 0.0007828273880046976  12.170390625000001 0.0011874999999998692  C 10.879965977747661 0.030368728954400518  9.849084349063663 1.084825919357293  9.849084349063663 2.375580471686906  Z M 18.109078125 9.844375  C 18.109078125 8.01621875  16.801640625 6.53125  14.909359375 6.53125  L 9.182046875 6.53125  C 7.597921874999999 6.53125  6.343921874999998 7.569125  5.946109374999999 8.9786875  L 4.983046874999999 11.675500000000001  L 2.062390625 11.675500000000001  C 1.416390625 11.675500000000001  0.890328125 12.168312499999999  0.890328125 12.792937500000003  C 0.890328125 13.418156250000003  1.416390625 13.927000000000001  2.062390625 13.927000000000001  L 5.300109375000001 13.927000000000001  C 6.146796875000001 13.927000000000001  6.816546875 13.36709375  7.080171875000001 12.621343750000003  L 7.792671875000001 10.633468750000004  L 8.243921875 10.633468750000004  L 8.243921875 18.871156250000006  L 15.177734375 18.871156250000006  L 15.177734375 10.6316875  L 15.779796874999999 10.6316875  L 15.779796874999999 17.8659375  C 15.779796874999999 18.49353125  16.305265625 19  16.951859374999998 19  C 17.597859375 19  18.109078125 18.49353125  18.109078125 17.868312500000002  L 18.109078125 9.844375  Z " fill-rule="nonzero" fill="#ffffff" stroke="none" transform="matrix(1 0 0 1 314 620 )" />
  </g>
</svg>