<?xml version="1.0" encoding="utf-8"?>
<svg version="1.1" xmlns:xlink="http://www.w3.org/1999/xlink" width="21px" height="21px" xmlns="http://www.w3.org/2000/svg">
  <g transform="matrix(1 0 0 1 -47 -620 )">
    <path d="M 0.7667099609374999 5.9930556640625  L 1.4143710937499996 5.9930556640625  L 1.4143710937499996 9.878955078125001  L 0.7667099609374999 9.878955078125001  C 0.41009765624999983 9.878955078125001  0.11904882812499995 9.5920390625  0.11904882812499995 9.23131640625  L 0.11904882812499995 6.640671875  C 0.11904882812499995 6.2840595703124995  0.41009765624999983 5.993033203125  0.7667099609374999 5.993033203125  Z M 20.192298828125 5.9930556640625  L 19.5446376953125 5.9930556640625  L 19.5446376953125 9.878955078125001  L 20.192298828125 9.878955078125001  C 20.5489111328125 9.878955078125001  20.839959960937502 9.5920390625  20.839959960937502 9.23131640625  L 20.839959960937502 6.640671875  C 20.8440478515625 6.2840595703124995  20.553021484375 5.993033203125  20.192298828125 5.993033203125  Z M 18.2534482421875 4.697755859375  L 18 4.6977333984375  L 18 16.355566406250002  C 18.25342578125 17.072923828125  17.675460937500002 17.650888671875  16.958103515625 17.650888671875  L 16.958103515625 18.9462109375  C 16.958103515625 19.663545898437498  16.380138671875002 20.241533203124998  15.662803710937503 20.241533203124998  L 14.367481445312503 20.241533203124998  C 13.650146484375 20.241533203124998  13.072159179687503 19.659435546874995  13.072159179687503 18.9462109375  L 13.072159179687503 17.650888671875  L 7.8909375 17.650888671875  L 7.8909375 18.9462109375  C 7.8909375 19.663545898437498  7.312950195312499 20.241533203124998  6.595615234374999 20.241533203124998  L 5.30029296875 20.241533203124998  C 4.5829580078125 20.241533203124998  4.004970703124999 19.659435546874995  4.004970703124999 18.9462109375  L 4.004970703124999 17.650888671875  C 3.287658203125 17.650888671875  2.7096708984375004 17.0688134765625  3 16.355566406250002  L 3 4.6977333984375  C 2.7096708984375004 2.553904296875  4.4517861328125 0.8117890625000004  6.595615234374999 0.8117890625000004  L 14.367481445312496 0.8117890625000004  C 16.511310546875 0.8158994140625004  18.2534482421875 2.553904296875  18.2534482421875 4.697755859375  Z M 7.8909375 2.1111992187500004  L 7.8909375 3.4065214843750002  L 13.072181640625 3.4065214843750002  L 13.072181640625 2.1111992187500004  L 7.8909375 2.1111992187500004  Z M 5.30029296875 16.35556640625  C 6.017627929687501 16.35556640625  6.595615234375002 15.777579101562498  6.595615234375002 15.060244140625  C 6.595615234375002 14.34288671875  6.017650390625 13.764921875  5.30029296875 13.764921875  C 4.582935546875 13.764921875  4.004970703124999 14.34288671875  4.004970703124999 15.060244140625  C 4.004970703124999 15.7776015625  4.5829580078125 16.35556640625  5.30029296875 16.35556640625  Z M 15.662803710937503 16.35556640625  C 16.37605078125 16.35556640625  16.9581259765625 15.777579101562498  16.9581259765625 15.060244140625  C 16.9581259765625 14.34288671875  16.380138671875002 13.764921875  15.662803710937503 13.764921875  C 14.945468750000002 13.764921875  14.367481445312503 14.34288671875  14.367481445312503 15.060244140625  C 14.367481445312503 15.7776015625  14.945468750000002 16.35556640625  15.662803710937503 16.35556640625  Z M 16.958103515625 4.6977333984375  L 16.9581259765625 5  L 4.004970703125 5  L 4.004970703125 12.469622070312498  L 16.958103515625 12.469622070312498  L 16.958103515625 4.6977333984375  Z " fill-rule="nonzero" fill="#ffffff" stroke="none" transform="matrix(1 0 0 1 47 620 )" />
  </g>
</svg>