<?xml version="1.0" encoding="utf-8"?>
<svg version="1.1" xmlns:xlink="http://www.w3.org/1999/xlink" width="16px" height="14px" xmlns="http://www.w3.org/2000/svg">
  <g transform="matrix(1 0 0 1 -213 -695 )">
    <path d="M 14.666666679687502 11.833333320312498  C 14.666666718750001 12.333333320312498  14.333333359375004 12.666666640625  13.833333320312502 12.666666679687498  L 12.166666679687502 12.666666679687498  C 11.666666679687506 12.666666679687498  11.333333359375 12.333333359375  11.333333320312502 11.833333320312498  C 11.333333281250002 11.333333281249995  11.666666640625 10.999999999999996  12.166666679687502 10.999999999999996  L 13.833333320312502 10.999999999999996  C 14.333333320312498 10.999999999999996  14.666666640625003 11.333333320312494  14.666666679687502 11.833333320312498  Z M 6.333333320312498 1.8333333203125015  C 6.333333320312498 2.333333320312498  6 2.6666666406249995  5.5 2.666666679687502  L 2.1666666796875003 2.666666679687502  C 1.6666666796875003 2.666666679687502  1.3333333593750005 2.3333333593750005  1.3333333203125015 1.8333333203125015  C 1.3333332812500025 1.3333332812500025  1.666666640625003 1.0000000000000018  2.1666666796875003 1.0000000000000018  L 5.5 1.0000000000000018  C 6 1.0000000000000018  6.333333320312498 1.3333333203125033  6.333333320312498 1.8333333203125015  Z M 6.333333320312498 6.833333320312498  C 6.333333320312498 7.333333320312494  6 7.6666666406249995  5.5 7.6666666796874985  L 2.1666666796875003 7.6666666796874985  C 1.6666666796875003 7.6666666796874985  1.3333333593750005 7.3333333593750005  1.3333333203125015 6.833333320312498  C 1.3333332812500025 6.333333281249995  1.666666640625003 5.9999999999999964  2.1666666796875003 5.9999999999999964  L 5.5 5.9999999999999964  C 6 5.9999999999999964  6.333333320312498 6.333333320312498  6.333333320312498 6.833333320312498  Z M 6.333333320312498 11.833333320312498  C 6.333333320312498 12.333333320312498  6 12.666666640625  5.5 12.666666679687498  L 2.1666666796875003 12.666666679687498  C 1.6666666796875003 12.666666679687498  1.3333333593750005 12.333333359375  1.3333333203125015 11.833333320312498  C 1.3333332812500025 11.333333281249995  1.666666640625003 10.999999999999996  2.1666666796875003 10.999999999999996  L 5.5 10.999999999999996  C 6 10.999999999999996  6.333333320312498 11.333333320312494  6.333333320312498 11.833333320312498  Z M 14.666666679687502 6.833333320312498  C 14.666666718750001 7.333333320312494  14.333333359375004 7.6666666406249995  13.833333320312502 7.6666666796874985  L 12.166666679687502 7.6666666796874985  C 11.666666679687506 7.6666666796874985  11.333333359375 7.3333333593750005  11.333333320312502 6.833333320312498  C 11.333333281250002 6.333333281249995  11.666666640625 5.9999999999999964  12.166666679687502 5.9999999999999964  L 13.833333320312502 5.9999999999999964  C 14.333333320312498 5.9999999999999964  14.666666640625003 6.333333320312498  14.666666679687502 6.833333320312498  Z " fill-rule="nonzero" fill="#c5c9d4" stroke="none" transform="matrix(1 0 0 1 213 695 )" />
  </g>
</svg>