<?xml version="1.0" encoding="utf-8"?>
<svg version="1.1" xmlns:xlink="http://www.w3.org/1999/xlink" width="28px" height="22px" xmlns="http://www.w3.org/2000/svg">
  <g transform="matrix(1 0 0 1 -207 -691 )">
    <path d="M 16 20  L 15.666666679687498 20  L 26.5 20  C 27 20  27.333333320312505 20.333333320312498  27.333333320312505 20.8333333203125  C 27.333333320312505 21.333333320312505  27 21.666666640625003  26.5 21.666666679687502  L 1.5 21.666666679687502  C 1 21.666666679687502  0.6666666796874994 21.333333359375004  0.6666666796874994 20.8333333203125  C 0.6666666796874994 20.33333328125  1 20  1.5 20  L 4 20  L 4 4.3333333203125  C 4 2.8333333203125015  4.1666666796874985 2.1666666406250012  4.5 1.6666666796875  C 4.6666666796875 1.1666666796875003  5.1666666796875 0.6666666796875003  5.6666666796875 0.5  C 6.166666679687502 0.1666666796874985  6.8333333593750005 0  8.3333333203125 0  L 11.5 0  C 13 0  13.5 0.1666666796874985  14 0.5  C 14.500000000000002 0.8333333203125015  15 1.1666666796875003  15.333333320312498 1.8333333203124997  C 15.666666640625 2.499999960937501  15.666666640625 2.8333333203125015  15.666666679687498 4.3333333203125  L 15.666666679687498 5.5  C 16.166666679687495 5.1666666796874985  16.833333359374997 5  18.1666666796875 5  L 19.833333320312498 5  C 21.166666640624996 5  21.833333320312498 5.1666666796874985  22.333333320312498 5.5  C 22.833333320312494 5.833333320312502  23.333333320312498 6.166666679687502  23.666666679687495 6.8333333203125015  C 23.999999999999996 7.3333333203125015  24.166666679687495 8  24.166666679687495 9.333333320312502  L 24.166666679687495 17.6666666796875  C 24.166666679687495 18.1666666796875  23.833333359374997 18.5  23.333333320312494 18.5  C 22.833333281249992 18.5  22.499999999999993 18.166666679687502  22.499999999999993 17.6666666796875  L 22.499999999999993 9.333333320312498  C 22.499999999999993 8.333333320312498  22.499999999999993 8  22.33333332031249 7.6666666796874985  C 22.166666640624992 7.333333359374997  21.999999999999993 7.166666679687495  21.833333320312494 7.166666679687495  C 21.499999999999996 6.9999999999999964  21.166666640624992 6.9999999999999964  20.166666679687495 6.9999999999999964  L 18.499999999999996 6.9999999999999964  C 17.499999999999996 6.9999999999999964  17.1666666796875 6.9999999999999964  16.833333320312498 7.166666679687495  C 16.5 7.333333359374997  16.3333333203125 7.499999999999997  16.3333333203125 7.6666666796874985  C 16.166666640625003 8  16.166666640625003 8.333333359374997  16 9.333333320312498  L 16 20  Z M 6 20  L 14 20  L 14 4.3333333203125  C 13.999999999999996 3.1666666406249995  13.999999999999996 2.8333333203125015  13.833333320312498 2.5  C 13.666666640625 2.1666666796874985  13.499999999999996 2  13.333333320312498 2  C 12.833333320312498 1.6666666796874985  12.5 1.6666666796874985  11.333333320312498 1.6666666796874985  L 8.3333333203125 1.6666666796874985  C 7.1666666406249995 1.6666666796874985  6.8333333203125015 1.6666666796874985  6.5 1.833333320312498  C 6.1666666796874985 1.9999999999999964  6 2.1666666406249995  5.8333333203125 2.4999999999999982  C 5.666666640625001 2.833333320312498  5.666666640625001 3.1666666796874985  6 4.333333320312498  L 6 20  Z " fill-rule="nonzero" fill="#c5c9d4" stroke="none" transform="matrix(1 0 0 1 207 691 )" />
  </g>
</svg>