<?xml version="1.0" encoding="utf-8"?>
<svg version="1.1" xmlns:xlink="http://www.w3.org/1999/xlink" width="20px" height="20px" xmlns="http://www.w3.org/2000/svg">
  <g transform="matrix(1 0 0 1 -344 -41 )">
    <path d="M 10 19.942857142857143  C 15.491200000000001 19.942857142857143  19.942857142857143 15.491314285714285  19.942857142857143 10  C 19.942857142857143 4.508685714285715  15.491200000000001 0.0571428571428572  10 0.0571428571428572  C 4.5088 0.0571428571428572  0.0571428571428572 4.508685714285715  0.0571428571428572 10  C 0.0571428571428572 15.491314285714285  4.5088 19.942857142857143  10 19.942857142857143  Z M 10 1.4130285714285715  C 14.735085714285713 1.4130285714285715  18.587314285714285 5.265142857142857  18.58731428571429 10  C 18.58731428571429 14.734857142857141  14.735085714285717 18.586971428571427  10.000000000000002 18.586971428571427  C 5.265142857142859 18.586971428571427  1.41314285714286 14.734857142857141  1.41314285714286 10  C 1.41314285714286 5.265142857142858  5.265142857142857 1.4130285714285715  10 1.4130285714285715  Z " fill-rule="nonzero" fill="#333333" stroke="none" transform="matrix(1 0 0 1 344 41 )" />
  </g>
</svg>