<?xml version="1.0" encoding="utf-8"?>
<svg version="1.1" xmlns:xlink="http://www.w3.org/1999/xlink" width="47px" height="39px" xmlns="http://www.w3.org/2000/svg">
  <defs>
    <linearGradient gradientUnits="userSpaceOnUse" x1="24.258373205741623" y1="0" x2="24.73684210526315" y2="39" id="LinearGradient1043">
      <stop id="Stop1044" stop-color="#005eff" stop-opacity="0.8823529411764706" offset="0" />
      <stop id="Stop1045" stop-color="#8c96ff" stop-opacity="0.9921568627450981" offset="1" />
    </linearGradient>
  </defs>
  <g transform="matrix(1 0 0 1 -20 -388 )">
    <path d="M 13.108699122106943 2.474059058260176  C 10.211996807661611 5.391600957701517  10.211996807661611 10.1430263367917  13.108699122106943 13.039728651237029  L 23.591010375099756 23.501200319233842  C 23.591010375099756 23.501200319233842  23.63268954509178 23.52203990422985  23.65352913008779 23.52203990422985  C 23.695208300079802 23.52203990422985  23.695208300079802 23.52203990422985  23.716047885075813 23.501200319233842  L 34.17751955307263 13.039728651237029  C 35.59461133280128 11.664316041500399  36.36567597765363 9.788753391859533  36.36567597765363 7.767313647246606  C 36.36567597765363 5.808392657621707  35.57377174780527 3.8911508379888247  34.17751955307263 2.4948986432561835  C 32.80210694333599 1.0778068635275337  30.92654429369513 0.30674221867517915  28.905104549082207 0.30674221867517915  C 27.321296089385477 0.30674221867517915  25.82084596967279 0.7860526735833995  24.591310454908225 1.6613152434158023  L 29.801206703910616 6.871211492418196  C 30.030442138866714 7.100446927374302  30.176319233838786 7.433880287310455  30.176319233838786 7.767313647246609  C 30.176319233838786 8.100747007182761  30.051281723862733 8.413340782122905  29.801206703910616 8.66341580207502  C 29.571971268954513 8.892651237031124  29.23853790901836 9.038528332003192  28.88426496408619 9.038528332003192  C 28.529992019154033 9.038528332003192  28.217398244213886 8.913490822027134  27.967323224261772 8.66341580207502  L 22.71574780526736 3.4118403830806048  C 19.881564245810058 0.5984964086193134  16.943182761372707 0.03582761372705434  13.963122106943336 1.7238339984038298  C 13.671367916999202 1.9322298483639262  13.379613727055068 2.1614652833200303  13.129538707102952 2.4532194732641663  L 13.108699122106943 2.474059058260176  Z M 31.7184485235435 25.793554668794904  C 33.80240702314446 26.585458898643267  46.53539345570631 33.379163607342385  46.53539345570631 33.37916360734238  C 47.43149561053472 34.27526576217079  43.55533280127695 37.94303272146848  41.992363926576225 37.94303272146848  C 40.4293950518755 37.94303272146848  32.98966320830009 36.88021388667199  31.072421388667202 36.88021388667199  C 28.988462889066245 36.88021388667199  24.73718754988029 38.693257781324824  17.630889066241025 38.96417238627295  C 11.191457302474067 39.19340782122906  3.6058483639265786 34.129388667198725  0.9592210694333625 31.35772386272945  C -0.3536727853152408 30.003150837988827  1.9178419792498027 26.81469433359936  6.2941548284118145 30.003150837988827  C 12.77526576217079 34.692057462090986  19.068820430965687 33.29580526735835  21.048581005586595 32.69145730247407  C 22.715747805267362 32.191307262569836  22.27811652035116 30.795055067837197  21.986362330407022 30.878413407821235  C 20.465072625698326 31.274365522745413  16.922343176376696 32.52474062250599  13.067019952114928 31.503600957701522  C 11.545730247406228 31.107648842777344  11.003901037509978 30.232386272944936  10.94138228252195 29.690557063048686  C 10.89970311252993 29.29460494812451  11.191457302474065 28.66941739824422  12.04588028731046 28.66941739824422  C 12.900303272146852 28.66941739824422  18.026841181165207 29.940632083000807  21.90300399042299 27.106448523543506  C 25.779166799680773 24.272264964086204  29.634490023942544 24.980810853950526  31.7184485235435 25.793554668794904  Z " fill-rule="nonzero" fill="url(#LinearGradient1043)" stroke="none" transform="matrix(1 0 0 1 20 388 )" />
  </g>
</svg>