<?xml version="1.0" encoding="utf-8"?>
<svg version="1.1" xmlns:xlink="http://www.w3.org/1999/xlink" width="22px" height="16px" xmlns="http://www.w3.org/2000/svg">
  <defs>
    <linearGradient gradientUnits="userSpaceOnUse" x1="7" y1="0" x2="7" y2="8" id="LinearGradient1051">
      <stop id="Stop1052" stop-color="#374ec7" offset="0" />
      <stop id="Stop1053" stop-color="#7b90fd" offset="1" />
    </linearGradient>
    <filter x="348px" y="768px" width="22px" height="16px" filterUnits="userSpaceOnUse" id="filter1054">
      <feOffset dx="1" dy="1" in="SourceAlpha" result="shadowOffsetInner" />
      <feGaussianBlur stdDeviation="2" in="shadowOffsetInner" result="shadowGaussian" />
      <feComposite in2="shadowGaussian" operator="atop" in="SourceAlpha" result="shadowComposite" />
      <feColorMatrix type="matrix" values="0 0 0 0 0  0 0 0 0 0  0 0 0 0 0  0 0 0 0.3137254901960784 0  " in="shadowComposite" />
    </filter>
    <g id="widget1055">
      <path d="M 13.650436946980337 7.788778883044555  C 13.475655420470506 7.876787685643565  13.213483146067418 7.964796488242576  13.038701619557585 7.964796472772276  C 12.776529329792835 7.964796472772276  12.514357055389748 7.876787670173267  12.339575528879914 7.700770080445544  L 7.533083642029496 1.9801980198019802  C 7.358302115519663 1.8921892172029706  7.270911352264746 1.804180414603961  7.008739077861657 1.804180414603961  C 6.921348314606742 1.804180414603961  6.659176024841994 1.8921892172029717  6.571785261587079 1.9801980198019802  L 1.503121100333568 7.612761277846536  C 1.1535580473139047 7.964796488242574  0.629213483146068 7.964796488242574  0.2796504301264051 7.700770080445547  C -0.0699126228932579 7.348734870049506  -0.0699126228932579 6.820682069925743  0.19225968223314657 6.468646859529703  L 5.260923843486657 0.8360836014851486  C 5.697877644399578 0.30803080136138644  6.397003750438905 0.04400439356435705  7.096129841116573 0.04400439356435705  C 7.795255931794242 0.04400439356435705  8.406991259216996 0.3960396039603966  8.931335823384833 0.9240924040841593  L 13.737827710235255 6.556655662128714  C 14.087390763254918 6.908690872524752  14.000000000000004 7.436743672648514  13.650436946980337 7.788778883044555  Z " fill-rule="nonzero" fill="url(#LinearGradient1051)" stroke="none" transform="matrix(1 0 0 1 351 771 )" />
    </g>
  </defs>
  <g transform="matrix(1 0 0 1 -348 -768 )">
    <use xlink:href="#widget1055" filter="url(#filter1054)" />
    <use xlink:href="#widget1055" />
  </g>
</svg>