<?xml version="1.0" encoding="utf-8"?>
<svg version="1.1" xmlns:xlink="http://www.w3.org/1999/xlink" width="19px" height="18px" xmlns="http://www.w3.org/2000/svg">
  <defs>
    <linearGradient gradientUnits="userSpaceOnUse" x1="9.5" y1="0" x2="9.5" y2="18" id="LinearGradient1056">
      <stop id="Stop1057" stop-color="#374ec7" offset="0" />
      <stop id="Stop1058" stop-color="#7b90fd" offset="1" />
    </linearGradient>
  </defs>
  <g transform="matrix(1 0 0 1 -28 -805 )">
    <path d="M 17.64225 10.46025  C 18.33975 10.241999999999999  17.919 9.4545  17.22825 9.11025  L 1.2914999999999999 1.14525  C 1.28925 1.14525  1.28925 1.14525  1.28925 1.143  C 0.18225 0.5895  -0.11699999999999999 1.16775  0.038250000000000006 1.7775  L 3.12075 14.0085  C 3.2355 14.465250000000001  3.5820000000000003 14.874749999999999  4.45725 14.59575  L 4.459499999999999 14.59575  L 10.5075 12.6675  L 5.375249999999999 6.41475  L 4.74525 5.647499999999999  C 4.743 5.55525  4.830749999999999 5.530499999999999  4.9905 5.60025  L 12.795749999999998 11.98125  L 17.64 10.46025  L 17.64225 10.46025  Z M 8.378999999999998 14.51025  L 9.906749999999999 16.668  C 10.455749999999998 17.43975  10.732499999999998 17.00775  10.732499999999998 16.3485  L 10.732499999999998 13.812750000000001  L 8.378999999999998 14.51025  Z " fill-rule="nonzero" fill="url(#LinearGradient1056)" stroke="none" transform="matrix(1 0 0 1 28 805 )" />
  </g>
</svg>