<?xml version="1.0" encoding="utf-8"?>
<svg version="1.1" xmlns:xlink="http://www.w3.org/1999/xlink" width="144px" height="30px" viewBox="37 935  144 30" xmlns="http://www.w3.org/2000/svg">
  <defs>
    <linearGradient gradientUnits="userSpaceOnUse" x1="109" y1="938" x2="109" y2="960" id="LinearGradient1064">
      <stop id="Stop1065" stop-color="#374ec7" offset="0" />
      <stop id="Stop1066" stop-color="#7b90fd" offset="1" />
    </linearGradient>
    <filter x="37px" y="935px" width="144px" height="30px" filterUnits="userSpaceOnUse" id="filter1067">
      <feOffset dx="0" dy="1" in="SourceAlpha" result="shadowOffsetInner" />
      <feGaussianBlur stdDeviation="2" in="shadowOffsetInner" result="shadowGaussian" />
      <feComposite in2="shadowGaussian" operator="atop" in="SourceAlpha" result="shadowComposite" />
      <feColorMatrix type="matrix" values="0 0 0 0 0  0 0 0 0 0  0 0 0 0 0  0 0 0 0.09803921568627451 0  " in="shadowComposite" />
    </filter>
    <g id="widget1068">
      <path d="M 41.5 942  A 3.5 3.5 0 0 1 45 938.5 L 173 938.5  A 3.5 3.5 0 0 1 176.5 942 L 176.5 956  A 3.5 3.5 0 0 1 173 959.5 L 45 959.5  A 3.5 3.5 0 0 1 41.5 956 L 41.5 942  Z " fill-rule="nonzero" fill="#ffffff" stroke="none" fill-opacity="0" />
      <path d="M 41.5 942  A 3.5 3.5 0 0 1 45 938.5 L 173 938.5  A 3.5 3.5 0 0 1 176.5 942 L 176.5 956  A 3.5 3.5 0 0 1 173 959.5 L 45 959.5  A 3.5 3.5 0 0 1 41.5 956 L 41.5 942  Z " stroke-width="1" stroke="url(#LinearGradient1064)" fill="none" />
    </g>
  </defs>
  <use xlink:href="#widget1068" filter="url(#filter1067)" />
  <use xlink:href="#widget1068" />
</svg>