<?xml version="1.0" encoding="utf-8"?>
<svg version="1.1" xmlns:xlink="http://www.w3.org/1999/xlink" width="173px" height="30px" viewBox="24 909  173 30" xmlns="http://www.w3.org/2000/svg">
  <defs>
    <linearGradient gradientUnits="userSpaceOnUse" x1="110.5" y1="912" x2="110.5" y2="934" id="LinearGradient1059">
      <stop id="Stop1060" stop-color="#374ec7" offset="0" />
      <stop id="Stop1061" stop-color="#7b90fd" offset="1" />
    </linearGradient>
    <filter x="24px" y="909px" width="173px" height="30px" filterUnits="userSpaceOnUse" id="filter1062">
      <feOffset dx="0" dy="1" in="SourceAlpha" result="shadowOffsetInner" />
      <feGaussianBlur stdDeviation="2" in="shadowOffsetInner" result="shadowGaussian" />
      <feComposite in2="shadowGaussian" operator="atop" in="SourceAlpha" result="shadowComposite" />
      <feColorMatrix type="matrix" values="0 0 0 0 0  0 0 0 0 0  0 0 0 0 0  0 0 0 0.09803921568627451 0  " in="shadowComposite" />
    </filter>
    <g id="widget1063">
      <path d="M 28.5 916  A 3.5 3.5 0 0 1 32 912.5 L 189 912.5  A 3.5 3.5 0 0 1 192.5 916 L 192.5 930  A 3.5 3.5 0 0 1 189 933.5 L 32 933.5  A 3.5 3.5 0 0 1 28.5 930 L 28.5 916  Z " fill-rule="nonzero" fill="#ffffff" stroke="none" fill-opacity="0" />
      <path d="M 28.5 916  A 3.5 3.5 0 0 1 32 912.5 L 189 912.5  A 3.5 3.5 0 0 1 192.5 916 L 192.5 930  A 3.5 3.5 0 0 1 189 933.5 L 32 933.5  A 3.5 3.5 0 0 1 28.5 930 L 28.5 916  Z " stroke-width="1" stroke="url(#LinearGradient1059)" fill="none" />
    </g>
  </defs>
  <use xlink:href="#widget1063" filter="url(#filter1062)" />
  <use xlink:href="#widget1063" />
</svg>