<?xml version="1.0" encoding="utf-8"?>
<svg version="1.1" xmlns:xlink="http://www.w3.org/1999/xlink" width="12px" height="13px" xmlns="http://www.w3.org/2000/svg">
  <g transform="matrix(1 0 0 1 -85 -895 )">
    <path d="M 10.9564135546875 6.032158179687503  C 11.30490926953125 5.7280204062500015  11.3374132265625 5.203352134765625  11.029246177734375 4.859928974609375  L 7.888899328125001 1.362434263671875  C 7.724328914062502 1.1294382382812502  7.479352992187501 0.9499918964843747  7.180989298828127 0.8712232988281244  L 6.492326208984377 0.6893665917968752  C 6.428577433593752 0.6725300000000001  6.364594816406253 0.6609278750000005  6.3008640234375015 0.6541644628906251  C 6.032575921875003 0.5392403867187507  5.710828066406252 0.5652147734374999  5.459394539062501 0.7504351953124999  L 1.0970641992187513 3.966114962890626  C 0.7247346386718765 4.2408067226562505  0.6486102480468765 4.76121189453125  0.9271514062500015 5.128360953125  C 1.092549257812502 5.346499050781251  1.3459794492187518 5.461441126953126  1.6027013906250014 5.461441126953126  C 1.7779745625000016 5.461441126953126  1.9552983281250018 5.407513689453127  2.106701671875001 5.296007292968751  L 4.388706480468751 3.613841796875001  L 3.8654592421875016 5.5383030078125  C 3.8403662578125015 5.59602587890625  3.821281195312501 5.657310324218749  3.8095891230468766 5.721742642578127  L 3.215901644531251 8.996818138671877  L 0.9724087324218766 11.483272326171878  C 0.6630184921875015 11.826083908203127  0.6942813105468764 12.350950039062504  1.041931587890626 12.655645460937503  C 1.2023827968750016 12.796346064453129  1.402335234375001 12.86547320117188  1.6014602343750015 12.86547320117188  C 1.833916628906251 12.86547320117188  2.0651318671875014 12.771414974609378  2.2313571562500014 12.586932060546879  L 4.6328369296875 9.925312630859375  C 4.736518634765625 9.810766291015623  4.805627771484375 9.670281546875  4.8327893671875 9.519651675781251  L 5.233179908203125 7.311504804687502  L 7.02197710546875 9.671702580078126  L 7.891309693359375 12.293191203125001  C 8.00774475 12.643305828125001  8.337713033203126 12.86568904296875  8.692342599609375 12.86568904296875  C 8.778738029296877 12.86568904296875  8.867202052734376 12.852306113281251  8.954011183593751 12.824335080078125  C 9.396295318359376 12.68181770703125  9.637799578125 12.212911625  9.49339348828125 11.7770491484375  L 8.580854185546874 9.026030345703127  C 8.552055714843748 8.940282476562501  8.5096764375 8.859589197265626  8.454957544921875 8.7872242578125  L 6.87917192578125 6.707960005859377  L 7.718986535156251 3.679461324218753  L 9.766987986328125 5.960386853515628  C 9.93360901171875 6.145877099609377  10.165651687499999 6.240564886718753  10.39852180078125 6.240564886718753  C 10.59681936328125 6.240564886718753  10.795962328125 6.171833486328129  10.9564135546875 6.032158179687503  Z " fill-rule="nonzero" fill="#121735" stroke="none" transform="matrix(1 0 0 1 85 895 )" />
  </g>
</svg>