<?xml version="1.0" encoding="utf-8"?>
<svg version="1.1" xmlns:xlink="http://www.w3.org/1999/xlink" width="97px" height="30px" viewBox="24 1023  97 30" xmlns="http://www.w3.org/2000/svg">
  <defs>
    <linearGradient gradientUnits="userSpaceOnUse" x1="72.5" y1="1026" x2="72.5" y2="1048" id="LinearGradient1069">
      <stop id="Stop1070" stop-color="#374ec7" offset="0" />
      <stop id="Stop1071" stop-color="#7b90fd" offset="1" />
    </linearGradient>
    <filter x="24px" y="1023px" width="97px" height="30px" filterUnits="userSpaceOnUse" id="filter1072">
      <feOffset dx="0" dy="1" in="SourceAlpha" result="shadowOffsetInner" />
      <feGaussianBlur stdDeviation="2" in="shadowOffsetInner" result="shadowGaussian" />
      <feComposite in2="shadowGaussian" operator="atop" in="SourceAlpha" result="shadowComposite" />
      <feColorMatrix type="matrix" values="0 0 0 0 0  0 0 0 0 0  0 0 0 0 0  0 0 0 0.09803921568627451 0  " in="shadowComposite" />
    </filter>
    <g id="widget1073">
      <path d="M 28.5 1030  A 3.5 3.5 0 0 1 32 1026.5 L 113 1026.5  A 3.5 3.5 0 0 1 116.5 1030 L 116.5 1044  A 3.5 3.5 0 0 1 113 1047.5 L 32 1047.5  A 3.5 3.5 0 0 1 28.5 1044 L 28.5 1030  Z " fill-rule="nonzero" fill="#ffffff" stroke="none" fill-opacity="0" />
      <path d="M 28.5 1030  A 3.5 3.5 0 0 1 32 1026.5 L 113 1026.5  A 3.5 3.5 0 0 1 116.5 1030 L 116.5 1044  A 3.5 3.5 0 0 1 113 1047.5 L 32 1047.5  A 3.5 3.5 0 0 1 28.5 1044 L 28.5 1030  Z " stroke-width="1" stroke="url(#LinearGradient1069)" fill="none" />
    </g>
  </defs>
  <use xlink:href="#widget1073" filter="url(#filter1072)" />
  <use xlink:href="#widget1073" />
</svg>