<?xml version="1.0" encoding="utf-8"?>
<svg version="1.1" xmlns:xlink="http://www.w3.org/1999/xlink" width="221px" height="30px" viewBox="37 1049  221 30" xmlns="http://www.w3.org/2000/svg">
  <defs>
    <linearGradient gradientUnits="userSpaceOnUse" x1="147.5" y1="1052" x2="147.5" y2="1074" id="LinearGradient1074">
      <stop id="Stop1075" stop-color="#374ec7" offset="0" />
      <stop id="Stop1076" stop-color="#7b90fd" offset="1" />
    </linearGradient>
    <filter x="37px" y="1049px" width="221px" height="30px" filterUnits="userSpaceOnUse" id="filter1077">
      <feOffset dx="0" dy="1" in="SourceAlpha" result="shadowOffsetInner" />
      <feGaussianBlur stdDeviation="2" in="shadowOffsetInner" result="shadowGaussian" />
      <feComposite in2="shadowGaussian" operator="atop" in="SourceAlpha" result="shadowComposite" />
      <feColorMatrix type="matrix" values="0 0 0 0 0  0 0 0 0 0  0 0 0 0 0  0 0 0 0.09803921568627451 0  " in="shadowComposite" />
    </filter>
    <g id="widget1078">
      <path d="M 41.5 1056  A 3.5 3.5 0 0 1 45 1052.5 L 250 1052.5  A 3.5 3.5 0 0 1 253.5 1056 L 253.5 1070  A 3.5 3.5 0 0 1 250 1073.5 L 45 1073.5  A 3.5 3.5 0 0 1 41.5 1070 L 41.5 1056  Z " fill-rule="nonzero" fill="#ffffff" stroke="none" fill-opacity="0" />
      <path d="M 41.5 1056  A 3.5 3.5 0 0 1 45 1052.5 L 250 1052.5  A 3.5 3.5 0 0 1 253.5 1056 L 253.5 1070  A 3.5 3.5 0 0 1 250 1073.5 L 45 1073.5  A 3.5 3.5 0 0 1 41.5 1070 L 41.5 1056  Z " stroke-width="1" stroke="url(#LinearGradient1074)" fill="none" />
    </g>
  </defs>
  <use xlink:href="#widget1078" filter="url(#filter1077)" />
  <use xlink:href="#widget1078" />
</svg>