<?xml version="1.0" encoding="utf-8"?>
<svg version="1.1" xmlns:xlink="http://www.w3.org/1999/xlink" width="4px" height="4px" xmlns="http://www.w3.org/2000/svg">
  <g transform="matrix(1 0 0 1 -365 -292 )">
    <path d="M 0.3828125 0.84375  C 0.4375 0.9453125000000006  0.5416666666666666 1.0104166666666672  0.6549479166666666 1.0143229166666667  C 1.8841145833333321 1.0924479166666667  2.8372395833333335 2.1679687499999996  2.774739583333332 3.4049479166666665  C 2.7682291666666656 3.5755208333333335  2.899739583333332 3.7226562499999987  3.0729166666666656 3.7317708333333335  C 3.243489583333332 3.7395833333333335  3.390624999999998 3.6080729166666665  3.4010416666666656 3.4361979166666665  C 3.4791666666666656 1.8554687499999993  2.2656249999999987 0.4895833333333333  0.6940104166666666 0.3893229166666667  C 0.5794270833333334 0.3776041666666667  0.46875 0.4283854166666667  0.4036458333333333 0.5234375  C 0.3385416666666667 0.6184895833333334  0.3307291666666667 0.7408854166666666  0.3828125 0.84375  Z M 0.2825520833333333 2.67578125  C 0.33203125 2.78125  0.4375 2.8437499999999987  0.5533854166666666 2.84765625  C 0.78125 2.859375  0.9596354166666666 3.0546875  0.9479166666666666 3.2825520833333335  C 0.9375 3.4557291666666665  1.070312499999999 3.6041666666666665  1.2434895833333333 3.61328125  C 1.4166666666666667 3.6236979166666665  1.5651041666666667 3.4908854166666665  1.57421875 3.3177083333333335  C 1.6067708333333333 2.7447916666666665  1.1666666666666667 2.25390625  0.5911458333333334 2.2200520833333326  C 0.4765625 2.2083333333333335  0.3658854166666667 2.2604166666666665  0.30078125 2.3554687499999987  C 0.23697916666666666 2.4505208333333326  0.22916666666666666 2.5742187499999996  0.2825520833333333 2.67578125  Z " fill-rule="nonzero" fill="#ffffff" stroke="none" transform="matrix(1 0 0 1 365 292 )" />
  </g>
</svg>