<?xml version="1.0" encoding="utf-8"?>
<svg version="1.1" xmlns:xlink="http://www.w3.org/1999/xlink" width="12px" height="13px" xmlns="http://www.w3.org/2000/svg">
  <g transform="matrix(1 0 0 1 -358 -290 )">
    <path d="M 11.583639705882353 10.35373263888889  C 11.638786764705882 9.7373046875  10.854319852941178 8.989691840277777  9.835477941176471 8.42263454861111  C 9.056525735294118 7.99099392361111  8.305147058823529 7.724392361111112  7.846047794117647 7.811848958333334  C 7.590992647058823 7.859809027777778  7.422794117647057 7.981119791666666  7.2090992647058805 8.212456597222223  L 7.108455882352942 8.319661458333334  C 6.951286764705882 8.488932291666666  6.8478860294117645 8.565104166666666  6.6920955882352935 8.606011284722223  C 6.54595588235294 8.641276041666666  6.391544117647058 8.60177951388889  6.275735294117645 8.503038194444445  C 6.1144301470588225 8.374674479166666  5.405790441176469 7.648220486111112  5.080422794117646 7.250434027777778  L 4.835018382352941 6.951388888888888  L 4.826746323529411 6.941514756944445  C 4.432444852941176 6.4647352430555545  4.23391544117647 6.209418402777778  4.209099264705882 6.145941840277778  C 4.091911764705882 5.866644965277778  4.090533088235293 5.646592881944445  4.182904411764705 5.470269097222222  C 4.21875 5.399739583333333  4.304227941176471 5.329210069444445  4.454503676470588 5.238932291666667  C 4.466911764705881 5.23046875  4.70266544117647 5.100694444444445  4.767463235294117 5.058376736111112  C 4.869485294117646 5.000542534722222  4.953584558823528 4.915907118055555  5.015624999999998 4.814344618055555  C 5.310661764705881 4.293836805555555  5.194852941176469 3.214735243055556  4.797794117647058 2.2329644097222223  C 4.31112132352941 1.0339626736111112  3.31985294117647 0.10579427083333318  2.6291360294117636 0.2835286458333335  C 2.02251838235294 0.44010416666666663  1.2118566176470575 0.9267578125  0.7913602941176457 1.4232855902777781  C -0.23437500000000133 2.6321614583333335  0.6479779411764693 6.5634765625  2.830422794117646 9.225260416666666  C 4.760569852941177 11.578125  7.920496323529411 13.084635416666668  9.923713235294118 12.61349826388889  C 10.625459558823529 12.44845920138889  11.503676470588236 11.221245659722223  11.583639705882353 10.35373263888889  Z M 11.895220588235293 5.996419270833333  C 12.060661764705884 3.1879340277777763  9.955422794117647 0.768771701388888  7.20358455882353 0.6009114583333334  C 7.020220588235295 0.589626736111111  6.8630514705882355 0.7335069444444444  6.8534007352941195 0.9182942708333333  C 6.842371323529413 1.105902777777778  6.982996323529411 1.2667100694444444  7.163602941176471 1.2765842013888888  C 9.54871323529412 1.4190538194444442  11.375459558823529 3.519422743055556  11.233455882352942 5.955512152777778  C 11.221047794117647 6.079644097222222  11.274816176470589 6.200954861111112  11.376838235294118 6.271484375  C 11.477481617647058 6.342013888888888  11.608455882352942 6.349066840277778  11.717371323529411 6.292643229166667  C 11.826286764705882 6.234809027777777  11.893841911764707 6.120551215277778  11.895220588235293 5.996419270833333  Z " fill-rule="nonzero" fill="#ffffff" stroke="none" transform="matrix(1 0 0 1 358 290 )" />
  </g>
</svg>