<?xml version="1.0" encoding="utf-8"?>
<svg version="1.1" xmlns:xlink="http://www.w3.org/1999/xlink" width="14px" height="14px" xmlns="http://www.w3.org/2000/svg">
  <defs>
    <linearGradient gradientUnits="userSpaceOnUse" x1="7" y1="0" x2="7" y2="14" id="LinearGradient1079">
      <stop id="Stop1080" stop-color="#374ec7" offset="0" />
      <stop id="Stop1081" stop-color="#7b90fd" offset="1" />
    </linearGradient>
  </defs>
  <g transform="matrix(1 0 0 1 -141 -1108 )">
    <path d="M 12.479833328125 0.8131666718749999  C 12.574051514092405 0.7156153844345019  12.703855455452715 0.6605225690112864  12.839477430988714 0.6605225690112864  C 13.11561980590411 0.6605225690112864  13.339477430988714 0.8843801940958897  13.339477430988714 1.1605225690112864  C 13.339477430988714 1.296144544547286  13.284384615565498 1.4259484859075946  13.186833328125001 1.5201666718749998  L 6.116333328125 8.590833328125  C 6.022557198973904 8.684609457276094  5.895369473672331 8.73729233806339  5.7627500000000005 8.73729233806339  C 5.486584242417855 8.73729233806339  5.262707661936609 8.513415757582145  5.262707661936609 8.23725  C 5.262707661936609 8.104630526327668  5.315390542723904 7.977442801026097  5.409166671875 7.883666671874999  L 12.479833328125 0.8133333281249999  Z M 12.333333328125 11.5  L 12.333333328125 6  C 12.333333328125 5.723857625084603  12.557190953209604 5.5  12.833333328125 5.5  C 13.109475703040397 5.5  13.333333328125 5.723857625084603  13.333333328125 6  L 13.333333328125 11.5  C 13.333333328125 12.5125  12.512500000000001 13.333333328125  11.5 13.333333328125  L 2.5 13.333333328125  C 1.4874999999999998 13.333333328125  0.6666666718750001 12.512500000000001  0.6666666718750001 11.5  L 0.6666666718750001 2.5  C 0.6666666718750001 1.4874999999999998  1.4874999999999998 0.6666666718750001  2.5 0.6666666718750001  L 7.833333328125001 0.6666666718750001  C 8.109475703040397 0.6666666718750003  8.333333328125 0.8905242969596037  8.333333328125 1.1666666718750003  C 8.333333328125 1.442809046790397  8.109475703040397 1.6666666718750003  7.833333328125001 1.6666666718750003  L 2.5 1.6666666718750003  C 2.0397627113508214 1.6666666718750003  1.6666666718749998 2.0397627113508223  1.6666666718749998 2.5000000000000004  L 1.6666666718749998 11.5  C 1.6666666718749998 11.960237288649179  2.039762711350822 12.333333328125  2.5 12.333333328125  L 11.5 12.333333328125  C 11.960237288649179 12.333333328125  12.333333328125 11.960237288649179  12.333333328125 11.5  Z " fill-rule="nonzero" fill="url(#LinearGradient1079)" stroke="none" transform="matrix(1 0 0 1 141 1108 )" />
  </g>
</svg>