<?xml version="1.0" encoding="utf-8"?>
<svg version="1.1" xmlns:xlink="http://www.w3.org/1999/xlink" width="37px" height="37px" xmlns="http://www.w3.org/2000/svg">
  <defs>
    <linearGradient gradientUnits="userSpaceOnUse" x1="18.5" y1="0" x2="18.5" y2="37" id="LinearGradient1082">
      <stop id="Stop1083" stop-color="#374ec7" offset="0" />
      <stop id="Stop1084" stop-color="#7b90fd" offset="1" />
    </linearGradient>
  </defs>
  <g transform="matrix(1 0 0 1 -26 -390 )">
    <path d="M 0.2803030160688917 18.5  C 0.2803030160688917 28.562283129705254  8.437716827592327 36.71969698393111  18.5 36.71969698393111  C 28.562283129705254 36.71969698393111  36.71969698393111 28.562283172407675  36.71969698393111 18.499999999999996  C 36.71969698393111 8.437716827592324  28.562283129705254 0.2803030160688917  18.5 0.2803030160688917  C 8.437716870294743 0.2803030160688917  0.2803030160688917 8.437716870294743  0.2803030160688917 18.5  Z M 10.284344809787237 25.349177917485488  C 10.284344809787237 24.97852922298085  10.434910970120004 24.623780951422287  10.701514204545452 24.366286931818184  L 17.133522727272727 17.933822902432528  L 17.133522727272727 10.301136363636363  C 17.133522727272727 9.54645180491872  17.74531544128235 8.934659090909092  18.5 8.934659090909092  C 19.254684558717646 8.934659090909092  19.866477272727273 9.54645180491872  19.866477272727273 10.301136363636363  L 19.866477272727273 18.5  C 19.86639987899988 18.862382685463945  19.72238139001156 19.209894875616655  19.46609943181818 19.46609943181818  L 12.63371306818182 26.298485795454546  C 12.376219048577717 26.56508902988  12.021470777019147 26.71565519021276  11.650822082514509 26.71565519021276  C 10.896137523796865 26.71565519021276  10.284344809787237 26.103862476203137  10.284344809787237 25.349177917485488  Z " fill-rule="nonzero" fill="url(#LinearGradient1082)" stroke="none" transform="matrix(1 0 0 1 26 390 )" />
  </g>
</svg>